<svg xmlns="http://www.w3.org/2000/svg" xmlns:xlink="http://www.w3.org/1999/xlink" width="108" height="108" viewBox="0 0 108 108">
  <defs>
    <filter id="Trazado_904820" x="0" y="0" width="108" height="108" filterUnits="userSpaceOnUse">
      <feOffset dy="3" input="SourceAlpha"/>
      <feGaussianBlur stdDeviation="3" result="blur"/>
      <feFlood flood-opacity="0.161"/>
      <feComposite operator="in" in2="blur"/>
      <feComposite in="SourceGraphic"/>
    </filter>
  </defs>
  <g id="img6" transform="translate(9 6)">
    <g id="Icono">
      <g transform="matrix(1, 0, 0, 1, -9, -6)" filter="url(#Trazado_904820)">
        <g id="Trazado_904820-2" data-name="Trazado 904820" transform="translate(9 6)" fill="#f3f0ea">
          <path d="M 45 88.5 C 39.12687683105469 88.5 33.43022537231445 87.35007476806641 28.06830024719238 85.08217620849609 C 22.88852500915527 82.89131164550781 18.23629951477051 79.75458526611328 14.2408504486084 75.75914764404297 C 10.24541282653809 71.76370239257812 7.108687400817871 67.11147308349609 4.917825222015381 61.93170166015625 C 2.649924993515015 56.56977462768555 1.5 50.87312316894531 1.5 45 C 1.5 39.12687683105469 2.649924993515015 33.43022537231445 4.917825222015381 28.06830024719238 C 7.108687400817871 22.88852500915527 10.24541282653809 18.23629951477051 14.2408504486084 14.2408504486084 C 18.23629951477051 10.24541282653809 22.88852500915527 7.108687400817871 28.06830024719238 4.917825222015381 C 33.43022537231445 2.649924993515015 39.12687683105469 1.5 45 1.5 C 50.87312316894531 1.5 56.56977462768555 2.649924993515015 61.93170166015625 4.917825222015381 C 67.11147308349609 7.108687400817871 71.76370239257812 10.24541282653809 75.75914764404297 14.2408504486084 C 79.75458526611328 18.23629951477051 82.89131164550781 22.88852500915527 85.08217620849609 28.06830024719238 C 87.35007476806641 33.43022537231445 88.5 39.12687683105469 88.5 45 C 88.5 50.87312316894531 87.35007476806641 56.56977462768555 85.08217620849609 61.93170166015625 C 82.89131164550781 67.11147308349609 79.75458526611328 71.76370239257812 75.75914764404297 75.75914764404297 C 71.76370239257812 79.75458526611328 67.11147308349609 82.89131164550781 61.93170166015625 85.08217620849609 C 56.56977462768555 87.35007476806641 50.87312316894531 88.5 45 88.5 Z" stroke="none"/>
          <path d="M 45 3 C 39.32871246337891 3 33.82865524291992 4.110054016113281 28.65262985229492 6.299339294433594 C 23.65165710449219 8.414573669433594 19.15968322753906 11.44334411621094 15.301513671875 15.301513671875 C 11.44334411621094 19.15968322753906 8.414573669433594 23.65165710449219 6.299339294433594 28.65262985229492 C 4.110054016113281 33.82865524291992 3 39.32871246337891 3 45 C 3 50.67128753662109 4.110054016113281 56.17134475708008 6.299339294433594 61.34737396240234 C 8.414573669433594 66.34834289550781 11.44334411621094 70.84031677246094 15.301513671875 74.698486328125 C 19.15968322753906 78.55665588378906 23.65165710449219 81.58542633056641 28.65262985229492 83.70066070556641 C 33.82865524291992 85.88994598388672 39.32871246337891 87 45 87 C 50.67128753662109 87 56.17134475708008 85.88994598388672 61.34737396240234 83.70066070556641 C 66.34834289550781 81.58542633056641 70.84031677246094 78.55665588378906 74.698486328125 74.698486328125 C 78.55665588378906 70.84031677246094 81.58542633056641 66.34834289550781 83.70066070556641 61.34737396240234 C 85.88994598388672 56.17134475708008 87 50.67128753662109 87 45 C 87 39.32871246337891 85.88994598388672 33.82865524291992 83.70066070556641 28.65262985229492 C 81.58542633056641 23.65165710449219 78.55665588378906 19.15968322753906 74.698486328125 15.301513671875 C 70.84031677246094 11.44334411621094 66.34834289550781 8.414573669433594 61.34737396240234 6.299339294433594 C 56.17134475708008 4.110054016113281 50.67128753662109 3 45 3 M 45 0 C 69.85281372070312 0 90 20.14718627929688 90 45 C 90 69.85281372070312 69.85281372070312 90 45 90 C 20.14718627929688 90 0 69.85281372070312 0 45 C 0 20.14718627929688 20.14718627929688 0 45 0 Z" stroke="none" fill="#1d531a"/>
        </g>
      </g>
    </g>
    <g id="Technician-Avatar-Occupation-Woman-Computer" transform="translate(16.394 13.381)">
      <path id="Trazado_898579" data-name="Trazado 898579" d="M34.925,28.251a3.746,3.746,0,0,1,.657,2.134A3.811,3.811,0,0,1,31.771,34.2a3.758,3.758,0,0,1-2.125-.648,3.8,3.8,0,0,1-6.45,1.258H21.291a3.8,3.8,0,0,1-6.45-1.258,3.758,3.758,0,0,1-2.125.648,3.811,3.811,0,0,1-3.811-3.811,3.746,3.746,0,0,1,.657-2.134,3.8,3.8,0,0,1,1.248-7.393,3.491,3.491,0,0,1,.953.143V18h20.96v3a3.491,3.491,0,0,1,.953-.143,3.8,3.8,0,0,1,1.248,7.393Z" transform="translate(-0.236 -0.803)" fill="#57565c"/>
      <path id="Trazado_898580" data-name="Trazado 898580" d="M19.768,47.765,18.244,39l-9.9,3.1A7.608,7.608,0,0,0,3,49.366V59.96H22.055Z" transform="translate(-0.047 -1.796)" fill="#787680"/>
      <path id="Trazado_898581" data-name="Trazado 898581" d="M36.71,42.1l-9.9-3.1-1.524,8.765L23,59.96H42.055V49.366A7.608,7.608,0,0,0,36.71,42.1Z" transform="translate(-0.992 -1.796)" fill="#787680"/>
      <rect id="Rectángulo_403067" data-name="Rectángulo 403067" width="7.171" height="15.367" transform="translate(18.392 31.457)" fill="#ffc477"/>
      <path id="Trazado_898582" data-name="Trazado 898582" d="M26.811,39l5.716,6.669-2.858,2.858,2.858,1.905L23,59.96l2.287-12.2Z" transform="translate(-0.992 -1.796)" fill="#898890"/>
      <path id="Trazado_898583" data-name="Trazado 898583" d="M20.241,47.765l2.287,12.2L13,50.433l2.858-1.905L13,45.669,18.716,39Z" transform="translate(-0.52 -1.796)" fill="#898890"/>
      <path id="Trazado_898584" data-name="Trazado 898584" d="M26.622,33v3.02a9.579,9.579,0,0,1-7.622,0V33Z" transform="translate(-0.803 -1.512)" fill="#ffb655"/>
      <path id="Trazado_898585" data-name="Trazado 898585" d="M26.051,42.62,22.841,60.131,19.63,42.62a4.243,4.243,0,0,0,3.211,1.315,4.243,4.243,0,0,0,3.211-1.315Z" transform="translate(-0.833 -1.967)" fill="#e6e7e8"/>
      <path id="Trazado_898586" data-name="Trazado 898586" d="M32.055,18v6.669a9.527,9.527,0,1,1-19.055,0V18Z" transform="translate(-0.52 -0.803)" fill="#ffc477"/>
      <path id="Trazado_898587" data-name="Trazado 898587" d="M34.771,14.953v1.905a.953.953,0,0,1-.953.953H10.953A.953.953,0,0,1,10,16.858V14.953A.953.953,0,0,1,10.953,14H33.818A.953.953,0,0,1,34.771,14.953Z" transform="translate(-0.378 -0.614)" fill="#ee8700"/>
      <path id="Trazado_898588" data-name="Trazado 898588" d="M32.96,13.527H12A9.527,9.527,0,0,1,21.527,4h1.905A9.527,9.527,0,0,1,32.96,13.527Z" transform="translate(-0.473 -0.142)" fill="#ffa733"/>
      <path id="Trazado_898589" data-name="Trazado 898589" d="M24.811,3.905v9.527H21V3.905a1.905,1.905,0,0,1,3.811,0Z" transform="translate(-0.898 -0.047)" fill="#ff9811"/>
      <path id="Trazado_898590" data-name="Trazado 898590" d="M51.433,57a1.905,1.905,0,1,1,0,3.811H41.905a1.905,1.905,0,1,1,0-3.811Z" transform="translate(-1.796 -2.647)" fill="#acabb1"/>
      <rect id="Rectángulo_403068" data-name="Rectángulo 403068" width="6.147" height="3.073" transform="translate(41.954 50.922)" fill="#c6c5ca"/>
      <path id="Trazado_898591" data-name="Trazado 898591" d="M59.677,32.905V50.055a1.911,1.911,0,0,1-1.905,1.905H34.905A1.911,1.911,0,0,1,33,50.055V32.905A1.911,1.911,0,0,1,34.905,31H57.771A1.911,1.911,0,0,1,59.677,32.905Z" transform="translate(-1.465 -1.418)" fill="#5aaae7"/>
      <path id="Trazado_898592" data-name="Trazado 898592" d="M54.244,40.669v1.905l-2.106.524a5.868,5.868,0,0,1-.572,1.381l1.115,1.858-1.343,1.343L49.48,46.567a5.868,5.868,0,0,1-1.381.572l-.524,2.106H45.669l-.524-2.106a5.868,5.868,0,0,1-1.381-.572l-1.858,1.115-1.343-1.343,1.115-1.858a5.868,5.868,0,0,1-.572-1.381L39,42.575V40.669l2.106-.524a5.868,5.868,0,0,1,.572-1.381l-1.115-1.858,1.343-1.343,1.858,1.115a5.868,5.868,0,0,1,1.381-.572L45.669,34h1.905l.524,2.106a5.868,5.868,0,0,1,1.381.572l1.858-1.115,1.343,1.343-1.115,1.858a5.868,5.868,0,0,1,.572,1.381Z" transform="translate(-1.749 -1.56)" fill="#ff9811"/>
      <ellipse id="Elipse_11537" data-name="Elipse 11537" cx="3.073" cy="2.561" rx="3.073" ry="2.561" transform="translate(41.954 37.603)" fill="#ee8700"/>
      <rect id="Rectángulo_403069" data-name="Rectángulo 403069" width="6.147" height="1.024" transform="translate(41.954 50.922)" fill="#acabb1"/>
      <path id="Trazado_898594" data-name="Trazado 898594" d="M56.306,28.629H36.194a4,4,0,0,0-.21-.753A4.753,4.753,0,0,0,33.44,19.1v-.953a1.911,1.911,0,0,0,1.905-1.905V14.338a1.911,1.911,0,0,0-1.905-1.905h-.048a10.4,10.4,0,0,0-3.02-6.46A11.248,11.248,0,0,0,28.2,4.306a10.766,10.766,0,0,0-3.458-1.239,2.842,2.842,0,0,0-5.469,0,10.766,10.766,0,0,0-3.458,1.239,10.5,10.5,0,0,0-5.173,8.127h-.067a1.911,1.911,0,0,0-1.905,1.905v1.905a1.911,1.911,0,0,0,1.905,1.905V19.1a4.753,4.753,0,0,0-2.544,8.775,4.668,4.668,0,0,0-.314,1.705,4.764,4.764,0,0,0,4.764,4.764,4.819,4.819,0,0,0,1.7-.3,4.748,4.748,0,0,0,3.068,2.106V36.5L8.012,39.386A8.539,8.539,0,0,0,2,47.57V58.164a.953.953,0,0,0,.953.953H49.637a2.858,2.858,0,1,0,0-5.716h-.953V51.5h7.622a2.867,2.867,0,0,0,2.858-2.858V31.488a2.867,2.867,0,0,0-2.858-2.858ZM36.3,23.866a2.828,2.828,0,0,1-1.925,2.677.986.986,0,0,0-.591.61.943.943,0,0,0,.124.838,2.653,2.653,0,0,1,.314.638H33.44a2.867,2.867,0,0,0-2.858,2.858v.781a2.486,2.486,0,0,1-.638-.314.953.953,0,0,0-.829-.114.986.986,0,0,0-.61.591,2.812,2.812,0,0,1-1.734,1.744v-.981a10.493,10.493,0,0,0,5.716-9.327V21.122a.778.778,0,0,0,.257-.01,2.74,2.74,0,0,1,.7-.1A2.867,2.867,0,0,1,36.3,23.866ZM26.771,36.509v-.362a4.748,4.748,0,0,0,3.068-2.106,4.737,4.737,0,0,0,.743.2V37.7Zm3.811,3.182V41.3L28.705,39.11Zm-8.575-7.25a8.588,8.588,0,0,1-8.575-8.575V18.149H30.582v5.716A8.588,8.588,0,0,1,22.008,32.44Zm2.858,1.5v3.182L24.3,40.2a3.627,3.627,0,0,1-4.592,0l-.562-3.077V33.936A10.175,10.175,0,0,0,24.866,33.936Zm0-28.906a8.6,8.6,0,0,1,1.905.686v4.811h1.905V7.021c.114.1.238.191.343.3a8.517,8.517,0,0,1,2.468,5.107H24.866ZM21.055,3.858a.953.953,0,0,1,1.905,0v8.575H21.055ZM15.338,7.012v3.516h1.905V5.716a8.774,8.774,0,0,1,1.905-.686v7.4H12.537a8.575,8.575,0,0,1,2.8-5.421Zm-4.764,7.327H33.44v1.905H10.575ZM15.51,32.431a.986.986,0,0,0-.61-.591.953.953,0,0,0-.829.114,2.773,2.773,0,0,1-1.591.486,2.867,2.867,0,0,1-2.858-2.858,2.824,2.824,0,0,1,.486-1.591.943.943,0,0,0,.124-.838.986.986,0,0,0-.591-.61,2.828,2.828,0,0,1-1.925-2.677,2.867,2.867,0,0,1,2.858-2.858,2.74,2.74,0,0,1,.7.1.778.778,0,0,0,.257.01v2.744a10.493,10.493,0,0,0,5.716,9.327v.981a2.812,2.812,0,0,1-1.734-1.744ZM10.384,57.212a4.234,4.234,0,0,0-.6-1.3,6.473,6.473,0,0,1-1.115-3.468A6.3,6.3,0,0,1,10.3,48.361L8.945,47.008a8.311,8.311,0,0,0-2.182,5.44,8.437,8.437,0,0,0,1.448,4.545,1.586,1.586,0,0,1,.114.219H3.905V47.57a6.635,6.635,0,0,1,4.678-6.364L15.31,39.1l-3.554,4.154a.953.953,0,0,0,.048,1.3l2.039,2.029-1.886,1.267a.942.942,0,0,0-.429.7,1,1,0,0,0,.276.772l7.908,7.9Zm3.592-8.422,1.886-1.267a.942.942,0,0,0,.429-.7,1,1,0,0,0-.276-.772l-2.239-2.229,3.84-4.478,2.906,15.987Zm6.174-6.174a5.812,5.812,0,0,0,3.716,0L22.008,52.839Zm6.25-3.268,3.84,4.478L28,46.055a1,1,0,0,0-.276.772.942.942,0,0,0,.429.7l1.886,1.267-6.545,6.545Zm4.183,6.822v.686l-.41-.276Zm3.649,9.737a4.392,4.392,0,0,0-.6,1.305H24.3l6.86-6.86A2.864,2.864,0,0,0,33.44,51.5h1.8a4.779,4.779,0,0,1,.1.953A6.417,6.417,0,0,1,34.231,55.906Zm3.192,1.305H35.689c.038-.076.067-.152.114-.229a8.384,8.384,0,0,0,1.448-4.535,6.525,6.525,0,0,0-.076-.953h3.887V53.4H40.11a2.839,2.839,0,0,0-2.687,3.811Zm12.214-1.905a.953.953,0,1,1,0,1.905H40.11a.953.953,0,1,1,0-1.905ZM42.968,53.4V51.5h3.811V53.4Zm14.291-4.764a.953.953,0,0,1-.953.953H33.44a.953.953,0,0,1-.953-.953V31.488a.953.953,0,0,1,.953-.953H56.306a.953.953,0,0,1,.953.953Z" transform="translate(0 0)"/>
      <path id="Trazado_898595" data-name="Trazado 898595" d="M54.427,39.7l-1.588-.4q-.1-.278-.226-.547l.842-1.4a.953.953,0,0,0-.144-1.163l-1.347-1.347a.953.953,0,0,0-1.163-.144l-1.4.842q-.269-.124-.547-.226l-.4-1.588A.953.953,0,0,0,47.527,33H45.622a.953.953,0,0,0-.924.722l-.4,1.588q-.278.1-.547.226l-1.4-.842a.953.953,0,0,0-1.163.144l-1.347,1.347a.953.953,0,0,0-.144,1.163l.842,1.4q-.124.269-.226.547l-1.588.4a.953.953,0,0,0-.722.924v1.905a.953.953,0,0,0,.722.924l1.588.4q.1.278.226.547l-.842,1.4a.953.953,0,0,0,.144,1.163l1.347,1.348a.953.953,0,0,0,1.163.144l1.4-.842q.269.124.547.226l.4,1.588a.953.953,0,0,0,.924.722h1.905a.953.953,0,0,0,.924-.722l.4-1.588q.278-.1.547-.226l1.4.842a.953.953,0,0,0,1.163-.144l1.347-1.348a.953.953,0,0,0,.144-1.163l-.842-1.4q.124-.269.226-.547l1.588-.4a.953.953,0,0,0,.722-.924V40.622A.953.953,0,0,0,54.427,39.7Zm-1.183,2.087-1.383.346a.953.953,0,0,0-.69.676,4.748,4.748,0,0,1-.476,1.143.953.953,0,0,0,.008.968l.734,1.222-.3.294L49.918,45.7a.953.953,0,0,0-.968-.008,4.747,4.747,0,0,1-1.143.476.953.953,0,0,0-.676.69l-.346,1.383h-.419l-.346-1.383a.953.953,0,0,0-.676-.69,4.748,4.748,0,0,1-1.143-.476.953.953,0,0,0-.968.008l-1.222.733-.293-.287.734-1.222a.953.953,0,0,0,.008-.968,4.747,4.747,0,0,1-.476-1.143.953.953,0,0,0-.69-.676l-1.385-.353v-.419l1.383-.346a.953.953,0,0,0,.69-.676,4.748,4.748,0,0,1,.476-1.143.953.953,0,0,0-.008-.968l-.734-1.222.3-.3,1.222.734a.953.953,0,0,0,.968.008,4.748,4.748,0,0,1,1.143-.476.953.953,0,0,0,.676-.69l.346-1.383h.419l.346,1.383a.953.953,0,0,0,.676.69,4.748,4.748,0,0,1,1.143.476.953.953,0,0,0,.968-.008l1.23-.732.3.3-.734,1.222a.953.953,0,0,0-.008.968,4.748,4.748,0,0,1,.476,1.143.953.953,0,0,0,.69.676l1.376.344Z" transform="translate(-1.701 -1.512)"/>
      <path id="Trazado_898596" data-name="Trazado 898596" d="M46.811,38a3.811,3.811,0,1,0,3.811,3.811A3.811,3.811,0,0,0,46.811,38Zm0,5.716a1.905,1.905,0,1,1,1.905-1.905A1.905,1.905,0,0,1,46.811,43.716Z" transform="translate(-1.938 -1.749)"/>
    </g>
  </g>
</svg>
