<svg xmlns="http://www.w3.org/2000/svg" xmlns:xlink="http://www.w3.org/1999/xlink" width="190" height="221" viewBox="0 0 190 221">
  <defs>
    <clipPath id="clip-path">
      <rect id="Rectángulo_408037" data-name="Rectángulo 408037" width="190" height="221" transform="translate(180 4756.001)" fill="#efe8f7"/>
    </clipPath>
    <clipPath id="clip-path-2">
      <rect id="Rectángulo_401573" data-name="Rectángulo 401573" width="28.836" height="204.001" fill="none"/>
    </clipPath>
    <clipPath id="clip-path-3">
      <rect id="Rectángulo_401572" data-name="Rectángulo 401572" width="72.283" height="384.741" fill="none"/>
    </clipPath>
    <clipPath id="clip-path-4">
      <rect id="Rectángulo_408083" data-name="Rectángulo 408083" width="106.438" height="71.666" fill="none"/>
    </clipPath>
    <clipPath id="clip-path-8">
      <rect id="Rectángulo_408056" data-name="Rectángulo 408056" width="11.406" height="8.259" fill="none"/>
    </clipPath>
    <clipPath id="clip-path-10">
      <rect id="Rectángulo_408058" data-name="Rectángulo 408058" width="10.115" height="5.668" fill="none"/>
    </clipPath>
    <clipPath id="clip-path-12">
      <rect id="Rectángulo_408062" data-name="Rectángulo 408062" width="21.098" height="9.113" fill="none"/>
    </clipPath>
    <clipPath id="clip-path-13">
      <rect id="Rectángulo_408063" data-name="Rectángulo 408063" width="3.162" height="3.164" fill="none"/>
    </clipPath>
    <clipPath id="clip-path-15">
      <rect id="Rectángulo_408036" data-name="Rectángulo 408036" width="241.603" height="296.734" fill="none"/>
    </clipPath>
    <clipPath id="clip-path-17">
      <rect id="Rectángulo_408033" data-name="Rectángulo 408033" width="24.776" height="24.535" fill="none"/>
    </clipPath>
  </defs>
  <g id="img13" transform="translate(-180 -4756.001)" clip-path="url(#clip-path)">
    <g id="Grupo_1147022" data-name="Grupo 1147022" transform="translate(180 4772.999)">
      <g id="Grupo_1099687" data-name="Grupo 1099687" clip-path="url(#clip-path-2)">
        <g id="Grupo_1099686" data-name="Grupo 1099686" transform="translate(-6.669 -80.78)" opacity="0.45" style="mix-blend-mode: multiply;isolation: isolate">
          <g id="Grupo_1099685" data-name="Grupo 1099685">
            <g id="Grupo_1099684" data-name="Grupo 1099684" clip-path="url(#clip-path-3)">
              <path id="Trazado_873516" data-name="Trazado 873516" d="M-2.3,36.479,100.228-12.1,97.977-3.859-4.548,44.721Z" transform="matrix(0.898, -0.44, 0.44, 0.898, -13.994, 294.649)" fill="#2d0464"/>
              <path id="Trazado_873517" data-name="Trazado 873517" d="M-2.3,36.48,100.228-12.1,97.977-3.859-4.548,44.721Z" transform="matrix(0.898, -0.44, 0.44, 0.898, -13.994, 270.682)" fill="#2d0464"/>
              <path id="Trazado_873518" data-name="Trazado 873518" d="M-2.3,36.48,100.228-12.1,97.977-3.859-4.548,44.721Z" transform="matrix(0.898, -0.44, 0.44, 0.898, -13.994, 246.715)" fill="#2d0464"/>
              <path id="Trazado_873519" data-name="Trazado 873519" d="M-2.3,36.48,100.228-12.1,97.977-3.859-4.548,44.721Z" transform="matrix(0.898, -0.44, 0.44, 0.898, -13.994, 222.748)" fill="#2d0464"/>
              <path id="Trazado_873520" data-name="Trazado 873520" d="M-2.3,36.48,100.228-12.1,97.977-3.859-4.548,44.721Z" transform="matrix(0.898, -0.44, 0.44, 0.898, -13.994, 198.781)" fill="#2d0464"/>
              <path id="Trazado_873521" data-name="Trazado 873521" d="M-2.3,36.48,100.228-12.1,97.977-3.859-4.548,44.721Z" transform="matrix(0.898, -0.44, 0.44, 0.898, -13.994, 174.814)" fill="#2d0464"/>
              <path id="Trazado_873522" data-name="Trazado 873522" d="M-2.3,36.48,100.228-12.1,97.977-3.859-4.548,44.721Z" transform="matrix(0.898, -0.44, 0.44, 0.898, -13.994, 150.848)" fill="#2d0464"/>
              <path id="Trazado_873523" data-name="Trazado 873523" d="M-2.3,36.48,100.228-12.1,97.977-3.859-4.548,44.721Z" transform="matrix(0.898, -0.44, 0.44, 0.898, -13.994, 126.881)" fill="#2d0464"/>
              <path id="Trazado_873524" data-name="Trazado 873524" d="M-2.3,36.48,100.228-12.1,97.977-3.859-4.548,44.721Z" transform="matrix(0.898, -0.44, 0.44, 0.898, -13.994, 102.915)" fill="#2d0464"/>
              <path id="Trazado_873525" data-name="Trazado 873525" d="M-2.3,36.48,100.228-12.1,97.977-3.859-4.548,44.721Z" transform="matrix(0.898, -0.44, 0.44, 0.898, -13.994, 78.948)" fill="#2d0464"/>
              <path id="Trazado_873526" data-name="Trazado 873526" d="M-2.3,36.48,100.228-12.1,97.977-3.859-4.548,44.721Z" transform="translate(-13.994 54.981) rotate(-26.114)" fill="#2d0464"/>
            </g>
          </g>
        </g>
      </g>
      <rect id="Rectángulo_401574" data-name="Rectángulo 401574" width="161" height="204" transform="translate(29 0.002)" fill="#efe8f7"/>
    </g>
    <g id="Grupo_1147795" data-name="Grupo 1147795" transform="translate(180 4760)">
      <g id="Grupo_1147796" data-name="Grupo 1147796" transform="translate(78 -4.001)">
        <g id="Grupo_1147820" data-name="Grupo 1147820" clip-path="url(#clip-path-4)">
          <rect id="Rectángulo_408038" data-name="Rectángulo 408038" width="99.235" height="71.483" transform="translate(0.091 0.092)" fill="#fff"/>
          <g id="Grupo_1147797" data-name="Grupo 1147797">
            <g id="Grupo_1147796-2" data-name="Grupo 1147796" clip-path="url(#clip-path-4)">
              <rect id="Rectángulo_408039" data-name="Rectángulo 408039" width="99.235" height="71.483" transform="translate(0.091 0.091)" fill="none" stroke="#c7c7c7" stroke-miterlimit="10" stroke-width="0.5"/>
            </g>
          </g>
          <rect id="Rectángulo_408041" data-name="Rectángulo 408041" width="99.235" height="3.265" transform="translate(0.091 0.092)" fill="#37474f"/>
          <g id="Grupo_1147799" data-name="Grupo 1147799">
            <g id="Grupo_1147798" data-name="Grupo 1147798" clip-path="url(#clip-path-4)">
              <path id="Trazado_916876" data-name="Trazado 916876" d="M4.546,3.317a.81.81,0,1,1-.81-.81.81.81,0,0,1,.81.81" transform="translate(-1.859 -1.593)" fill="#c7c7c7"/>
              <path id="Trazado_916877" data-name="Trazado 916877" d="M13.615,3.317a.81.81,0,1,1-.81-.81.81.81,0,0,1,.81.81" transform="translate(-7.621 -1.593)" fill="#fff"/>
              <path id="Trazado_916878" data-name="Trazado 916878" d="M22.684,3.317a.81.81,0,1,1-.81-.81.81.81,0,0,1,.81.81" transform="translate(-13.384 -1.593)" fill="#ffc727"/>
            </g>
          </g>
          <path id="Trazado_916879" data-name="Trazado 916879" d="M188.319,52.409l-18.281,5.66L162.772,34.6l13.574-4.2,6.092,3.014Z" transform="translate(-103.424 -19.315)" fill="#ebebeb"/>
          <path id="Trazado_916880" data-name="Trazado 916880" d="M200,30.4l6.092,3.014-4.707,1.458Z" transform="translate(-127.078 -19.315)" fill="#dbdbdb"/>
          <rect id="Rectángulo_408043" data-name="Rectángulo 408043" width="10.64" height="0.631" transform="translate(62.351 18.672) rotate(-17.204)" fill="#dbdbdb"/>
          <rect id="Rectángulo_408044" data-name="Rectángulo 408044" width="10.64" height="0.631" transform="translate(62.822 20.193) rotate(-17.204)" fill="#dbdbdb"/>
          <rect id="Rectángulo_408045" data-name="Rectángulo 408045" width="10.64" height="0.631" transform="translate(63.293 21.714) rotate(-17.204)" fill="#dbdbdb"/>
          <rect id="Rectángulo_408046" data-name="Rectángulo 408046" width="15.589" height="0.631" transform="translate(63.764 23.235) rotate(-17.203)" fill="#dbdbdb"/>
          <rect id="Rectángulo_408047" data-name="Rectángulo 408047" width="15.589" height="0.631" transform="translate(64.235 24.756) rotate(-17.203)" fill="#dbdbdb"/>
          <rect id="Rectángulo_408048" data-name="Rectángulo 408048" width="15.589" height="0.631" transform="translate(64.706 26.276) rotate(-17.203)" fill="#dbdbdb"/>
          <rect id="Rectángulo_408049" data-name="Rectángulo 408049" width="15.589" height="0.631" transform="translate(65.177 27.798) rotate(-17.203)" fill="#dbdbdb"/>
          <rect id="Rectángulo_408050" data-name="Rectángulo 408050" width="15.589" height="0.631" transform="translate(65.648 29.318) rotate(-17.203)" fill="#dbdbdb"/>
          <rect id="Rectángulo_408051" data-name="Rectángulo 408051" width="15.589" height="0.631" transform="translate(66.119 30.839) rotate(-17.204)" fill="#dbdbdb"/>
          <rect id="Rectángulo_408052" data-name="Rectángulo 408052" width="15.589" height="0.631" transform="translate(66.59 32.36) rotate(-17.203)" fill="#dbdbdb"/>
          <rect id="Rectángulo_408053" data-name="Rectángulo 408053" width="15.589" height="0.631" transform="translate(67.06 33.881) rotate(-17.204)" fill="#dbdbdb"/>
          <rect id="Rectángulo_408054" data-name="Rectángulo 408054" width="15.589" height="0.631" transform="translate(67.531 35.402) rotate(-17.204)" fill="#dbdbdb"/>
          <rect id="Rectángulo_408055" data-name="Rectángulo 408055" width="20.528" height="17.414" transform="translate(82.698 31.142) rotate(-12.176)" fill="#ffc727"/>
          <path id="Trazado_916881" data-name="Trazado 916881" d="M257.806,99.464,269.212,97l-7.22-5.8Z" transform="translate(-163.807 -57.951)" fill="#ffc727"/>
          <g id="Grupo_1147804" data-name="Grupo 1147804">
            <g id="Grupo_1147803" data-name="Grupo 1147803" clip-path="url(#clip-path-4)">
              <g id="Grupo_1147802" data-name="Grupo 1147802" transform="translate(93.999 33.254)" opacity="0.3">
                <g id="Grupo_1147801" data-name="Grupo 1147801">
                  <g id="Grupo_1147800" data-name="Grupo 1147800" clip-path="url(#clip-path-8)">
                    <path id="Trazado_916882" data-name="Trazado 916882" d="M257.806,99.464,269.212,97l-7.22-5.8Z" transform="translate(-257.806 -91.205)" fill="#fff"/>
                  </g>
                </g>
              </g>
            </g>
          </g>
          <path id="Trazado_916883" data-name="Trazado 916883" d="M242.408,107.319l10.115-2.183-6.045-3.486Z" transform="translate(-154.023 -64.588)" fill="#ffc727"/>
          <g id="Grupo_1147809" data-name="Grupo 1147809">
            <g id="Grupo_1147808" data-name="Grupo 1147808" clip-path="url(#clip-path-4)">
              <g id="Grupo_1147807" data-name="Grupo 1147807" transform="translate(88.385 37.063)" opacity="0.5">
                <g id="Grupo_1147806" data-name="Grupo 1147806">
                  <g id="Grupo_1147805" data-name="Grupo 1147805" clip-path="url(#clip-path-10)">
                    <path id="Trazado_916884" data-name="Trazado 916884" d="M242.408,107.319l10.115-2.183-6.045-3.486Z" transform="translate(-242.408 -101.651)" fill="#fff"/>
                  </g>
                </g>
              </g>
            </g>
          </g>
          <rect id="Rectángulo_408060" data-name="Rectángulo 408060" width="20.528" height="4.894" transform="translate(85.339 43.381) rotate(-12.171)" fill="#ffc727"/>
          <g id="Grupo_1147817" data-name="Grupo 1147817">
            <g id="Grupo_1147816" data-name="Grupo 1147816" clip-path="url(#clip-path-4)">
              <g id="Grupo_1147812" data-name="Grupo 1147812" transform="translate(85.339 39.052)" opacity="0.5">
                <g id="Grupo_1147811" data-name="Grupo 1147811">
                  <g id="Grupo_1147810" data-name="Grupo 1147810" clip-path="url(#clip-path-12)">
                    <rect id="Rectángulo_408061" data-name="Rectángulo 408061" width="20.528" height="4.894" transform="translate(0 4.329) rotate(-12.175)" fill="#fff"/>
                  </g>
                </g>
              </g>
              <g id="Grupo_1147815" data-name="Grupo 1147815" transform="translate(86.156 34.234)" opacity="0.9">
                <g id="Grupo_1147814" data-name="Grupo 1147814">
                  <g id="Grupo_1147813" data-name="Grupo 1147813" clip-path="url(#clip-path-13)">
                    <path id="Trazado_916885" data-name="Trazado 916885" d="M237.9,97.056a1.582,1.582,0,1,0-1.476-.952,1.583,1.583,0,0,0,1.476.952" transform="translate(-236.298 -93.892)" fill="#fff"/>
                  </g>
                </g>
              </g>
            </g>
          </g>
          <g id="Grupo_1147819" data-name="Grupo 1147819">
            <g id="Grupo_1147818" data-name="Grupo 1147818" clip-path="url(#clip-path-4)">
              <path id="Trazado_916886" data-name="Trazado 916886" d="M75.021,65.789a5.759,5.759,0,0,0,5.33,5.742v.016h32.613a6.768,6.768,0,0,0,.633-13.507,11.4,11.4,0,0,0-22.1-3.566,6.682,6.682,0,0,0-3.026-.716,6.766,6.766,0,0,0-6.755,6.349,5.682,5.682,0,0,0-.936-.077,5.759,5.759,0,0,0-5.758,5.758" transform="translate(-47.668 -29.867)" fill="#ffc727"/>
              <rect id="Rectángulo_408065" data-name="Rectángulo 408065" width="6.999" height="8.381" transform="translate(46.209 33.299)" fill="#fff"/>
              <path id="Trazado_916887" data-name="Trazado 916887" d="M120.725,83.052h11.382l-5.691-6.684Z" transform="translate(-76.707 -48.524)" fill="#fff"/>
              <rect id="Rectángulo_408066" data-name="Rectángulo 408066" width="38.028" height="2.8" transform="translate(30.695 50.256)" fill="#ebebeb"/>
              <rect id="Rectángulo_408067" data-name="Rectángulo 408067" width="1.047" height="2.086" transform="translate(31.049 50.613)" fill="#ffc727"/>
              <rect id="Rectángulo_408068" data-name="Rectángulo 408068" width="1.047" height="2.086" transform="translate(32.383 50.613)" fill="#ffc727"/>
              <rect id="Rectángulo_408069" data-name="Rectángulo 408069" width="1.047" height="2.086" transform="translate(33.716 50.613)" fill="#ffc727"/>
              <rect id="Rectángulo_408070" data-name="Rectángulo 408070" width="1.047" height="2.086" transform="translate(35.05 50.613)" fill="#ffc727"/>
              <rect id="Rectángulo_408071" data-name="Rectángulo 408071" width="1.047" height="2.086" transform="translate(36.384 50.613)" fill="#ffc727"/>
              <rect id="Rectángulo_408072" data-name="Rectángulo 408072" width="1.047" height="2.086" transform="translate(37.718 50.613)" fill="#ffc727"/>
              <rect id="Rectángulo_408073" data-name="Rectángulo 408073" width="1.047" height="2.086" transform="translate(39.051 50.613)" fill="#ffc727"/>
              <rect id="Rectángulo_408074" data-name="Rectángulo 408074" width="1.047" height="2.086" transform="translate(40.385 50.613)" fill="#ffc727"/>
              <rect id="Rectángulo_408075" data-name="Rectángulo 408075" width="1.047" height="2.086" transform="translate(41.719 50.613)" fill="#ffc727"/>
              <rect id="Rectángulo_408076" data-name="Rectángulo 408076" width="1.047" height="2.086" transform="translate(43.052 50.613)" fill="#ffc727"/>
              <rect id="Rectángulo_408077" data-name="Rectángulo 408077" width="1.047" height="2.086" transform="translate(44.386 50.613)" fill="#ffc727"/>
              <rect id="Rectángulo_408078" data-name="Rectángulo 408078" width="1.047" height="2.086" transform="translate(45.72 50.613)" fill="#ffc727"/>
              <rect id="Rectángulo_408079" data-name="Rectángulo 408079" width="1.047" height="2.086" transform="translate(47.054 50.613)" fill="#ffc727"/>
              <rect id="Rectángulo_408080" data-name="Rectángulo 408080" width="1.047" height="2.086" transform="translate(48.387 50.613)" fill="#ffc727"/>
              <rect id="Rectángulo_408081" data-name="Rectángulo 408081" width="1.047" height="2.086" transform="translate(49.721 50.613)" fill="#ffc727"/>
              <path id="Trazado_916888" data-name="Trazado 916888" d="M122.433,129.749a.66.66,0,0,1-.661-.661v-.814a.124.124,0,0,1,.126-.126.127.127,0,0,1,.128.126v.814a.407.407,0,1,0,.814,0v-.814a.126.126,0,0,1,.128-.126.124.124,0,0,1,.125.126v.814a.661.661,0,0,1-.661.661" transform="translate(-77.373 -81.424)" fill="#263238"/>
              <path id="Trazado_916889" data-name="Trazado 916889" d="M127.409,129.127h-.281v.5a.127.127,0,0,1-.254,0v-1.349a.125.125,0,0,1,.126-.126h.409a.489.489,0,1,1,0,.979m-.281-.254h.281a.236.236,0,1,0,0-.471h-.281Z" transform="translate(-80.614 -81.424)" fill="#263238"/>
              <path id="Trazado_916890" data-name="Trazado 916890" d="M130.532,129.623v-1.349a.126.126,0,0,1,.126-.126.127.127,0,0,1,.128.126v1.221h.62a.127.127,0,0,1,0,.254h-.748a.126.126,0,0,1-.126-.126" transform="translate(-82.939 -81.424)" fill="#263238"/>
              <path id="Trazado_916891" data-name="Trazado 916891" d="M134.953,128.268a.841.841,0,0,1,0,1.157.751.751,0,0,1-.547.245.773.773,0,0,1-.56-.245.853.853,0,0,1,0-1.157.763.763,0,0,1,.56-.245.742.742,0,0,1,.547.245m-.03.579a.594.594,0,0,0-.155-.4.494.494,0,0,0-.732,0,.581.581,0,0,0-.156.4.571.571,0,0,0,.156.4.489.489,0,0,0,.732,0,.584.584,0,0,0,.155-.4" transform="translate(-84.901 -81.344)" fill="#263238"/>
              <path id="Trazado_916892" data-name="Trazado 916892" d="M139.544,129.376h-.556l-.112.3a.129.129,0,0,1-.119.08.137.137,0,0,1-.043-.007.13.13,0,0,1-.076-.165l.505-1.347a.128.128,0,0,1,.121-.08.125.125,0,0,1,.121.08l.505,1.347a.13.13,0,0,1-.075.165.127.127,0,0,1-.043.007.124.124,0,0,1-.117-.08Zm-.094-.252-.185-.492-.185.492Z" transform="translate(-88.085 -81.428)" fill="#263238"/>
              <path id="Trazado_916893" data-name="Trazado 916893" d="M142.95,129.623v-1.349a.124.124,0,0,1,.126-.126h.27a.8.8,0,0,1,0,1.6h-.27a.126.126,0,0,1-.126-.126m.254-.128h.142a.547.547,0,0,0,0-1.093H143.2Z" transform="translate(-90.829 -81.424)" fill="#263238"/>
              <path id="Trazado_916894" data-name="Trazado 916894" d="M147.243,131.648a.173.173,0,0,1,.171.171.171.171,0,0,1-.171.17.169.169,0,0,1-.169-.17.171.171,0,0,1,.169-.171" transform="translate(-93.449 -83.648)" fill="#263238"/>
              <path id="Trazado_916895" data-name="Trazado 916895" d="M148.686,131.648a.173.173,0,0,1,.171.171.171.171,0,0,1-.171.17.169.169,0,0,1-.169-.17.171.171,0,0,1,.169-.171" transform="translate(-94.366 -83.648)" fill="#263238"/>
              <path id="Trazado_916896" data-name="Trazado 916896" d="M150.129,131.648a.173.173,0,0,1,.171.171.171.171,0,0,1-.171.17.169.169,0,0,1-.169-.17.171.171,0,0,1,.169-.171" transform="translate(-95.283 -83.648)" fill="#263238"/>
            </g>
          </g>
        </g>
      </g>
      <g id="Grupo_1147794" data-name="Grupo 1147794" clip-path="url(#clip-path-15)">
        <path id="Trazado_916775" data-name="Trazado 916775" d="M116.179,172.055l2.72,16.31,18.424,110.959h2.971L126.9,188.365l-1.98-16.31Z" transform="translate(-3.057 -4.527)" fill="#dbdbdb"/>
        <path id="Trazado_916776" data-name="Trazado 916776" d="M124.915,172.055h-8.737l2.72,16.31h8Z" transform="translate(-3.057 -4.527)" fill="#a6a6a6"/>
        <path id="Trazado_916777" data-name="Trazado 916777" d="M56.757,299.325h2.97L78.151,188.365l2.72-16.31H72.134l-1.979,16.31Z" transform="translate(-1.493 -4.527)" fill="#dbdbdb"/>
        <path id="Trazado_916778" data-name="Trazado 916778" d="M72.5,172.055l-1.98,16.31h8l2.72-16.31Z" transform="translate(-1.856 -4.527)" fill="#a6a6a6"/>
        <path id="Trazado_916779" data-name="Trazado 916779" d="M15.378,172.055l-1.98,16.31L0,299.325H2.97L21.394,188.365l2.72-16.31Z" transform="translate(0 -4.527)" fill="#dbdbdb"/>
        <path id="Trazado_916780" data-name="Trazado 916780" d="M13.76,188.365h8l2.72-16.31H15.739Z" transform="translate(-0.362 -4.527)" fill="#a6a6a6"/>
        <path id="Trazado_916781" data-name="Trazado 916781" d="M4.837,176.871H139.845V162.645H89.3L72.32,63.821H9.984Z" transform="translate(-0.127 -1.679)" fill="#dbdbdb"/>
        <path id="Trazado_916782" data-name="Trazado 916782" d="M4.837,176.871H12.2l4.8-113.05H9.984Z" transform="translate(-0.127 -1.679)" fill="#a6a6a6"/>
        <g id="Grupo_1147793" data-name="Grupo 1147793">
          <g id="Grupo_1147792" data-name="Grupo 1147792" clip-path="url(#clip-path-15)">
            <path id="Trazado_916783" data-name="Trazado 916783" d="M141.255,302.264c-2.443.23-68.933-15.679-71.026-17.838-.256-.24,1.057-6.283,2.986-14.523l.038-.163c1.2-5.225,20.621-47.471,20.621-47.471l43.093,12.063-19.624,39.2s8.107,5.865,15.057,11.433c.007.012.017.014.015.023a95.145,95.145,0,0,1,8.777,7.486c2.033,2.6,2.5,9.583.062,9.794" transform="translate(-1.847 -5.849)" fill="#d3766a"/>
            <path id="Trazado_916784" data-name="Trazado 916784" d="M141.252,303.079c-2.436.233-68.925-15.678-71.027-17.833-.254-.244,1.063-6.28,2.99-14.526l.039-.157c.442-1.946,3.434-9.048,6.994-17.184,7.092,1.915,32.514,8.81,41.748,11.676l-4.647,9.291s8.1,5.869,15.056,11.434c0,.01.01.01.01.019a95.838,95.838,0,0,1,8.779,7.485c2.033,2.6,2.5,9.592.058,9.794" transform="translate(-1.847 -6.667)" fill="#fff"/>
            <path id="Trazado_916785" data-name="Trazado 916785" d="M141.469,303.655c-2.512.215-69.048-15.877-71.2-18.094-.82-.836.663-11.337,4.318-22.46l42.883,10.425s21.889,17.364,23.986,20.049,2.523,9.863.011,10.08" transform="translate(-1.843 -6.923)" fill="#ffc727"/>
            <path id="Trazado_916786" data-name="Trazado 916786" d="M141.26,301.347c-11.087-2.972-56.086-13.909-67.271-16-.092-.017-.106.045-.018.07,10.926,3.185,56.011,13.759,67.245,16.117.238.05.278-.121.044-.183" transform="translate(-1.945 -7.508)" fill="#263238"/>
            <path id="Trazado_916787" data-name="Trazado 916787" d="M139.283,290.869a9.214,9.214,0,0,0-7.331,1.11,8.927,8.927,0,0,0-3.933,5.352c-.015.066.108.1.134.032a10.651,10.651,0,0,1,11.1-6.354.072.072,0,0,0,.033-.14" transform="translate(-3.369 -7.645)" fill="#263238"/>
            <path id="Trazado_916788" data-name="Trazado 916788" d="M121.7,275.81c-4.449-1.141-10.006-.818-13.663,2.163-.142.115.024.314.173.278a63.536,63.536,0,0,1,13.433-1.873.289.289,0,0,0,.056-.568" transform="translate(-2.841 -7.241)" fill="#263238"/>
            <path id="Trazado_916789" data-name="Trazado 916789" d="M124.9,278.045c-4.449-1.142-10.006-.818-13.664,2.163-.141.116.025.314.174.278a63.466,63.466,0,0,1,13.434-1.872.289.289,0,0,0,.055-.569" transform="translate(-2.926 -7.3)" fill="#263238"/>
            <path id="Trazado_916790" data-name="Trazado 916790" d="M128.11,280.281c-4.449-1.142-10.007-.818-13.664,2.163-.141.115.025.314.174.278a63.53,63.53,0,0,1,13.434-1.873.289.289,0,0,0,.055-.568" transform="translate(-3.01 -7.359)" fill="#263238"/>
            <path id="Trazado_916791" data-name="Trazado 916791" d="M131.316,282.517c-4.45-1.142-10.006-.818-13.663,2.163-.142.115.024.314.173.278a63.463,63.463,0,0,1,13.433-1.872.289.289,0,0,0,.056-.569" transform="translate(-3.094 -7.418)" fill="#263238"/>
            <path id="Trazado_916792" data-name="Trazado 916792" d="M79.41,275.166c-5.013-1.2-6.881,6.591-1.86,7.789s6.88-6.591,1.86-7.789" transform="translate(-1.963 -7.237)" fill="#263238"/>
            <path id="Trazado_916793" data-name="Trazado 916793" d="M129.61,264.752c-1.806-2.421-5.1-1.277-6.96.331a24.1,24.1,0,0,0-6.818,10.434.121.121,0,0,0,.108.162.561.561,0,0,0,.716.555c3.711-1.43,7.855-2.5,11.015-5.024,1.845-1.475,3.647-4.168,1.939-6.457m-7.772,8.163c-1.807.748-3.641,1.4-5.421,2.216a72.2,72.2,0,0,1,4.116-6.007,25.788,25.788,0,0,1,2.359-2.616c1.326-1.24,6.61-3.912,5.88,1.053-.4,2.737-4.78,4.463-6.935,5.354" transform="translate(-3.048 -6.93)" fill="#263238"/>
            <path id="Trazado_916794" data-name="Trazado 916794" d="M103.927,274.576c3.742,1.537,8.019,1.4,11.981,1.731a.56.56,0,0,0,.532-.732.122.122,0,0,0,.059-.186,24.109,24.109,0,0,0-9.472-8.1c-2.24-1.02-5.718-1.195-6.773,1.636-1,2.677,1.488,4.755,3.673,5.653m-2.081-3.193c-2.094-4.56,3.727-3.478,5.348-2.66a25.963,25.963,0,0,1,3,1.849,72.344,72.344,0,0,1,5.636,4.61c-1.937-.282-3.879-.4-5.825-.606-2.317-.251-7-.68-8.158-3.194" transform="translate(-2.632 -7.015)" fill="#263238"/>
            <path id="Trazado_916795" data-name="Trazado 916795" d="M121.124,266.869,74.956,253.022s38.054-79.307,36.854-83.341c-.8-2.7-57.859-2.881-74.58-17.9-17.308-15.543-3.832-46.07-3.832-46.07l47.972-.247s-.824,10.013,1.009,11.57c1.208,1.038,66.8,6.809,79.356,30.924,11.4,21.888-40.61,118.907-40.61,118.907" transform="translate(-0.747 -2.775)" fill="#263238"/>
            <path id="Trazado_916796" data-name="Trazado 916796" d="M112.42,169.68c.207.68-.719,3.531-2.41,7.792l34.479,42.361c12.3-28.03,23.855-60.354,17.854-71.868C149.779,123.852,84.2,118.077,82.98,117.04c-1.822-1.555-1-11.573-1-11.573l-30.449.157,50.605,62.158c6.094.672,10.078,1.2,10.285,1.9" transform="translate(-1.356 -2.775)" fill="#263238"/>
            <path id="Trazado_916797" data-name="Trazado 916797" d="M123.693,260.883a28.6,28.6,0,0,0-3.764-1.4c-1.331-.453-2.663-.91-4-1.341-2.635-.848-5.279-1.659-7.941-2.411-5.362-1.516-10.733-3-16.134-4.376-2.815-.716-8.846-2.277-9.221-2.219-.18.027-.219.328-.059.386,5.219,1.868,10.518,3.467,15.817,5.084s10.59,3.207,15.953,4.561c1.485.375,2.979.708,4.469,1.065a33.544,33.544,0,0,0,4.746,1.017c.155.015.306-.281.137-.366" transform="translate(-2.17 -6.556)" fill="#455a64"/>
            <path id="Trazado_916798" data-name="Trazado 916798" d="M36.168,114.974c.148-1.6.327-3.2.509-4.8.02-.185.311-.183.292.006-.64,6.487-1.3,13.128-.1,19.593A27.937,27.937,0,0,0,45.435,145.3c9.518,8.876,22.825,11.489,35.224,13.6,7.1,1.208,14.247,2.137,21.416,2.841q5.268.516,10.551.844c3.491.217,6.988.251,10.477.445,1.1.061,2.086.566,1.914,1.825a8.785,8.785,0,0,1-.839,2.2c-.371.849-.748,1.7-1.122,2.543q-2.1,4.753-4.226,9.494-4.38,9.771-8.886,19.485Q101,217.869,91.392,236.84,90.2,239.195,89,241.546c-.052.1-.2.009-.151-.092q9.179-19.21,18.135-38.528,4.439-9.591,8.852-19.191,2.194-4.805,4.363-9.622,1.084-2.408,2.163-4.82.539-1.2,1.076-2.412c.3-.668,1.384-2.27.635-2.895-.5-.417-1.539-.274-2.139-.291-.928-.026-1.856-.061-2.784-.092q-2.644-.089-5.286-.219-5.353-.269-10.694-.731c-6.974-.6-13.925-1.488-20.835-2.6-12.322-1.982-25.722-4.219-35.583-12.49a29.644,29.644,0,0,1-9.459-13.794c-1.881-6.062-1.7-12.545-1.124-18.8" transform="translate(-0.941 -2.896)" fill="#455a64"/>
            <path id="Trazado_916799" data-name="Trazado 916799" d="M244.728,240.749c-1.735,1.735-63.095,31.884-66.084,31.555-.35-.021-3.193-5.513-6.962-13.091l-.074-.149c-2.405-4.792-24.233-45.106-24.233-45.106L185.55,194.63l22.434,39.233s9.985-.652,18.89-.8c.013,0,.021,0,.026.009a95.251,95.251,0,0,1,11.534.167c3.222.7,8.037,5.788,6.294,7.505" transform="translate(-3.878 -5.121)" fill="#d3766a"/>
            <path id="Trazado_916800" data-name="Trazado 916800" d="M245.144,241.507c-1.736,1.734-63.095,31.887-66.089,31.556-.347-.016-3.191-5.513-6.959-13.084l-.073-.149c-.167-.333-.34-.674-.521-1.011-.119-.247-.245-.49-.382-.728-.181-.358-.377-.72-.572-1.082-1.663-3.152-4.393-8.252-7.4-13.836l38.925-19.618,6.326,11.068s9.983-.648,18.889-.8c.014,0,.022,0,.026.008a95.93,95.93,0,0,1,11.53.168c3.221.709,8.045,5.786,6.3,7.5" transform="translate(-4.293 -5.883)" fill="#fff"/>
            <path id="Trazado_916801" data-name="Trazado 916801" d="M245.647,241.883c-1.8,1.768-63.31,31.805-66.38,31.47-1.165-.122-6.718-9.156-11-20.055L207.95,233.98s27.934-.584,31.261.146,8.233,5.989,6.436,7.757" transform="translate(-4.428 -6.151)" fill="#ffc727"/>
            <path id="Trazado_916802" data-name="Trazado 916802" d="M243.921,240.017c-10.435,4.782-52.071,25.054-62.023,30.575-.081.044-.053.1.032.064,10.446-4.514,51.917-25.123,62.073-30.471.214-.113.137-.27-.083-.168" transform="translate(-4.785 -6.315)" fill="#263238"/>
            <path id="Trazado_916803" data-name="Trazado 916803" d="M235.809,233.848a9.216,9.216,0,0,0-4.939,5.531,8.93,8.93,0,0,0,.384,6.631c.032.059.146.006.125-.061a10.651,10.651,0,0,1,4.494-11.971.072.072,0,0,0-.063-.129" transform="translate(-6.063 -6.153)" fill="#263238"/>
            <path id="Trazado_916804" data-name="Trazado 916804" d="M212.615,233.424c-4.156,1.958-8.229,5.752-9.145,10.38-.035.179.22.227.312.1a63.483,63.483,0,0,1,9.153-10.01.289.289,0,0,0-.319-.473" transform="translate(-5.354 -6.141)" fill="#263238"/>
            <path id="Trazado_916805" data-name="Trazado 916805" d="M216.51,233.1c-4.155,1.958-8.229,5.752-9.145,10.38-.035.179.22.227.312.1a63.519,63.519,0,0,1,9.153-10.01.289.289,0,0,0-.319-.473" transform="translate(-5.456 -6.133)" fill="#263238"/>
            <path id="Trazado_916806" data-name="Trazado 916806" d="M220.406,232.78c-4.156,1.958-8.229,5.752-9.145,10.379-.036.179.219.227.312.1a63.472,63.472,0,0,1,9.153-10.009.289.289,0,0,0-.319-.473" transform="translate(-5.559 -6.124)" fill="#263238"/>
            <path id="Trazado_916807" data-name="Trazado 916807" d="M224.3,232.458c-4.155,1.958-8.229,5.752-9.145,10.379-.036.18.219.228.312.1a63.517,63.517,0,0,1,9.153-10.009.289.289,0,0,0-.319-.473" transform="translate(-5.661 -6.116)" fill="#263238"/>
            <path id="Trazado_916808" data-name="Trazado 916808" d="M179.626,260.031c-4.624,2.275-1.1,9.464,3.534,7.186s1.1-9.464-3.534-7.186" transform="translate(-4.67 -6.831)" fill="#263238"/>
            <path id="Trazado_916809" data-name="Trazado 916809" d="M211.773,219.875c-2.935-.712-4.74,2.266-5.15,4.693a24.11,24.11,0,0,0,1.4,12.385.122.122,0,0,0,.187.056.561.561,0,0,0,.9-.029c1.946-3.468,4.457-6.934,5.28-10.895.481-2.312.151-5.536-2.625-6.21m-.78,11.244c-.915,1.728-1.91,3.4-2.761,5.163a71.947,71.947,0,0,1-.661-7.251,26.073,26.073,0,0,1,.148-3.52c.231-1.8,2.6-7.229,5.2-2.939,1.436,2.364-.835,6.486-1.926,8.546" transform="translate(-5.43 -5.783)" fill="#263238"/>
            <path id="Trazado_916810" data-name="Trazado 916810" d="M198.13,243.907c3.863-1.2,7.07-4.036,10.333-6.308a.56.56,0,0,0-.058-.9.12.12,0,0,0-.072-.18,24.1,24.1,0,0,0-12.463-.2c-2.376.643-5.166,2.727-4.174,5.579.94,2.7,4.18,2.715,6.435,2.013m-3.639-1.132c-4.521-2.177.652-5.056,2.423-5.46a26,26,0,0,1,3.49-.488,72.36,72.36,0,0,1,7.281-.043c-1.672,1.018-3.241,2.169-4.873,3.248-1.945,1.285-5.828,3.943-8.32,2.743" transform="translate(-5.039 -6.199)" fill="#263238"/>
            <path id="Trazado_916811" data-name="Trazado 916811" d="M204.457,225.176l-46.032,23s-35.929-73.05-39.872-77.757c-5.255-6.274-73.7,2.587-89.841-17.677-16.7-20.958-2.39-46.985-2.39-46.985l52.1-.032s.154,5.779-2.85,14.228c0,0,59.576-3.545,76.433,12.842,12.94,12.578,52.453,92.38,52.453,92.38" transform="translate(-0.542 -2.782)" fill="#263238"/>
            <path id="Trazado_916812" data-name="Trazado 916812" d="M67.3,125.526a89.72,89.72,0,0,1,8.288-5.063,34.327,34.327,0,0,1,6.277-2.536c1.519-.368,2.185-.479.759.194-.816.386-2.379,1.129-3.831,1.821.274-.009.545-.018.807-.031,1.023-.053,2.049-.088,3.073-.114,2-.052,4.008-.039,6.011-.051,4.067-.024,8.091.361,12.147.564a.084.084,0,0,1,0,.167c-4.047-.132-8.113.083-12.162.066-2.006-.008-4.007.05-6.012.087q-1.469.028-2.938.053a23.571,23.571,0,0,1-2.489,0l-1.116.529c-2.945,1.389-5.885,2.839-8.722,4.437-.084.048-.171-.068-.089-.125" transform="translate(-1.77 -3.095)" fill="#455a64"/>
            <path id="Trazado_916813" data-name="Trazado 916813" d="M81.056,103.72c-.529,2.459-.983,4.933-1.6,7.372-.283,1.119-.561,2.257-.943,3.347-.323.919-.824,1.974-1.867,2.211-1.2.275-1.583-.751-1.519-1.754.073-1.119.32-2.247.5-3.352.212-1.274.425-2.547.613-3.826.093-.639.192-1.277.278-1.918.021-.161.1-1.382.174-1.733.012.029.031.057.069.051l.042-.008a.083.083,0,0,0,.072-.065c.01-.1.008-.116-.067-.181a.093.093,0,0,0-.111,0c-.227.134-.233.453-.3.688-.176.624-.356,1.246-.515,1.874-.3,1.175-.587,2.353-.844,3.537s-.5,2.369-.755,3.554a5.512,5.512,0,0,0-.144,2.717,2.066,2.066,0,0,0,1.967,1.494c-.04.082-.087.159-.121.242-.1.243-.167.5-.25.751s-.16.51-.224.771a2.373,2.373,0,0,0-.057.379c-.011.142.022.278.01.421a.2.2,0,0,0,.382.124c.06-.128.15-.226.217-.349a2.276,2.276,0,0,0,.161-.414c.074-.246.136-.493.19-.744s.121-.5.159-.75c.022-.15.022-.3.03-.452a2.786,2.786,0,0,0,1.387-.581,4.709,4.709,0,0,0,1.382-2.276c.334-1.027.583-2.087.833-3.137A45.681,45.681,0,0,0,81.5,103.8a.226.226,0,0,0-.444-.082" transform="translate(-1.948 -2.725)" fill="#455a64"/>
            <path id="Trazado_916814" data-name="Trazado 916814" d="M54.989,110.91c-.18,1.217-.279,2.444-.517,3.652-.234,1.183-.513,2.367-.861,3.521a12.466,12.466,0,0,1-1.381,3.193,11.782,11.782,0,0,1-2.285,2.489,20.227,20.227,0,0,1-5.618,3.381,26.851,26.851,0,0,1-3.15,1.039c-.557.145-1.122.261-1.69.354a3.594,3.594,0,0,0-1.358.363.277.277,0,0,0,.042.473,4.938,4.938,0,0,0,2.535,0,18.619,18.619,0,0,0,2.689-.566,19.6,19.6,0,0,0,5.04-2.327,16.125,16.125,0,0,0,4.157-3.64,12.15,12.15,0,0,0,2.117-5.088,24.737,24.737,0,0,0,.516-6.829.119.119,0,0,0-.235-.011" transform="translate(-1 -2.916)" fill="#455a64"/>
            <path id="Trazado_916815" data-name="Trazado 916815" d="M198.805,219.8a28.779,28.779,0,0,0-3.7,1.567c-1.278.585-2.561,1.167-3.83,1.773-2.5,1.193-4.977,2.419-7.43,3.7-4.939,2.579-9.864,5.186-14.733,7.9-2.538,1.413-8,4.419-8.229,4.717-.112.143.066.389.222.321,5.077-2.225,10.028-4.7,14.99-7.163s9.9-4.939,14.73-7.637c1.337-.747,2.652-1.531,3.98-2.294a33.59,33.59,0,0,0,4.149-2.52c.122-.1.029-.414-.152-.36" transform="translate(-4.233 -5.784)" fill="#455a64"/>
            <path id="Trazado_916816" data-name="Trazado 916816" d="M26.511,118.2a.173.173,0,0,1,.346.007c-.1,11.313,1.648,23.962,10.355,32.076,9.548,8.9,23.322,9.96,35.717,9.856,7.115-.059,14.217-.241,21.333-.015,7.147.227,14.366.578,21.463,1.484a11.7,11.7,0,0,1,7.288,3.486,37.581,37.581,0,0,1,4.83,6.943q5.369,8.893,10.4,17.984,10,18.065,18.507,36.9,1.057,2.337,2.093,4.682c.046.1-.107.191-.155.087q-8.643-18.886-18.606-37.131-4.961-9.127-10.263-18.063c-1.66-2.8-3.268-5.665-5.12-8.344-1.636-2.369-3.683-4.594-6.519-5.454a26.616,26.616,0,0,0-5.3-.77q-2.725-.25-5.456-.45-5.319-.388-10.651-.582c-7.173-.261-14.336-.173-21.51-.044-12.454.225-26.06-.2-36.386-8.131a29.345,29.345,0,0,1-9.6-13.4A52.963,52.963,0,0,1,26.5,122.468c-.033-1.424-.026-2.848.007-4.272" transform="translate(-0.697 -3.106)" fill="#455a64"/>
            <path id="Trazado_916817" data-name="Trazado 916817" d="M103.085,169.09c2.541.045,5.081.151,7.62.237a30.075,30.075,0,0,1,6.306.563c1.923.478,3.451.712,5.024,2.862,1.965,2.685,12.66,23.347,17.151,32.495q1.868,3.8,3.682,7.634c1.246,2.64,2.35,5.344,3.592,7.984.045.1-.1.178-.147.081-1.1-2.208-2.324-4.355-3.46-6.546s-2.24-4.4-3.345-6.611q-3.342-6.691-6.7-13.375c-2.223-4.414-4.922-8.717-7.178-13.115-1.9-3.7-4.481-8.741-6.287-9.489a29.8,29.8,0,0,0-7.864-1.91c-2.8-.2-5.6-.367-8.4-.609a.1.1,0,0,1,0-.2" transform="translate(-2.71 -4.449)" fill="#455a64"/>
            <path id="Trazado_916818" data-name="Trazado 916818" d="M58.594,2.879c-9.4,8.055-6.781,19.8-10.706,26.176-2.4,3.9-10.216,8.012-11.77,12.5-2.553,7.378,3.7,10.027,2.3,14.038-1.981,5.68-9.588,5.239-10.958,14.533S36.319,89.309,60.59,91.987s37.6-6.208,38.473-14.093-7.2-10.509-7.753-16.4c-.352-3.763,4.635-6.383,4.886-13.308s-6.5-9.177-7.462-15.058c-.972-5.908,2.146-20.174-6.5-27.471S63.231-1.1,58.594,2.879" transform="translate(-0.719 0)" fill="#263238"/>
            <path id="Trazado_916819" data-name="Trazado 916819" d="M59.63,3.174a20.01,20.01,0,0,0-6.238,7.2,43.8,43.8,0,0,0-3.469,9.539,26.362,26.362,0,0,1-1.885,5.713,14.624,14.624,0,0,1-3.258,4.021c-2.625,2.375-5.758,4.179-8.117,6.847-2.233,2.527-3.971,5.907-3.079,9.351.485,1.873,1.721,3.4,2.487,5.15.726,1.656,1.02,3.715-.4,5.09-1.214,1.175-2.973,1.715-4.35,2.678a15.324,15.324,0,0,0-3.542,3.434,11.874,11.874,0,0,0-2.234,9.334c1.427,7.55,8.511,11.844,15.05,14.548.912.377,1.829.744,2.746,1.108.141.056.261-.147.117-.211-6.563-2.938-14.18-6.385-16.7-13.722a11.072,11.072,0,0,1,1.13-9.742,14.05,14.05,0,0,1,3.467-3.649c1.32-.975,2.844-1.573,4.187-2.5A4.462,4.462,0,0,0,37.6,53.373,10.957,10.957,0,0,0,35.8,48.548a8.958,8.958,0,0,1-1.548-5.084,9.77,9.77,0,0,1,1.942-4.85c2.042-2.894,5.067-4.792,7.779-6.981a16.385,16.385,0,0,0,5.905-8.17c.5-1.731.816-3.512,1.251-5.26a46.242,46.242,0,0,1,1.447-4.8A22.91,22.91,0,0,1,57.7,4.949,13.223,13.223,0,0,1,59.71,3.3c.081-.054,0-.185-.08-.129" transform="translate(-0.667 -0.083)" fill="#263238"/>
            <path id="Trazado_916820" data-name="Trazado 916820" d="M101.681,72.36A9.073,9.073,0,0,0,100,68.827c-.844-1.069-1.865-1.974-2.8-2.959a6.9,6.9,0,0,1-1.983-3.277,6.571,6.571,0,0,1,1.068-4.373,33.018,33.018,0,0,0,2.173-4.23,15.426,15.426,0,0,0,.924-4.524,15.591,15.591,0,0,0-2.442-9.026c-.828-1.355-1.759-2.644-2.6-3.992a19.469,19.469,0,0,1-2.152-4.715c-1.092-3.654-1.329-7.509-2.222-11.213A57.936,57.936,0,0,0,86.029,9.512c-.042-.089-.17-.008-.13.079a50.433,50.433,0,0,1,3.447,9.944c.771,3.247,1.068,6.557,1.642,9.838A24.9,24.9,0,0,0,92.219,34.1a25.529,25.529,0,0,0,2.107,4.057c1.64,2.674,3.335,5.313,3.788,8.484a14.839,14.839,0,0,1-1.566,9.084c-1.276,2.414-3.063,5.073-1.947,7.9.944,2.391,3.225,3.826,4.739,5.807a9.588,9.588,0,0,1,1.643,7.672c-1.307,6.8-8.117,10.166-14.493,10.5a.155.155,0,0,0,.008.311c5.543-.066,11.574-2.5,14.173-7.692a11.737,11.737,0,0,0,1.012-7.866" transform="translate(-2.26 -0.249)" fill="#263238"/>
            <path id="Trazado_916821" data-name="Trazado 916821" d="M63.673,53.2C65.99,62.73,81.161,96.049,86.556,99.657c6.243,4.176,39.3,20.879,45.534,18.863,2.159-.7,11.392-23.763,7.247-25.56-12.653-5.487-36.53-9.627-39.906-12.569-2.226-1.939-15.713-17.7-28.073-30.94-4.673-5.007-9.18-2.4-7.685,3.748" transform="translate(-1.668 -1.232)" fill="#d3766a"/>
            <path id="Trazado_916822" data-name="Trazado 916822" d="M61.868,52.565C63.035,58.753,68.4,70.484,68.4,70.484L91.609,66.62S78.237,51.2,68.465,45.8c-3.922-2.168-7.776.511-6.6,6.767" transform="translate(-1.622 -1.186)" fill="#ffc727"/>
            <path id="Trazado_916823" data-name="Trazado 916823" d="M61.868,52.565C63.035,58.753,68.4,70.484,68.4,70.484L91.609,66.62S78.237,51.2,68.465,45.8c-3.922-2.168-7.776.511-6.6,6.767" transform="translate(-1.622 -1.186)" fill="#ffc727"/>
            <path id="Trazado_916824" data-name="Trazado 916824" d="M69.212,58.631a1.779,1.779,0,1,1-1.779-1.779,1.779,1.779,0,0,1,1.779,1.779" transform="translate(-1.728 -1.496)" fill="#fff"/>
            <path id="Trazado_916825" data-name="Trazado 916825" d="M68.2,67.824c3.409-.8,6.822-1.551,10.273-2.151q2.582-.448,5.175-.819c1.727-.246,3.486-.315,5.206-.586a.074.074,0,0,1,.017.148c-1.73.179-3.455.6-5.174.871s-3.45.559-5.172.853c-3.439.587-6.883,1.166-10.308,1.831-.1.019-.108-.127-.017-.148" transform="translate(-1.793 -1.691)" fill="#263238"/>
            <g id="Grupo_1147791" data-name="Grupo 1147791" transform="translate(60.037 44.761)" opacity="0.1">
              <g id="Grupo_1147790" data-name="Grupo 1147790">
                <g id="Grupo_1147789" data-name="Grupo 1147789" clip-path="url(#clip-path-17)">
                  <path id="Trazado_916826" data-name="Trazado 916826" d="M86.435,67.51l-18.044,3s-5.354-11.726-6.518-17.921c-.6-3.191.107-5.444,1.471-6.613Z" transform="translate(-61.659 -45.971)"/>
                </g>
              </g>
            </g>
            <path id="Trazado_916827" data-name="Trazado 916827" d="M80.438,113.008l-63.116,2.07S36.474,60.114,50.349,46.992c6.313-5.972,12.048-4.65,16.708-.277C68.22,47.808,82.23,68.01,83.106,74.806c.774,6.007-4.453,12.3-4.453,12.3Z" transform="translate(-0.456 -1.131)" fill="#ffc727"/>
            <path id="Trazado_916828" data-name="Trazado 916828" d="M35.294,75.468a1.783,1.783,0,0,1-1.782,1.782,1.379,1.379,0,0,1-.487-.078c.487-1.071.974-2.132,1.47-3.184a1.743,1.743,0,0,1,.8,1.48m20.238-1.779a1.779,1.779,0,1,0,1.779,1.78,1.779,1.779,0,0,0-1.779-1.78m22.017,0a1.779,1.779,0,1,0,1.78,1.78,1.779,1.779,0,0,0-1.78-1.78M44.522,56.851a1.779,1.779,0,1,0,1.78,1.78,1.779,1.779,0,0,0-1.78-1.78m22.018,0a1.779,1.779,0,1,0,1.779,1.78,1.779,1.779,0,0,0-1.779-1.78M33.514,108.118a1.779,1.779,0,1,0,1.779,1.779,1.78,1.78,0,0,0-1.779-1.779m22.018,0a1.779,1.779,0,1,0,1.779,1.779,1.779,1.779,0,0,0-1.779-1.779m22.017,0a1.779,1.779,0,1,0,1.78,1.779,1.779,1.779,0,0,0-1.78-1.779M44.522,91.28a1.779,1.779,0,1,0,1.78,1.779,1.779,1.779,0,0,0-1.78-1.779m22.018,0a1.779,1.779,0,1,0,1.779,1.779A1.779,1.779,0,0,0,66.54,91.28" transform="translate(-0.835 -1.496)" fill="#fff"/>
            <path id="Trazado_916829" data-name="Trazado 916829" d="M76.108,88.224a17.08,17.08,0,0,0-3.83-.115,16.031,16.031,0,0,0-1.8.224c-.669.134-1.324.324-1.991.463-.111.022-.059.192.051.168a16.077,16.077,0,0,1,2-.24c.609-.048,1.214-.131,1.824-.176,1.245-.092,2.489-.173,3.736-.239.048,0,.06-.08.01-.087" transform="translate(-1.8 -2.317)" fill="#263238"/>
            <path id="Trazado_916830" data-name="Trazado 916830" d="M76.4,85.455a34.886,34.886,0,0,0-8.389,1.339c-2.83.824-5.666,1.938-8.605,2.284-.111.013-.109.188,0,.176,1.412-.155,2.812-.311,4.217-.53s2.777-.564,4.161-.87c2.893-.639,5.691-1.721,8.618-2.18.134-.021.14-.226-.006-.22" transform="translate(-1.561 -2.249)" fill="#263238"/>
            <path id="Trazado_916831" data-name="Trazado 916831" d="M57.374,44.523c-.017,1.146,3.4,9.457,8.409,10.456,1.631.322,3.789-8.5,3.789-8.5l.309-.614,4.307-8.611-9-9.536-1.321-1.3S62.841,28.855,61.6,31.9c-.058.14-.117.281-.177.433-.075.169-.148.33-.21.492-.192.452-.386.914-.569,1.38-.141.353-.28.7-.415,1.072s-.277.74-.422,1.114a62,62,0,0,0-2.431,8.133" transform="translate(-1.51 -0.695)" fill="#d3766a"/>
            <path id="Trazado_916832" data-name="Trazado 916832" d="M61.712,31.9a19.317,19.317,0,0,0,8.282,13.966L74.3,37.252l-9-9.536-1.321-1.3s-1.023,2.434-2.267,5.477" transform="translate(-1.624 -0.695)" fill="#263238"/>
            <path id="Trazado_916833" data-name="Trazado 916833" d="M91.132,26.638c-3.415,16.549-13.712,16.372-17.28,15.632C70.613,41.6,59.671,38.9,61.357,22.085S71.819,1.628,79.306,2.773s15.24,7.316,11.825,23.865" transform="translate(-1.61 -0.068)" fill="#d3766a"/>
            <path id="Trazado_916834" data-name="Trazado 916834" d="M85.256,39.931A10.754,10.754,0,0,0,87.118,37.9a18.458,18.458,0,0,0,1.476-2.316A25.9,25.9,0,0,0,90.662,30.5a40.3,40.3,0,0,0,1.248-5.364l.381-2.738.279-2.757-.042,2.778-.248,2.772a35.341,35.341,0,0,1-1.154,5.453,23.974,23.974,0,0,1-2.208,5.125,13.067,13.067,0,0,1-3.662,4.161" transform="translate(-2.243 -0.517)" fill="#263238"/>
            <path id="Trazado_916835" data-name="Trazado 916835" d="M90.411,22.246a11.1,11.1,0,0,1-1.059-.49,1.89,1.89,0,0,1-.984-.706.6.6,0,0,1,.165-.716,1.493,1.493,0,0,1,1.51-.011,2.19,2.19,0,0,1,1.166,1.062.641.641,0,0,1-.8.86" transform="translate(-2.324 -0.529)" fill="#263238"/>
            <path id="Trazado_916836" data-name="Trazado 916836" d="M78.544,21.119a11.1,11.1,0,0,0,1.166.02,1.892,1.892,0,0,0,1.195-.205.6.6,0,0,0,.163-.716,1.489,1.489,0,0,0-1.353-.668A2.19,2.19,0,0,0,78.2,20a.641.641,0,0,0,.343,1.122" transform="translate(-2.052 -0.514)" fill="#263238"/>
            <path id="Trazado_916837" data-name="Trazado 916837" d="M80.236,25.928c0-.045-.1.035-.107.082-.195,1.134-.61,2.4-1.706,2.566-.034,0-.043.062,0,.065,1.28.08,1.814-1.607,1.817-2.713" transform="translate(-2.063 -0.682)" fill="#263238"/>
            <path id="Trazado_916838" data-name="Trazado 916838" d="M79.449,24.506c-1.785-.509-2.672,3.1-1.018,3.57,1.627.463,2.514-3.143,1.018-3.57" transform="translate(-2.041 -0.644)" fill="#263238"/>
            <path id="Trazado_916839" data-name="Trazado 916839" d="M78.666,24.507c-.365.127-.762.411-1.151.355-.451-.065-.689-.525-.887-.958-.021-.045-.059-.021-.072.026a1.356,1.356,0,0,0,.626,1.748c.652.261,1.288-.232,1.632-.884.064-.121,0-.339-.148-.287" transform="translate(-2.012 -0.628)" fill="#263238"/>
            <path id="Trazado_916840" data-name="Trazado 916840" d="M86.713,27.255c.019-.04.074.075.06.121-.318,1.105-.5,2.426.417,3.053.028.019.012.075-.024.06-1.188-.487-.932-2.238-.453-3.234" transform="translate(-2.271 -0.717)" fill="#263238"/>
            <path id="Trazado_916841" data-name="Trazado 916841" d="M88.007,26.319c1.828.319,1.055,3.952-.64,3.656-1.666-.292-.893-3.924.64-3.656" transform="translate(-2.274 -0.692)" fill="#263238"/>
            <path id="Trazado_916842" data-name="Trazado 916842" d="M88.77,26.729c.245.254.455.664.794.759.391.111.769-.219,1.1-.541.035-.034.057,0,.048.051-.129.7-.512,1.373-1.207,1.364-.635-.008-.954-.7-.973-1.425,0-.135.136-.31.236-.207" transform="translate(-2.33 -0.703)" fill="#263238"/>
            <path id="Trazado_916843" data-name="Trazado 916843" d="M77.834,35.313c.188.336.347.77.737.922a3.059,3.059,0,0,0,1.269.072.04.04,0,0,1,.031.07,1.55,1.55,0,0,1-1.577.186,1.224,1.224,0,0,1-.58-1.232c0-.069.093-.067.121-.019" transform="translate(-2.045 -0.928)" fill="#263238"/>
            <path id="Trazado_916844" data-name="Trazado 916844" d="M83.506,31.98s-.16,1.727-.344,2.517c-.018.073-.217.064-.489.018-.014,0-.022,0-.031-.007a3.853,3.853,0,0,1-3.316-2.252c-.037-.091.083-.148.143-.083a5.8,5.8,0,0,0,3.2,1.783c.107-.205.174-2.968.3-2.948a7.115,7.115,0,0,1,1.7.825c.436-3.588.3-7.217.784-10.784a.11.11,0,0,1,.217,0,58.508,58.508,0,0,1-.35,11.651c-.04.463-1.527-.508-1.811-.717" transform="translate(-2.087 -0.551)" fill="#263238"/>
            <path id="Trazado_916845" data-name="Trazado 916845" d="M62.282,23.59c1.83.2,7.389-3.988,9.011-12.712,0,0-2,7.733-2.784,8.785s3.111-2.359,4.518-9.377a28.975,28.975,0,0,0,6.6,4.977c3.174,1.5,5.218,1.81,5.5,1.61S80.767,14.3,79.7,12.545c0,0,8.166,5.618,12.2,6.62.466.116,2.672-9.507-2.946-14.7s-16.375-2.428-19.5-.284c0,0-3.236-.085-7.457,4.007s-1.679,15.187.292,15.4" transform="translate(-1.571 -0.039)" fill="#263238"/>
            <path id="Trazado_916846" data-name="Trazado 916846" d="M75.659,30.531a5.305,5.305,0,1,1,1.289.278,5.314,5.314,0,0,1-1.289-.278m3.273-9.342a4.594,4.594,0,1,0,3.057,4.738,4.581,4.581,0,0,0-3.057-4.738" transform="translate(-1.897 -0.532)" fill="#ffc727"/>
            <path id="Trazado_916847" data-name="Trazado 916847" d="M87.9,33.2c-1.915-.671-2.965-3.241-2.361-5.941a6.334,6.334,0,0,1,1.9-3.374,3.3,3.3,0,0,1,5.52,1.235,6.336,6.336,0,0,1,.283,3.863c-.639,2.853-2.886,4.788-5.01,4.313a3.151,3.151,0,0,1-.335-.1m2.754-9.489a2.32,2.32,0,0,0-.259-.074,2.829,2.829,0,0,0-2.485.779,5.63,5.63,0,0,0-1.68,3c-.552,2.472.409,4.8,2.159,5.191s3.61-1.3,4.164-3.776a5.633,5.633,0,0,0-.243-3.426,2.919,2.919,0,0,0-1.656-1.689" transform="translate(-2.246 -0.602)" fill="#ffc727"/>
            <path id="Trazado_916848" data-name="Trazado 916848" d="M82.656,26.693l-.326-.63c.932-.483,2.945-.964,3.906.672l-.611.358c-.858-1.465-2.883-.443-2.969-.4" transform="translate(-2.166 -0.674)" fill="#ffc727"/>
            <path id="Trazado_916849" data-name="Trazado 916849" d="M58.663,22.714l-.543-.455c.213-.253,2.121-2.474,3.721-2.379,1.5.092,10.575,3.036,10.961,3.162l-.219.674c-2.6-.846-9.628-3.059-10.784-3.127-1.057-.063-2.622,1.513-3.136,2.126" transform="translate(-1.529 -0.523)" fill="#ffc727"/>
            <path id="Trazado_916850" data-name="Trazado 916850" d="M59.984,28.586a3.521,3.521,0,0,0,.692.417,2.579,2.579,0,0,0,.758.248,2.328,2.328,0,0,0,1.023-.023,2.81,2.81,0,0,0,.753-.289,3.262,3.262,0,0,0,.885-.726l.4-4.593s-2.03-6.109-4.694-5.531-2.207,8.693.188,10.5" transform="translate(-1.526 -0.475)" fill="#d3766a"/>
            <path id="Trazado_916851" data-name="Trazado 916851" d="M60.038,20.472c-.042-.017-.069.042-.036.068,1.66,1.328,2.131,3.375,2.285,5.4a1.577,1.577,0,0,0-2.138-1.088c-.059.02-.036.111.02.116a1.758,1.758,0,0,1,1.679,1.141,8.525,8.525,0,0,1,.44,1.764c.038.195.37.2.363-.018,0-.017,0-.033,0-.049.765-2.393-.1-6.319-2.611-7.333" transform="translate(-1.578 -0.539)" fill="#263238"/>
            <path id="Trazado_916852" data-name="Trazado 916852" d="M60.478,28.221a.783.783,0,1,0,.851-.708.783.783,0,0,0-.851.708" transform="translate(-1.591 -0.724)" fill="#fff"/>
            <path id="Trazado_916853" data-name="Trazado 916853" d="M59.242,26.591a.553.553,0,1,0,.6-.5.554.554,0,0,0-.6.5" transform="translate(-1.559 -0.686)" fill="#fff"/>
            <path id="Trazado_916854" data-name="Trazado 916854" d="M69.5,18.095,65.57,13.84l-1.045,1.132L68.9,18.718Z" transform="translate(-1.698 -0.364)" fill="#ffc727"/>
            <path id="Trazado_916855" data-name="Trazado 916855" d="M68.553,19.313l-4.628-3.488-.826,1.3,4.973,2.909Z" transform="translate(-1.66 -0.416)" fill="#ffc727"/>
            <path id="Trazado_916856" data-name="Trazado 916856" d="M46.717,50.164C39.757,56.7,18.537,82.355,18.574,89.7c.056,11.179,39.19,26.026,45.316,29.727C66.5,121,75.708,93.816,72.951,92.071c-2.4-1.521-28.848-8.077-28.793-9.283.047-1,5.75-13.661,10.057-29.066,3.376-12.075-3.863-6.97-7.5-3.558" transform="translate(-0.489 -1.214)" fill="#d3766a"/>
            <path id="Trazado_916857" data-name="Trazado 916857" d="M83.724,102.75c-1.226-1.28-.563-1.933,2.558-1.491,3.159.44,15.1,4.84,16.278.534S86.755,91.523,81.5,91.184s-13.869.955-13.869.955c3.074,1.824,10.107,6.957,16.09,10.61" transform="translate(-1.78 -2.398)" fill="#d3766a"/>
            <path id="Trazado_916858" data-name="Trazado 916858" d="M88.472,101.657a50.972,50.972,0,0,1,5.115.96,43.115,43.115,0,0,0,5.06,1.011,5.919,5.919,0,0,0,2.438-.167,2.182,2.182,0,0,0,1.423-1.631,2.576,2.576,0,0,0-.841-2.046,10.931,10.931,0,0,0-1.921-1.611,32.4,32.4,0,0,0-4.466-2.531,47.619,47.619,0,0,0-4.757-1.992c-1.627-.573-3.278-1.091-4.942-1.553a20.188,20.188,0,0,0-5.073-.967,18.48,18.48,0,0,1,5.162.619c1.692.4,3.368.856,5.031,1.368a37.63,37.63,0,0,1,4.865,1.922,31.668,31.668,0,0,1,4.6,2.537,11.533,11.533,0,0,1,2.025,1.75,3.2,3.2,0,0,1,.969,2.63,2.829,2.829,0,0,1-1.862,2.1,6.073,6.073,0,0,1-2.709.122c-3.487-.561-6.7-1.847-10.112-2.517" transform="translate(-2.118 -2.397)" fill="#263238"/>
            <rect id="Rectángulo_408034" data-name="Rectángulo 408034" width="64.849" height="2.908" transform="translate(60.448 116.592)" fill="#c7c7c7"/>
            <path id="Trazado_916859" data-name="Trazado 916859" d="M88.836,119.743l-2.22,2.908h53.193v-2.908Z" transform="translate(-2.279 -3.151)" fill="#a6a6a6"/>
            <path id="Trazado_916860" data-name="Trazado 916860" d="M91.745,121.567h63.2l5.262-42.924h-63.2Z" transform="translate(-2.414 -2.069)" fill="#c7c7c7"/>
            <path id="Trazado_916861" data-name="Trazado 916861" d="M122.95,100.581a3.767,3.767,0,0,0,3.78,3.847,3.931,3.931,0,0,0,3.914-3.847,3.767,3.767,0,0,0-3.78-3.847,3.929,3.929,0,0,0-3.914,3.847" transform="translate(-3.235 -2.545)" fill="#fff"/>
            <path id="Trazado_916862" data-name="Trazado 916862" d="M56.478,116.132c9.02,6.086,19.561,11.355,30.918,10.979a5.626,5.626,0,0,0,3.472-1.234c5.093-.078,6.586-2.506,6.586-2.506,4.721-1.526,5.906-4.219,5.906-4.219s5.978-.158,6.484-3.787c.578-4.068-7.931-3.052-12.953-5.354C85.387,104.736,70.508,94.019,67.34,92.167Z" transform="translate(-1.486 -2.425)" fill="#d3766a"/>
            <path id="Trazado_916863" data-name="Trazado 916863" d="M81.606,113.518a81.462,81.462,0,0,0,10.335,4.048,81.708,81.708,0,0,0,11.988,2.04.1.1,0,0,1-.011.2,43.021,43.021,0,0,1-22.382-6.13c-.154-.093-.1-.229.07-.154" transform="translate(-2.143 -2.986)" fill="#263238"/>
            <path id="Trazado_916864" data-name="Trazado 916864" d="M77.3,120.174c3.4,1.261,9.4,3.438,20.7,3.812.037,0,.047.064.007.068a38.614,38.614,0,0,1-20.77-3.719c-.206-.1-.166-.245.059-.162" transform="translate(-2.029 -3.162)" fill="#263238"/>
            <path id="Trazado_916865" data-name="Trazado 916865" d="M75.05,123.8c5.871,1.923,9.817,2.392,16.278,2.887.037,0,.042.067,0,.068-7.4.209-10.112-.554-16.374-2.762-.215-.076-.135-.268.094-.193" transform="translate(-1.969 -3.257)" fill="#263238"/>
            <path id="Trazado_916866" data-name="Trazado 916866" d="M27.413,68.915l23.865,2.609s4.14-11.334,5.546-17.929c1.861-8.727-.944-11.464-9.7-4.911C41.26,53.067,27.413,68.915,27.413,68.915" transform="translate(-0.721 -1.186)" fill="#ffc727"/>
            <path id="Trazado_916867" data-name="Trazado 916867" d="M27.413,68.915l23.865,2.609s4.14-11.334,5.546-17.929c1.861-8.727-.944-11.464-9.7-4.911C41.26,53.067,27.413,68.915,27.413,68.915" transform="translate(-0.721 -1.186)" fill="#ffc727"/>
            <path id="Trazado_916868" data-name="Trazado 916868" d="M46.6,58.631a1.779,1.779,0,1,1-1.779-1.779A1.779,1.779,0,0,1,46.6,58.631" transform="translate(-1.133 -1.496)" fill="#fff"/>
            <path id="Trazado_916869" data-name="Trazado 916869" d="M48.932,71.7c.261-.019,2.721.168,2.894.233.453-1.346.889-2.7,1.357-4.037.235-.669.481-1.337.735-2,.281-.729.563-1.574.813-2.219.039-.1.17-.062.141.043-.24.87-.447,1.513-.659,2.266-.189.672-.4,1.343-.615,2-.464,1.4-.9,2.92-1.432,4.3a24.121,24.121,0,0,1-3.247-.5c-.043-.014-.028-.083.014-.086" transform="translate(-1.287 -1.674)" fill="#263238"/>
            <path id="Trazado_916870" data-name="Trazado 916870" d="M31.186,66.711c3.366.134,6.721.316,10.075.648q2.509.247,5.008.571c1.665.216,3.312.6,4.977.8a.072.072,0,0,1-.022.141c-1.65-.278-3.356-.334-5.02-.522s-3.341-.369-5.013-.539c-3.339-.341-6.68-.688-10.026-.952-.093-.008-.068-.145.022-.142" transform="translate(-0.818 -1.755)" fill="#263238"/>
            <path id="Trazado_916871" data-name="Trazado 916871" d="M41.748,53.978a.07.07,0,0,0-.094-.1q-1.646,1.414-3.242,2.867a7.962,7.962,0,0,1,1.029-1.293.022.022,0,0,0-.029-.033,10.44,10.44,0,0,0-1.469,1.75c-1.392,1.277-2.757,2.585-4.075,3.951a77.176,77.176,0,0,0-6.883,7.865.257.257,0,0,0,.2.392c1.129.115,2.316.195,3.428.415a.087.087,0,1,0,.029-.171c-.987-.141-1.99-.4-2.969-.643,2.3-2.429,4.466-4.99,6.762-7.426,2.4-2.549,4.811-5.114,7.309-7.569" transform="translate(-0.709 -1.417)" fill="#263238"/>
            <path id="Trazado_916872" data-name="Trazado 916872" d="M160.57,86.091c2.382,3.678,8.263,7.977,9.071,11.131a3.736,3.736,0,0,1-1.539,4.183s3.409,1.172,3.67,4.156c.135,1.536-2.2,3.1-2.2,3.1a4.456,4.456,0,0,1,2.759,3.725c.055,2.126-2.291,3.375-2.291,3.375s2.107,2.218,1.469,4.4c-1.295,4.426-19.386,6.818-23.062.523-1.714-2.934,2.738-3.278,2.738-3.278s-6.52-1.051-7.108-4.767,5.221-3.815,5.221-3.815-6.309-1.074-6.531-4.989c-.23-4.076,5.6-3.179,5.6-3.179s-4.384-2.2-3.867-5.232c.854-5.014,11.172.315,15.023-1.154Z" transform="translate(-3.757 -2.265)" fill="#d3766a"/>
            <path id="Trazado_916873" data-name="Trazado 916873" d="M169.914,116.819a.048.048,0,0,1,.03.091,31.653,31.653,0,0,1-18.783,1.352c-.2-.052-.2-.394.029-.379a64.805,64.805,0,0,0,18.724-1.064" transform="translate(-3.974 -3.074)" fill="#263238"/>
            <path id="Trazado_916874" data-name="Trazado 916874" d="M169.83,109.3c.069-.016.1.1.024.127-5.947,2.273-13.867,2.835-20.583.2-.23-.09-.346-.4-.073-.318,4.6,1.413,14.87,1.258,20.631-.01" transform="translate(-3.922 -2.876)" fill="#263238"/>
            <path id="Trazado_916875" data-name="Trazado 916875" d="M148.072,100.694c6.536,2.276,13.145,2.227,19.926,1.2.089-.014.1.113.027.144-3.18,1.405-7.57,1.609-11,1.478a18.255,18.255,0,0,1-9.033-2.595c-.109-.066-.06-.278.08-.229" transform="translate(-3.893 -2.649)" fill="#263238"/>
          </g>
        </g>
      </g>
    </g>
  </g>
</svg>
