<svg xmlns="http://www.w3.org/2000/svg" xmlns:xlink="http://www.w3.org/1999/xlink" width="190" height="219" viewBox="0 0 190 219">
  <defs>
    <clipPath id="clip-path">
      <rect id="Rectángulo_401573" data-name="Rectángulo 401573" width="28.836" height="204.001" fill="none"/>
    </clipPath>
    <clipPath id="clip-path-2">
      <rect id="Rectángulo_401572" data-name="Rectángulo 401572" width="72.283" height="384.741" fill="none"/>
    </clipPath>
    <clipPath id="clip-path-3">
      <rect id="Rectángulo_408030" data-name="Rectángulo 408030" width="190" height="219" transform="translate(180 1475.002)" fill="#efe8f7"/>
    </clipPath>
    <clipPath id="clip-path-4">
      <rect id="Rectángulo_408023" data-name="Rectángulo 408023" width="257.877" height="223.683" fill="none"/>
    </clipPath>
    <clipPath id="clip-path-5">
      <path id="Trazado_916655" data-name="Trazado 916655" d="M185.42,145l10.31,13.138,67.606-52.39L253.026,92.608Z" transform="translate(-185.42 -92.608)" fill="none"/>
    </clipPath>
  </defs>
  <g id="img4" transform="translate(-180 -1475.002)">
    <g id="Grupo_1147010" data-name="Grupo 1147010" transform="translate(180 1490)">
      <g id="Grupo_1099687" data-name="Grupo 1099687" clip-path="url(#clip-path)">
        <g id="Grupo_1099686" data-name="Grupo 1099686" transform="translate(-6.669 -80.78)" opacity="0.45" style="mix-blend-mode: multiply;isolation: isolate">
          <g id="Grupo_1099685" data-name="Grupo 1099685">
            <g id="Grupo_1099684" data-name="Grupo 1099684" clip-path="url(#clip-path-2)">
              <path id="Trazado_873516" data-name="Trazado 873516" d="M-2.3,36.479,100.228-12.1,97.977-3.859-4.548,44.721Z" transform="matrix(0.898, -0.44, 0.44, 0.898, -13.994, 294.649)" fill="#2d0464"/>
              <path id="Trazado_873517" data-name="Trazado 873517" d="M-2.3,36.48,100.228-12.1,97.977-3.859-4.548,44.721Z" transform="matrix(0.898, -0.44, 0.44, 0.898, -13.994, 270.682)" fill="#2d0464"/>
              <path id="Trazado_873518" data-name="Trazado 873518" d="M-2.3,36.48,100.228-12.1,97.977-3.859-4.548,44.721Z" transform="matrix(0.898, -0.44, 0.44, 0.898, -13.994, 246.715)" fill="#2d0464"/>
              <path id="Trazado_873519" data-name="Trazado 873519" d="M-2.3,36.48,100.228-12.1,97.977-3.859-4.548,44.721Z" transform="matrix(0.898, -0.44, 0.44, 0.898, -13.994, 222.748)" fill="#2d0464"/>
              <path id="Trazado_873520" data-name="Trazado 873520" d="M-2.3,36.48,100.228-12.1,97.977-3.859-4.548,44.721Z" transform="matrix(0.898, -0.44, 0.44, 0.898, -13.994, 198.781)" fill="#2d0464"/>
              <path id="Trazado_873521" data-name="Trazado 873521" d="M-2.3,36.48,100.228-12.1,97.977-3.859-4.548,44.721Z" transform="matrix(0.898, -0.44, 0.44, 0.898, -13.994, 174.814)" fill="#2d0464"/>
              <path id="Trazado_873522" data-name="Trazado 873522" d="M-2.3,36.48,100.228-12.1,97.977-3.859-4.548,44.721Z" transform="matrix(0.898, -0.44, 0.44, 0.898, -13.994, 150.848)" fill="#2d0464"/>
              <path id="Trazado_873523" data-name="Trazado 873523" d="M-2.3,36.48,100.228-12.1,97.977-3.859-4.548,44.721Z" transform="matrix(0.898, -0.44, 0.44, 0.898, -13.994, 126.881)" fill="#2d0464"/>
              <path id="Trazado_873524" data-name="Trazado 873524" d="M-2.3,36.48,100.228-12.1,97.977-3.859-4.548,44.721Z" transform="matrix(0.898, -0.44, 0.44, 0.898, -13.994, 102.915)" fill="#2d0464"/>
              <path id="Trazado_873525" data-name="Trazado 873525" d="M-2.3,36.48,100.228-12.1,97.977-3.859-4.548,44.721Z" transform="matrix(0.898, -0.44, 0.44, 0.898, -13.994, 78.948)" fill="#2d0464"/>
              <path id="Trazado_873526" data-name="Trazado 873526" d="M-2.3,36.48,100.228-12.1,97.977-3.859-4.548,44.721Z" transform="translate(-13.994 54.981) rotate(-26.114)" fill="#2d0464"/>
            </g>
          </g>
        </g>
      </g>
      <rect id="Rectángulo_401574" data-name="Rectángulo 401574" width="161" height="204" transform="translate(29 0.002)" fill="#efe8f7"/>
    </g>
    <g id="img4-2" data-name="img4" clip-path="url(#clip-path-3)">
      <g id="Grupo_1147780" data-name="Grupo 1147780" transform="translate(131.123 1470.317)">
        <g id="Grupo_1147775" data-name="Grupo 1147775">
          <g id="Grupo_1147774" data-name="Grupo 1147774" clip-path="url(#clip-path-4)">
            <path id="Trazado_916646" data-name="Trazado 916646" d="M236.723,161.142l16.524-19.417,12.027-6.784a4.265,4.265,0,0,0,1.921-5.15l-5.6-15.672-2.867,4.779-7.758,5.5-2.521-.473-34.2,25.056,3.4,7.261a10.952,10.952,0,0,0,19.071,4.9" transform="translate(-57.124 -30.427)" fill="#ff8400"/>
            <path id="Trazado_916647" data-name="Trazado 916647" d="M215.742,103.693l-29.755,22.66,6.955,23.829-5.254,23.591-72.654-22.185.476-46.619,30.63-39.051,39.872,6.913c9.242,1.575,17.175,8.309,21.606,16.713Z" transform="translate(-30.67 -17.575)" fill="#fff"/>
            <path id="Trazado_916648" data-name="Trazado 916648" d="M272.5,92.431l9.018,10.609,13.419-1.614a10.687,10.687,0,0,0,7.057-3.915l7.059-8.777c-.351-1.327-.747-2.822-1.164-4.4l-12.643,4.942a2.382,2.382,0,0,1-3.006-1.2L289.7,82.735a2.379,2.379,0,0,1,1.69-3.358L305.9,76.814c-.48-1.813-.949-3.576-1.374-5.181l-14.633-.941a10.692,10.692,0,0,0-11.262,6.6Z" transform="translate(-72.654 -18.825)" fill="#d4d4d4"/>
            <path id="Trazado_916649" data-name="Trazado 916649" d="M166.484,184.357a15.532,15.532,0,1,0,2.628-21.808,15.528,15.528,0,0,0-2.628,21.808m3.6-7.648a8.87,8.87,0,1,1,10.791,6.4,8.88,8.88,0,0,1-10.791-6.4" transform="translate(-43.504 -42.456)" fill="#d4d4d4"/>
            <path id="Trazado_916650" data-name="Trazado 916650" d="M195.739,158.17l67.606-52.39-10.31-13.138-67.606,52.39Z" transform="translate(-49.44 -24.701)" fill="#d4d4d4"/>
            <path id="Trazado_916651" data-name="Trazado 916651" d="M270.915,112.124l4.28-3.085a1.737,1.737,0,1,0-2.031-2.818l-4.28,3.085a1.737,1.737,0,0,0,2.031,2.818Z" transform="translate(-71.498 -28.233)" fill="none" stroke="#131b20" stroke-linecap="round" stroke-miterlimit="10" stroke-width="1.7"/>
            <path id="Trazado_916652" data-name="Trazado 916652" d="M298.605,74.171l-6.867-.241a7.987,7.987,0,0,0-7.952,5.758l-1.36,4.694" transform="translate(-75.301 -19.71)" fill="none" stroke="#fff" stroke-linecap="round" stroke-miterlimit="10" stroke-width="1.7"/>
          </g>
        </g>
        <g id="Grupo_1147777" data-name="Grupo 1147777" transform="translate(135.983 67.917)">
          <g id="Grupo_1147776" data-name="Grupo 1147776" clip-path="url(#clip-path-5)">
            <path id="Trazado_916653" data-name="Trazado 916653" d="M266.258,125.347c-.483-.034-38.009-13.856-38.009-13.856" transform="translate(-196.839 -97.643)" fill="none" stroke="#fff" stroke-linecap="round" stroke-miterlimit="10" stroke-width="1.7"/>
            <path id="Trazado_916654" data-name="Trazado 916654" d="M260.818,131.909c-.483-.034-38.009-13.856-38.009-13.856" transform="translate(-195.389 -99.392)" fill="none" stroke="#fff" stroke-linecap="round" stroke-miterlimit="10" stroke-width="1.7"/>
          </g>
        </g>
        <g id="Grupo_1147779" data-name="Grupo 1147779">
          <g id="Grupo_1147778" data-name="Grupo 1147778" clip-path="url(#clip-path-4)">
            <path id="Trazado_916656" data-name="Trazado 916656" d="M191.13,173.2a11.247,11.247,0,1,1-13.68-8.115A11.247,11.247,0,0,1,191.13,173.2Z" transform="translate(-45.055 -43.921)" fill="none" stroke="#fff" stroke-linecap="round" stroke-miterlimit="10" stroke-width="1.7"/>
            <path id="Trazado_916657" data-name="Trazado 916657" d="M172.5,179.04a8.87,8.87,0,1,0,6.4-10.787,8.881,8.881,0,0,0-6.4,10.787m2.68,2.713-1.066-7.464,5.934-4.658,7,2.812,1.066,7.465-5.934,4.657Z" transform="translate(-45.919 -44.786)" fill="#131b20"/>
            <line id="Línea_686" data-name="Línea 686" x2="5.739" y2="0.336" transform="translate(226.626 54.629)" fill="none" stroke="#fff" stroke-linecap="round" stroke-miterlimit="10" stroke-width="1.7"/>
            <line id="Línea_687" data-name="Línea 687" x1="10.615" y2="4.4" transform="translate(225.074 67.206)" fill="none" stroke="#fff" stroke-linecap="round" stroke-miterlimit="10" stroke-width="1.7"/>
            <path id="Trazado_916658" data-name="Trazado 916658" d="M281.359,130.417l-.632-17.069a1.836,1.836,0,0,0-2.9-1.395l-8.58,6.141a5.122,5.122,0,0,0-2.12,3.7l-.9,9.763Z" transform="translate(-70.982 -29.757)" fill="#ff8400"/>
            <line id="Línea_688" data-name="Línea 688" x2="0.51" y2="10.806" transform="translate(206.001 82.912)" fill="none" stroke="#131b20" stroke-linecap="round" stroke-miterlimit="10" stroke-width="1.7"/>
            <line id="Línea_689" data-name="Línea 689" x2="0.425" y2="9.955" transform="translate(202.463 85.392)" fill="none" stroke="#131b20" stroke-linecap="round" stroke-miterlimit="10" stroke-width="1.7"/>
            <line id="Línea_690" data-name="Línea 690" x2="0.255" y2="7.828" transform="translate(199.23 88.144)" fill="none" stroke="#131b20" stroke-linecap="round" stroke-miterlimit="10" stroke-width="1.7"/>
            <line id="Línea_691" data-name="Línea 691" x1="0.34" y2="5.19" transform="translate(195.391 95.168)" fill="none" stroke="#131b20" stroke-linecap="round" stroke-miterlimit="10" stroke-width="1.7"/>
            <path id="Trazado_916659" data-name="Trazado 916659" d="M189.067,153.97l12.506,55.15,62.813,131.368-162.7,2.256.362-162.395Z" transform="translate(-27.111 -41.052)" fill="#135fab"/>
            <path id="Trazado_916660" data-name="Trazado 916660" d="M177.631,21.923s-12.064,1.635.056,20.775l7.081-12.13Z" transform="translate(-45.935 -5.845)" fill="#131b20"/>
            <path id="Trazado_916661" data-name="Trazado 916661" d="M163.147,66.827l8.944,46.936,7.5-.95-8.207-44.678Z" transform="translate(-43.499 -17.818)" fill="#135fab"/>
            <path id="Trazado_916662" data-name="Trazado 916662" d="M196.5,72.721l8.944,46.935,6.019-1.119L202.81,73.793Z" transform="translate(-52.392 -19.389)" fill="#135fab"/>
            <path id="Trazado_916663" data-name="Trazado 916663" d="M174.315,61.924l4.668-19.206,9.917.412.753,10.294.449,6.158.366,5.024c.722,3.677-5.544,11.744-16.153-2.682" transform="translate(-46.476 -11.39)" fill="#ff8400"/>
            <path id="Trazado_916664" data-name="Trazado 916664" d="M152.264,95.974l29.664.84,8.513,41.693,9.413,48.964-93.012-6.995,5.537-35.068,8.19-13.063,20.143-10.529a19.741,19.741,0,0,0,8.724-12.555Z" transform="translate(-28.487 -25.589)" fill="#135fab"/>
            <path id="Trazado_916665" data-name="Trazado 916665" d="M195.444,27.046s6.393,6.541,1.66,19.2c-.615,1.645-5.024,2.572-6.627,2.937l-11.591-10.07s.285-17.391,16.558-12.066" transform="translate(-47.695 -6.941)" fill="#ff8400"/>
            <path id="Trazado_916666" data-name="Trazado 916666" d="M195.924,38.05c.043.5-.219.934-.584.965s-.7-.351-.739-.852.219-.934.584-.966.7.351.739.853" transform="translate(-51.884 -9.917)" fill="#131b20"/>
            <path id="Trazado_916667" data-name="Trazado 916667" d="M203.7,37.341c0,.5-.292.914-.659.916s-.666-.4-.669-.909.293-.914.659-.916.666.4.669.909" transform="translate(-53.958 -9.714)" fill="#131b20"/>
            <path id="Trazado_916668" data-name="Trazado 916668" d="M195.7,48.8l4.6-.526s-.844,5.065-4.6.526" transform="translate(-52.179 -12.871)" fill="#fff"/>
            <path id="Trazado_916669" data-name="Trazado 916669" d="M193.722,61.91c-6.529-2.537-5.808-10.465-5.808-10.465,2.651,3.512,4.554,4.188,5.358,4.306Z" transform="translate(-50.096 -13.716)" fill="#131b20"/>
            <path id="Trazado_916670" data-name="Trazado 916670" d="M180.825,41.2a3.928,3.928,0,1,1-2.806-5.072,4.107,4.107,0,0,1,2.806,5.072" transform="translate(-46.149 -9.605)" fill="#ff8400"/>
            <path id="Trazado_916671" data-name="Trazado 916671" d="M176.555,39.574c.092.057,1.961,1.137,2.54,1.47a.117.117,0,0,1,0,.2l-2.077,1.272" transform="translate(-47.074 -10.551)" fill="none" stroke="#131b20" stroke-linecap="round" stroke-miterlimit="10" stroke-width="1.7"/>
            <path id="Trazado_916672" data-name="Trazado 916672" d="M198.9,41.6a5.209,5.209,0,0,0,2.187-.356,9.272,9.272,0,0,1-.615-4.744,3.353,3.353,0,0,1,1.283-2.243,2.5,2.5,0,0,1,1.472-.531" transform="translate(-53.032 -8.991)" fill="none" stroke="#131b20" stroke-linecap="round" stroke-miterlimit="10" stroke-width="1.7"/>
            <path id="Trazado_916673" data-name="Trazado 916673" d="M192.889,35.14c2.615-2.06,3.926.14,3.926.14" transform="translate(-51.429 -9.134)" fill="none" stroke="#131b20" stroke-linecap="round" stroke-miterlimit="10" stroke-width="1.7"/>
            <path id="Trazado_916674" data-name="Trazado 916674" d="M178.234,31.218c2.654.607,2.928,3.7,2.928,3.7l1.558-.3s2.934-1.289,1.568-8.3c0,0,3.33,1.373,11.09.954a5.913,5.913,0,0,0,4.789-2.939l1.262-2.177-3.212.722,1.128-3.348-5.1,1.974a14.26,14.26,0,0,0-15.26-.329s-3.05,9.516-.755,10.041" transform="translate(-47.293 -5.099)" fill="#131b20"/>
            <path id="Trazado_916675" data-name="Trazado 916675" d="M176.432,96.228l.1.4a3.706,3.706,0,1,1-7.208,1.726l-.431-1.908" transform="translate(-45.031 -25.657)" fill="none" stroke="#131b20" stroke-linecap="round" stroke-miterlimit="10" stroke-width="1.7"/>
            <path id="Trazado_916676" data-name="Trazado 916676" d="M195.915,106.78l-14.184-.065,1.316,10.489H197.42Z" transform="translate(-48.454 -28.453)" fill="none" stroke="#131b20" stroke-linecap="round" stroke-miterlimit="10" stroke-width="1.7"/>
            <path id="Trazado_916677" data-name="Trazado 916677" d="M195.809,21.079s.16-4.449-7.293-5.16-11.363,6.275-11.363,6.275Z" transform="translate(-47.233 -4.231)" fill="#131b20"/>
            <line id="Línea_692" data-name="Línea 692" y1="16.508" x2="1.919" transform="translate(159.852 85.835)" fill="none" stroke="#131b20" stroke-linecap="round" stroke-miterlimit="10" stroke-width="1.7"/>
            <line id="Línea_693" data-name="Línea 693" x2="12.715" y2="133.508" transform="translate(137.277 166.05)" fill="none" stroke="#131b20" stroke-linecap="round" stroke-miterlimit="10" stroke-width="1.7"/>
            <path id="Trazado_916678" data-name="Trazado 916678" d="M196.591,212.689l-10.134,9.777,4.441,40.508Z" transform="translate(-49.714 -56.708)" fill="#131b20"/>
            <path id="Trazado_916679" data-name="Trazado 916679" d="M204.636,14.052l-32.2,14.1c-3.11-17.041,9.128-20.1,15.606-17.613.274.1.541.221.8.345a14.2,14.2,0,0,1,4.539,3.533,13.311,13.311,0,0,1,1.408,1.914l8.974-4.214a1.04,1.04,0,0,1,.448-.1,1.063,1.063,0,0,1,.428,2.037" transform="translate(-45.842 -2.606)" fill="#135fab"/>
            <path id="Trazado_916680" data-name="Trazado 916680" d="M201.133,96.99l.2.957a4.405,4.405,0,0,0,4.209,3.522l2.634.064" transform="translate(-53.627 -25.86)" fill="none" stroke="#131b20" stroke-linecap="round" stroke-miterlimit="10" stroke-width="1.7"/>
            <path id="Trazado_916681" data-name="Trazado 916681" d="M194.091,160.232l-77.224,3.825L113.976,176.5l82.275-4a1.508,1.508,0,0,0,1.4-1.826l-2.009-9.253a1.507,1.507,0,0,0-1.55-1.186" transform="translate(-30.389 -42.721)" fill="#131b20"/>
            <rect id="Rectángulo_408024" data-name="Rectángulo 408024" width="3.439" height="15.981" transform="matrix(0.996, -0.092, 0.092, 0.996, 110.515, 118.311)" fill="#135fab"/>
            <rect id="Rectángulo_408025" data-name="Rectángulo 408025" width="3.439" height="15.981" transform="translate(120.192 117.857) rotate(-8.498)" fill="#135fab"/>
            <rect id="Rectángulo_408026" data-name="Rectángulo 408026" width="3.439" height="15.981" transform="translate(155.828 116.126) rotate(-8.498)" fill="#135fab"/>
            <path id="Trazado_916682" data-name="Trazado 916682" d="M111.387,217.877l7.111,13.917a2.339,2.339,0,0,1-3.8,2.61l-5.641-5.791Z" transform="translate(-29.077 -58.091)" fill="#ff8400"/>
            <path id="Trazado_916683" data-name="Trazado 916683" d="M104.619,263.951H78.369a7.794,7.794,0,0,1-7.786-7.785V241.987a7.794,7.794,0,0,1,7.786-7.785h26.251a7.794,7.794,0,0,1,7.784,7.785v14.179a7.794,7.794,0,0,1-7.784,7.785M78.369,237.665a4.327,4.327,0,0,0-4.323,4.322v14.179a4.328,4.328,0,0,0,4.323,4.322h26.251a4.326,4.326,0,0,0,4.321-4.322V241.987a4.326,4.326,0,0,0-4.321-4.322Z" transform="translate(-18.819 -62.444)" fill="#131b20"/>
            <path id="Trazado_916684" data-name="Trazado 916684" d="M131.037,264.592v45.042a3.558,3.558,0,0,1-3.558,3.556H35.967a3.557,3.557,0,0,1-3.556-3.556V264.592Z" transform="translate(-8.642 -70.546)" fill="#fff"/>
            <path id="Trazado_916685" data-name="Trazado 916685" d="M130.588,265.405H27.366a3.237,3.237,0,0,1-3.237-3.237v-7.02a3.237,3.237,0,0,1,3.237-3.237H130.588a3.237,3.237,0,0,1,3.237,3.237v7.02a3.237,3.237,0,0,1-3.237,3.237" transform="translate(-6.433 -67.165)" fill="#fff"/>
            <line id="Línea_694" data-name="Línea 694" x2="98.373" transform="translate(24.724 198.722)" fill="none" stroke="#131b20" stroke-linecap="round" stroke-miterlimit="10" stroke-width="1.7"/>
            <path id="Trazado_916686" data-name="Trazado 916686" d="M58.723,275.069H54.114a2.053,2.053,0,0,1-2.053-2.053v-6.27a2.053,2.053,0,0,1,2.053-2.053h4.609a2.053,2.053,0,0,1,2.053,2.053v6.27a2.053,2.053,0,0,1-2.053,2.053" transform="translate(-13.881 -70.573)" fill="#fff"/>
            <rect id="Rectángulo_408027" data-name="Rectángulo 408027" width="8.715" height="10.375" rx="2.799" transform="translate(38.18 194.121)" fill="none" stroke="#131b20" stroke-linecap="round" stroke-miterlimit="10" stroke-width="1.7"/>
            <path id="Trazado_916687" data-name="Trazado 916687" d="M139.618,275.069h-4.609a2.053,2.053,0,0,1-2.053-2.053v-6.27a2.053,2.053,0,0,1,2.053-2.053h4.609a2.053,2.053,0,0,1,2.053,2.053v6.27a2.053,2.053,0,0,1-2.053,2.053" transform="translate(-35.449 -70.573)" fill="#fff"/>
            <path id="Rectángulo_408028" data-name="Rectángulo 408028" d="M2.8,0H5.915a2.8,2.8,0,0,1,2.8,2.8V7.576a2.8,2.8,0,0,1-2.8,2.8H2.8A2.8,2.8,0,0,1,0,7.576V2.8A2.8,2.8,0,0,1,2.8,0Z" transform="translate(97.506 194.121)" fill="none" stroke="#131b20" stroke-linecap="round" stroke-miterlimit="10" stroke-width="1.7"/>
            <path id="Trazado_916688" data-name="Trazado 916688" d="M131.037,292.509v24.567a3.559,3.559,0,0,1-3.558,3.557H35.967a3.558,3.558,0,0,1-3.556-3.557V292.509Z" transform="translate(-8.642 -77.99)" fill="#131b20"/>
            <path id="Trazado_916689" data-name="Trazado 916689" d="M122.668,113.447,92.9,111.823l-12,31.785a25.3,25.3,0,0,0-1.568,10.712c.94,13.358,3.3,46.758,3.806,53,.166,2.047,1.96,3.044,4.41,3.8l9.418,1.978c2.166.471,5.086,0,5.463-3.391l.159-2.964,1.773-8.031,3.828-40.8Z" transform="translate(-21.135 -29.815)" fill="#ff8400"/>
            <line id="Línea_695" data-name="Línea 695" x1="0.071" y2="5.844" transform="translate(74.624 176.842)" fill="none" stroke="#131b20" stroke-linecap="round" stroke-miterlimit="10" stroke-width="1.7"/>
            <line id="Línea_696" data-name="Línea 696" x1="0.001" y2="4.347" transform="translate(69.71 177.336)" fill="none" stroke="#131b20" stroke-linecap="round" stroke-miterlimit="10" stroke-width="1.7"/>
            <line id="Línea_697" data-name="Línea 697" x1="0.057" y2="3.332" transform="translate(65.589 177.169)" fill="none" stroke="#131b20" stroke-linecap="round" stroke-miterlimit="10" stroke-width="1.7"/>
            <path id="Trazado_916690" data-name="Trazado 916690" d="M85.681,114.958l36.459,3.5,20.352-52.093L137.7,65.6A39.586,39.586,0,0,0,94.637,90.049c-.172.419-.331.846-.486,1.275Z" transform="translate(-22.845 -17.356)" fill="#fff"/>
            <line id="Línea_698" data-name="Línea 698" y1="22.069" x2="7.987" transform="translate(95.436 79.515)" fill="none" stroke="#131b20" stroke-linecap="round" stroke-miterlimit="10" stroke-width="1.7"/>
            <line id="Línea_699" data-name="Línea 699" x1="5.03" y2="4.742" transform="translate(101.232 81.843)" fill="none" stroke="#131b20" stroke-linecap="round" stroke-miterlimit="10" stroke-width="1.7"/>
            <path id="Trazado_916691" data-name="Trazado 916691" d="M107.577,102.128c2.131,1.264,5.362-.245,7.216-3.37s1.63-6.684-.5-7.948-5.362.245-7.216,3.371-1.63,6.683.5,7.948" transform="translate(-28.214 -24.093)" fill="#131b20"/>
            <line id="Línea_700" data-name="Línea 700" y1="45.758" x2="15.875" transform="translate(73.473 52.666)" fill="none" stroke="#131b20" stroke-linecap="round" stroke-miterlimit="10" stroke-width="1.7"/>
            <path id="Trazado_916692" data-name="Trazado 916692" d="M199.368,14.815a2.9,2.9,0,0,1-4.961-2.032,2.847,2.847,0,0,1,.422-1.5,14.2,14.2,0,0,1,4.539,3.533" transform="translate(-51.833 -3.008)" fill="#131b20"/>
          </g>
        </g>
      </g>
    </g>
  </g>
</svg>
