<svg xmlns="http://www.w3.org/2000/svg" xmlns:xlink="http://www.w3.org/1999/xlink" width="108" height="108" viewBox="0 0 108 108">
  <defs>
    <filter id="Trazado_904820" x="0" y="0" width="108" height="108" filterUnits="userSpaceOnUse">
      <feOffset dy="3" input="SourceAlpha"/>
      <feGaussianBlur stdDeviation="3" result="blur"/>
      <feFlood flood-opacity="0.161"/>
      <feComposite operator="in" in2="blur"/>
      <feComposite in="SourceGraphic"/>
    </filter>
  </defs>
  <g id="img13" transform="translate(9 6)">
    <g id="Icono">
      <g transform="matrix(1, 0, 0, 1, -9, -6)" filter="url(#Trazado_904820)">
        <g id="Trazado_904820-2" data-name="Trazado 904820" transform="translate(9 6)" fill="#f3f0ea">
          <path d="M 45 88.5 C 39.12687683105469 88.5 33.43022537231445 87.35007476806641 28.06830024719238 85.08217620849609 C 22.88852500915527 82.89131164550781 18.23629951477051 79.75458526611328 14.2408504486084 75.75914764404297 C 10.24541282653809 71.76370239257812 7.108687400817871 67.11147308349609 4.917825222015381 61.93170166015625 C 2.649924993515015 56.56977462768555 1.5 50.87312316894531 1.5 45 C 1.5 39.12687683105469 2.649924993515015 33.43022537231445 4.917825222015381 28.06830024719238 C 7.108687400817871 22.88852500915527 10.24541282653809 18.23629951477051 14.2408504486084 14.2408504486084 C 18.23629951477051 10.24541282653809 22.88852500915527 7.108687400817871 28.06830024719238 4.917825222015381 C 33.43022537231445 2.649924993515015 39.12687683105469 1.5 45 1.5 C 50.87312316894531 1.5 56.56977462768555 2.649924993515015 61.93170166015625 4.917825222015381 C 67.11147308349609 7.108687400817871 71.76370239257812 10.24541282653809 75.75914764404297 14.2408504486084 C 79.75458526611328 18.23629951477051 82.89131164550781 22.88852500915527 85.08217620849609 28.06830024719238 C 87.35007476806641 33.43022537231445 88.5 39.12687683105469 88.5 45 C 88.5 50.87312316894531 87.35007476806641 56.56977462768555 85.08217620849609 61.93170166015625 C 82.89131164550781 67.11147308349609 79.75458526611328 71.76370239257812 75.75914764404297 75.75914764404297 C 71.76370239257812 79.75458526611328 67.11147308349609 82.89131164550781 61.93170166015625 85.08217620849609 C 56.56977462768555 87.35007476806641 50.87312316894531 88.5 45 88.5 Z" stroke="none"/>
          <path d="M 45 3 C 39.32871246337891 3 33.82865524291992 4.110054016113281 28.65262985229492 6.299339294433594 C 23.65165710449219 8.414573669433594 19.15968322753906 11.44334411621094 15.301513671875 15.301513671875 C 11.44334411621094 19.15968322753906 8.414573669433594 23.65165710449219 6.299339294433594 28.65262985229492 C 4.110054016113281 33.82865524291992 3 39.32871246337891 3 45 C 3 50.67128753662109 4.110054016113281 56.17134475708008 6.299339294433594 61.34737396240234 C 8.414573669433594 66.34834289550781 11.44334411621094 70.84031677246094 15.301513671875 74.698486328125 C 19.15968322753906 78.55665588378906 23.65165710449219 81.58542633056641 28.65262985229492 83.70066070556641 C 33.82865524291992 85.88994598388672 39.32871246337891 87 45 87 C 50.67128753662109 87 56.17134475708008 85.88994598388672 61.34737396240234 83.70066070556641 C 66.34834289550781 81.58542633056641 70.84031677246094 78.55665588378906 74.698486328125 74.698486328125 C 78.55665588378906 70.84031677246094 81.58542633056641 66.34834289550781 83.70066070556641 61.34737396240234 C 85.88994598388672 56.17134475708008 87 50.67128753662109 87 45 C 87 39.32871246337891 85.88994598388672 33.82865524291992 83.70066070556641 28.65262985229492 C 81.58542633056641 23.65165710449219 78.55665588378906 19.15968322753906 74.698486328125 15.301513671875 C 70.84031677246094 11.44334411621094 66.34834289550781 8.414573669433594 61.34737396240234 6.299339294433594 C 56.17134475708008 4.110054016113281 50.67128753662109 3 45 3 M 45 0 C 69.85281372070312 0 90 20.14718627929688 90 45 C 90 69.85281372070312 69.85281372070312 90 45 90 C 20.14718627929688 90 0 69.85281372070312 0 45 C 0 20.14718627929688 20.14718627929688 0 45 0 Z" stroke="none" fill="#1d531a"/>
        </g>
      </g>
    </g>
    <g id="hardware" transform="translate(17.713 17.16)">
      <path id="SVGCleanerId_0" d="M109.784,8.256H96.531a4.522,4.522,0,0,1-9.044,0H74.235a1.656,1.656,0,0,0-1.791,1.475V59.6a1.656,1.656,0,0,0,1.791,1.475h35.549a1.656,1.656,0,0,0,1.791-1.475V9.731A1.656,1.656,0,0,0,109.784,8.256Z" transform="translate(-64.722 -6.823)" fill="#53515e"/>
      <g id="Grupo_1147736" data-name="Grupo 1147736" transform="translate(0.814 5.79)">
        <path id="Trazado_916594" data-name="Trazado 916594" d="M444.43,53.578h-6.445V49.131h6.445a.63.63,0,0,1,.63.63v3.188A.63.63,0,0,1,444.43,53.578Z" transform="translate(-392.114 -49.131)" fill="#ffdc64"/>
        <path id="Trazado_916595" data-name="Trazado 916595" d="M444.43,130.527h-6.445V126.08h6.445a.63.63,0,0,1,.63.63V129.9A.63.63,0,0,1,444.43,130.527Z" transform="translate(-392.114 -117.878)" fill="#ffdc64"/>
        <path id="Trazado_916596" data-name="Trazado 916596" d="M444.43,207.477h-6.445V203.03h6.445a.63.63,0,0,1,.63.63v3.188A.63.63,0,0,1,444.43,207.477Z" transform="translate(-392.114 -186.626)" fill="#ffdc64"/>
        <path id="Trazado_916597" data-name="Trazado 916597" d="M444.43,284.425h-6.445v-4.447h6.445a.63.63,0,0,1,.63.63V283.8A.63.63,0,0,1,444.43,284.425Z" transform="translate(-392.114 -255.372)" fill="#ffdc64"/>
        <path id="Trazado_916598" data-name="Trazado 916598" d="M444.43,361.374h-6.445v-4.447h6.445a.63.63,0,0,1,.63.63v3.188A.63.63,0,0,1,444.43,361.374Z" transform="translate(-392.114 -324.119)" fill="#ffdc64"/>
        <path id="Trazado_916599" data-name="Trazado 916599" d="M444.43,438.324h-6.445v-4.447h6.445a.63.63,0,0,1,.63.63v3.188A.63.63,0,0,1,444.43,438.324Z" transform="translate(-392.114 -392.867)" fill="#ffdc64"/>
        <path id="Trazado_916600" data-name="Trazado 916600" d="M8.263,433.876h6.411v4.447H8.263a.628.628,0,0,1-.628-.628V434.5A.628.628,0,0,1,8.263,433.876Z" transform="translate(-7.635 -392.866)" fill="#ffdc64"/>
        <path id="Trazado_916601" data-name="Trazado 916601" d="M8.263,356.927h6.411v4.447H8.263a.628.628,0,0,1-.628-.628v-3.191A.628.628,0,0,1,8.263,356.927Z" transform="translate(-7.635 -324.119)" fill="#ffdc64"/>
        <path id="Trazado_916602" data-name="Trazado 916602" d="M8.263,279.978h6.411v4.447H8.263a.628.628,0,0,1-.628-.628v-3.191A.628.628,0,0,1,8.263,279.978Z" transform="translate(-7.635 -255.372)" fill="#ffdc64"/>
        <path id="Trazado_916603" data-name="Trazado 916603" d="M8.263,203.03h6.411v4.447H8.263a.628.628,0,0,1-.628-.628v-3.191A.628.628,0,0,1,8.263,203.03Z" transform="translate(-7.635 -186.626)" fill="#ffdc64"/>
        <path id="Trazado_916604" data-name="Trazado 916604" d="M8.263,126.08h6.411v4.447H8.263a.628.628,0,0,1-.628-.628v-3.191A.628.628,0,0,1,8.263,126.08Z" transform="translate(-7.635 -117.878)" fill="#ffdc64"/>
        <path id="Trazado_916605" data-name="Trazado 916605" d="M8.263,49.131h6.411v4.447H8.263a.628.628,0,0,1-.628-.628V49.759A.628.628,0,0,1,8.263,49.131Z" transform="translate(-7.635 -49.131)" fill="#ffdc64"/>
      </g>
      <g id="Grupo_1147737" data-name="Grupo 1147737" transform="translate(5.841 5.79)">
        <rect id="Rectángulo_408011" data-name="Rectángulo 408011" width="2.012" height="4.447" transform="translate(40.868 24.606)" fill="#ffc850"/>
        <rect id="Rectángulo_408012" data-name="Rectángulo 408012" width="2.012" height="4.447" transform="translate(40.868 16.404)" fill="#ffc850"/>
        <rect id="Rectángulo_408013" data-name="Rectángulo 408013" width="2.012" height="4.447" transform="translate(40.868 32.808)" fill="#ffc850"/>
        <rect id="Rectángulo_408014" data-name="Rectángulo 408014" width="2.012" height="4.447" transform="translate(40.868 41.01)" fill="#ffc850"/>
        <rect id="Rectángulo_408015" data-name="Rectángulo 408015" width="2.012" height="4.447" transform="translate(40.868)" fill="#ffc850"/>
        <rect id="Rectángulo_408016" data-name="Rectángulo 408016" width="2.012" height="4.447" transform="translate(40.868 8.202)" fill="#ffc850"/>
        <rect id="Rectángulo_408017" data-name="Rectángulo 408017" width="2.012" height="4.447" transform="translate(0 24.606)" fill="#ffc850"/>
        <rect id="Rectángulo_408018" data-name="Rectángulo 408018" width="2.012" height="4.447" transform="translate(0 16.404)" fill="#ffc850"/>
        <rect id="Rectángulo_408019" data-name="Rectángulo 408019" width="2.012" height="4.447" transform="translate(0 32.808)" fill="#ffc850"/>
        <rect id="Rectángulo_408020" data-name="Rectángulo 408020" width="2.012" height="4.447" transform="translate(0 41.01)" fill="#ffc850"/>
        <rect id="Rectángulo_408021" data-name="Rectángulo 408021" width="2.012" height="4.447" fill="#ffc850"/>
        <rect id="Rectángulo_408022" data-name="Rectángulo 408022" width="2.012" height="4.447" transform="translate(0 8.202)" fill="#ffc850"/>
      </g>
      <g id="Grupo_1147738" data-name="Grupo 1147738" transform="translate(7.722 1.433)">
        <path id="SVGCleanerId_0_1_" d="M109.784,8.256H96.531a4.522,4.522,0,0,1-9.044,0H74.235a1.656,1.656,0,0,0-1.791,1.475V59.6a1.656,1.656,0,0,0,1.791,1.475h35.549a1.656,1.656,0,0,0,1.791-1.475V9.731A1.656,1.656,0,0,0,109.784,8.256Z" transform="translate(-72.444 -8.256)" fill="#53515e"/>
      </g>
      <path id="Trazado_916606" data-name="Trazado 916606" d="M181.407,168.55l-1.021-.129a8.331,8.331,0,0,0-.745-1.8l.633-.813a1.023,1.023,0,0,0-.084-1.352l-1.622-1.622a1.023,1.023,0,0,0-1.351-.085l-.815.633a8.335,8.335,0,0,0-1.787-.742l-.128-1.022a1.023,1.023,0,0,0-1.015-.9h-2.294a1.023,1.023,0,0,0-1.015.9l-.129,1.021a8.333,8.333,0,0,0-1.8.745l-.815-.633a1.023,1.023,0,0,0-1.351.085l-1.622,1.622a1.023,1.023,0,0,0-.084,1.352l.633.813a8.332,8.332,0,0,0-.745,1.8l-1.021.129a1.023,1.023,0,0,0-.9,1.015v2.294a1.023,1.023,0,0,0,.9,1.015l1.022.128a8.335,8.335,0,0,0,.742,1.787l-.633.815a1.023,1.023,0,0,0,.085,1.351l1.622,1.622a1.023,1.023,0,0,0,1.352.084l.813-.633a8.331,8.331,0,0,0,1.8.745l.129,1.021a1.023,1.023,0,0,0,1.015.9h2.294a1.023,1.023,0,0,0,1.015-.9l.128-1.022a8.325,8.325,0,0,0,1.788-.743l.813.633a1.023,1.023,0,0,0,1.352-.084l1.622-1.622a1.023,1.023,0,0,0,.085-1.351l-.633-.815a8.328,8.328,0,0,0,.742-1.787l1.022-.128a1.023,1.023,0,0,0,.9-1.015v-2.294A1.023,1.023,0,0,0,181.407,168.55Zm-9.089,7.149a4.992,4.992,0,1,1,4.992-4.992A4.992,4.992,0,0,1,172.319,175.7Z" transform="translate(-145.032 -143.038)" fill="#dfe2ea"/>
      <path id="Trazado_916607" data-name="Trazado 916607" d="M199.485,191.633a6.86,6.86,0,1,0,6.86,6.86A6.86,6.86,0,0,0,199.485,191.633Zm-.1,11.681a4.992,4.992,0,1,1,4.992-4.992A4.992,4.992,0,0,1,199.38,203.314Z" transform="translate(-172.093 -170.654)" fill="#c7cad3"/>
      <path id="Trazado_916608" data-name="Trazado 916608" d="M109.784,8.256H106.5V37.277A18.206,18.206,0,0,1,88.254,55.482c-10.948-.022-15.81-.058-15.81-.058V59.6a1.656,1.656,0,0,0,1.791,1.475h35.549a1.656,1.656,0,0,0,1.791-1.475V9.731A1.656,1.656,0,0,0,109.784,8.256Z" transform="translate(-64.722 -6.823)" fill="#474756"/>
      <path id="Trazado_916609" data-name="Trazado 916609" d="M53.138,11.051a1.438,1.438,0,0,0,1.436-1.436v-3.2a1.438,1.438,0,0,0-1.436-1.436H47.666V2.908a2.465,2.465,0,0,0-2.6-2.289H31.809A.814.814,0,0,0,31,1.433a4,4,0,0,1-3.708,3.672,4,4,0,0,1-3.708-3.672.814.814,0,0,0-.814-.814H13.858a.814.814,0,0,0,0,1.628h8.175a5.643,5.643,0,0,0,5.255,4.486,5.642,5.642,0,0,0,5.254-4.486h12.52c.521,0,.977.309.977.661V52.772c0,.352-.457.661-.977.661H9.513c-.521,0-.977-.309-.977-.661V2.908c0-.352.457-.661.977-.661H10.9a.814.814,0,0,0,0-1.628H9.513a2.465,2.465,0,0,0-2.6,2.289V4.976H1.436A1.438,1.438,0,0,0,0,6.412v3.2a1.438,1.438,0,0,0,1.436,1.436H6.908v2.127H1.436A1.438,1.438,0,0,0,0,14.614v3.2a1.438,1.438,0,0,0,1.436,1.436H6.908V21.38H1.436A1.438,1.438,0,0,0,0,22.816v3.2a1.438,1.438,0,0,0,1.436,1.436H6.908v2.127H1.436A1.438,1.438,0,0,0,0,31.018v3.2a1.438,1.438,0,0,0,1.436,1.436H6.908v2.127H1.436A1.438,1.438,0,0,0,0,39.22v3.2a1.438,1.438,0,0,0,1.436,1.436H6.908v2.127H1.436A1.438,1.438,0,0,0,0,47.422v3.2a1.438,1.438,0,0,0,1.436,1.436H6.908v.711a2.465,2.465,0,0,0,2.6,2.289H45.061a2.465,2.465,0,0,0,2.6-2.289v-.711h5.472a1.438,1.438,0,0,0,1.436-1.436v-3.2a1.438,1.438,0,0,0-1.436-1.436H47.666V43.859h5.472a1.438,1.438,0,0,0,1.436-1.436v-3.2a1.438,1.438,0,0,0-1.436-1.436H47.666V35.657h5.472a1.438,1.438,0,0,0,1.436-1.436v-3.2a1.438,1.438,0,0,0-1.436-1.436H47.666V27.455h5.472a1.438,1.438,0,0,0,1.436-1.436v-3.2a1.438,1.438,0,0,0-1.436-1.436H47.666V19.253h5.472a1.438,1.438,0,0,0,1.436-1.436v-3.2a1.438,1.438,0,0,0-1.436-1.436H47.666V11.051ZM1.628,9.423V6.6h5.28v2.82Zm0,8.2v-2.82h5.28v2.82Zm0,8.2v-2.82h5.28v2.82Zm0,8.2V31.21h5.28v2.82Zm0,8.2v-2.82h5.28v2.82Zm0,8.2v-2.82h5.28v2.82ZM52.946,6.6v2.82h-5.28V6.6Zm0,41.01v2.82h-5.28v-2.82Zm0-8.2v2.82h-5.28v-2.82Zm0-8.2v2.82h-5.28V31.21Zm0-8.2v2.82h-5.28v-2.82Zm0-8.2v2.82h-5.28v-2.82Z"/>
      <path id="Trazado_916610" data-name="Trazado 916610" d="M154.71,161.054a1.858,1.858,0,0,0-1.623,1.84v2.334a1.858,1.858,0,0,0,1.625,1.84l.523.065a9.3,9.3,0,0,0,.41.988l-.324.417a1.858,1.858,0,0,0,.154,2.449l1.65,1.65a1.858,1.858,0,0,0,2.451.153l.415-.323a9.3,9.3,0,0,0,1,.414l.066.521a1.858,1.858,0,0,0,1.84,1.623h2.334a1.858,1.858,0,0,0,1.84-1.625l.065-.523a9.324,9.324,0,0,0,.988-.411l.415.323a1.858,1.858,0,0,0,2.45-.153l1.65-1.65a1.858,1.858,0,0,0,.154-2.449l-.324-.417a9.3,9.3,0,0,0,.41-.988l.523-.065a1.858,1.858,0,0,0,1.625-1.84v-2.334a1.858,1.858,0,0,0-1.623-1.84l-.521-.066a9.326,9.326,0,0,0-.414-1l.323-.415a1.858,1.858,0,0,0-.152-2.45l-1.65-1.65a1.858,1.858,0,0,0-2.449-.154l-.417.324a9.286,9.286,0,0,0-.988-.41l-.065-.523a1.858,1.858,0,0,0-1.84-1.625H162.9a1.858,1.858,0,0,0-1.84,1.623l-.066.521a9.289,9.289,0,0,0-1,.414l-.417-.324a1.858,1.858,0,0,0-2.449.154l-1.65,1.65a1.858,1.858,0,0,0-.153,2.45l.323.415a9.3,9.3,0,0,0-.414,1Zm1.242,1.484a.814.814,0,0,0,.681-.586,7.672,7.672,0,0,1,.685-1.653.814.814,0,0,0-.068-.9l-.643-.827a.227.227,0,0,1,.019-.3l1.65-1.65a.227.227,0,0,1,.3-.019l.829.643a.814.814,0,0,0,.9.068,7.667,7.667,0,0,1,1.652-.685.814.814,0,0,0,.586-.681l.131-1.039a.227.227,0,0,1,.225-.2h2.334a.227.227,0,0,1,.225.2l.13,1.04a.814.814,0,0,0,.585.682,7.675,7.675,0,0,1,1.643.682.814.814,0,0,0,.9-.068l.829-.644a.227.227,0,0,1,.3.019l1.65,1.65a.227.227,0,0,1,.019.3l-.643.827a.814.814,0,0,0-.068.9,7.668,7.668,0,0,1,.685,1.653.814.814,0,0,0,.681.586l1.039.131a.227.227,0,0,1,.2.225v2.334a.227.227,0,0,1-.2.225l-1.04.13a.814.814,0,0,0-.682.585,7.664,7.664,0,0,1-.682,1.643.814.814,0,0,0,.068.9l.643.829a.227.227,0,0,1-.019.3l-1.65,1.65a.227.227,0,0,1-.3.019l-.827-.643a.814.814,0,0,0-.9-.068,7.684,7.684,0,0,1-1.644.683.814.814,0,0,0-.585.682l-.13,1.04a.227.227,0,0,1-.225.2H162.9a.227.227,0,0,1-.225-.2l-.131-1.039a.814.814,0,0,0-.586-.681,7.674,7.674,0,0,1-1.653-.685.814.814,0,0,0-.9.068l-.827.643a.227.227,0,0,1-.3-.019l-1.65-1.65a.227.227,0,0,1-.019-.3l.644-.829a.814.814,0,0,0,.068-.9,7.666,7.666,0,0,1-.682-1.643.814.814,0,0,0-.682-.585l-1.04-.13a.227.227,0,0,1-.2-.225v-2.334a.227.227,0,0,1,.2-.225Z" transform="translate(-136.769 -136.216)"/>
      <path id="Trazado_916611" data-name="Trazado 916611" d="M202.286,209.393a.814.814,0,0,0,.421-1.071,4.262,4.262,0,1,1,1.852,2.032.814.814,0,0,0-.787,1.425,5.886,5.886,0,1,0-2.558-2.806A.814.814,0,0,0,202.286,209.393Z" transform="translate(-179.33 -178.778)"/>
    </g>
  </g>
</svg>
