<svg xmlns="http://www.w3.org/2000/svg" xmlns:xlink="http://www.w3.org/1999/xlink" width="108" height="108" viewBox="0 0 108 108">
  <defs>
    <filter id="Trazado_904820" x="0" y="0" width="108" height="108" filterUnits="userSpaceOnUse">
      <feOffset dy="3" input="SourceAlpha"/>
      <feGaussianBlur stdDeviation="3" result="blur"/>
      <feFlood flood-opacity="0.161"/>
      <feComposite operator="in" in2="blur"/>
      <feComposite in="SourceGraphic"/>
    </filter>
  </defs>
  <g id="img8" transform="translate(-201 -481)">
    <g id="Icono" transform="translate(-414.101 -4519)">
      <g transform="matrix(1, 0, 0, 1, 615.1, 5000)" filter="url(#Trazado_904820)">
        <g id="Trazado_904820-2" data-name="Trazado 904820" transform="translate(9 6)" fill="#f3f0ea">
          <path d="M 45 88.5 C 39.12687683105469 88.5 33.43022537231445 87.35007476806641 28.06830024719238 85.08217620849609 C 22.88852500915527 82.89131164550781 18.23629951477051 79.75458526611328 14.2408504486084 75.75914764404297 C 10.24541282653809 71.76370239257812 7.108687400817871 67.11147308349609 4.917825222015381 61.93170166015625 C 2.649924993515015 56.56977462768555 1.5 50.87312316894531 1.5 45 C 1.5 39.12687683105469 2.649924993515015 33.43022537231445 4.917825222015381 28.06830024719238 C 7.108687400817871 22.88852500915527 10.24541282653809 18.23629951477051 14.2408504486084 14.2408504486084 C 18.23629951477051 10.24541282653809 22.88852500915527 7.108687400817871 28.06830024719238 4.917825222015381 C 33.43022537231445 2.649924993515015 39.12687683105469 1.5 45 1.5 C 50.87312316894531 1.5 56.56977462768555 2.649924993515015 61.93170166015625 4.917825222015381 C 67.11147308349609 7.108687400817871 71.76370239257812 10.24541282653809 75.75914764404297 14.2408504486084 C 79.75458526611328 18.23629951477051 82.89131164550781 22.88852500915527 85.08217620849609 28.06830024719238 C 87.35007476806641 33.43022537231445 88.5 39.12687683105469 88.5 45 C 88.5 50.87312316894531 87.35007476806641 56.56977462768555 85.08217620849609 61.93170166015625 C 82.89131164550781 67.11147308349609 79.75458526611328 71.76370239257812 75.75914764404297 75.75914764404297 C 71.76370239257812 79.75458526611328 67.11147308349609 82.89131164550781 61.93170166015625 85.08217620849609 C 56.56977462768555 87.35007476806641 50.87312316894531 88.5 45 88.5 Z" stroke="none"/>
          <path d="M 45 3 C 39.32871246337891 3 33.82865524291992 4.110054016113281 28.65262985229492 6.299339294433594 C 23.65165710449219 8.414573669433594 19.15968322753906 11.44334411621094 15.301513671875 15.301513671875 C 11.44334411621094 19.15968322753906 8.414573669433594 23.65165710449219 6.299339294433594 28.65262985229492 C 4.110054016113281 33.82865524291992 3 39.32871246337891 3 45 C 3 50.67128753662109 4.110054016113281 56.17134475708008 6.299339294433594 61.34737396240234 C 8.414573669433594 66.34834289550781 11.44334411621094 70.84031677246094 15.301513671875 74.698486328125 C 19.15968322753906 78.55665588378906 23.65165710449219 81.58542633056641 28.65262985229492 83.70066070556641 C 33.82865524291992 85.88994598388672 39.32871246337891 87 45 87 C 50.67128753662109 87 56.17134475708008 85.88994598388672 61.34737396240234 83.70066070556641 C 66.34834289550781 81.58542633056641 70.84031677246094 78.55665588378906 74.698486328125 74.698486328125 C 78.55665588378906 70.84031677246094 81.58542633056641 66.34834289550781 83.70066070556641 61.34737396240234 C 85.88994598388672 56.17134475708008 87 50.67128753662109 87 45 C 87 39.32871246337891 85.88994598388672 33.82865524291992 83.70066070556641 28.65262985229492 C 81.58542633056641 23.65165710449219 78.55665588378906 19.15968322753906 74.698486328125 15.301513671875 C 70.84031677246094 11.44334411621094 66.34834289550781 8.414573669433594 61.34737396240234 6.299339294433594 C 56.17134475708008 4.110054016113281 50.67128753662109 3 45 3 M 45 0 C 69.85281372070312 0 90 20.14718627929688 90 45 C 90 69.85281372070312 69.85281372070312 90 45 90 C 20.14718627929688 90 0 69.85281372070312 0 45 C 0 20.14718627929688 20.14718627929688 0 45 0 Z" stroke="none" fill="#1d531a"/>
        </g>
      </g>
    </g>
    <g id="Layer_18" data-name="Layer 18" transform="translate(204.388 492.326)">
      <rect id="Rectángulo_408010" data-name="Rectángulo 408010" width="32.495" height="45.494" rx="16" transform="translate(24.928 24.925)" fill="#cecece"/>
      <path id="Trazado_916569" data-name="Trazado 916569" d="M83.587,144H56v27.4a14.5,14.5,0,0,0,14.5,14.5H85.63V146.043A2.043,2.043,0,0,0,83.587,144Z" transform="translate(-27.913 -118.631)" fill="#e6e6e6"/>
      <path id="Trazado_916570" data-name="Trazado 916570" d="M111.5,144H88v23.308a14.5,14.5,0,0,0,14.5,14.5h11.047v-35.76A2.043,2.043,0,0,0,111.5,144Z" transform="translate(-55.826 -118.631)" fill="#f0f0f0"/>
      <path id="Trazado_916571" data-name="Trazado 916571" d="M80,342.478V322.043A2.043,2.043,0,0,1,82.043,320H98.391a2.043,2.043,0,0,1,2.043,2.043v20.435Z" transform="translate(-48.848 -272.153)" fill="#413974"/>
      <path id="Trazado_916572" data-name="Trazado 916572" d="M101.063,340.435h13.328V322.043A2.043,2.043,0,0,0,112.348,320H96v15.372A5.063,5.063,0,0,0,101.063,340.435Z" transform="translate(-62.804 -272.153)" fill="#6d6aa3"/>
      <path id="Trazado_916573" data-name="Trazado 916573" d="M96,176h16.348v4.087H96Z" transform="translate(-62.804 -146.544)" fill="#80bbce"/>
      <path id="Trazado_916574" data-name="Trazado 916574" d="M104,176.424a2.641,2.641,0,0,0,2.641,2.641h12.685V176H104Z" transform="translate(-69.783 -146.544)" fill="#a7d0e1"/>
      <path id="Trazado_916575" data-name="Trazado 916575" d="M139.065,352l3.065,5.109H136Z" transform="translate(-97.696 -300.066)" fill="#e8465e"/>
      <path id="Trazado_916576" data-name="Trazado 916576" d="M144,362.924h5.109l-2.554-4.257Z" transform="translate(-104.674 -305.881)" fill="#f25e6c"/>
      <path id="Trazado_916577" data-name="Trazado 916577" d="M120,116.087v-3.065A1.022,1.022,0,0,1,121.022,112H129.2a1.022,1.022,0,0,1,1.022,1.022v3.065Z" transform="translate(-83.739 -90.718)" fill="#413974"/>
      <path id="Trazado_916578" data-name="Trazado 916578" d="M130.262,115.065H137.2v-2.043A1.022,1.022,0,0,0,136.174,112H128v.8A2.262,2.262,0,0,0,130.262,115.065Z" transform="translate(-90.718 -90.718)" fill="#6d6aa3"/>
      <path id="Trazado_916579" data-name="Trazado 916579" d="M424.174,148.087l-2.043,6.13V158.3h-4.087v-4.087L416,148.087V144h8.174Z" transform="translate(-341.935 -118.631)" fill="#cecece"/>
      <path id="Trazado_916580" data-name="Trazado 916580" d="M431.152,148.087V144H424v4.087l2.043,6.13V158.3h3.065v-4.087Z" transform="translate(-348.914 -118.631)" fill="#e6e6e6"/>
      <path id="Trazado_916581" data-name="Trazado 916581" d="M432,224h4.087v4.087H432Z" transform="translate(-355.892 -188.413)" fill="#413974"/>
      <path id="Trazado_916582" data-name="Trazado 916582" d="M440,225.022a2.043,2.043,0,0,0,2.043,2.043h1.022V224H440Z" transform="translate(-362.87 -188.413)" fill="#6d6aa3"/>
      <path id="Trazado_916583" data-name="Trazado 916583" d="M416,144h8.174v4.087H416Z" transform="translate(-341.935 -118.631)" fill="#413974"/>
      <path id="Trazado_916584" data-name="Trazado 916584" d="M424,145.022a2.043,2.043,0,0,0,2.043,2.043h5.109V144H424Z" transform="translate(-348.914 -118.631)" fill="#6d6aa3"/>
      <path id="Trazado_916585" data-name="Trazado 916585" d="M89.022,174.13h3.065a1.022,1.022,0,1,0,0-2.043H90.043v-2.043h14.3v2.043H96.16a1.022,1.022,0,0,0,0,2.043h9.209a1.022,1.022,0,0,0,1.022-1.022v-4.087A1.022,1.022,0,0,0,105.369,168H89.022A1.022,1.022,0,0,0,88,169.022v4.087A1.022,1.022,0,0,0,89.022,174.13Z" transform="translate(-55.826 -139.566)"/>
      <path id="Trazado_916586" data-name="Trazado 916586" d="M57.022,258.043h2.043a1.022,1.022,0,1,0,0-2.043H57.022a1.022,1.022,0,1,0,0,2.043Z" transform="translate(-27.913 -216.327)"/>
      <path id="Trazado_916587" data-name="Trazado 916587" d="M107.065,256h-2.043a1.022,1.022,0,1,0,0,2.043h2.043a1.022,1.022,0,1,0,0-2.043Z" transform="translate(-69.783 -216.327)"/>
      <path id="Trazado_916588" data-name="Trazado 916588" d="M187.065,256h-2.043a1.022,1.022,0,1,0,0,2.043h2.043a1.022,1.022,0,1,0,0-2.043Z" transform="translate(-139.566 -216.327)"/>
      <path id="Trazado_916589" data-name="Trazado 916589" d="M233.022,258.043h2.043a1.022,1.022,0,1,0,0-2.043h-2.043a1.022,1.022,0,1,0,0,2.043Z" transform="translate(-181.435 -216.327)"/>
      <path id="Trazado_916590" data-name="Trazado 916590" d="M129.022,351.39h6.13a1.022,1.022,0,0,0,.876-1.548l-3.065-5.109a1.063,1.063,0,0,0-1.752,0l-3.065,5.109a1.022,1.022,0,0,0,.876,1.548Zm3.065-4.145,1.26,2.1h-2.52Z" transform="translate(-90.718 -293.326)"/>
      <path id="Trazado_916591" data-name="Trazado 916591" d="M123.239,456H113.022a1.022,1.022,0,1,0,0,2.043h10.217a1.022,1.022,0,1,0,0-2.043Z" transform="translate(-76.761 -390.783)"/>
      <path id="Trazado_916592" data-name="Trazado 916592" d="M78.151,47.847a1.022,1.022,0,0,0-1.022,1.022v5.109a6.13,6.13,0,0,1-12.261,0V20.261a12.261,12.261,0,1,0-24.521,0H37.282A2.046,2.046,0,0,0,35.239,22.3v2.043H27.065A3.069,3.069,0,0,0,24,27.413V68.282a3.069,3.069,0,0,0,3.065,3.065H55.673a3.069,3.069,0,0,0,3.065-3.065V27.413a3.069,3.069,0,0,0-3.065-3.065H47.5V22.3a2.046,2.046,0,0,0-2.043-2.043H42.391a10.217,10.217,0,0,1,20.435,0V53.978a8.174,8.174,0,1,0,16.348,0V48.869A1.022,1.022,0,0,0,78.151,47.847ZM56.7,27.413V68.282A1.022,1.022,0,0,1,55.673,69.3H52.608V65.212a1.022,1.022,0,1,0-2.043,0V69.3H32.174V49.891A1.022,1.022,0,0,1,33.2,48.869H49.543a1.022,1.022,0,0,1,1.022,1.022V61.13a1.022,1.022,0,1,0,2.043,0V49.891a3.069,3.069,0,0,0-3.065-3.065H33.2a3.069,3.069,0,0,0-3.065,3.065V69.3H27.065a1.022,1.022,0,0,1-1.022-1.022V27.413a1.023,1.023,0,0,1,1.022-1.022H55.673A1.023,1.023,0,0,1,56.7,27.413ZM45.456,22.3v2.043H37.282V22.3Z"/>
      <path id="Trazado_916593" data-name="Trazado 916593" d="M417.2,101.109h-1.022V97.022a1.022,1.022,0,0,0-2.043,0v4.087h-2.043V97.022a1.022,1.022,0,1,0-2.043,0v4.087h-1.022A1.022,1.022,0,0,0,408,102.13v4.087a1.02,1.02,0,0,0,.053.323l1.991,5.973v3.921a1.022,1.022,0,0,0,1.022,1.022h1.022v4.05a1.022,1.022,0,1,0,2.043,0v-4.05h1.022a1.022,1.022,0,0,0,1.022-1.022v-3.921l1.991-5.973a1.019,1.019,0,0,0,.053-.324V102.13A1.022,1.022,0,0,0,417.2,101.109Zm-1.022,2.043V105.2h-6.13v-2.043Zm-5.734,4.087h5.339l-1.362,4.087H411.8Zm1.647,8.174v-2.043h2.043v2.043Z" transform="translate(-334.957 -76.761)"/>
    </g>
  </g>
</svg>
