<svg xmlns="http://www.w3.org/2000/svg" xmlns:xlink="http://www.w3.org/1999/xlink" width="108" height="108" viewBox="0 0 108 108">
  <defs>
    <filter id="Trazado_904820" x="0" y="0" width="108" height="108" filterUnits="userSpaceOnUse">
      <feOffset dy="3" input="SourceAlpha"/>
      <feGaussianBlur stdDeviation="3" result="blur"/>
      <feFlood flood-opacity="0.161"/>
      <feComposite operator="in" in2="blur"/>
      <feComposite in="SourceGraphic"/>
    </filter>
  </defs>
  <g id="img10" transform="translate(-201 -481)">
    <g id="Icono" transform="translate(-414.101 -4519)">
      <g transform="matrix(1, 0, 0, 1, 615.1, 5000)" filter="url(#Trazado_904820)">
        <g id="Trazado_904820-2" data-name="Trazado 904820" transform="translate(9 6)" fill="#f9f7f4">
          <path d="M 45 88.5 C 39.12687683105469 88.5 33.43022537231445 87.35007476806641 28.06830024719238 85.08217620849609 C 22.88852500915527 82.89131164550781 18.23629951477051 79.75458526611328 14.2408504486084 75.75914764404297 C 10.24541282653809 71.76370239257812 7.108687400817871 67.11147308349609 4.917825222015381 61.93170166015625 C 2.649924993515015 56.56977462768555 1.5 50.87312316894531 1.5 45 C 1.5 39.12687683105469 2.649924993515015 33.43022537231445 4.917825222015381 28.06830024719238 C 7.108687400817871 22.88852500915527 10.24541282653809 18.23629951477051 14.2408504486084 14.2408504486084 C 18.23629951477051 10.24541282653809 22.88852500915527 7.108687400817871 28.06830024719238 4.917825222015381 C 33.43022537231445 2.649924993515015 39.12687683105469 1.5 45 1.5 C 50.87312316894531 1.5 56.56977462768555 2.649924993515015 61.93170166015625 4.917825222015381 C 67.11147308349609 7.108687400817871 71.76370239257812 10.24541282653809 75.75914764404297 14.2408504486084 C 79.75458526611328 18.23629951477051 82.89131164550781 22.88852500915527 85.08217620849609 28.06830024719238 C 87.35007476806641 33.43022537231445 88.5 39.12687683105469 88.5 45 C 88.5 50.87312316894531 87.35007476806641 56.56977462768555 85.08217620849609 61.93170166015625 C 82.89131164550781 67.11147308349609 79.75458526611328 71.76370239257812 75.75914764404297 75.75914764404297 C 71.76370239257812 79.75458526611328 67.11147308349609 82.89131164550781 61.93170166015625 85.08217620849609 C 56.56977462768555 87.35007476806641 50.87312316894531 88.5 45 88.5 Z" stroke="none"/>
          <path d="M 45 3 C 39.32871246337891 3 33.82865524291992 4.110054016113281 28.65262985229492 6.299339294433594 C 23.65165710449219 8.414573669433594 19.15968322753906 11.44334411621094 15.301513671875 15.301513671875 C 11.44334411621094 19.15968322753906 8.414573669433594 23.65165710449219 6.299339294433594 28.65262985229492 C 4.110054016113281 33.82865524291992 3 39.32871246337891 3 45 C 3 50.67128753662109 4.110054016113281 56.17134475708008 6.299339294433594 61.34737396240234 C 8.414573669433594 66.34834289550781 11.44334411621094 70.84031677246094 15.301513671875 74.698486328125 C 19.15968322753906 78.55665588378906 23.65165710449219 81.58542633056641 28.65262985229492 83.70066070556641 C 33.82865524291992 85.88994598388672 39.32871246337891 87 45 87 C 50.67128753662109 87 56.17134475708008 85.88994598388672 61.34737396240234 83.70066070556641 C 66.34834289550781 81.58542633056641 70.84031677246094 78.55665588378906 74.698486328125 74.698486328125 C 78.55665588378906 70.84031677246094 81.58542633056641 66.34834289550781 83.70066070556641 61.34737396240234 C 85.88994598388672 56.17134475708008 87 50.67128753662109 87 45 C 87 39.32871246337891 85.88994598388672 33.82865524291992 83.70066070556641 28.65262985229492 C 81.58542633056641 23.65165710449219 78.55665588378906 19.15968322753906 74.698486328125 15.301513671875 C 70.84031677246094 11.44334411621094 66.34834289550781 8.414573669433594 61.34737396240234 6.299339294433594 C 56.17134475708008 4.110054016113281 50.67128753662109 3 45 3 M 45 0 C 69.85281372070312 0 90 20.14718627929688 90 45 C 90 69.85281372070312 69.85281372070312 90 45 90 C 20.14718627929688 90 0 69.85281372070312 0 45 C 0 20.14718627929688 20.14718627929688 0 45 0 Z" stroke="none" fill="#1d531a"/>
        </g>
      </g>
    </g>
    <g id="badge_8728737" transform="translate(189.716 499.29)">
      <g id="Grupo_1147825" data-name="Grupo 1147825" transform="translate(40.314 2.168)">
        <g id="Grupo_1147824" data-name="Grupo 1147824" transform="translate(0 0)">
          <path id="Trazado_916938" data-name="Trazado 916938" d="M283.99,328.981l7.31,12.661a.746.746,0,0,0,1.376-.218l2.117-9.986,9.707,3.16a.746.746,0,0,0,.877-1.082l-7.213-12.492Z" transform="translate(-255.539 -282.394)" fill="#fad808" fill-rule="evenodd"/>
          <path id="Trazado_916939" data-name="Trazado 916939" d="M76.687,328.981l-7.31,12.661A.746.746,0,0,1,68,341.424l-2.117-9.986-9.707,3.16a.746.746,0,0,1-.877-1.082l7.212-12.492Z" transform="translate(-55.198 -282.395)" fill="#fad808" fill-rule="evenodd"/>
          <path id="Trazado_916940" data-name="Trazado 916940" d="M84.864,58.995a24.3,24.3,0,1,0-24.3-24.3A24.35,24.35,0,0,0,84.864,58.995Z" transform="translate(-59.894 -10.389)" fill="#1980f2" fill-rule="evenodd"/>
          <path id="Trazado_916941" data-name="Trazado 916941" d="M117.869,87.312A19.616,19.616,0,1,0,98.253,67.7,19.654,19.654,0,0,0,117.869,87.312Z" transform="translate(-92.899 -43.393)" fill="#eff4f7" fill-rule="evenodd"/>
        </g>
        <path id="Trazado_916942" data-name="Trazado 916942" d="M158.635,100.078l3.733,9.4,10.094.646-7.786,6.455,2.5,9.8-8.545-5.411-8.546,5.411,2.5-9.8-7.786-6.455,10.094-.646Z" transform="translate(-133.665 -88.925)" fill="#fad808" fill-rule="evenodd"/>
      </g>
      <path id="Trazado_916943" data-name="Trazado 916943" d="M70.53,28.94a1.245,1.245,0,0,0-.41,1.265l1.73,6.766-5.9-3.735a1.243,1.243,0,0,0-1.33,0l-5.9,3.735,1.73-6.766a1.244,1.244,0,0,0-.411-1.265l-5.376-4.457,6.969-.446a1.242,1.242,0,0,0,1.076-.782l2.578-6.49,2.578,6.49a1.242,1.242,0,0,0,1.076.782l6.969.446Zm9.764-5.881a1.243,1.243,0,0,0-1.1-.857l-9.308-.6-3.443-8.668a1.243,1.243,0,0,0-2.311,0l-3.442,8.668-9.308.6a1.243,1.243,0,0,0-.714,2.2l7.181,5.953-2.31,9.037A1.243,1.243,0,0,0,57.4,40.748l7.881-4.989,7.88,4.989a1.244,1.244,0,0,0,1.87-1.359l-2.31-9.037L79.906,24.4A1.242,1.242,0,0,0,80.294,23.059ZM79.953,50.1a1.245,1.245,0,0,0-1.6.925L76.5,59.746,71.625,51.3a25.548,25.548,0,0,0,11.914-6.9l4.887,8.464ZM42.225,26.547A23.059,23.059,0,1,0,65.284,3.487a23.086,23.086,0,0,0-23.059,23.06Zm11.84,33.2-1.848-8.717a1.243,1.243,0,0,0-1.6-.925l-8.474,2.758L47.029,44.4a25.557,25.557,0,0,0,11.915,6.9ZM92.2,54.427,85.276,42.433a25.546,25.546,0,1,0-39.984,0L38.367,54.426a1.244,1.244,0,0,0,1.462,1.8L50.071,52.9,52.3,63.433a1.243,1.243,0,0,0,1.022.971,1.288,1.288,0,0,0,.195.015A1.242,1.242,0,0,0,54.6,63.8l6.918-11.983a25.628,25.628,0,0,0,7.536,0L75.971,63.8a1.24,1.24,0,0,0,1.077.622,1.266,1.266,0,0,0,.194-.015,1.243,1.243,0,0,0,1.022-.971L80.5,52.9l10.242,3.334a1.243,1.243,0,0,0,1.462-1.8ZM65.284,44.92A18.373,18.373,0,1,0,46.912,26.547,18.394,18.394,0,0,0,65.284,44.92Zm0-39.233a20.86,20.86,0,1,0,20.86,20.86,20.883,20.883,0,0,0-20.86-20.86Z" fill-rule="evenodd"/>
    </g>
  </g>
</svg>
