<svg xmlns="http://www.w3.org/2000/svg" xmlns:xlink="http://www.w3.org/1999/xlink" width="190" height="204.002" viewBox="0 0 190 204.002">
  <defs>
    <clipPath id="clip-path">
      <rect id="Rectángulo_401573" data-name="Rectángulo 401573" width="28.836" height="204.001" fill="none"/>
    </clipPath>
    <clipPath id="clip-path-2">
      <rect id="Rectángulo_401572" data-name="Rectángulo 401572" width="72.283" height="384.741" fill="none"/>
    </clipPath>
    <clipPath id="clip-path-3">
      <rect id="Rectángulo_408087" data-name="Rectángulo 408087" width="188.034" height="177.682" fill="none"/>
    </clipPath>
    <clipPath id="clip-path-4">
      <path id="Trazado_916970" data-name="Trazado 916970" d="M642.729,788.459a2.539,2.539,0,0,1,.53.364l.086.067a1.909,1.909,0,0,1,.8,1.582l.067,1.575-21.2-.184.093.846a3.088,3.088,0,0,0,1.412,1.659,2.236,2.236,0,0,0,1.106.342l12.482.04,25.292.026,5.933-.032c.208,0,.445.008.692.018a6.2,6.2,0,0,0,1.76-.089,3.057,3.057,0,0,0,1.767-1.454,6.88,6.88,0,0,0,.1-3.638,3.306,3.306,0,0,0-1.845-1.538l-.731.019a14.609,14.609,0,0,1-2.506.1c-.292-.005-.582-.011-.866-.01l-25.589-.141a2.127,2.127,0,0,0,.617.451" transform="translate(-623.013 -788.009)" fill="none"/>
    </clipPath>
    <linearGradient id="linear-gradient" x1="-15.659" y1="0.634" x2="-15.637" y2="0.634" gradientUnits="objectBoundingBox">
      <stop offset="0" stop-color="#cc462d"/>
      <stop offset="1" stop-color="#e56141"/>
    </linearGradient>
    <clipPath id="clip-path-6">
      <path id="Trazado_916997" data-name="Trazado 916997" d="M504.564,440.33v3.336a5.72,5.72,0,0,1,0,1.128,2.828,2.828,0,0,1-.555.819c-.149.154-.555.15-.841.146h-.162l-13.877-.02-39.306-.03a5.624,5.624,0,0,0,.133,1.555,1.32,1.32,0,0,0,.658.759l11.56.014h22.189l12.6.037,5.921.048a7.124,7.124,0,0,0,2.232-.08,1.839,1.839,0,0,0,.531-.78c.226-.671.082-21.45-.058-21.665a1.7,1.7,0,0,0-1.045-.807Z" transform="translate(-449.824 -424.789)" fill="none"/>
    </clipPath>
    <linearGradient id="linear-gradient-2" x1="-3.713" y1="1.8" x2="-3.706" y2="1.8" gradientUnits="objectBoundingBox">
      <stop offset="0" stop-color="#87a1b5"/>
      <stop offset="1" stop-color="#6bafc4"/>
    </linearGradient>
    <clipPath id="clip-path-8">
      <path id="Trazado_917001" data-name="Trazado 917001" d="M205.637,486.777a13.2,13.2,0,0,1-2.392.037c-.38,0-.765.006-1.152.012-.883.015-1.776.03-2.638-.04a7.533,7.533,0,0,0,1.126,1.154,6.983,6.983,0,0,0,1.285.095l5.824.24c-.313-.57-.864-1.888-1.452-2.091-.146.249-.291.531-.6.593" transform="translate(-199.455 -486.184)" fill="none"/>
    </clipPath>
    <linearGradient id="linear-gradient-3" x1="-4.997" y1="22.593" x2="-4.972" y2="22.593" gradientUnits="objectBoundingBox">
      <stop offset="0" stop-color="#146495"/>
      <stop offset="1" stop-color="#2487b3"/>
    </linearGradient>
    <clipPath id="clip-path-10">
      <path id="Trazado_917007" data-name="Trazado 917007" d="M312.205,481.653a1.166,1.166,0,0,1-.718.653,4.965,4.965,0,0,1-1.548.113c-.178,0-.348-.01-.5-.009l-4.508.011-7.56-.014c-.388,0-.78,0-1.173.009-.972.011-1.952.023-2.908-.05l-.157.088a1.581,1.581,0,0,0,.84,1.127l15.184.036,2.222-.044c.082,0,.167,0,.254,0a2.771,2.771,0,0,0,.977-.113,1.45,1.45,0,0,0,.671-.81,1.9,1.9,0,0,0-.026-1.547,1.632,1.632,0,0,0-1.173-.8,1.63,1.63,0,0,1,.123,1.349" transform="translate(-293.133 -480.304)" fill="none"/>
    </clipPath>
    <linearGradient id="linear-gradient-4" x1="-16.425" y1="4.105" x2="-16.375" y2="4.105" gradientUnits="objectBoundingBox">
      <stop offset="0" stop-color="#0a6687"/>
      <stop offset="1" stop-color="#1284a7"/>
    </linearGradient>
  </defs>
  <g id="img12" transform="translate(-180 -4084)">
    <g id="Grupo_1147047" data-name="Grupo 1147047" transform="translate(180 4084)">
      <g id="Grupo_1099687" data-name="Grupo 1099687" transform="translate(0)" clip-path="url(#clip-path)">
        <g id="Grupo_1099686" data-name="Grupo 1099686" transform="translate(-6.669 -80.78)" opacity="0.45" style="mix-blend-mode: multiply;isolation: isolate">
          <g id="Grupo_1099685" data-name="Grupo 1099685">
            <g id="Grupo_1099684" data-name="Grupo 1099684" clip-path="url(#clip-path-2)">
              <path id="Trazado_873516" data-name="Trazado 873516" d="M2.252,48.58,104.777,0l-2.252,8.242L0,56.822Z" transform="translate(-23.404 285.785) rotate(-26.114)" fill="#2d0464"/>
              <path id="Trazado_873517" data-name="Trazado 873517" d="M2.252,48.58,104.777,0l-2.252,8.242L0,56.822Z" transform="translate(-23.404 261.818) rotate(-26.114)" fill="#2d0464"/>
              <path id="Trazado_873518" data-name="Trazado 873518" d="M2.252,48.58,104.777,0l-2.252,8.242L0,56.822Z" transform="translate(-23.404 237.851) rotate(-26.114)" fill="#2d0464"/>
              <path id="Trazado_873519" data-name="Trazado 873519" d="M2.252,48.58,104.777,0l-2.252,8.242L0,56.822Z" transform="translate(-23.404 213.885) rotate(-26.114)" fill="#2d0464"/>
              <path id="Trazado_873520" data-name="Trazado 873520" d="M2.252,48.58,104.777,0l-2.252,8.242L0,56.822Z" transform="translate(-23.404 189.918) rotate(-26.114)" fill="#2d0464"/>
              <path id="Trazado_873521" data-name="Trazado 873521" d="M2.252,48.58,104.777,0l-2.252,8.242L0,56.822Z" transform="translate(-23.404 165.951) rotate(-26.114)" fill="#2d0464"/>
              <path id="Trazado_873522" data-name="Trazado 873522" d="M2.252,48.58,104.777,0l-2.252,8.242L0,56.822Z" transform="translate(-23.404 141.984) rotate(-26.114)" fill="#2d0464"/>
              <path id="Trazado_873523" data-name="Trazado 873523" d="M2.252,48.58,104.777,0l-2.252,8.242L0,56.822Z" transform="translate(-23.404 118.018) rotate(-26.114)" fill="#2d0464"/>
              <path id="Trazado_873524" data-name="Trazado 873524" d="M2.252,48.58,104.777,0l-2.252,8.242L0,56.822Z" transform="translate(-23.404 94.051) rotate(-26.114)" fill="#2d0464"/>
              <path id="Trazado_873525" data-name="Trazado 873525" d="M2.252,48.58,104.777,0l-2.252,8.242L0,56.822Z" transform="translate(-23.404 70.084) rotate(-26.114)" fill="#2d0464"/>
              <path id="Trazado_873526" data-name="Trazado 873526" d="M2.252,48.58,104.777,0l-2.252,8.242L0,56.822Z" transform="matrix(0.898, -0.44, 0.44, 0.898, -23.404, 46.117)" fill="#2d0464"/>
            </g>
          </g>
        </g>
      </g>
      <rect id="Rectángulo_401574" data-name="Rectángulo 401574" width="161" height="204" transform="translate(29 0.002)" fill="#efe8f7"/>
    </g>
    <g id="Grupo_1147844" data-name="Grupo 1147844" transform="translate(181.966 4110.319)">
      <g id="Grupo_1147827" data-name="Grupo 1147827">
        <g id="Grupo_1147826" data-name="Grupo 1147826" clip-path="url(#clip-path-3)">
          <path id="Trazado_916944" data-name="Trazado 916944" d="M153.711,26.905l-.008-7.083a49.816,49.816,0,0,1,.095-5.336A16.017,16.017,0,0,1,157.2,6.393,16.979,16.979,0,0,1,168.4.411l.19.154a6.236,6.236,0,0,1-.05,1.413,14.324,14.324,0,0,0-9.15,5.95,12.124,12.124,0,0,0-1.583,4.641,23.572,23.572,0,0,0-.033,4.159c.088,3.368.374,6.842.2,10.2Z" transform="translate(-121.027 -0.324)" fill="#e8eaec"/>
          <path id="Trazado_916945" data-name="Trazado 916945" d="M678.033,27.287a7.273,7.273,0,0,1,1.651.175l3.463,1.049a22.631,22.631,0,0,1,2.8-2.269,38.2,38.2,0,0,1,3.4,2.22,9.6,9.6,0,0,1,1.489,1.2c-.09.432-.928,3.738-.866,3.829.258.37.613.7.891,1.06.574.747,1.079,1.535,1.586,2.328l4.171.744,1.527,5.713a33.236,33.236,0,0,1-3.393,2.535l-.234,3.772a22.667,22.667,0,0,0,1.651,1.741,4.652,4.652,0,0,1,.925,1l-1.028,3.1-.627,1.815a30.569,30.569,0,0,0-4.022.389,16.849,16.849,0,0,1-1.35,2.29,8.2,8.2,0,0,0-.974,1.493l-3.381-.014.328-.189a9.385,9.385,0,0,0,1.314-1.255,20.569,20.569,0,0,0,5.407-10.22,18.085,18.085,0,0,0-2.522-13.033c-2.324-3.594-6.38-6.983-10.652-7.871a3.263,3.263,0,0,0-1.163-.138Z" transform="translate(-533.974 -20.667)" fill="#74a85f"/>
          <path id="Trazado_916946" data-name="Trazado 916946" d="M183.275.087a15.789,15.789,0,0,1,11.5,3.489A15.516,15.516,0,0,1,200.714,13.7l.074.808v12.07l-4.356.008-.08-11.142,0-.115a10.877,10.877,0,0,0-3.464-7.508A12.079,12.079,0,0,0,183.475,4.6a11.469,11.469,0,0,0-7.818,4.636,12.9,12.9,0,0,0-2.227,5.377,25.221,25.221,0,0,0-.089,3.914l-.021,8.056-.471.019c.173-3.359-.114-6.833-.2-10.2a23.553,23.553,0,0,1,.033-4.159A12.13,12.13,0,0,1,174.265,7.6a14.326,14.326,0,0,1,9.15-5.951,6.249,6.249,0,0,0,.051-1.413Z" transform="translate(-135.904 0)" fill="#a1d8f3"/>
          <path id="Trazado_916947" data-name="Trazado 916947" d="M623.454,38.008a3.262,3.262,0,0,1,1.163.138c4.272.888,8.328,4.277,10.652,7.871a18.086,18.086,0,0,1,2.522,13.033,20.57,20.57,0,0,1-5.407,10.22,9.394,9.394,0,0,1-1.314,1.255l-.328.188-.051.021-16.238-.023h-3.835a16.873,16.873,0,0,1-2.385-.061,26.071,26.071,0,0,1,3.437-.027l7.33,0a7.858,7.858,0,0,0-.114-2.5,13.672,13.672,0,0,0,5.827-1.233,12.917,12.917,0,0,0,6.646-7.861,11.29,11.29,0,0,0-1.421-9.175,11.659,11.659,0,0,0-7.416-5.3,9.3,9.3,0,0,0,1.119-1.642c.828-1.714.429-3.222-.186-4.908" transform="translate(-479.004 -29.92)" fill="#88c871"/>
          <path id="Trazado_916948" data-name="Trazado 916948" d="M27.681,271.031l.073,47.68-9.545,1.809a53.354,53.354,0,0,1-1.775-14.8,61.488,61.488,0,0,1,8.046-29.887,20.564,20.564,0,0,1,3.2-4.8" transform="translate(-12.94 -213.446)" fill="#3db1ba"/>
          <path id="Trazado_916949" data-name="Trazado 916949" d="M186.22,21.595a12.079,12.079,0,0,1,9.408,3.223,10.877,10.877,0,0,1,3.464,7.509l0,.115.08,11.142-11.987,0-8.754-.017-2.369.007.021-8.056a25.219,25.219,0,0,1,.089-3.914,12.9,12.9,0,0,1,2.227-5.377,11.47,11.47,0,0,1,7.817-4.636" transform="translate(-138.649 -16.992)" fill="#269eab"/>
          <path id="Trazado_916950" data-name="Trazado 916950" d="M207.916,72.712,208,83.854l-11.987,0-8.754-.017c.309-.544,1.442-1.055,1.977-1.4a125.541,125.541,0,0,1,18.684-9.734" transform="translate(-147.47 -57.263)" fill="#3db1ba"/>
          <path id="Trazado_916951" data-name="Trazado 916951" d="M737.061,163.889c1.4.33,5.4,6.749,6.286,8.181,8.05,13.028,10.049,29.055,6.555,43.852a53.333,53.333,0,0,1-6.274,15.649A13.761,13.761,0,0,1,742.022,234l.01-39.64V182.543a43.7,43.7,0,0,0-.053-5.522,8.093,8.093,0,0,0-2.4-4.741,8.511,8.511,0,0,0-5.279-2.452c-1.353-.116-2.845.035-4.211.048a8.186,8.186,0,0,1,.974-1.493,16.846,16.846,0,0,0,1.35-2.29,30.569,30.569,0,0,1,4.022-.389Z" transform="translate(-574.969 -129.068)" fill="#3db1ba"/>
          <path id="Trazado_916952" data-name="Trazado 916952" d="M79.769,182.107a12.707,12.707,0,0,1,2.784-2.6l.021.4.051,11.429-.05-.007-5.979.011L76.675,244l-.89.409-6.424,2.225-.073-47.68-.013-6.944a16.607,16.607,0,0,1,.3-4.474,7.01,7.01,0,0,1,1.742-3.016c2.394-2.477,5.246-2.336,8.449-2.411" transform="translate(-54.548 -141.368)" fill="#303e4f"/>
          <path id="Trazado_916953" data-name="Trazado 916953" d="M118.707,182.107a12.707,12.707,0,0,1,2.784-2.6l.021.4a7.623,7.623,0,0,1-.049,2.215Z" transform="translate(-93.486 -141.368)" fill="#3db1ba"/>
          <path id="Trazado_916954" data-name="Trazado 916954" d="M99.957,287.782l.037-53.184,4.459.014a8.983,8.983,0,0,1,2.293.087l-5.979.011.079,52.663Z" transform="translate(-78.719 -184.742)" fill="#3db1ba"/>
          <path id="Trazado_916955" data-name="Trazado 916955" d="M701.154,191.727c1.366-.013,2.858-.164,4.211-.048a8.511,8.511,0,0,1,5.279,2.453,8.093,8.093,0,0,1,2.4,4.74,43.687,43.687,0,0,1,.053,5.522v11.815l-.01,39.64-.05,25.251-7.478-.023.014-4.64-.015-4.01.021-46.5.018-15.964-.031-8.289a1.322,1.322,0,0,0-.271-.85c-.638-.369-10.368-.142-11.949-.139l4.374-8.951.051-.021Z" transform="translate(-546.035 -150.919)" fill="#0f202a"/>
          <path id="Trazado_916956" data-name="Trazado 916956" d="M560.617,22.7c.036-.086.107-.165.108-.258a4.479,4.479,0,0,0-.481-1.143,25.163,25.163,0,0,1-.926-2.346,8.787,8.787,0,0,1,2.012-1.885,19.433,19.433,0,0,1,2.4-1.7l3.079,2.853a15.831,15.831,0,0,1,2.972-1.365c.226-.068,1.637-.314,1.714-.4a4.939,4.939,0,0,0,.156-.712,11.2,11.2,0,0,1,1.072-3.24c.756-.387,4.179-.184,5.149-.156a18.14,18.14,0,0,1,1.481,3.932l.391,1.468c.615,1.686,1.013,3.195.186,4.908a9.3,9.3,0,0,1-1.119,1.642,11.659,11.659,0,0,1,7.416,5.3,11.289,11.289,0,0,1,1.421,9.175A12.918,12.918,0,0,1,581,46.646a13.676,13.676,0,0,1-5.827,1.233,7.859,7.859,0,0,1,.114,2.5l-7.33,0a26.067,26.067,0,0,0-3.437.027l-.058-.009a16.726,16.726,0,0,1-2.346.035,18.776,18.776,0,0,1-2.314-2.885,6.486,6.486,0,0,0-.893-1.184c-.242-.126-2.61.918-3.51.519-.575-.255-.869-1.067-1.124-1.595l-1.547-3.436a17.323,17.323,0,0,1,2.212-1.761,6.277,6.277,0,0,0,1.186-.94,12.553,12.553,0,0,0-.136-1.683,14.717,14.717,0,0,1,.175-3.2,19.729,19.729,0,0,1-3.434-2.169c.142-1.05.411-2.053.646-3.084a8.888,8.888,0,0,1,.626-2.148,1.982,1.982,0,0,1,.282-.21,3.453,3.453,0,0,1,.987-.054l3.038.011a36.015,36.015,0,0,1,2.3-3.9" transform="translate(-435.296 -9.674)" fill="#bed5a4"/>
          <path id="Trazado_916957" data-name="Trazado 916957" d="M560.617,22.7c.036-.086.107-.165.108-.258a4.479,4.479,0,0,0-.481-1.143,25.163,25.163,0,0,1-.926-2.346,8.787,8.787,0,0,1,2.012-1.885,19.433,19.433,0,0,1,2.4-1.7l3.079,2.853a15.831,15.831,0,0,1,2.972-1.365c.226-.068,1.637-.314,1.714-.4a4.939,4.939,0,0,0,.156-.712,11.2,11.2,0,0,1,1.072-3.24c.756-.387,4.179-.184,5.149-.156a18.14,18.14,0,0,1,1.481,3.932l.391,1.468c-5.329-.852-10.239-.119-14.682,3.079a18.117,18.117,0,0,0-7.036,11.7l-.106.781a19.254,19.254,0,0,0,3.991,14.228l2.394,2.625a.5.5,0,0,1,.159.224,16.726,16.726,0,0,1-2.346.035,18.776,18.776,0,0,1-2.314-2.885,6.486,6.486,0,0,0-.893-1.184c-.242-.126-2.61.918-3.51.519-.575-.255-.869-1.067-1.124-1.595l-1.547-3.436a17.323,17.323,0,0,1,2.212-1.761,6.277,6.277,0,0,0,1.186-.94,12.553,12.553,0,0,0-.136-1.683,14.717,14.717,0,0,1,.175-3.2,19.729,19.729,0,0,1-3.434-2.169c.142-1.05.411-2.053.646-3.084a8.888,8.888,0,0,1,.626-2.148,1.982,1.982,0,0,1,.282-.21,3.453,3.453,0,0,1,.987-.054l3.038.011a36.015,36.015,0,0,1,2.3-3.9" transform="translate(-435.296 -9.674)" fill="#88c871"/>
          <path id="Trazado_916958" data-name="Trazado 916958" d="M612.125,69.74a12.5,12.5,0,0,1,8.975-1.607,11.659,11.659,0,0,1,7.416,5.3,11.289,11.289,0,0,1,1.421,9.174,12.917,12.917,0,0,1-6.646,7.861,13.675,13.675,0,0,1-5.827,1.233,8.865,8.865,0,0,1-1.721-.219,11.861,11.861,0,0,1-3.618-21.741" transform="translate(-477.582 -53.494)" fill="#3db1ba"/>
          <path id="Trazado_916959" data-name="Trazado 916959" d="M633.243,69.74a12.5,12.5,0,0,1,8.975-1.607,11.659,11.659,0,0,1,7.416,5.3,11.289,11.289,0,0,1,1.421,9.174c-1.143-1.167-2.175-2.413-3.368-3.549a48.792,48.792,0,0,0-12.255-8.5,9.527,9.527,0,0,0-1.415-.6,3.8,3.8,0,0,1-.636-.147Z" transform="translate(-498.7 -53.494)" fill="#269eab"/>
          <path id="Trazado_916960" data-name="Trazado 916960" d="M22.127,472.22c1.366-.63,2.69-1.358,4-2.1a8.027,8.027,0,0,1,1.4-.821.947.947,0,0,1,.277.06l.016,9.252-.031.079-.009,3.176a2.308,2.308,0,0,0,.237,1.495l-.355.137a53.847,53.847,0,0,1-11.283,4.368l-5.086,1.2L11.274,504.8c-.008,2.869-.175,5.868.075,8.72a14.947,14.947,0,0,0,.729,3.264,23.7,23.7,0,0,0,6.034,9.058,37.866,37.866,0,0,0,8.039,6.092,6.606,6.606,0,0,0,1.618.849,3.884,3.884,0,0,0-.118,1.439c0,.691-.028,1.4.024,2.091l-.073,0a11.068,11.068,0,0,1,.1,2.47l.011,5.177-.234.057-12-7.374-5.491-4.8c-3.817-3.81-7.252-8.443-8.866-13.646C-.121,514.2.01,510.3.015,506.176l0-8.537L0,477.014l5.269-.352,9.545-1.809,6.423-2.225Z" transform="translate(0 -369.588)" fill="#f6c44e"/>
          <path id="Trazado_916961" data-name="Trazado 916961" d="M55.827,571.123c-4.617-2.494-8.923-5.028-12.669-8.768A25.4,25.4,0,0,1,36.325,550.6a25.027,25.027,0,0,1-.43-5.857l-.014-6.981-.042-18.2a7.7,7.7,0,0,1,2.195-.468l4.161-.921,9.923-3.1c1.31-.48,2.578-1.143,3.9-1.572l-.008,3.176a2.311,2.311,0,0,0,.237,1.495l-.355.137a53.839,53.839,0,0,1-11.282,4.368l-5.086,1.2L39.5,539.607c-.008,2.869-.174,5.868.075,8.72a14.956,14.956,0,0,0,.729,3.263,23.708,23.708,0,0,0,6.034,9.059,37.869,37.869,0,0,0,8.04,6.092,6.608,6.608,0,0,0,1.618.849,3.893,3.893,0,0,0-.118,1.439c0,.691-.028,1.4.024,2.091Z" transform="translate(-28.224 -404.398)" fill="#d98731"/>
          <path id="Trazado_916962" data-name="Trazado 916962" d="M69.577,535.484a54.277,54.277,0,0,0,9.1,4.181l6.934,2.127L85.6,556.629l-.008,5.478a19.885,19.885,0,0,1-.465,6.018c-1.16,3.814-3.812,7.193-6.6,9.969a41.221,41.221,0,0,1-6.871,5.42,16.861,16.861,0,0,1-2.328,1.389,6.606,6.606,0,0,1-1.618-.849,37.868,37.868,0,0,1-8.039-6.092,23.707,23.707,0,0,1-6.034-9.059,14.946,14.946,0,0,1-.729-3.263c-.25-2.851-.083-5.85-.075-8.72l.022-15.727,5.086-1.2a53.84,53.84,0,0,0,11.283-4.368Z" transform="translate(-41.558 -421.712)" fill="#fdfdfd"/>
          <path id="Trazado_916963" data-name="Trazado 916963" d="M87.234,616.79l6.675-6.585.363-.306,2.988,2.982a8.375,8.375,0,0,1,1.478,1.463L89.35,623.5,87.69,625.13a5.121,5.121,0,0,0-.768.767l-2.335,2.389A12.85,12.85,0,0,1,82.7,626.4l-7.312-7.268,4.437-4.561,4.808,4.845Z" transform="translate(-59.371 -480.316)" fill="#74a85f"/>
          <path id="Trazado_916964" data-name="Trazado 916964" d="M130.137,535.484a54.278,54.278,0,0,0,9.1,4.181l6.934,2.127-.017,14.837-.008,5.478a19.884,19.884,0,0,1-.465,6.018c-1.16,3.814-3.812,7.193-6.6,9.969a41.22,41.22,0,0,1-6.871,5.42,16.86,16.86,0,0,1-2.328,1.389l.021-10.567c0-2.14.139-4.378-.023-6.5a.976.976,0,0,0-.217-.54,5.13,5.13,0,0,1,.768-.767l1.661-1.633,9.387-9.153a8.377,8.377,0,0,0-1.478-1.463l-2.988-2.982-.363.306-6.675,6.585a23.758,23.758,0,0,1-.059-3.935c-.01-1.971.184-18.008-.14-18.63Z" transform="translate(-102.118 -421.712)" fill="#e8eaec"/>
          <path id="Trazado_916965" data-name="Trazado 916965" d="M130.12,469.584c1.677.851,3.241,1.893,4.942,2.711,1.039.5,2.231.757,3.233,1.285a74.935,74.935,0,0,0,13.143,3.734l3.5.833a3.081,3.081,0,0,1,1.883,1.528l.2.747-.031,2.848,0,8v3.955l.007,13.6c-.018,1.665.093,3.4-.038,5.06a19.67,19.67,0,0,1-.649,3.2l18.341-.008a35.306,35.306,0,0,1-.728,3.825l-2.181,13.218-3.339-.013-6.571-.015a20.085,20.085,0,0,0-3.852.114,3.271,3.271,0,0,0-1.629.895,4.143,4.143,0,0,0-1.051,1.942l-13.78-.057a104.414,104.414,0,0,1-9.82,6.407,6.886,6.886,0,0,1-1.671.795l-.011-5.177a11.08,11.08,0,0,0-.1-2.47l.073,0c-.052-.688-.023-1.4-.024-2.091a3.886,3.886,0,0,1,.118-1.44,16.859,16.859,0,0,0,2.328-1.389,41.213,41.213,0,0,0,6.871-5.42c2.785-2.776,5.436-6.155,6.6-9.969a19.884,19.884,0,0,0,.465-6.018l.008-5.479.017-14.837-6.934-2.127a54.281,54.281,0,0,1-9.1-4.181,2.309,2.309,0,0,1-.237-1.495l.009-3.176.031-.079Z" transform="translate(-102.314 -369.813)" fill="#eeaf37"/>
          <path id="Trazado_916966" data-name="Trazado 916966" d="M130.279,513.129c6.266,2.88,13.018,4.7,19.625,6.624l-.014,16.9-.008,6.61a27.045,27.045,0,0,1-.631,7.7c-1.312,4.437-4.187,8.232-7.415,11.47a45.986,45.986,0,0,1-10.1,7.543,7.736,7.736,0,0,1-1.6.855c-.052-.688-.023-1.4-.024-2.091a3.884,3.884,0,0,1,.118-1.439,16.881,16.881,0,0,0,2.328-1.39,41.2,41.2,0,0,0,6.871-5.42c2.785-2.776,5.436-6.155,6.6-9.969a19.884,19.884,0,0,0,.465-6.018l.008-5.478.017-14.837-6.934-2.127a54.251,54.251,0,0,1-9.1-4.181,2.308,2.308,0,0,1-.237-1.495l.009-3.176Z" transform="translate(-102.458 -404.106)" fill="#c06f2e"/>
          <path id="Trazado_916967" data-name="Trazado 916967" d="M199.3,693.117l18.341-.008a35.3,35.3,0,0,1-.728,3.825l-2.181,13.218-3.339-.013-6.571-.015a20.08,20.08,0,0,0-3.852.114,3.272,3.272,0,0,0-1.629.895,4.145,4.145,0,0,0-1.051,1.942l-13.78-.057,3.478-2.886a41.749,41.749,0,0,0,9.414-12.18,24.617,24.617,0,0,0,1.9-4.834" transform="translate(-145.305 -545.847)" fill="#3db1ba"/>
          <path id="Trazado_916968" data-name="Trazado 916968" d="M305.382,46.99a13.844,13.844,0,0,1,3.116-1.152l6.418-1.754a96.11,96.11,0,0,1,42.456-.9c1.89.384,3.791.839,5.637,1.4.867.263,1.761.7,2.639.891l.17.034a36.005,36.005,0,0,0-2.3,3.9l-3.038-.011a3.47,3.47,0,0,0-.987.054,2,2,0,0,0-.282.21,8.9,8.9,0,0,0-.626,2.148c-.235,1.031-.5,2.034-.646,3.084a19.751,19.751,0,0,0,3.435,2.169,14.712,14.712,0,0,0-.175,3.2,12.585,12.585,0,0,1,.136,1.683,6.276,6.276,0,0,1-1.185.94,17.34,17.34,0,0,0-2.212,1.761l1.547,3.436c.255.528.549,1.34,1.124,1.595.9.4,3.268-.645,3.51-.519a6.518,6.518,0,0,1,.893,1.185,18.765,18.765,0,0,0,2.314,2.886l-56.759.074V65.368a21.685,21.685,0,0,0-.062-3.679l-.027-.129a3.427,3.427,0,0,0-.968-1.7c-1.137-1.091-2.684-.809-4.128-.8Z" transform="translate(-240.497 -32.477)" fill="#3db1ba"/>
          <path id="Trazado_916969" data-name="Trazado 916969" d="M178.871,612.406l7.478.023,9.387-.01a6.817,6.817,0,0,1,2.572.175l.136.058a2.3,2.3,0,0,1,1.209,1.407,10.51,10.51,0,0,1,.122,2.86l.005,5.433-.005,27.375.731-.019a8.92,8.92,0,0,1,3.512.015l.136.051.321.11a4.522,4.522,0,0,1,2.476,2.626,5.79,5.79,0,0,1,.025,4.306,5.269,5.269,0,0,1-2.989,2.749l-.137.05-.266.094a14.635,14.635,0,0,1-3.867.187h-6.163l-20.99,0-103.539-.027-26.6.014-8.468,0c-1.467,0-3,.086-4.461-.035a5.861,5.861,0,0,1-2.482-.7l-.174-.1a4.368,4.368,0,0,1-1.671-1.845l-.068-.143a4.927,4.927,0,0,1-.5-1.71,5.692,5.692,0,0,1,1.013-4.279,4.962,4.962,0,0,1,2.229-1.613,7.943,7.943,0,0,1,2.374-.171c1.465.019,2.962.134,4.423.023l.169-.013,12,7.374.234-.057a6.881,6.881,0,0,0,1.671-.795,104.425,104.425,0,0,0,9.82-6.407l13.78.057a4.143,4.143,0,0,1,1.051-1.942,3.271,3.271,0,0,1,1.629-.894,20.085,20.085,0,0,1,3.852-.114l6.571.015,3.339.013,2.181-13.218a35.311,35.311,0,0,0,.728-3.825l-18.341.008a19.674,19.674,0,0,0,.65-3.2c.13-1.657.019-3.4.038-5.06l62.189.007H155.8l-.055-5.985a2.97,2.97,0,0,1,.885-2.372,2.823,2.823,0,0,1,.649-.462,6.936,6.936,0,0,1,1.828-.066l4.081-.005Z" transform="translate(-19.346 -482.249)" fill="#127984"/>
        </g>
      </g>
      <g id="Grupo_1147829" data-name="Grupo 1147829" transform="translate(132.369 167.425)">
        <g id="Grupo_1147828" data-name="Grupo 1147828" clip-path="url(#clip-path-4)">
          <rect id="Rectángulo_408088" data-name="Rectángulo 408088" width="9.768" height="51.259" transform="matrix(0.058, -0.998, 0.998, 0.058, -0.397, 6.779)" fill="url(#linear-gradient)"/>
        </g>
      </g>
      <g id="Grupo_1147831" data-name="Grupo 1147831">
        <g id="Grupo_1147830" data-name="Grupo 1147830" clip-path="url(#clip-path-3)">
          <path id="Trazado_916971" data-name="Trazado 916971" d="M728.308,797.924l7.233.048.03,2.572-7.261,0Z" transform="translate(-573.567 -628.392)" fill="#fdfdfd"/>
          <path id="Trazado_916972" data-name="Trazado 916972" d="M249.363,776.012a4.141,4.141,0,0,1,1.051-1.942,3.271,3.271,0,0,1,1.629-.895,20.075,20.075,0,0,1,3.852-.114l6.571.015a26.442,26.442,0,0,0,4.215.066l8.812.008,31.908-.008,8.621-.047c1.366,0,3.465-.257,4.725.241l.161.062a3.443,3.443,0,0,1,1.957,1.828,4.768,4.768,0,0,1,.269.91,4.393,4.393,0,0,1-.252,1.431,3.721,3.721,0,0,1-2.058,2.035,4.139,4.139,0,0,1-1.633.269l-36.182.015-20.921,0-9,.015a4.118,4.118,0,0,1-1.483-.217l-.132-.061a3.809,3.809,0,0,1-1.2-.889,3.7,3.7,0,0,1-.913-2.721" transform="translate(-196.382 -608.784)" fill="#0f202a"/>
          <path id="Trazado_916973" data-name="Trazado 916973" d="M592.711,612.406l7.478.023,9.387-.01a6.817,6.817,0,0,1,2.572.175l.136.058a2.3,2.3,0,0,1,1.209,1.407,10.514,10.514,0,0,1,.122,2.86l.005,5.433-.005,27.375a22.432,22.432,0,0,1-3.372.088l-25.589-.141a2.128,2.128,0,0,0,.617.45,2.541,2.541,0,0,1,.53.365l.086.067a1.91,1.91,0,0,1,.8,1.582l.067,1.575-21.2-.184a12.47,12.47,0,0,1,.051-2.235c.1-.636.6-.943,1.081-1.3a7.441,7.441,0,0,1,3.08-.338l-.091-17.7-.007-2.426-.019-8.167a27.4,27.4,0,0,0-4.217-.061l-15.378-.037h19.586l-.055-5.985a2.969,2.969,0,0,1,.885-2.372,2.823,2.823,0,0,1,.649-.462,6.935,6.935,0,0,1,1.828-.066l4.081-.005Z" transform="translate(-433.185 -482.249)" fill="#f6c44e"/>
          <path id="Trazado_916974" data-name="Trazado 916974" d="M684.289,757.906l-10.971.025.031-2.257,12.547,0c-.422.813-1.1,1.422-1.54,2.2Z" transform="translate(-530.26 -595.119)" fill="#fdfdfd"/>
          <path id="Trazado_916975" data-name="Trazado 916975" d="M688.306,731.151l-14.953-.018.087-2.313,11.212-.085a40.059,40.059,0,0,1,5.1.1l-1.362,2.269Z" transform="translate(-530.288 -573.88)" fill="#fdfdfd"/>
          <path id="Trazado_916976" data-name="Trazado 916976" d="M691.679,705.278l-18.7-.005a11.269,11.269,0,0,1,0-2.28,41.274,41.274,0,0,1,6.273-.145l12.864.038,1.012.1c0,.518-1,1.689-1.329,2.22Z" transform="translate(-529.94 -553.479)" fill="#fdfdfd"/>
          <path id="Trazado_916977" data-name="Trazado 916977" d="M673.361,677.718a.55.55,0,0,1,.337-.126l5.71,0,10.57.015,5.152.01a14.149,14.149,0,0,1,2.247.034l.06.018,4.638.017a10.056,10.056,0,0,1,1.826.02.571.571,0,0,1,.39.222,1.417,1.417,0,0,1,.359,1.027,1.064,1.064,0,0,1-.4.806c-.455.4-7.211.114-8.315.086l-.169.071-22.439-.03Z" transform="translate(-530.268 -533.62)" fill="#fdfdfd"/>
          <path id="Trazado_916978" data-name="Trazado 916978" d="M673.483,677.718a.55.55,0,0,1,.337-.126l5.71,0,10.57.015,5.152.01a14.148,14.148,0,0,1,2.247.034l.06.018,4.638.017a10.058,10.058,0,0,1,1.826.02.571.571,0,0,1,.39.222,1.417,1.417,0,0,1,.359,1.027,1.065,1.065,0,0,1-.4.806c-.455.4-7.211.114-8.315.086a9.742,9.742,0,0,1,1.451-2.124Z" transform="translate(-530.39 -533.62)" fill="#f5e2c3"/>
          <path id="Trazado_916979" data-name="Trazado 916979" d="M692.959,652.476l5.624-.026a12.832,12.832,0,0,1,2.469.048,12.4,12.4,0,0,1,2.99.056,2.67,2.67,0,0,1,.367,1.691c-.2.318-.334.548-.73.628a6.784,6.784,0,0,1-1.435-.034l-2.7-.043-26.355.014-.007-2.341Z" transform="translate(-530.154 -513.796)" fill="#fdfdfd"/>
          <path id="Trazado_916980" data-name="Trazado 916980" d="M766.263,652.476l5.624-.026a12.833,12.833,0,0,1,2.469.048,12.4,12.4,0,0,1,2.99.056,2.67,2.67,0,0,1,.367,1.691c-.2.318-.333.548-.73.628a6.784,6.784,0,0,1-1.435-.034l-2.7-.043,1.505-2.243Z" transform="translate(-603.458 -513.796)" fill="#f5e2c3"/>
          <path id="Trazado_916981" data-name="Trazado 916981" d="M723.881,631.244l12.66.024-.033,33.424-25.589-.141-.535-.044c1.011-1.5,2.243-3.005,3.1-4.595l.067-.031c.436-.776,1.119-1.386,1.54-2.2l.082-.011,2.3-3.275.087-.045,1.362-2.269a20.024,20.024,0,0,0,3.934.04,21.529,21.529,0,0,0-3.867-.063l2.205-3.137.117-.072c.327-.531,1.329-1.7,1.329-2.22l-1.012-.1a3.029,3.029,0,0,1,1.385.085l-.063-.127,2-3.069.169-.071c1.1.028,7.86.313,8.315-.086a1.064,1.064,0,0,0,.4-.806,1.417,1.417,0,0,0-.359-1.027.571.571,0,0,0-.39-.222,10.067,10.067,0,0,0-1.826-.02l-4.638-.017,2.224-3.047,2.7.044a6.787,6.787,0,0,0,1.435.034c.4-.08.533-.31.73-.628a2.67,2.67,0,0,0-.367-1.691,12.4,12.4,0,0,0-2.99-.056,32.418,32.418,0,0,0,3.26-4.5H724.07Z" transform="translate(-559.45 -497.126)" fill="#eeaf37"/>
          <path id="Trazado_916982" data-name="Trazado 916982" d="M762.115,703.066a3.028,3.028,0,0,1,1.385.085l7.646-.032c.654,0,2.239-.223,2.759.091a1.757,1.757,0,0,1,.3,1.487,1.018,1.018,0,0,1-.5.615,1.928,1.928,0,0,1-.836.084h-2.093l-8.979-.012c.327-.531,1.329-1.7,1.329-2.22Z" transform="translate(-599.941 -553.659)" fill="#f5e2c3"/>
          <path id="Trazado_916983" data-name="Trazado 916983" d="M745.5,729.248a20.015,20.015,0,0,0,3.934.04l7.486.006c.825,0,2.424-.217,3.134.12a1.286,1.286,0,0,1,.364,1,1.329,1.329,0,0,1-.36.95c-.351.321-13.943.152-15.92.156Z" transform="translate(-586.037 -574.29)" fill="#f5e2c3"/>
          <path id="Trazado_916984" data-name="Trazado 916984" d="M726.89,755.529l14.031-.012,2.976,0a4.194,4.194,0,0,1,.925.017,1.934,1.934,0,0,1,.323.205,1.2,1.2,0,0,1,.3.92,1.476,1.476,0,0,1-.371.879.906.906,0,0,1-.574.208c-2.063.137-4.238.008-6.313.008l-12.922-.018c.436-.776,1.119-1.386,1.54-2.2Z" transform="translate(-571.173 -594.982)" fill="#f5e2c3"/>
          <path id="Trazado_916985" data-name="Trazado 916985" d="M592.711,612.406l7.478.023,9.387-.01a6.817,6.817,0,0,1,2.572.175l.136.058a2.3,2.3,0,0,1,1.209,1.407,10.514,10.514,0,0,1,.122,2.86l.005,5.433-.005,27.375a22.432,22.432,0,0,1-3.372.088l.033-33.424-12.66-.024-24.708-.031.03,33.368,8.356-.037a15.636,15.636,0,0,0,2.824-.036l.535.044a2.128,2.128,0,0,0,.617.45,2.541,2.541,0,0,1,.53.365l.086.067a1.91,1.91,0,0,1,.8,1.582l.067,1.575-21.2-.184a12.47,12.47,0,0,1,.051-2.235c.1-.636.6-.943,1.081-1.3a7.441,7.441,0,0,1,3.08-.338l-.091-17.7-.007-2.426-.019-8.167a27.4,27.4,0,0,0-4.217-.061l-15.378-.037h19.586l-.055-5.985a2.969,2.969,0,0,1,.885-2.372,2.823,2.823,0,0,1,.649-.462,6.935,6.935,0,0,1,1.828-.066l4.081-.005Z" transform="translate(-433.185 -482.249)" fill="#e16744"/>
          <path id="Trazado_916986" data-name="Trazado 916986" d="M691.006,612.536a6.813,6.813,0,0,1,2.572.175l.136.058a2.3,2.3,0,0,1,1.209,1.406,10.509,10.509,0,0,1,.122,2.86l.005,5.433-.005,27.375a22.431,22.431,0,0,1-3.372.088l.033-33.424-12.66-.024-24.708-.031.03,33.368a1.436,1.436,0,0,1-.916-.117l.1-34.206,35.732.03a12.6,12.6,0,0,0,1.724-2.991" transform="translate(-514.616 -482.366)" fill="#c04131"/>
          <path id="Trazado_916987" data-name="Trazado 916987" d="M254.806,654.239l62.189.007,15.378.037a27.4,27.4,0,0,1,4.217.06l.019,8.167.007,2.426.091,17.7a7.443,7.443,0,0,0-3.08.338c-2.153-.309-4.467.221-6.648.024l-.1-.42a4.764,4.764,0,0,0-.269-.91,3.442,3.442,0,0,0-1.957-1.828l-.161-.062c-1.26-.5-3.359-.241-4.725-.241l-8.621.047-31.908.008-8.812-.008a26.444,26.444,0,0,1-4.214-.066l3.339.013,2.181-13.217a35.3,35.3,0,0,0,.728-3.826l-18.341.009a19.679,19.679,0,0,0,.65-3.2c.13-1.657.019-3.4.038-5.06" transform="translate(-200.127 -515.229)" fill="#303e4f"/>
          <path id="Trazado_916988" data-name="Trazado 916988" d="M540.588,692.987l.007,2.426.091,17.7a7.441,7.441,0,0,0-3.08.338c-2.153-.309-4.467.221-6.648.024l-.1-.42a4.76,4.76,0,0,0-.269-.91,3.443,3.443,0,0,0-1.957-1.828l-.161-.062c-1.26-.5-3.359-.241-4.725-.241l-8.621.047-.494-4.541-1.083-9.139-.42-3.326a9.857,9.857,0,0,1,2.669-.069l6.514.023Z" transform="translate(-404.105 -545.704)" fill="#269eab"/>
          <path id="Trazado_916989" data-name="Trazado 916989" d="M540.588,692.987l.007,2.426L514.63,705.521l-1.083-9.139-.42-3.326a9.857,9.857,0,0,1,2.669-.069l6.514.023Z" transform="translate(-404.105 -545.704)" fill="#3db1ba"/>
          <path id="Trazado_916990" data-name="Trazado 916990" d="M317.282,692.978l28.9.007,5.774,0a6.185,6.185,0,0,1,2.021.084l.42,3.326,1.083,9.139.494,4.541-31.908.009-8.812-.009a26.437,26.437,0,0,1-4.214-.066l3.339.013,2.181-13.218a35.3,35.3,0,0,0,.728-3.825" transform="translate(-244.95 -545.715)" fill="#303e4f"/>
          <path id="Trazado_916991" data-name="Trazado 916991" d="M337.742,692.978l28.9.007,5.774,0a6.185,6.185,0,0,1,2.021.084l.42,3.326a1.165,1.165,0,0,1-.067.386l-37.771.024a35.3,35.3,0,0,0,.728-3.825" transform="translate(-265.41 -545.715)" fill="#0f202a"/>
          <path id="Trazado_916992" data-name="Trazado 916992" d="M114.408,124.962l4.263.023.471-.019,2.369-.007,8.755.017,11.987,0,4.356-.008c1.444-.011,2.99-.294,4.128.8a3.427,3.427,0,0,1,.968,1.7l.027.129a21.708,21.708,0,0,1,.062,3.678v7.938l56.759-.074a16.729,16.729,0,0,0,2.346-.035l.058.009a16.909,16.909,0,0,0,2.385.061h3.835l16.238.023-4.374,8.951c1.581,0,11.311-.23,11.949.139a1.321,1.321,0,0,1,.271.85l.031,8.29-.018,15.964-.021,46.5.015,4.01-.014,4.64-15.683-.03-4.082.005a6.934,6.934,0,0,0-1.828.066,2.819,2.819,0,0,0-.649.462,2.97,2.97,0,0,0-.885,2.372l.055,5.985H198.592l-62.189-.007-.007-13.6V219.84l0-8,.032-2.848-.2-.747a3.08,3.08,0,0,0-1.883-1.528l-3.5-.833a74.954,74.954,0,0,1-13.144-3.734c-1-.528-2.194-.785-3.232-1.285-1.7-.818-3.264-1.86-4.942-2.711a.948.948,0,0,0-.277-.06,8.025,8.025,0,0,0-1.4.821c-1.308.741-2.632,1.469-4,2.1l-.079-52.662,5.979-.011.05.008-.051-11.429-.021-.4a17.786,17.786,0,0,0,0-2.093l-.007-4.629c0-1.21-.193-2.771.624-3.763a2.951,2.951,0,0,1,2.281-1.015,10.006,10.006,0,0,1,1.784-.057" transform="translate(-81.725 -98.381)" fill="#a1d8f3"/>
          <path id="Trazado_916993" data-name="Trazado 916993" d="M524.363,414.623l28.1.088,6.951.1a22.013,22.013,0,0,1,2.7.027,1.213,1.213,0,0,1,.671.433,2,2,0,0,1,.434.688l-25.006-.369-8.759-.034a20.042,20.042,0,0,1-3.883-.078,5.781,5.781,0,0,1-1.211-.857" transform="translate(-412.953 -326.529)" fill="#d98731"/>
          <path id="Trazado_916994" data-name="Trazado 916994" d="M178.17,316.808a2.354,2.354,0,0,1-.086,1.651l-.364.891-.065.14a5.888,5.888,0,0,1-.662,1.033l-.09.12a3.752,3.752,0,0,1-2.247,1.323,47.906,47.906,0,0,1-5.251.065l-11.545-.046-10.505.029-3.716.036a9.741,9.741,0,0,1-2.659-.137l-.172-.044a5.6,5.6,0,0,1-3.254-2.84.9.9,0,0,1-.092-.6l.951.861a4.763,4.763,0,0,0,2.541.96c1.859.19,3.9.032,5.779.03l11.818-.006,10.552-.006a37.5,37.5,0,0,0,4.973-.057l.156-.024a4.377,4.377,0,0,0,.879-.2,5.276,5.276,0,0,0,3.06-3.181" transform="translate(-108.249 -249.497)" fill="#3db1ba"/>
          <path id="Trazado_916995" data-name="Trazado 916995" d="M131.7,136.879a17.744,17.744,0,0,0,0-2.093l-.007-4.629c0-1.21-.193-2.771.625-3.763a2.951,2.951,0,0,1,2.281-1.015,4.032,4.032,0,0,0-1.862,2.586,49.145,49.145,0,0,0,.023,5.271l.008,12.444.025,12.612-.017,4.311a21.339,21.339,0,0,0,.026,2.294,4.052,4.052,0,0,0,3.632,3.442l16.1.028,9,.028,5.134.025a10.322,10.322,0,0,0,3.481-.222l.12-.051a5.379,5.379,0,0,0,2.461-1.951c.321-.457.534-.967.879-1.411l.058-.073-.043,1.34a5.276,5.276,0,0,1-3.061,3.181,4.375,4.375,0,0,1-.879.2l-.156.024a37.494,37.494,0,0,1-4.973.057l-10.552.006-11.819.006c-1.878,0-3.919.16-5.778-.03a4.762,4.762,0,0,1-2.541-.96l-.951-.861a6.961,6.961,0,0,1-1.039-2.4,11.257,11.257,0,0,1-.08-1.944l0-3.209L131.77,148.7l-.051-11.429Z" transform="translate(-103.693 -98.739)" fill="#9c2920"/>
          <path id="Trazado_916996" data-name="Trazado 916996" d="M168.884,385.9l0-18.433,52.583.03-.012,2.229-50.69-.135-.113,16.295-.078.019-.1-.013Z" transform="translate(-133 -289.396)" fill="#e16744"/>
        </g>
      </g>
      <g id="Grupo_1147833" data-name="Grupo 1147833" transform="translate(95.572 90.253)">
        <g id="Grupo_1147832" data-name="Grupo 1147832" clip-path="url(#clip-path-6)">
          <rect id="Rectángulo_408090" data-name="Rectángulo 408090" width="29.337" height="58.24" transform="translate(-2.499 23.213) rotate(-83.865)" fill="url(#linear-gradient-2)"/>
        </g>
      </g>
      <g id="Grupo_1147835" data-name="Grupo 1147835">
        <g id="Grupo_1147834" data-name="Grupo 1147834" clip-path="url(#clip-path-3)">
          <path id="Trazado_916998" data-name="Trazado 916998" d="M291.116,378.1a2.218,2.218,0,0,1,1.571.586,1.221,1.221,0,0,1,.222.642c.113,1.714.013,3.506.013,5.226v10.6l.019,8.5.04,3.864a7.59,7.59,0,0,1-.116,2.068,1.746,1.746,0,0,1-.184.374l-.054.1a3.5,3.5,0,0,1-1.336,1.176l-33.952-.01.032-2.848,8.14-.019,15.566-.026,5.554.006a25.637,25.637,0,0,0,2.942-.044,2.233,2.233,0,0,0,1.124-.509,1.864,1.864,0,0,0,.591-1.436l-.063-10.363,0-1.505Z" transform="translate(-202.664 -297.77)" fill="#3db1ba"/>
          <path id="Trazado_916999" data-name="Trazado 916999" d="M504.913,272.784a1.692,1.692,0,0,1,.992.854,2.176,2.176,0,0,1,.166.867l-.027,15.718.016,5.514a7.878,7.878,0,0,1-.15,2.757,1.252,1.252,0,0,1-.674.637,9.865,9.865,0,0,1-2.663.092l-7.11.015-27.795-.025a31.674,31.674,0,0,0-4.387-.019l-10.287-.047a8.058,8.058,0,0,1-1.756-.054,2.787,2.787,0,0,1-.555-.505,2.613,2.613,0,0,1-.362-1.843l18.918-.049.107-.025,23.07-.017h7.221c1.169,0,2.42.083,3.581-.021a1.822,1.822,0,0,0,1.113-.463,1.9,1.9,0,0,0,.557-1.142,15.853,15.853,0,0,0,.032-2.19l.008-4.421Z" transform="translate(-354.638 -214.827)" fill="#3db1ba"/>
          <path id="Trazado_917000" data-name="Trazado 917000" d="M170.657,454.164l50.911.219,0,1.505.063,10.363a1.865,1.865,0,0,1-.591,1.436,2.232,2.232,0,0,1-1.124.509,25.625,25.625,0,0,1-2.942.044l-5.554-.006-15.566.026-8.14.019-.2-.747A3.081,3.081,0,0,0,185.631,466l-3.5-.833a74.943,74.943,0,0,1-13.144-3.734l-.032-.516-.062-6.5,0-.248,1.583-.007.1.013Z" transform="translate(-133.007 -357.669)" fill="#269eab"/>
        </g>
      </g>
      <g id="Grupo_1147837" data-name="Grupo 1147837" transform="translate(42.377 103.298)">
        <g id="Grupo_1147836" data-name="Grupo 1147836" clip-path="url(#clip-path-8)">
          <rect id="Rectángulo_408092" data-name="Rectángulo 408092" width="8.458" height="3.319" transform="translate(-0.314 0.048) rotate(-8.752)" fill="url(#linear-gradient-3)"/>
        </g>
      </g>
      <g id="Grupo_1147839" data-name="Grupo 1147839">
        <g id="Grupo_1147838" data-name="Grupo 1147838" clip-path="url(#clip-path-3)">
          <path id="Trazado_917002" data-name="Trazado 917002" d="M168.891,454.2l1.583-.007-.029,4.743a5.578,5.578,0,0,1-.1,2.125,3.636,3.636,0,0,1-1.388-.118l-.062-6.5Z" transform="translate(-133.007 -357.693)" fill="#3db1ba"/>
          <path id="Trazado_917003" data-name="Trazado 917003" d="M252.971,482.954a2.164,2.164,0,0,1,.857,1.288,2.8,2.8,0,0,1,.093,1.18,12.155,12.155,0,0,1-3.759.235l-3.571.143a5.578,5.578,0,0,1-.714-1.341l-.086-.189,4.763.011a6.805,6.805,0,0,0,1.714-.047,3.46,3.46,0,0,0,.536-.346,2.642,2.642,0,0,1,.167-.934" transform="translate(-193.569 -380.342)" fill="#1176a6"/>
          <path id="Trazado_917004" data-name="Trazado 917004" d="M252.8,487.349a.916.916,0,0,1-.286.849,7.79,7.79,0,0,1-2.511.223,35.436,35.436,0,0,1-3.709-.146l-.421-.355-.086-.189,4.762.011a6.805,6.805,0,0,0,1.714-.047,3.456,3.456,0,0,0,.536-.346" transform="translate(-193.569 -383.804)" fill="#07658f"/>
          <path id="Trazado_917005" data-name="Trazado 917005" d="M196.733,480.795a1.727,1.727,0,0,1-.617-.346,2.082,2.082,0,0,1-.021-1.318.759.759,0,0,1,.552-.5,6.9,6.9,0,0,1,1.482-.009l3.234.019a7.19,7.19,0,0,1,1.6.068,2.036,2.036,0,0,1,.372.244,2.074,2.074,0,0,1,.176,1.244c-.147.249-.291.531-.6.593a13.212,13.212,0,0,1-2.393.037c-1.246,0-2.55.072-3.79-.028" transform="translate(-154.355 -376.895)" fill="#fdfdfd"/>
          <path id="Trazado_917006" data-name="Trazado 917006" d="M244.207,480.632a1.232,1.232,0,0,1-.428-.926,1.506,1.506,0,0,1,.483-1.142c.6-.327,5.415-.26,6.268-.073.433.1.63.478.856.825a2.637,2.637,0,0,0-.167.934,3.464,3.464,0,0,1-.536.346,6.8,6.8,0,0,1-1.714.047Z" transform="translate(-191.984 -376.704)" fill="#fdfdfd"/>
        </g>
      </g>
      <g id="Grupo_1147841" data-name="Grupo 1147841" transform="translate(62.281 102.048)">
        <g id="Grupo_1147840" data-name="Grupo 1147840" clip-path="url(#clip-path-10)">
          <rect id="Rectángulo_408094" data-name="Rectángulo 408094" width="4.282" height="20.519" transform="translate(-0.158 3.306) rotate(-87.266)" fill="url(#linear-gradient-4)"/>
        </g>
      </g>
      <g id="Grupo_1147843" data-name="Grupo 1147843">
        <g id="Grupo_1147842" data-name="Grupo 1147842" clip-path="url(#clip-path-3)">
          <path id="Trazado_917008" data-name="Trazado 917008" d="M247.68,509.759a.829.829,0,0,1,.557.027l.124.032c.6.212,1.057,1.113,1.629,1.108-.053-.184-.269-.528-.209-.636l.584.731,23.1-.008,5.71-.022a19.356,19.356,0,0,0,2.843-.042,1.9,1.9,0,0,0,1.048-.538l.519-.55.093.148a1.863,1.863,0,0,1-.592,1.436,2.233,2.233,0,0,1-1.124.509,25.63,25.63,0,0,1-2.942.044l-5.554-.006-15.566.026-8.14.019-.2-.747a3.081,3.081,0,0,0-1.883-1.528" transform="translate(-195.056 -401.425)" fill="#07658f"/>
          <path id="Trazado_917009" data-name="Trazado 917009" d="M291.494,481.089c-.176-.108-.366-.18-.463-.368a1.527,1.527,0,0,1-.078-1.252,1.247,1.247,0,0,1,.71-.663,6.109,6.109,0,0,1,1.944-.092l4.489,0,7.294.008,3.937.019a2.413,2.413,0,0,1,.96.284,1.63,1.63,0,0,1,.123,1.349,1.166,1.166,0,0,1-.718.653,7.562,7.562,0,0,1-2.05.1l-4.508.011-7.56-.014c-1.348,0-2.737.061-4.081-.041" transform="translate(-229.057 -376.978)" fill="#fdfdfd"/>
          <path id="Trazado_917010" data-name="Trazado 917010" d="M176.738,454.164l50.911.219,0,1.505-51.039-.389.178-.829.021-.188.128-.15-.28-.15Z" transform="translate(-139.088 -357.669)" fill="#1176a6"/>
          <path id="Trazado_917011" data-name="Trazado 917011" d="M558,267.3l11.48,0,2.987,0a10.252,10.252,0,0,1,1.938.076,1.256,1.256,0,0,1,.621.387,2.394,2.394,0,0,1,.438.693l.016,15.632-.009,4.421a15.846,15.846,0,0,1-.032,2.19,1.9,1.9,0,0,1-.557,1.142,1.821,1.821,0,0,1-1.113.463c-1.161.1-2.413.021-3.581.021h-7.221l-23.07.017,6.581-10.054c.734-1.105,1.812-2.033,2.612-3.1l1.094-1.6a2.8,2.8,0,0,1,.263-.389,3.571,3.571,0,0,1,.748-.16l1.435-.006a5.727,5.727,0,0,0-.1-1.978,1.626,1.626,0,0,1,.084-.523,6.152,6.152,0,0,1,.719-1.052l1.457-2.121,2.457-3.914Z" transform="translate(-425.184 -210.51)" fill="#07658f"/>
          <path id="Trazado_917012" data-name="Trazado 917012" d="M642.251,326.171l8.683-.015v1.96l-8.691-.029Z" transform="translate(-505.788 -256.859)" fill="#fdfdfd"/>
          <path id="Trazado_917013" data-name="Trazado 917013" d="M586.358,326.142h8.761l-.016,2.011-8.744.007Z" transform="translate(-461.777 -256.847)" fill="#fdfdfd"/>
          <path id="Trazado_917014" data-name="Trazado 917014" d="M613.928,304.074l14.683-.01,0,1.928-14.68.013Z" transform="translate(-483.489 -239.461)" fill="#fdfdfd"/>
          <path id="Trazado_917015" data-name="Trazado 917015" d="M140.028,125.068l4.263.023.471-.019,2.369-.007,8.755.017L155.861,137l0,3.054a4.9,4.9,0,0,0,.1,1.469,10.136,10.136,0,0,0-7.191,3.707,9.319,9.319,0,0,0-1.869,4.438l-.027.173a9.013,9.013,0,0,0,1.991,6.9c.033.9,1.046,1.915,1.681,2.487l.422.351.14.113a8.285,8.285,0,0,0,3.695,1.67,4.912,4.912,0,0,1,1.376.251l0,6.5-16.1-.028a4.053,4.053,0,0,1-3.632-3.442,21.506,21.506,0,0,1-.026-2.294l.017-4.311-.025-12.612-.008-12.444a49.2,49.2,0,0,1-.023-5.271,4.033,4.033,0,0,1,1.862-2.586,10.007,10.007,0,0,1,1.784-.057" transform="translate(-107.345 -98.487)" fill="#e16744"/>
          <path id="Trazado_917016" data-name="Trazado 917016" d="M386.248,191.693a16.755,16.755,0,0,0,2.346-.035l.058.009a16.877,16.877,0,0,0,2.385.061h3.835l16.238.023-4.374,8.951-77.324.03.077-8.967Z" transform="translate(-259.423 -150.937)" fill="#303e4f"/>
          <path id="Trazado_917017" data-name="Trazado 917017" d="M445.067,292.24a1.956,1.956,0,0,1-1.008-.4,1.256,1.256,0,0,1-.4-.928l0-5.159.007-9.345.005-5.249a21.349,21.349,0,0,1,.036-2.749,1.664,1.664,0,0,1,.49-.956,1.312,1.312,0,0,1,.936-.351c1.237-.07,2.509-.013,3.748-.013l7.528.007,25.787.022-.752.154-2.457,3.914-1.458,2.121a6.155,6.155,0,0,0-.719,1.052,1.625,1.625,0,0,0-.084.523,5.727,5.727,0,0,1,.1,1.978l-1.435.006a3.577,3.577,0,0,0-.748.16,2.814,2.814,0,0,0-.263.389l-1.094,1.6c-.8,1.07-1.878,2-2.612,3.1l-6.581,10.054-.107.025Z" transform="translate(-349.383 -210.324)" fill="#1176a6"/>
          <path id="Trazado_917018" data-name="Trazado 917018" d="M466.8,303.988l10.731,0,0,1.944-10.725-.014Z" transform="translate(-367.619 -239.397)" fill="#fdfdfd"/>
          <path id="Trazado_917019" data-name="Trazado 917019" d="M549.025,303.845a5.73,5.73,0,0,1,.1,1.978l-1.435.006-12.242-.01v-1.96Z" transform="translate(-421.683 -239.288)" fill="#fdfdfd"/>
          <path id="Trazado_917020" data-name="Trazado 917020" d="M467.788,326.147l21.815-.013-.059,1.923-21.761.038Z" transform="translate(-368.395 -256.842)" fill="#fdfdfd"/>
          <path id="Trazado_917021" data-name="Trazado 917021" d="M177.2,393.764l.113-16.3,50.69.135.108,16.379Z" transform="translate(-139.553 -297.27)" fill="#c04131"/>
          <path id="Trazado_917022" data-name="Trazado 917022" d="M376.384,392.241l.03-2.194.168-.036a4.306,4.306,0,0,1,.929,2.287Z" transform="translate(-296.415 -307.147)" fill="#9c2920"/>
          <path id="Trazado_917023" data-name="Trazado 917023" d="M351.9,387.148l3,.077a8.378,8.378,0,0,0,.105,2.761l1.127.057c.384.012,1.089-.061,1.394.171l-.016,2.667a20.29,20.29,0,0,1-2.632-.079l-.009,2.965-2.652-.019c-.421-.621-.192-2.12-.143-2.883l-2.835-.012,0-2.748H351.9Z" transform="translate(-275.032 -304.892)" fill="#fdfdfd"/>
          <path id="Trazado_917024" data-name="Trazado 917024" d="M300.306,386.882a9.1,9.1,0,0,1,1.887-.11l4.17.014c2.322.01,4.688-.114,7,.049l0,2.958H310.7l0,2.748,2.834.012c-.048.762-.277,2.261.143,2.882a.7.7,0,0,0-.363.161l-.029.32a1.2,1.2,0,0,0,.612.282l.161.029a17.4,17.4,0,0,0,3.205.159l.02-1.89.109.025.181.036a21.449,21.449,0,0,0,4.224.153,3.957,3.957,0,0,1-.1,2.033l-.03.123a1.647,1.647,0,0,1-.748.986,1.579,1.579,0,0,1-.633.233c-1.922.223-4.016.069-5.956.095l-12.341.125a14.5,14.5,0,0,0-.08-2.486l-.019-.912-.109-1.54a4.843,4.843,0,0,0-.763-.5,1.372,1.372,0,0,1,.079-.486,9.711,9.711,0,0,0,2.632-.1l.105-.334a6.013,6.013,0,0,0-.134-2.158l-.755-.071a4.957,4.957,0,0,1-1.915-.016,14.488,14.488,0,0,1-.1-2.153c-.045-.34-.366-.469-.627-.669" transform="translate(-236.501 -304.579)" fill="#e16744"/>
          <path id="Trazado_917025" data-name="Trazado 917025" d="M303.678,392.081c.042-.757-.062-1.547.014-2.288a1.581,1.581,0,0,1,.91.106,8.991,8.991,0,0,1,.991,2.2,4.953,4.953,0,0,1-1.915-.016" transform="translate(-239.145 -306.955)" fill="#9c2920"/>
          <path id="Trazado_917026" data-name="Trazado 917026" d="M306.495,403.154a6.95,6.95,0,0,0,.093-2.175c.409.226.952.464,1.111.945a10.975,10.975,0,0,1,.055,2.806,14.01,14.01,0,0,1-3.311-.158,4.831,4.831,0,0,0-.764-.5,1.37,1.37,0,0,1,.079-.486,9.707,9.707,0,0,0,2.631-.1Z" transform="translate(-239.157 -315.784)" fill="#9c2920"/>
          <path id="Trazado_917027" data-name="Trazado 917027" d="M218.432,397.2l-.12.176-23.587.252.019-12.023,15,0,4.161.007a8.625,8.625,0,0,1,1.83.07,7.073,7.073,0,0,0,.946.137l.478.155c.261.2.582.329.627.669a14.519,14.519,0,0,0,.1,2.153,4.96,4.96,0,0,0,1.916.016l.756.071a6.014,6.014,0,0,1,.134,2.158l-.105.334a9.708,9.708,0,0,1-2.631.1,1.378,1.378,0,0,0-.079.486,4.834,4.834,0,0,1,.764.5l.109,1.54.019.911-.029,2.328c-.2.027-.095.034-.3-.041" transform="translate(-153.352 -303.678)" fill="#e16744"/>
          <path id="Trazado_917028" data-name="Trazado 917028" d="M282.552,417.421l1.649-.18v1.6a10.332,10.332,0,0,1-1.648-1.423" transform="translate(-222.519 -328.591)" fill="#9c2920"/>
          <path id="Trazado_917029" data-name="Trazado 917029" d="M206.79,413.134l1.255-.06a5.438,5.438,0,0,1,.021,1.34l-.119.856-1.931-2.043Z" transform="translate(-162.245 -325.31)" fill="#6e3c39"/>
          <path id="Trazado_917030" data-name="Trazado 917030" d="M294.193,424.014a3.587,3.587,0,0,1,.833.239l.019.911-.029,2.328c-.2.027-.094.034-.3-.041a27.015,27.015,0,0,1-3.127-2.661,8.646,8.646,0,0,0,1.824-.07l.087-.02a1.265,1.265,0,0,0,.61-.112Z" transform="translate(-229.632 -333.925)" fill="#9c2920"/>
          <path id="Trazado_917031" data-name="Trazado 917031" d="M219.851,392.2a6.6,6.6,0,0,1,1.236.8c.668.458.908.967,1.723,1.294a2.1,2.1,0,0,1,.61.382c.762.454,2.524,1.227,2.835,2.111a1.3,1.3,0,0,1-.226,1.172c-.531.764-1.418.789-2.164,1.194a8.069,8.069,0,0,0-1.188,1.071,3.246,3.246,0,0,1-1.723.722,3.711,3.711,0,0,1-2.809-.73,2.073,2.073,0,0,1-.527-.59,3.386,3.386,0,0,0,.865.116,1.284,1.284,0,0,0,1.122-.424c.471-.468.323-2.063.331-2.708a6.491,6.491,0,0,0,2.274-.043,1.076,1.076,0,0,0,.663-.7,1.714,1.714,0,0,0-.225-1.288,4.8,4.8,0,0,0-2.745-.484Z" transform="translate(-171.381 -308.874)" fill="#9c2920"/>
          <path id="Trazado_917032" data-name="Trazado 917032" d="M203.3,393.18a3.121,3.121,0,0,1-1.071-.1,1.67,1.67,0,0,1-.633-1.063,1.152,1.152,0,0,1,.275-.956c.622-.652,1.9-.456,2.731-.446l.028-2.138a5.263,5.263,0,0,1,.7-.575,1.225,1.225,0,0,1,1.038-.093c.49.151.644.435.858.877l.051,1.9a4.8,4.8,0,0,1,2.745.484,1.714,1.714,0,0,1,.225,1.288,1.076,1.076,0,0,1-.663.7,6.49,6.49,0,0,1-2.274.043c-.008.645.141,2.24-.331,2.708a1.284,1.284,0,0,1-1.122.424,3.386,3.386,0,0,1-.865-.116,2.917,2.917,0,0,1-.384-.481,5.272,5.272,0,0,1-.032-1.169,5.439,5.439,0,0,0-.021-1.34Z" transform="translate(-158.758 -305.356)" fill="#fdfdfd"/>
          <path id="Trazado_917033" data-name="Trazado 917033" d="M275.978,392.168l0-.027a1.916,1.916,0,0,1-.607-1.2,1.228,1.228,0,0,1,.358-.858c.624-.6,1.876-.38,2.69-.363.006-.612-.151-1.856.225-2.3a1.837,1.837,0,0,1,1.548-.781l.478.155c.261.2.582.329.627.669a14.553,14.553,0,0,0,.1,2.153,4.958,4.958,0,0,0,1.916.016l.755.071a6.01,6.01,0,0,1,.134,2.158l-.105.334a9.7,9.7,0,0,1-2.631.1,1.376,1.376,0,0,0-.079.486,4.826,4.826,0,0,1,.764.5l.109,1.54a3.583,3.583,0,0,0-.833-.239l-.088.573a1.26,1.26,0,0,1-.61.112,7,7,0,0,1-1.91-.059c-.147-.054-.21-.323-.272-.463v-1.6l-1.649.18a4.5,4.5,0,0,1-.915-1.157" transform="translate(-216.86 -304.496)" fill="#fdfdfd"/>
          <path id="Trazado_917034" data-name="Trazado 917034" d="M303.65,415.527a4.851,4.851,0,0,1,.764.5l.109,1.54a3.588,3.588,0,0,0-.833-.239,14.934,14.934,0,0,1-.039-1.8" transform="translate(-239.129 -327.242)" fill="#c04131"/>
          <path id="Trazado_917035" data-name="Trazado 917035" d="M278.246,412.431c.519,0,2.216-.178,2.546.1l.018.873-1.649.18a4.5,4.5,0,0,1-.915-1.157" transform="translate(-219.128 -324.758)" fill="#6e3c39"/>
          <path id="Trazado_917036" data-name="Trazado 917036" d="M211.085,124.964c1.444-.011,2.991-.294,4.128.8a3.426,3.426,0,0,1,.968,1.7l.027.129a21.688,21.688,0,0,1,.062,3.679v7.938l-.078,8.967-.024,16.175-.058.073c-.345.444-.558.953-.879,1.411a5.382,5.382,0,0,1-2.461,1.951l-.12.051a10.321,10.321,0,0,1-3.481.222l-5.134-.025-9-.028,0-6.5a4.911,4.911,0,0,0-1.376-.251,8.284,8.284,0,0,1-3.695-1.67l-.14-.113-.422-.351c-.635-.572-1.648-1.592-1.681-2.487a9.012,9.012,0,0,1-1.991-6.9l.027-.173a9.32,9.32,0,0,1,1.869-4.438,10.136,10.136,0,0,1,7.19-3.707,4.9,4.9,0,0,1-.1-1.469l0-3.054.024-11.916,11.987,0Z" transform="translate(-146.202 -98.381)" fill="#c04131"/>
          <path id="Trazado_917037" data-name="Trazado 917037" d="M235.873,281.978l.435-.032a.755.755,0,0,1-.263.613,8.522,8.522,0,0,1-4.232,2.285c-.563.1-1.162.114-1.717.246l-.257-.154-.035-1.17v-.048a9.965,9.965,0,0,0,6.068-1.74" transform="translate(-180.978 -222.042)" fill="#9c2920"/>
          <path id="Trazado_917038" data-name="Trazado 917038" d="M194.822,202.55l.1.02a9.209,9.209,0,0,1,6.775,2.48,9.772,9.772,0,0,1,3.11,6.71,9.252,9.252,0,0,1-2.6,6.677l-1.107,1.015a9.966,9.966,0,0,1-6.068,1.74v.048a14.642,14.642,0,0,1-2.683-.388,9.865,9.865,0,0,1-4.618-3.079,9.012,9.012,0,0,1-1.991-6.9l.027-.173a9.32,9.32,0,0,1,1.869-4.438,10.135,10.135,0,0,1,7.19-3.707" transform="translate(-146.202 -159.515)" fill="#e8eaec"/>
          <path id="Trazado_917039" data-name="Trazado 917039" d="M218.98,222.327a3.417,3.417,0,0,1,2.649.844,3.561,3.561,0,0,1,1.141,2.611,3.707,3.707,0,0,1-1.254,2.713l-.44.425.548,4.488-4.046-.04-.212-.2a38.866,38.866,0,0,1,.356-4.394,3.827,3.827,0,0,1-1.516-1.9,3.878,3.878,0,0,1,.338-2.942,3.617,3.617,0,0,1,2.436-1.608" transform="translate(-170.151 -175.087)" fill="#0f202a"/>
          <path id="Trazado_917040" data-name="Trazado 917040" d="M194.822,202.55l.1.02.11,4.184a3.618,3.618,0,0,0-2.436,1.608,3.878,3.878,0,0,0-.338,2.942,3.825,3.825,0,0,0,1.516,1.9,38.911,38.911,0,0,0-.356,4.394l.212.2.124.055a3.741,3.741,0,0,0,1.274.063l0,3.277v.048a14.642,14.642,0,0,1-2.683-.388,9.865,9.865,0,0,1-4.618-3.079,9.012,9.012,0,0,1-1.991-6.9l.027-.173a9.32,9.32,0,0,1,1.869-4.438,10.135,10.135,0,0,1,7.19-3.707" transform="translate(-146.202 -159.515)" fill="#fdfdfd"/>
          <path id="Trazado_917041" data-name="Trazado 917041" d="M442.5,437.535a2.241,2.241,0,0,1-1.495-.315,1.069,1.069,0,0,1-.436-.743c-.1-1.292-.007-2.674-.007-3.975l.006-8.288.006-5.75a22.315,22.315,0,0,1,.02-2.783,1.253,1.253,0,0,1,.39-.719,1.236,1.236,0,0,1,.815-.431,41.577,41.577,0,0,1,5.332-.058l11.2-.016a5.767,5.767,0,0,0,1.211.857,20.064,20.064,0,0,0,3.883.079l8.759.034,25.006.369.022.822.022,15.541v3.336a5.722,5.722,0,0,1,0,1.128,2.828,2.828,0,0,1-.555.819c-.181.186-.737.141-1,.146l-13.877-.02Z" transform="translate(-346.93 -326.362)" fill="#eeaf37"/>
          <path id="Trazado_917042" data-name="Trazado 917042" d="M556.891,478.654l.221.208a4.232,4.232,0,0,1-.145,1.381l-.039.136a6.958,6.958,0,0,1-1.336,2.336l-.11.139a7.175,7.175,0,0,1-4.455,2.482,7.785,7.785,0,0,1-5.661-1.569,7.582,7.582,0,0,1-1.386-1.505l-.081-.114a2.035,2.035,0,0,1-.4-1.143,8.257,8.257,0,0,0,4.442,3.012,7.531,7.531,0,0,0,5.875-.884,7,7,0,0,0,3.082-4.479" transform="translate(-428.019 -376.956)" fill="#d98731"/>
          <path id="Trazado_917043" data-name="Trazado 917043" d="M537.754,444.554a8.257,8.257,0,0,1-1.513-5.6,7.194,7.194,0,0,1,2.576-4.9,7.916,7.916,0,0,1,5.941-1.63,7.65,7.65,0,0,1,5.036,3.148,8.275,8.275,0,0,1,1.358,6.622,7,7,0,0,1-3.082,4.479,7.53,7.53,0,0,1-5.875.884,8.258,8.258,0,0,1-4.442-3.012" transform="translate(-422.28 -340.505)" fill="#fdfdfd"/>
          <path id="Trazado_917044" data-name="Trazado 917044" d="M557.854,451.809a6.992,6.992,0,0,0,1.271,1.222l.133.094-6.338,6.432-3.025-3.163-1.312-1.4,1.073-1.431c1.2.834,2,2.366,3.2,3.2a32.348,32.348,0,0,0,5-4.95" transform="translate(-432.028 -355.815)" fill="#0d9862"/>
          <path id="Trazado_917045" data-name="Trazado 917045" d="M257.319,571.664l104.853.047.015,4.01-.014,4.64-15.683-.03-4.081.005a6.936,6.936,0,0,0-1.828.066,2.818,2.818,0,0,0-.649.462,2.97,2.97,0,0,0-.885,2.372l.055,5.985H319.515l-62.189-.007-.007-13.6Z" transform="translate(-202.647 -450.205)" fill="#fdfdfd"/>
          <path id="Trazado_917046" data-name="Trazado 917046" d="M411.215,601.284a4.987,4.987,0,0,1,2.365.616,4.431,4.431,0,0,1,2.018,2.849,4.242,4.242,0,0,1-.562,3.275,4.477,4.477,0,0,1-3.075,1.956,4.576,4.576,0,0,1-3.044-.814,4.286,4.286,0,0,1-.826-6.264,4.313,4.313,0,0,1,3.124-1.618" transform="translate(-320.615 -473.531)" fill="#07658f"/>
          <path id="Trazado_917047" data-name="Trazado 917047" d="M257.319,571.664l104.853.047.015,4.01-104.867-.1Z" transform="translate(-202.647 -450.205)" fill="#07658f"/>
        </g>
      </g>
    </g>
  </g>
</svg>
