<svg xmlns="http://www.w3.org/2000/svg" xmlns:xlink="http://www.w3.org/1999/xlink" width="108" height="108" viewBox="0 0 108 108">
  <defs>
    <filter id="Trazado_904820" x="0" y="0" width="108" height="108" filterUnits="userSpaceOnUse">
      <feOffset dy="3" input="SourceAlpha"/>
      <feGaussianBlur stdDeviation="3" result="blur"/>
      <feFlood flood-opacity="0.161"/>
      <feComposite operator="in" in2="blur"/>
      <feComposite in="SourceGraphic"/>
    </filter>
  </defs>
  <g id="img11" transform="translate(-201 -481)">
    <g id="Icono" transform="translate(-414.101 -4519)">
      <g transform="matrix(1, 0, 0, 1, 615.1, 5000)" filter="url(#Trazado_904820)">
        <g id="Trazado_904820-2" data-name="Trazado 904820" transform="translate(9 6)" fill="#f9f7f4">
          <path d="M 45 88.5 C 39.12687683105469 88.5 33.43022537231445 87.35007476806641 28.06830024719238 85.08217620849609 C 22.88852500915527 82.89131164550781 18.23629951477051 79.75458526611328 14.2408504486084 75.75914764404297 C 10.24541282653809 71.76370239257812 7.108687400817871 67.11147308349609 4.917825222015381 61.93170166015625 C 2.649924993515015 56.56977462768555 1.5 50.87312316894531 1.5 45 C 1.5 39.12687683105469 2.649924993515015 33.43022537231445 4.917825222015381 28.06830024719238 C 7.108687400817871 22.88852500915527 10.24541282653809 18.23629951477051 14.2408504486084 14.2408504486084 C 18.23629951477051 10.24541282653809 22.88852500915527 7.108687400817871 28.06830024719238 4.917825222015381 C 33.43022537231445 2.649924993515015 39.12687683105469 1.5 45 1.5 C 50.87312316894531 1.5 56.56977462768555 2.649924993515015 61.93170166015625 4.917825222015381 C 67.11147308349609 7.108687400817871 71.76370239257812 10.24541282653809 75.75914764404297 14.2408504486084 C 79.75458526611328 18.23629951477051 82.89131164550781 22.88852500915527 85.08217620849609 28.06830024719238 C 87.35007476806641 33.43022537231445 88.5 39.12687683105469 88.5 45 C 88.5 50.87312316894531 87.35007476806641 56.56977462768555 85.08217620849609 61.93170166015625 C 82.89131164550781 67.11147308349609 79.75458526611328 71.76370239257812 75.75914764404297 75.75914764404297 C 71.76370239257812 79.75458526611328 67.11147308349609 82.89131164550781 61.93170166015625 85.08217620849609 C 56.56977462768555 87.35007476806641 50.87312316894531 88.5 45 88.5 Z" stroke="none"/>
          <path d="M 45 3 C 39.32871246337891 3 33.82865524291992 4.110054016113281 28.65262985229492 6.299339294433594 C 23.65165710449219 8.414573669433594 19.15968322753906 11.44334411621094 15.301513671875 15.301513671875 C 11.44334411621094 19.15968322753906 8.414573669433594 23.65165710449219 6.299339294433594 28.65262985229492 C 4.110054016113281 33.82865524291992 3 39.32871246337891 3 45 C 3 50.67128753662109 4.110054016113281 56.17134475708008 6.299339294433594 61.34737396240234 C 8.414573669433594 66.34834289550781 11.44334411621094 70.84031677246094 15.301513671875 74.698486328125 C 19.15968322753906 78.55665588378906 23.65165710449219 81.58542633056641 28.65262985229492 83.70066070556641 C 33.82865524291992 85.88994598388672 39.32871246337891 87 45 87 C 50.67128753662109 87 56.17134475708008 85.88994598388672 61.34737396240234 83.70066070556641 C 66.34834289550781 81.58542633056641 70.84031677246094 78.55665588378906 74.698486328125 74.698486328125 C 78.55665588378906 70.84031677246094 81.58542633056641 66.34834289550781 83.70066070556641 61.34737396240234 C 85.88994598388672 56.17134475708008 87 50.67128753662109 87 45 C 87 39.32871246337891 85.88994598388672 33.82865524291992 83.70066070556641 28.65262985229492 C 81.58542633056641 23.65165710449219 78.55665588378906 19.15968322753906 74.698486328125 15.301513671875 C 70.84031677246094 11.44334411621094 66.34834289550781 8.414573669433594 61.34737396240234 6.299339294433594 C 56.17134475708008 4.110054016113281 50.67128753662109 3 45 3 M 45 0 C 69.85281372070312 0 90 20.14718627929688 90 45 C 90 69.85281372070312 69.85281372070312 90 45 90 C 20.14718627929688 90 0 69.85281372070312 0 45 C 0 20.14718627929688 20.14718627929688 0 45 0 Z" stroke="none" fill="#1d531a"/>
        </g>
      </g>
    </g>
    <g id="cloud-network-folder-file-data-Storage" transform="translate(226.532 503.533)">
      <path id="Trazado_916753" data-name="Trazado 916753" d="M43,9H58.881v8.823H43Z" transform="translate(-4.828 -0.824)" fill="#ee8647"/>
      <path id="Trazado_916754" data-name="Trazado 916754" d="M58.881,9.058V4.765H50.94L49.176,3H43V9.176Z" transform="translate(-4.828 -0.118)" fill="#f6cc4f"/>
      <path id="Trazado_916755" data-name="Trazado 916755" d="M43,30H58.881v8.823H43Z" transform="translate(-4.828 -3.297)" fill="#ee8647"/>
      <path id="Trazado_916756" data-name="Trazado 916756" d="M58.881,29.294V25.765H50.94L49.176,24H43v5.294Z" transform="translate(-4.828 -2.59)" fill="#f6cc4f"/>
      <path id="Trazado_916757" data-name="Trazado 916757" d="M43,51H58.881v8.823H43Z" transform="translate(-4.828 -5.77)" fill="#ee8647"/>
      <path id="Trazado_916758" data-name="Trazado 916758" d="M58.881,50.294V46.765H50.94L49.176,45H43v5.294Z" transform="translate(-4.828 -5.063)" fill="#f6cc4f"/>
      <path id="Trazado_916759" data-name="Trazado 916759" d="M29.468,34.087V57H3V27H23.26Z" transform="translate(-0.118 -2.944)" fill="#64c1f7"/>
      <path id="Trazado_916760" data-name="Trazado 916760" d="M26,27v7.058h6.176Z" transform="translate(-2.826 -2.944)" fill="#48a3d2"/>
      <g id="Grupo_1147788" data-name="Grupo 1147788" transform="translate(8.176 34.643)">
        <path id="Trazado_916761" data-name="Trazado 916761" d="M9,50h3.529v6.176H9Z" transform="translate(-9 -40.295)" fill="#f6cc4f"/>
        <path id="Trazado_916762" data-name="Trazado 916762" d="M16,43h3.529V55.352H16Z" transform="translate(-9.824 -39.471)" fill="#f6cc4f"/>
        <path id="Trazado_916763" data-name="Trazado 916763" d="M23,39h3.529V54.881H23Z" transform="translate(-10.648 -39)" fill="#f6cc4f"/>
      </g>
      <path id="Trazado_916764" data-name="Trazado 916764" d="M25.939,8.293a5.257,5.257,0,0,0-2.726.762,7.049,7.049,0,0,0-13.834-.65A5.294,5.294,0,1,0,8.294,18.88H25.939a5.294,5.294,0,0,0,0-10.587Z" transform="translate(-0.118 -0.118)" fill="#006df0"/>
      <path id="Trazado_916765" data-name="Trazado 916765" d="M54.053,3.765H46.474l-1.5-1.509A.911.911,0,0,0,44.348,2H38.172a.882.882,0,0,0-.882.882v7.94H34.643a.882.882,0,0,0-.882.882V44.348H30.232V31.141a.863.863,0,0,0-.221-.573l-6.2-7.093a.882.882,0,0,0-.671-.3H19.645v1.765h2.647v6.176a.882.882,0,0,0,.882.882h5.294V53.171H3.765V24.939H9.058V23.174H2.882A.882.882,0,0,0,2,24.056v30a.882.882,0,0,0,.882.882H29.35a.882.882,0,0,0,.882-.882v-7.94h3.529v2.647a.882.882,0,0,0,.882.882H37.29v4.411a.882.882,0,0,0,.882.882H54.053a.882.882,0,0,0,.882-.882V41.7a.882.882,0,0,0-.882-.882H46.474l-1.5-1.509a.911.911,0,0,0-.626-.256H38.172a.882.882,0,0,0-.882.882v7.94H35.526V31.114H37.29v4.411a.882.882,0,0,0,.882.882H54.053a.882.882,0,0,0,.882-.882V23.174a.882.882,0,0,0-.882-.882H46.474l-1.5-1.509a.911.911,0,0,0-.626-.256H38.172a.882.882,0,0,0-.882.882v7.94H35.526V12.587H37.29V17a.882.882,0,0,0,.882.882H54.053A.882.882,0,0,0,54.935,17V4.647a.882.882,0,0,0-.882-.882Zm-30,26.468V26.438l3.326,3.794Zm15,10.587h4.932l1.5,1.509a.911.911,0,0,0,.626.256h7.058v1.764H39.055Zm0,5.294H53.171v7.058H39.055Zm0-23.821h4.932l1.5,1.509a.911.911,0,0,0,.626.256h7.058v1.765H39.055Zm0,5.294H53.171v7.058H39.055ZM53.171,16.116H39.055V9.058H53.171Zm0-8.823H39.055V3.765h4.932l1.5,1.509a.911.911,0,0,0,.626.256h7.058Z"/>
      <path id="Trazado_916766" data-name="Trazado 916766" d="M46,14h3.529v1.765H46Z" transform="translate(-5.181 -1.413)"/>
      <path id="Trazado_916767" data-name="Trazado 916767" d="M46,35h3.529v1.765H46Z" transform="translate(-5.181 -3.886)"/>
      <path id="Trazado_916768" data-name="Trazado 916768" d="M46,56h3.529v1.765H46Z" transform="translate(-5.181 -6.358)"/>
      <path id="Trazado_916769" data-name="Trazado 916769" d="M14,26h3.529v1.765H14Z" transform="translate(-1.413 -2.826)"/>
      <path id="Trazado_916770" data-name="Trazado 916770" d="M25.41,53.881v-15A.882.882,0,0,0,24.527,38H21a.882.882,0,0,0-.882.882v15h-.882V42.411a.882.882,0,0,0-.882-.882H14.823a.882.882,0,0,0-.882.882V53.881h-.882V48.587a.882.882,0,0,0-.882-.882H8.647a.882.882,0,0,0-.882.882v5.294H6v1.764H27.174V53.881Zm-14.116,0H9.529V49.469h1.765Zm6.176,0H15.7V43.294h1.765Zm6.176,0H21.881V39.765h1.765Z" transform="translate(-0.471 -4.239)"/>
      <path id="Trazado_916771" data-name="Trazado 916771" d="M14,20h3.529v1.765H14Z" transform="translate(-1.413 -2.119)"/>
      <path id="Trazado_916772" data-name="Trazado 916772" d="M8.176,19.645h.882V17.881H8.176a4.411,4.411,0,1,1,0-8.823,4.463,4.463,0,0,1,.9.094.882.882,0,0,0,1.037-.657,6.167,6.167,0,0,1,12.1.568.882.882,0,0,0,1.33.631,4.411,4.411,0,1,1,2.272,8.187H19.645v1.765h6.176A6.176,6.176,0,1,0,23.716,7.667,7.931,7.931,0,0,0,8.629,7.314c-.151-.015-.3-.02-.453-.02a6.176,6.176,0,0,0,0,12.352Z" transform="translate(0 0)"/>
      <path id="Trazado_916773" data-name="Trazado 916773" d="M12.542,31.527V17.418h1.669L11.659,13,9.108,17.418h1.669V31.527Z" transform="translate(-0.837 -1.295)"/>
      <path id="Trazado_916774" data-name="Trazado 916774" d="M18.777,13V27.991H17.108l2.551,4.418,2.551-4.418H20.542V13Z" transform="translate(-1.779 -1.295)"/>
    </g>
  </g>
</svg>
