<svg xmlns="http://www.w3.org/2000/svg" xmlns:xlink="http://www.w3.org/1999/xlink" width="108" height="108" viewBox="0 0 108 108">
  <defs>
    <filter id="Trazado_904820" x="0" y="0" width="108" height="108" filterUnits="userSpaceOnUse">
      <feOffset dy="3" input="SourceAlpha"/>
      <feGaussianBlur stdDeviation="3" result="blur"/>
      <feFlood flood-opacity="0.161"/>
      <feComposite operator="in" in2="blur"/>
      <feComposite in="SourceGraphic"/>
    </filter>
  </defs>
  <g id="img2" transform="translate(-201 -481)">
    <g id="Icono" transform="translate(-414.101 -4519)">
      <g transform="matrix(1, 0, 0, 1, 615.1, 5000)" filter="url(#Trazado_904820)">
        <g id="Trazado_904820-2" data-name="Trazado 904820" transform="translate(9 6)" fill="#f3f0ea">
          <path d="M 45 88.5 C 39.12687683105469 88.5 33.43022537231445 87.35007476806641 28.06830024719238 85.08217620849609 C 22.88852500915527 82.89131164550781 18.23629951477051 79.75458526611328 14.2408504486084 75.75914764404297 C 10.24541282653809 71.76370239257812 7.108687400817871 67.11147308349609 4.917825222015381 61.93170166015625 C 2.649924993515015 56.56977462768555 1.5 50.87312316894531 1.5 45 C 1.5 39.12687683105469 2.649924993515015 33.43022537231445 4.917825222015381 28.06830024719238 C 7.108687400817871 22.88852500915527 10.24541282653809 18.23629951477051 14.2408504486084 14.2408504486084 C 18.23629951477051 10.24541282653809 22.88852500915527 7.108687400817871 28.06830024719238 4.917825222015381 C 33.43022537231445 2.649924993515015 39.12687683105469 1.5 45 1.5 C 50.87312316894531 1.5 56.56977462768555 2.649924993515015 61.93170166015625 4.917825222015381 C 67.11147308349609 7.108687400817871 71.76370239257812 10.24541282653809 75.75914764404297 14.2408504486084 C 79.75458526611328 18.23629951477051 82.89131164550781 22.88852500915527 85.08217620849609 28.06830024719238 C 87.35007476806641 33.43022537231445 88.5 39.12687683105469 88.5 45 C 88.5 50.87312316894531 87.35007476806641 56.56977462768555 85.08217620849609 61.93170166015625 C 82.89131164550781 67.11147308349609 79.75458526611328 71.76370239257812 75.75914764404297 75.75914764404297 C 71.76370239257812 79.75458526611328 67.11147308349609 82.89131164550781 61.93170166015625 85.08217620849609 C 56.56977462768555 87.35007476806641 50.87312316894531 88.5 45 88.5 Z" stroke="none"/>
          <path d="M 45 3 C 39.32871246337891 3 33.82865524291992 4.110054016113281 28.65262985229492 6.299339294433594 C 23.65165710449219 8.414573669433594 19.15968322753906 11.44334411621094 15.301513671875 15.301513671875 C 11.44334411621094 19.15968322753906 8.414573669433594 23.65165710449219 6.299339294433594 28.65262985229492 C 4.110054016113281 33.82865524291992 3 39.32871246337891 3 45 C 3 50.67128753662109 4.110054016113281 56.17134475708008 6.299339294433594 61.34737396240234 C 8.414573669433594 66.34834289550781 11.44334411621094 70.84031677246094 15.301513671875 74.698486328125 C 19.15968322753906 78.55665588378906 23.65165710449219 81.58542633056641 28.65262985229492 83.70066070556641 C 33.82865524291992 85.88994598388672 39.32871246337891 87 45 87 C 50.67128753662109 87 56.17134475708008 85.88994598388672 61.34737396240234 83.70066070556641 C 66.34834289550781 81.58542633056641 70.84031677246094 78.55665588378906 74.698486328125 74.698486328125 C 78.55665588378906 70.84031677246094 81.58542633056641 66.34834289550781 83.70066070556641 61.34737396240234 C 85.88994598388672 56.17134475708008 87 50.67128753662109 87 45 C 87 39.32871246337891 85.88994598388672 33.82865524291992 83.70066070556641 28.65262985229492 C 81.58542633056641 23.65165710449219 78.55665588378906 19.15968322753906 74.698486328125 15.301513671875 C 70.84031677246094 11.44334411621094 66.34834289550781 8.414573669433594 61.34737396240234 6.299339294433594 C 56.17134475708008 4.110054016113281 50.67128753662109 3 45 3 M 45 0 C 69.85281372070312 0 90 20.14718627929688 90 45 C 90 69.85281372070312 69.85281372070312 90 45 90 C 20.14718627929688 90 0 69.85281372070312 0 45 C 0 20.14718627929688 20.14718627929688 0 45 0 Z" stroke="none" fill="#1d531a"/>
        </g>
      </g>
    </g>
    <g id="filled_outline" data-name="filled outline" transform="translate(208.467 464.012)">
      <path id="Trazado_916897" data-name="Trazado 916897" d="M176.556,66.832a5.736,5.736,0,0,1-1.147-3.442V58.178a10.178,10.178,0,1,0-20.355,0V63.39a5.736,5.736,0,0,1-1.147,3.442,9.53,9.53,0,0,0,.885,12.457l.262.262h20.355l.262-.262a9.53,9.53,0,0,0,.885-12.457Z" transform="translate(-118.698 -6.982)" fill="#f3af3e"/>
      <path id="Trazado_916898" data-name="Trazado 916898" d="M348.355,258.237a2.24,2.24,0,0,1-1.8,2.195l-3.29.658-2.011,8.047A5.5,5.5,0,0,1,331.444,271l-1.689-2.365L328,266.178v-7.124h.024a6.552,6.552,0,0,1,5.857,3.619l.565,1.13,1.7,3.393,2.558-9.382A2.462,2.462,0,0,1,341.074,256h5.044a2.236,2.236,0,0,1,2.237,2.237Z" transform="translate(-272.308 -188.521)" fill="#fdc9a6"/>
      <path id="Trazado_916899" data-name="Trazado 916899" d="M166.308,283.619A6.552,6.552,0,0,0,160.45,280H141.343A5.343,5.343,0,0,0,136,285.343V298.32h24.426v-3.053l.832-1.387a5.531,5.531,0,0,0,.226-5.275l.7.976.281-.421,4.071-4.071.34-.34Z" transform="translate(-104.734 -209.467)" fill="#428dc5"/>
      <path id="Trazado_916900" data-name="Trazado 916900" d="M173.089,156.071h-3.053a2.036,2.036,0,1,1,0-4.071h3.053Z" transform="translate(-132.663 -97.751)" fill="#f7c4a2"/>
      <path id="Trazado_916901" data-name="Trazado 916901" d="M35.2,430.107H24v-4.58A1.527,1.527,0,0,1,25.527,424H81.5a1.527,1.527,0,0,1,1.527,1.527v4.58Z" transform="translate(-6.982 -335.148)" fill="#8f563b"/>
      <path id="Trazado_916902" data-name="Trazado 916902" d="M224.142,243.053V240h-6.107v3.053A2.036,2.036,0,0,1,216,245.089l5.089,10.178,5.089-10.178A2.036,2.036,0,0,1,224.142,243.053Z" transform="translate(-174.556 -174.556)" fill="#f7c4a2"/>
      <path id="Trazado_916903" data-name="Trazado 916903" d="M197.231,396.071H184V392h11.45a1.781,1.781,0,0,1,1.781,1.781Z" transform="translate(-146.627 -307.219)" fill="#fdc9a6"/>
      <path id="Trazado_916904" data-name="Trazado 916904" d="M400,48h11.2V63.266H400Z" transform="translate(-335.148 -6.982)" fill="#fbb540"/>
      <path id="Trazado_916905" data-name="Trazado 916905" d="M435.053,101.32a1.014,1.014,0,0,1-.72-.3L432.3,98.987c-.4-.4-.4-.322,0-.72s1.042-1.117,1.439-.72l2.036,2.036a1.018,1.018,0,0,1-.72,1.737Z" transform="translate(-363.077 -50.125)" fill="#f55648"/>
      <path id="Trazado_916906" data-name="Trazado 916906" d="M400,168h11.2v5.089h-3.053a2.879,2.879,0,0,0-4.071,0H400Z" transform="translate(-335.148 -111.716)" fill="#da922a"/>
      <path id="Trazado_916907" data-name="Trazado 916907" d="M33.868,163.114l-3.761,3.134-3.761-3.134A6.519,6.519,0,0,1,24,158.107a6.107,6.107,0,1,1,12.213,0,6.519,6.519,0,0,1-2.346,5.008Z" transform="translate(-6.982 -97.751)" fill="#baf6e4"/>
      <circle id="Elipse_11576" data-name="Elipse 11576" cx="2.036" cy="2.036" r="2.036" transform="translate(21.428 58.489)" fill="#a1d6c6"/>
      <path id="Trazado_916908" data-name="Trazado 916908" d="M64,288h2.036v2.036H64Z" transform="translate(-41.894 -216.45)" fill="#c0f5f9"/>
      <path id="Trazado_916909" data-name="Trazado 916909" d="M64,320h2.036v4.071H64Z" transform="translate(-41.894 -244.379)" fill="#c0f5f9"/>
      <path id="Trazado_916910" data-name="Trazado 916910" d="M232,312h6.107l-3.053,6.107Z" transform="translate(-188.521 -237.396)" fill="#3775a4"/>
      <path id="Trazado_916911" data-name="Trazado 916911" d="M261.089,280l1.018,5.089L256,290.178Z" transform="translate(-209.467 -209.467)" fill="#ebebeb"/>
      <path id="Trazado_916912" data-name="Trazado 916912" d="M209.018,280,208,285.089l6.107,5.089Z" transform="translate(-167.574 -209.467)" fill="#ebebeb"/>
      <path id="Trazado_916913" data-name="Trazado 916913" d="M207.124,129.3A7.124,7.124,0,0,1,200,122.178v-5.089l.375-.25a9.38,9.38,0,0,0,3.7-4.839l2.979,2.483a11.244,11.244,0,0,0,7.2,2.606v5.089A7.124,7.124,0,0,1,207.124,129.3Z" transform="translate(-160.592 -62.84)" fill="#fdc9a6"/>
      <g id="Grupo_1147822" data-name="Grupo 1147822" transform="translate(41.783 55.097)">
        <ellipse id="Elipse_11577" data-name="Elipse 11577" cx="1.018" cy="1.357" rx="1.018" ry="1.357" transform="translate(0 0)" fill="#a45e14"/>
        <circle id="Elipse_11578" data-name="Elipse 11578" cx="1.357" cy="1.357" r="1.357" transform="translate(6.785 0)" fill="#a45e14"/>
        <path id="Trazado_916914" data-name="Trazado 916914" d="M243.053,165.086h-2.036a1.018,1.018,0,0,1-.966-1.34l1.018-3.053a1.018,1.018,0,1,1,1.931.644l-.571,1.714h.623a1.018,1.018,0,1,1,0,2.036Z" transform="translate(-237.285 -159.828)" fill="#a45e14"/>
        <path id="Trazado_916915" data-name="Trazado 916915" d="M235.052,206.731a5.573,5.573,0,0,1-2.491-.585,1.018,1.018,0,1,1,.91-1.821,3.551,3.551,0,0,0,3.161,0,1.018,1.018,0,0,1,.91,1.821A5.573,5.573,0,0,1,235.052,206.731Z" transform="translate(-230.302 -198.422)" fill="#a45e14"/>
      </g>
      <path id="Trazado_916916" data-name="Trazado 916916" d="M62.391,354.178H44.071L40,344H59.337Z" transform="translate(-20.947 -265.325)" fill="#cbcbcb"/>
      <path id="Trazado_916917" data-name="Trazado 916917" d="M422.107,91.053h-5.089a1.018,1.018,0,1,1,0-2.036h4.071a1.018,1.018,0,1,1,2.036,0v1.018A1.018,1.018,0,0,1,422.107,91.053Z" transform="translate(-349.112 -41.893)" fill="#f55648"/>
      <path id="Trazado_916918" data-name="Trazado 916918" d="M24,456H83.03v2.036H24Z" transform="translate(-6.982 -363.077)" fill="#744630"/>
      <ellipse id="Elipse_11579" data-name="Elipse 11579" cx="1.018" cy="1.357" rx="1.018" ry="1.357" transform="translate(41.783 55.097)"/>
      <circle id="Elipse_11580" data-name="Elipse 11580" cx="1.357" cy="1.357" r="1.357" transform="translate(48.568 55.097)"/>
      <path id="Trazado_916919" data-name="Trazado 916919" d="M241.017,165.086h2.036a1.018,1.018,0,1,0,0-2.036h-.623l.571-1.714a1.018,1.018,0,0,0-1.931-.644l-1.018,3.053a1.018,1.018,0,0,0,.966,1.34Z" transform="translate(-195.502 -104.731)"/>
      <path id="Trazado_916920" data-name="Trazado 916920" d="M236.632,204.329a3.55,3.55,0,0,1-3.161,0,1.018,1.018,0,1,0-.91,1.821,5.6,5.6,0,0,0,4.981,0,1.018,1.018,0,0,0-.91-1.821Z" transform="translate(-188.519 -143.329)"/>
      <path id="Trazado_916921" data-name="Trazado 916921" d="M404.213,40h-11.2A1.018,1.018,0,0,0,392,41.018V61.373a1.018,1.018,0,0,0,1.018,1.018h4.071a1.018,1.018,0,0,0,.719-.3,1.863,1.863,0,0,1,2.632,0,1.018,1.018,0,0,0,.72.3h3.053a1.018,1.018,0,0,0,1.018-1.018V41.018A1.018,1.018,0,0,0,404.213,40Zm-10.178,2.036h9.16V55.266h-9.16Zm9.16,18.32h-1.65a3.9,3.9,0,0,0-4.842,0h-2.668V57.3h9.16Z" transform="translate(-328.165)"/>
      <path id="Trazado_916922" data-name="Trazado 916922" d="M422.107,88a1.018,1.018,0,0,0-1.018,1.018h-4.071a1.018,1.018,0,1,0,0,2.036h1.614l1.737,1.737a1.018,1.018,0,1,0,1.439-1.439l-.3-.3h.6a1.018,1.018,0,0,0,1.018-1.018V89.018A1.018,1.018,0,0,0,422.107,88Z" transform="translate(-349.112 -41.893)"/>
      <path id="Trazado_916923" data-name="Trazado 916923" d="M18.712,156.914l3.761,3.134a1.018,1.018,0,0,0,1.3,0l3.761-3.134a7.517,7.517,0,0,0,2.712-5.79,7.124,7.124,0,1,0-14.249,0,7.517,7.517,0,0,0,2.712,5.79Zm4.412-10.879a5.1,5.1,0,0,1,5.089,5.089,5.486,5.486,0,0,1-1.979,4.226l-3.109,2.591-3.109-2.591a5.486,5.486,0,0,1-1.979-4.226,5.1,5.1,0,0,1,5.089-5.089Z" transform="translate(0 -90.769)"/>
      <path id="Trazado_916924" data-name="Trazado 916924" d="M49.223,181.486a3.028,3.028,0,0,0,1.83.614,3.11,3.11,0,0,0,.432-.03,3.053,3.053,0,1,0-2.262-.585Zm1.024-3.051a1.012,1.012,0,0,1,.671-.4,1.04,1.04,0,0,1,.144-.01,1.018,1.018,0,1,1-.815.406Z" transform="translate(-27.936 -118.692)"/>
      <path id="Trazado_916925" data-name="Trazado 916925" d="M64,288h2.036v2.036H64Z" transform="translate(-41.894 -216.45)"/>
      <path id="Trazado_916926" data-name="Trazado 916926" d="M57.4,84.937a6.562,6.562,0,0,0,.8-2.028l.114.16a6.518,6.518,0,0,0,11.627-2.208L71.79,73.44l2.66-.532a3.255,3.255,0,0,0-.639-6.446H68.767a3.487,3.487,0,0,0-3.356,2.563l-1.857,6.812-.5-1.009-.565-1.13a7.551,7.551,0,0,0-2.949-3.155,10.548,10.548,0,0,0-.864-11.3,4.741,4.741,0,0,1-.944-2.83V51.2a11.2,11.2,0,0,0-22.391,0v2.815a3.046,3.046,0,0,0-.35,4.176,4.681,4.681,0,0,1-.594,1.051A10.551,10.551,0,0,0,33.087,69.6c.106.257.226.511.354.76a6.363,6.363,0,0,0-3.192,5.512v1.781H24.142V75.621H22.107v2.036H19.053a1.018,1.018,0,0,0-.945,1.4l3.513,8.782H18.544A2.547,2.547,0,0,0,16,90.379v4.58a1.018,1.018,0,0,0,1.018,1.018h59.03a1.018,1.018,0,0,0,1.018-1.018v-4.58a2.547,2.547,0,0,0-2.544-2.544H56.71V86.081ZM61.86,77l1.064,2.13a1.018,1.018,0,0,0,1.892-.187l2.558-9.382A1.447,1.447,0,0,1,68.767,68.5h5.044a1.22,1.22,0,0,1,.238,2.415l-3.29.658a1.018,1.018,0,0,0-.788.751L67.96,80.368a4.483,4.483,0,0,1-8,1.519l-1.247-1.745ZM37.373,51.2a9.16,9.16,0,0,1,18.32,0v5.212a6.787,6.787,0,0,0,1.351,4.052,8.511,8.511,0,0,1,.6,9.3,7.639,7.639,0,0,0-1.924-.246h-4.1A1.015,1.015,0,0,1,50.6,68.5V66.384a8.145,8.145,0,0,0,4.071-7.047V54.249a1.018,1.018,0,0,0-1.018-1.018,10.246,10.246,0,0,1-6.547-2.37l-2.979-2.483a1.018,1.018,0,0,0-1.617.46,8.4,8.4,0,0,1-3.295,4.314l-.119.079H37.373Zm9.16,27.239-1.407-2.813h2.813Zm0-12.991a6.113,6.113,0,0,1-6.107-6.107V54.793a10.457,10.457,0,0,0,3.462-3.967l1.919,1.6a12.288,12.288,0,0,0,6.832,2.8v4.114A6.113,6.113,0,0,1,46.533,65.444Zm0,2.036a8.132,8.132,0,0,0,2.036-.258V68.5a3.041,3.041,0,0,0,.895,2.161,3.075,3.075,0,0,0,.7.522l-1.2,2.406H44.108l-1.2-2.408A3.056,3.056,0,0,0,44.5,68.5V67.222a8.132,8.132,0,0,0,2.036.258ZM41.86,73.641l1.586,3.173-1.9-1.587Zm9.345,0,.317,1.586-1.9,1.586ZM36.355,56.284a1.019,1.019,0,0,1,1.018-1.018h1.018V57.3H37.373a1.019,1.019,0,0,1-1.018-1.018ZM34.967,68.825a8.512,8.512,0,0,1,1.054-8.365,6.726,6.726,0,0,0,.713-1.19,3.055,3.055,0,0,0,.638.068h1.018a8.145,8.145,0,0,0,4.071,7.047V68.5a1.019,1.019,0,0,1-1.018,1.018H36.61a6.361,6.361,0,0,0-1.251.124,8.352,8.352,0,0,1-.392-.814ZM20.556,79.693H37.633l2.443,8.142H23.813Zm29.029,8.142H42.2L41.591,85.8h7.232a.764.764,0,0,1,.763.763ZM75.03,90.379v3.562H18.036V90.379a.509.509,0,0,1,.509-.509H74.521A.509.509,0,0,1,75.03,90.379ZM51.621,87.835V86.562a2.8,2.8,0,0,0-2.8-2.8H40.98l-1.614-5.381a1.018,1.018,0,0,0-.975-.725H32.284V75.876A4.33,4.33,0,0,1,36.61,71.55H40.2l-.774,3.871a1.018,1.018,0,0,0,.347.981l6.107,5.089a1.018,1.018,0,0,0,1.283.016l.019-.016L53.29,76.4a1.018,1.018,0,0,0,.347-.981l-.611-3.054,0-.008-.161-.808h2.854a5.5,5.5,0,0,1,4.947,3.057l.237.474-3.385,3.385a1.018,1.018,0,0,0-1.679,1.118,4.5,4.5,0,0,1-.184,4.3l-.832,1.387a1.018,1.018,0,0,0-.145.523v2.036Z" transform="translate(0 0)"/>
    </g>
  </g>
</svg>
