<svg xmlns="http://www.w3.org/2000/svg" xmlns:xlink="http://www.w3.org/1999/xlink" width="108" height="108" viewBox="0 0 108 108">
  <defs>
    <filter id="Trazado_904820" x="0" y="0" width="108" height="108" filterUnits="userSpaceOnUse">
      <feOffset dy="3" input="SourceAlpha"/>
      <feGaussianBlur stdDeviation="3" result="blur"/>
      <feFlood flood-opacity="0.161"/>
      <feComposite operator="in" in2="blur"/>
      <feComposite in="SourceGraphic"/>
    </filter>
  </defs>
  <g id="img2" transform="translate(-201 -481)">
    <g id="Icono" transform="translate(-414.101 -4519)">
      <g transform="matrix(1, 0, 0, 1, 615.1, 5000)" filter="url(#Trazado_904820)">
        <g id="Trazado_904820-2" data-name="Trazado 904820" transform="translate(9 6)" fill="#f3f0ea">
          <path d="M 45 88.5 C 39.12687683105469 88.5 33.43022537231445 87.35007476806641 28.06830024719238 85.08217620849609 C 22.88852500915527 82.89131164550781 18.23629951477051 79.75458526611328 14.2408504486084 75.75914764404297 C 10.24541282653809 71.76370239257812 7.108687400817871 67.11147308349609 4.917825222015381 61.93170166015625 C 2.649924993515015 56.56977462768555 1.5 50.87312316894531 1.5 45 C 1.5 39.12687683105469 2.649924993515015 33.43022537231445 4.917825222015381 28.06830024719238 C 7.108687400817871 22.88852500915527 10.24541282653809 18.23629951477051 14.2408504486084 14.2408504486084 C 18.23629951477051 10.24541282653809 22.88852500915527 7.108687400817871 28.06830024719238 4.917825222015381 C 33.43022537231445 2.649924993515015 39.12687683105469 1.5 45 1.5 C 50.87312316894531 1.5 56.56977462768555 2.649924993515015 61.93170166015625 4.917825222015381 C 67.11147308349609 7.108687400817871 71.76370239257812 10.24541282653809 75.75914764404297 14.2408504486084 C 79.75458526611328 18.23629951477051 82.89131164550781 22.88852500915527 85.08217620849609 28.06830024719238 C 87.35007476806641 33.43022537231445 88.5 39.12687683105469 88.5 45 C 88.5 50.87312316894531 87.35007476806641 56.56977462768555 85.08217620849609 61.93170166015625 C 82.89131164550781 67.11147308349609 79.75458526611328 71.76370239257812 75.75914764404297 75.75914764404297 C 71.76370239257812 79.75458526611328 67.11147308349609 82.89131164550781 61.93170166015625 85.08217620849609 C 56.56977462768555 87.35007476806641 50.87312316894531 88.5 45 88.5 Z" stroke="none"/>
          <path d="M 45 3 C 39.32871246337891 3 33.82865524291992 4.110054016113281 28.65262985229492 6.299339294433594 C 23.65165710449219 8.414573669433594 19.15968322753906 11.44334411621094 15.301513671875 15.301513671875 C 11.44334411621094 19.15968322753906 8.414573669433594 23.65165710449219 6.299339294433594 28.65262985229492 C 4.110054016113281 33.82865524291992 3 39.32871246337891 3 45 C 3 50.67128753662109 4.110054016113281 56.17134475708008 6.299339294433594 61.34737396240234 C 8.414573669433594 66.34834289550781 11.44334411621094 70.84031677246094 15.301513671875 74.698486328125 C 19.15968322753906 78.55665588378906 23.65165710449219 81.58542633056641 28.65262985229492 83.70066070556641 C 33.82865524291992 85.88994598388672 39.32871246337891 87 45 87 C 50.67128753662109 87 56.17134475708008 85.88994598388672 61.34737396240234 83.70066070556641 C 66.34834289550781 81.58542633056641 70.84031677246094 78.55665588378906 74.698486328125 74.698486328125 C 78.55665588378906 70.84031677246094 81.58542633056641 66.34834289550781 83.70066070556641 61.34737396240234 C 85.88994598388672 56.17134475708008 87 50.67128753662109 87 45 C 87 39.32871246337891 85.88994598388672 33.82865524291992 83.70066070556641 28.65262985229492 C 81.58542633056641 23.65165710449219 78.55665588378906 19.15968322753906 74.698486328125 15.301513671875 C 70.84031677246094 11.44334411621094 66.34834289550781 8.414573669433594 61.34737396240234 6.299339294433594 C 56.17134475708008 4.110054016113281 50.67128753662109 3 45 3 M 45 0 C 69.85281372070312 0 90 20.14718627929688 90 45 C 90 69.85281372070312 69.85281372070312 90 45 90 C 20.14718627929688 90 0 69.85281372070312 0 45 C 0 20.14718627929688 20.14718627929688 0 45 0 Z" stroke="none" fill="#1d531a"/>
        </g>
      </g>
    </g>
    <g id="ingeniero-de-software" transform="translate(228.162 486.555)">
      <g id="Grupo_1147773" data-name="Grupo 1147773" transform="translate(0 13.87)">
        <g id="Grupo_1147739" data-name="Grupo 1147739" transform="translate(9.975 0.895)">
          <path id="Trazado_916612" data-name="Trazado 916612" d="M102.955,27.469c-4.009,1.05-5.839,4.192-5.1,8.741l.726,4.464h26.626l.648-4.464c1.953-13.5-19.147-17.9-22.9-8.741Z" transform="translate(-97.695 -22.639)" fill="#554e56" fill-rule="evenodd"/>
        </g>
        <g id="Grupo_1147740" data-name="Grupo 1147740" transform="translate(6.67 18.931)">
          <path id="Trazado_916613" data-name="Trazado 916613" d="M68.876,199.286c-5.338,0-4.428,7.534,1.193,7.113a7.161,7.161,0,0,0-.552-7.113Z" transform="translate(-65.325 -199.286)" fill="#f6a96c" fill-rule="evenodd"/>
        </g>
        <g id="Grupo_1147741" data-name="Grupo 1147741" transform="translate(35.684 18.931)">
          <path id="Trazado_916614" data-name="Trazado 916614" d="M351.3,199.286c-2.059,2.305-2.505,4.726-.552,7.113,5.621.422,6.531-7.113,1.193-7.113Z" transform="translate(-349.499 -199.286)" fill="#f6a96c" fill-rule="evenodd"/>
        </g>
        <g id="Grupo_1147742" data-name="Grupo 1147742" transform="translate(18.565 0.895)">
          <path id="Trazado_916615" data-name="Trazado 916615" d="M181.836,23.884c7.077-.513,15.946,4.192,15.166,12.859-.021.221-.048.449-.078.677l-.47,3.25h4.305l.648-4.464c1.612-11.149-12.49-16.092-19.57-12.322Z" transform="translate(-181.836 -22.634)" fill="#433f43" fill-rule="evenodd"/>
        </g>
        <g id="Grupo_1147743" data-name="Grupo 1147743" transform="translate(10.861 14.83)">
          <path id="Trazado_916616" data-name="Trazado 916616" d="M119.655,159.125l-7.38.014c-3.238,0-3.927.408-5.894,4.087v4.029a9.636,9.636,0,0,0,.552,3.084,14.961,14.961,0,0,0,2.124,3.985l10.434,2.8,10.84-2.8a14.963,14.963,0,0,0,2.124-3.985,9.636,9.636,0,0,0,.552-3.084v-4.029c-1.967-3.679-2.737-4.083-5.972-4.087Z" transform="translate(-106.381 -159.125)" fill="#fed2a4" fill-rule="evenodd"/>
        </g>
        <g id="Grupo_1147744" data-name="Grupo 1147744" transform="translate(28.89 14.841)">
          <path id="Trazado_916617" data-name="Trazado 916617" d="M282.965,159.225c6.429.017,7.039,6.31,5.376,11.2-.337.989-.818,2.662-1.418,3.988-.092.2-.188.4-.283.581l2.052-.53.194-.051a14.96,14.96,0,0,0,2.124-3.985,9.637,9.637,0,0,0,.552-3.084v-4.029c-1.967-3.679-2.737-4.083-5.972-4.087Z" transform="translate(-282.965 -159.225)" fill="#ffbd86" fill-rule="evenodd"/>
        </g>
        <g id="Grupo_1147745" data-name="Grupo 1147745" transform="translate(9.08 0)">
          <path id="Trazado_916618" data-name="Trazado 916618" d="M117.337,33.7a.894.894,0,0,1-.788-.473c-1.877-3.511-2.394-3.611-5.185-3.614l-7.381-.014-7.377.014c-2.817,0-3.248.137-5.107,3.614a.894.894,0,0,1-1.671-.278L89.1,28.48h0c-.791-4.863,1.15-8.349,5.335-9.63a8.569,8.569,0,0,1,5.662-4.464,15.919,15.919,0,0,1,8.418.106,15.541,15.541,0,0,1,7.8,4.765,11.379,11.379,0,0,1,2.554,9.208l-.648,4.464a.894.894,0,0,1-.731.752A.883.883,0,0,1,117.337,33.7Zm-26.469-5.5.329,2.022c1.374-2.006,2.573-2.392,5.408-2.4l7.379-.014,7.383.014c2.828,0,4.079.407,5.448,2.355l.285-1.967c.978-6.762-4.266-10.685-9.054-11.991-4.744-1.293-10.435-.432-12.135,3.717a.894.894,0,0,1-.6.526c-4.519,1.184-4.911,4.859-4.444,7.733Z" transform="translate(-88.929 -13.87)"/>
        </g>
        <g id="Grupo_1147746" data-name="Grupo 1147746" transform="translate(21.107 20.41)">
          <path id="Trazado_916619" data-name="Trazado 916619" d="M207.626,216.1a.894.894,0,0,1-.389-1.7,5.582,5.582,0,0,1,5.122,0,.894.894,0,1,1-.776,1.611,3.8,3.8,0,0,0-3.57,0A.89.89,0,0,1,207.626,216.1Z" transform="translate(-206.731 -213.773)"/>
        </g>
        <g id="Grupo_1147747" data-name="Grupo 1147747" transform="translate(36.041 18.037)">
          <path id="Trazado_916620" data-name="Trazado 916620" d="M354.341,199.446q-.253,0-.512-.019a.894.894,0,0,1,.134-1.783,3.367,3.367,0,0,0,3.3-1.436,2.719,2.719,0,0,0,.2-2.726,2.505,2.505,0,0,0-2.382-1.166h-.641a.894.894,0,0,1,0-1.788h.641a4.238,4.238,0,0,1,3.953,2.1,4.525,4.525,0,0,1-.273,4.551A5.089,5.089,0,0,1,354.341,199.446Z" transform="translate(-353.002 -190.528)"/>
        </g>
        <g id="Grupo_1147748" data-name="Grupo 1147748" transform="translate(5.78 18.037)">
          <path id="Trazado_916621" data-name="Trazado 916621" d="M61.8,199.446a5.088,5.088,0,0,1-4.427-2.268,4.526,4.526,0,0,1-.273-4.552,4.236,4.236,0,0,1,3.951-2.1h.641a.894.894,0,1,1,0,1.788h-.641a2.5,2.5,0,0,0-2.381,1.165,2.72,2.72,0,0,0,.2,2.727,3.366,3.366,0,0,0,3.3,1.435.894.894,0,1,1,.134,1.783Q62.049,199.446,61.8,199.446Z" transform="translate(-56.607 -190.528)"/>
        </g>
        <g id="Grupo_1147749" data-name="Grupo 1147749" transform="translate(9.967 18.037)">
          <path id="Trazado_916622" data-name="Trazado 916622" d="M122.467,203.415a.894.894,0,0,1-.72-1.423,11.688,11.688,0,0,0,2.5-6.539v-4.029a.894.894,0,0,1,1.788,0v4.029a13.294,13.294,0,0,1-2.849,7.6A.893.893,0,0,1,122.467,203.415Zm-21.273,0a.893.893,0,0,1-.721-.365,13.3,13.3,0,0,1-2.849-7.6v-4.029a.894.894,0,0,1,1.788,0v4.029a11.689,11.689,0,0,0,2.5,6.539.894.894,0,0,1-.72,1.423Z" transform="translate(-97.624 -190.529)"/>
        </g>
        <g id="Grupo_1147750" data-name="Grupo 1147750" transform="translate(26.347 18.931)">
          <path id="Trazado_916623" data-name="Trazado 916623" d="M259.984,199.286a1.928,1.928,0,0,0-1.926,1.921V203.3a1.928,1.928,0,0,0,1.926,1.921h1.773a1.928,1.928,0,0,0,1.926-1.921v-2.091a1.928,1.928,0,0,0-1.926-1.921Z" transform="translate(-258.058 -199.286)" fill="#99e6fc" fill-rule="evenodd"/>
        </g>
        <g id="Grupo_1147751" data-name="Grupo 1147751" transform="translate(16.377 18.931)">
          <path id="Trazado_916624" data-name="Trazado 916624" d="M162.327,199.286a1.928,1.928,0,0,0-1.926,1.921V203.3a1.928,1.928,0,0,0,1.926,1.921H164.1a1.928,1.928,0,0,0,1.926-1.921v-2.091a1.928,1.928,0,0,0-1.926-1.921Z" transform="translate(-160.401 -199.286)" fill="#99e6fc" fill-rule="evenodd"/>
        </g>
        <g id="Grupo_1147752" data-name="Grupo 1147752" transform="translate(0.894 41.313)">
          <path id="Trazado_916625" data-name="Trazado 916625" d="M14.228,419.4C9.65,421,8.757,424.588,8.757,428.317v5.477a.713.713,0,0,0,.712.707H16.9l3.549-6.99-3.681-9.007Z" transform="translate(-8.757 -418.505)" fill="#99e6fc" fill-rule="evenodd"/>
        </g>
        <g id="Grupo_1147753" data-name="Grupo 1147753" transform="translate(35.234 41.313)">
          <path id="Trazado_916626" data-name="Trazado 916626" d="M349.309,418.505l-4.21,9.244,4.08,6.752h7.428a.713.713,0,0,0,.712-.707v-5.477c0-3.73-.893-7.313-5.471-8.922Z" transform="translate(-345.099 -418.505)" fill="#99e6fc" fill-rule="evenodd"/>
        </g>
        <g id="Grupo_1147754" data-name="Grupo 1147754" transform="translate(8.905 30.028)">
          <path id="Trazado_916627" data-name="Trazado 916627" d="M113.124,307.979h-24.1a1.813,1.813,0,0,0-1.807,1.805v20.577h30.539V309.784a1.812,1.812,0,0,0-1.807-1.805Z" transform="translate(-87.217 -307.979)" fill="#7a6d79" fill-rule="evenodd"/>
        </g>
        <g id="Grupo_1147755" data-name="Grupo 1147755" transform="translate(6.352 52.41)">
          <path id="Trazado_916628" data-name="Trazado 916628" d="M95.3,527.2H63.083a.875.875,0,0,0-.873.87v1.35A2.69,2.69,0,0,0,64.9,532.1H95.173a2.69,2.69,0,0,0,2.686-2.679v-1.35a.876.876,0,0,0-.876-.87Z" transform="translate(-62.21 -527.198)" fill="#554e56" fill-rule="evenodd"/>
        </g>
        <g id="Grupo_1147756" data-name="Grupo 1147756" transform="translate(34.195 30.028)">
          <path id="Trazado_916629" data-name="Trazado 916629" d="M336.722,319.265v11.1h3.443V309.786a1.812,1.812,0,0,0-1.807-1.805h-3.443a1.813,1.813,0,0,1,1.807,1.805v9.479Z" transform="translate(-334.915 -307.981)" fill="#685e68" fill-rule="evenodd"/>
        </g>
        <g id="Grupo_1147757" data-name="Grupo 1147757" transform="translate(35.872 52.41)">
          <path id="Trazado_916630" data-name="Trazado 916630" d="M354.914,527.2h-1.759a.875.875,0,0,1,.873.87v1.35a2.69,2.69,0,0,1-2.686,2.679h3.443a2.69,2.69,0,0,0,2.686-2.679v-1.35a.876.876,0,0,0-.876-.87Z" transform="translate(-351.342 -527.198)" fill="#433f43" fill-rule="evenodd"/>
        </g>
        <g id="Grupo_1147758" data-name="Grupo 1147758" transform="translate(39.444 41.313)">
          <path id="Trazado_916631" data-name="Trazado 916631" d="M386.332,418.505v2.774c3.855,1.734,5.113,3.159,5.113,6.242v6.98h2.185a.713.713,0,0,0,.712-.707v-5.477c0-3.73-.893-7.313-5.471-8.922Z" transform="translate(-386.332 -418.505)" fill="#62dbfb" fill-rule="evenodd"/>
        </g>
        <g id="Grupo_1147759" data-name="Grupo 1147759" transform="translate(16.763 33.483)">
          <path id="Trazado_916632" data-name="Trazado 916632" d="M169.785,343.44a6.359,6.359,0,0,0-2.591,1.5l-.91-.527a.585.585,0,0,0-.8.214l-1.227,2.122a.579.579,0,0,0,.215.792l.907.524a6.5,6.5,0,0,0,0,2.985l-.907.524a.579.579,0,0,0-.215.792l1.227,2.122a.587.587,0,0,0,.8.211l.91-.524a6.352,6.352,0,0,0,2.591,1.492v1.047a.581.581,0,0,0,.579.581h2.458a.581.581,0,0,0,.58-.581v-1.047a6.352,6.352,0,0,0,2.591-1.492l.913.524a.584.584,0,0,0,.794-.211l1.227-2.122a.579.579,0,0,0-.215-.792l-.907-.524a6.5,6.5,0,0,0,0-2.985l.907-.524a.579.579,0,0,0,.215-.792l-1.227-2.122a.582.582,0,0,0-.794-.214l-.913.527a6.358,6.358,0,0,0-2.591-1.5v-1.047a.578.578,0,0,0-.58-.578h-2.458a.578.578,0,0,0-.579.578v1.047Zm1.81,3.363a2.751,2.751,0,1,1-2.761,2.751,2.755,2.755,0,0,1,2.761-2.751Z" transform="translate(-164.181 -341.815)" fill="#e5e1e5" fill-rule="evenodd"/>
        </g>
        <g id="Grupo_1147760" data-name="Grupo 1147760" transform="translate(20.521 37.576)">
          <path id="Trazado_916633" data-name="Trazado 916633" d="M204.645,389.2a3.645,3.645,0,1,1,3.652-3.645A3.654,3.654,0,0,1,204.645,389.2Zm0-5.5a1.856,1.856,0,1,0,1.864,1.857A1.864,1.864,0,0,0,204.645,383.7Z" transform="translate(-200.99 -381.908)"/>
        </g>
        <g id="Grupo_1147761" data-name="Grupo 1147761" transform="translate(15.868 32.589)">
          <path id="Trazado_916634" data-name="Trazado 916634" d="M164.951,350.321h-2.458a1.476,1.476,0,0,1-1.474-1.475v-.411a7.306,7.306,0,0,1-1.8-1.037l-.361.208a1.484,1.484,0,0,1-2.016-.536l-1.228-2.124a1.473,1.473,0,0,1,.545-2.016l.356-.205a7.351,7.351,0,0,1,0-2.069l-.359-.207a1.473,1.473,0,0,1-.54-2.016l1.226-2.12a1.48,1.48,0,0,1,2.015-.543l.364.211a7.314,7.314,0,0,1,1.8-1.039v-.412a1.474,1.474,0,0,1,1.474-1.472h2.458a1.475,1.475,0,0,1,1.474,1.472v.412a7.312,7.312,0,0,1,1.8,1.04l.364-.21a1.477,1.477,0,0,1,2.016.543l1.226,2.12a1.473,1.473,0,0,1-.545,2.016l-.356.206a7.355,7.355,0,0,1,0,2.069l.359.207a1.473,1.473,0,0,1,.541,2.016l-1.226,2.12a1.479,1.479,0,0,1-2.016.537l-.361-.207a7.3,7.3,0,0,1-1.8,1.038v.411A1.476,1.476,0,0,1,164.951,350.321Zm-2.143-1.788h1.829V347.8a.894.894,0,0,1,.642-.858,5.489,5.489,0,0,0,2.226-1.283.894.894,0,0,1,1.06-.128l.646.37.912-1.577-.636-.367a.894.894,0,0,1-.424-.978,5.6,5.6,0,0,0,0-2.577.894.894,0,0,1,.423-.979l.636-.368-.913-1.579-.643.371a.894.894,0,0,1-1.063-.126,5.5,5.5,0,0,0-2.226-1.286.894.894,0,0,1-.642-.858v-.731h-1.829v.731a.894.894,0,0,1-.642.858,5.493,5.493,0,0,0-2.227,1.286.894.894,0,0,1-1.064.126l-.641-.371-.914,1.58.636.367a.894.894,0,0,1,.423.979,5.6,5.6,0,0,0,0,2.577.894.894,0,0,1-.423.979l-.636.367.913,1.578.644-.37a.894.894,0,0,1,1.062.127,5.488,5.488,0,0,0,2.226,1.283.894.894,0,0,1,.642.858v.734Zm6.669-2.48h0Zm.918-1.572h0Zm-13.344,0h0Zm13.23-.429h0Zm-13.121,0h0Zm13.122-4.719h0Zm-13.12,0h0Zm13.232-.428h0Zm-13.348,0h0Zm12.436-1.578h0Zm-.427-.112h0Zm-10.665,0h0Z" transform="translate(-155.415 -333.057)"/>
        </g>
        <g id="Grupo_1147762" data-name="Grupo 1147762" transform="translate(8.011 29.134)">
          <path id="Trazado_916635" data-name="Trazado 916635" d="M109.893,323.392H79.353a.894.894,0,0,1-.894-.894V301.921a2.7,2.7,0,0,1,2.7-2.7H92.1a.894.894,0,1,1,0,1.788H81.16a.924.924,0,0,0-.913.911V321.6H109V301.921a.913.913,0,0,0-.913-.911H96.261a.894.894,0,1,1,0-1.788h11.825a2.7,2.7,0,0,1,2.7,2.7V322.5A.894.894,0,0,1,109.893,323.392Z" transform="translate(-78.459 -299.222)"/>
        </g>
        <g id="Grupo_1147763" data-name="Grupo 1147763" transform="translate(5.458 51.517)">
          <path id="Trazado_916636" data-name="Trazado 916636" d="M87.31,525.131a.894.894,0,1,1,0-1.788,1.791,1.791,0,0,0,1.792-1.785v-1.326H55.241v1.326a1.791,1.791,0,0,0,1.792,1.785.894.894,0,1,1,0,1.788,3.581,3.581,0,0,1-3.58-3.573v-1.35a1.768,1.768,0,0,1,1.767-1.764h33.9a1.769,1.769,0,0,1,1.77,1.764v1.35A3.581,3.581,0,0,1,87.31,525.131Z" transform="translate(-53.453 -518.444)"/>
        </g>
        <g id="Grupo_1147764" data-name="Grupo 1147764" transform="translate(15.483 18.037)">
          <path id="Trazado_916637" data-name="Trazado 916637" d="M156.237,198.249h-1.773a2.821,2.821,0,0,1-2.82-2.815v-2.091a2.821,2.821,0,0,1,2.82-2.815h1.773a2.821,2.821,0,0,1,2.82,2.815v2.091A2.821,2.821,0,0,1,156.237,198.249Zm-1.773-5.933a1.031,1.031,0,0,0-1.032,1.027v2.091a1.03,1.03,0,0,0,1.032,1.027h1.773a1.031,1.031,0,0,0,1.032-1.027v-2.091a1.031,1.031,0,0,0-1.032-1.027Z" transform="translate(-151.644 -190.528)"/>
        </g>
        <g id="Grupo_1147765" data-name="Grupo 1147765" transform="translate(25.453 18.037)">
          <path id="Trazado_916638" data-name="Trazado 916638" d="M253.894,198.249h-1.773a2.821,2.821,0,0,1-2.82-2.815v-2.091a2.821,2.821,0,0,1,2.82-2.815h1.773a2.821,2.821,0,0,1,2.82,2.815v2.091A2.821,2.821,0,0,1,253.894,198.249Zm-1.773-5.933a1.031,1.031,0,0,0-1.032,1.027v2.091a1.031,1.031,0,0,0,1.032,1.027h1.773a1.031,1.031,0,0,0,1.032-1.027v-2.091a1.031,1.031,0,0,0-1.032-1.027Z" transform="translate(-249.301 -190.528)"/>
        </g>
        <g id="Grupo_1147766" data-name="Grupo 1147766" transform="translate(0 40.419)">
          <path id="Trazado_916639" data-name="Trazado 916639" d="M46.742,427.532H1.607A1.606,1.606,0,0,1,0,425.93v-5.477c0-3.277.629-7.854,6.069-9.765l2.54-.891a.894.894,0,0,1,.592,1.687l-2.54.891c-3.416,1.2-4.873,3.615-4.873,8.078v5.29H46.561v-5.29c0-4.462-1.457-6.878-4.873-8.078l-2.539-.891a.894.894,0,0,1,.592-1.687l2.54.891c5.44,1.911,6.069,6.488,6.069,9.765v5.477A1.606,1.606,0,0,1,46.742,427.532Z" transform="translate(0 -409.746)"/>
        </g>
        <g id="Grupo_1147767" data-name="Grupo 1147767" transform="translate(34.955 26.448)">
          <path id="Trazado_916640" data-name="Trazado 916640" d="M365.792,278.146A11.28,11.28,0,0,1,349.638,293.3l-3.14-.146-4.138-.194,1.588-3.818,1.207-2.9a11.292,11.292,0,0,1,20.637-8.1Z" transform="translate(-342.36 -272.913)" fill="#e5e1e5" fill-rule="evenodd"/>
        </g>
        <g id="Grupo_1147768" data-name="Grupo 1147768" transform="translate(47.274 26.448)">
          <path id="Trazado_916641" data-name="Trazado 916641" d="M471.287,278.183a11.269,11.269,0,0,1-7.96,17.183,11.266,11.266,0,1,0-.307-22.345,11.274,11.274,0,0,1,8.266,5.161Z" transform="translate(-463.021 -272.913)" fill="#d7d0d6" fill-rule="evenodd"/>
        </g>
        <g id="Grupo_1147769" data-name="Grupo 1147769" transform="translate(34.061 25.559)">
          <path id="Trazado_916642" data-name="Trazado 916642" d="M348.387,288.529a12.178,12.178,0,0,1-6.914-2.159l-7.018-.328a.894.894,0,0,1-.784-1.237l2.695-6.474a12.188,12.188,0,1,1,21.747,5.362.894.894,0,0,1-1.425-1.08,10.385,10.385,0,1,0-18.517-4.344.894.894,0,0,1-.053.509l-2.305,5.538,6,.28a.894.894,0,0,1,.481.168,10.379,10.379,0,0,0,11.663.354.894.894,0,0,1,.955,1.512A12.205,12.205,0,0,1,348.387,288.529Z" transform="translate(-333.603 -264.21)"/>
        </g>
        <g id="Grupo_1147770" data-name="Grupo 1147770" transform="translate(41.396 34.231)">
          <path id="Trazado_916643" data-name="Trazado 916643" d="M408.093,356.821a.894.894,0,0,1-.774-.445l-1.745-3.006a.894.894,0,0,1,.008-.912l1.745-2.887a.894.894,0,0,1,1.53.925l-1.471,2.433,1.479,2.547a.894.894,0,0,1-.772,1.343Z" transform="translate(-405.453 -349.14)"/>
        </g>
        <g id="Grupo_1147771" data-name="Grupo 1147771" transform="translate(46.594 33.918)">
          <path id="Trazado_916644" data-name="Trazado 916644" d="M457.259,354.379a.895.895,0,0,1-.83-1.226l2.6-6.514a.894.894,0,0,1,1.661.663l-2.6,6.514A.9.9,0,0,1,457.259,354.379Z" transform="translate(-456.365 -346.077)"/>
        </g>
        <g id="Grupo_1147772" data-name="Grupo 1147772" transform="translate(52.921 34.231)">
          <path id="Trazado_916645" data-name="Trazado 916645" d="M519.226,356.82a.894.894,0,0,1-.772-1.343l1.479-2.547-1.471-2.433a.894.894,0,1,1,1.53-.925l1.745,2.887a.894.894,0,0,1,.008.912L520,356.375A.894.894,0,0,1,519.226,356.82Z" transform="translate(-518.333 -349.139)"/>
        </g>
      </g>
    </g>
  </g>
</svg>
