<svg xmlns="http://www.w3.org/2000/svg" xmlns:xlink="http://www.w3.org/1999/xlink" width="190" height="216" viewBox="0 0 190 216">
  <defs>
    <clipPath id="clip-path">
      <rect id="Rectángulo_401573" data-name="Rectángulo 401573" width="28.836" height="204.001" fill="none"/>
    </clipPath>
    <clipPath id="clip-path-2">
      <rect id="Rectángulo_401572" data-name="Rectángulo 401572" width="72.283" height="384.741" fill="none"/>
    </clipPath>
    <clipPath id="clip-path-3">
      <rect id="Rectángulo_406297" data-name="Rectángulo 406297" width="161" height="216" transform="translate(209 927.001)" fill="#efe8f7" opacity="0.68"/>
    </clipPath>
    <clipPath id="clip-path-4">
      <rect id="Rectángulo_405551" data-name="Rectángulo 405551" width="191" height="526" fill="#fff" stroke="#707070" stroke-width="1" opacity="0.56"/>
    </clipPath>
    <clipPath id="clip-path-5">
      <rect id="Rectángulo_405471" data-name="Rectángulo 405471" width="542.755" height="563.927" fill="none"/>
    </clipPath>
    <clipPath id="clip-path-8">
      <rect id="Rectángulo_405536" data-name="Rectángulo 405536" width="103.465" height="9.896" fill="none"/>
    </clipPath>
    <clipPath id="clip-path-9">
      <rect id="Rectángulo_405537" data-name="Rectángulo 405537" width="55.544" height="37.771" fill="none"/>
    </clipPath>
    <clipPath id="clip-path-10">
      <rect id="Rectángulo_405538" data-name="Rectángulo 405538" width="54.788" height="120.648" fill="none"/>
    </clipPath>
    <clipPath id="clip-path-12">
      <rect id="Rectángulo_405546" data-name="Rectángulo 405546" width="12.553" height="17.343" fill="none"/>
    </clipPath>
    <clipPath id="clip-path-13">
      <rect id="Rectángulo_405547" data-name="Rectángulo 405547" width="14.741" height="17.635" fill="none"/>
    </clipPath>
    <clipPath id="clip-path-14">
      <rect id="Rectángulo_405548" data-name="Rectángulo 405548" width="37.404" height="16.746" fill="none"/>
    </clipPath>
    <clipPath id="clip-path-15">
      <rect id="Rectángulo_405549" data-name="Rectángulo 405549" width="11.022" height="14.302" fill="none"/>
    </clipPath>
  </defs>
  <g id="img3" transform="translate(-180 -927.001)">
    <g id="Grupo_1099688" data-name="Grupo 1099688" transform="translate(180 938.999)">
      <g id="Grupo_1099687" data-name="Grupo 1099687" clip-path="url(#clip-path)">
        <g id="Grupo_1099686" data-name="Grupo 1099686" transform="translate(-6.669 -80.78)" opacity="0.45" style="mix-blend-mode: multiply;isolation: isolate">
          <g id="Grupo_1099685" data-name="Grupo 1099685">
            <g id="Grupo_1099684" data-name="Grupo 1099684" clip-path="url(#clip-path-2)">
              <path id="Trazado_873516" data-name="Trazado 873516" d="M-2.3,36.479,100.228-12.1,97.977-3.859-4.548,44.721Z" transform="matrix(0.898, -0.44, 0.44, 0.898, -13.994, 294.649)" fill="#2d0464"/>
              <path id="Trazado_873517" data-name="Trazado 873517" d="M-2.3,36.48,100.228-12.1,97.977-3.859-4.548,44.721Z" transform="matrix(0.898, -0.44, 0.44, 0.898, -13.994, 270.682)" fill="#2d0464"/>
              <path id="Trazado_873518" data-name="Trazado 873518" d="M-2.3,36.48,100.228-12.1,97.977-3.859-4.548,44.721Z" transform="matrix(0.898, -0.44, 0.44, 0.898, -13.994, 246.715)" fill="#2d0464"/>
              <path id="Trazado_873519" data-name="Trazado 873519" d="M-2.3,36.48,100.228-12.1,97.977-3.859-4.548,44.721Z" transform="matrix(0.898, -0.44, 0.44, 0.898, -13.994, 222.748)" fill="#2d0464"/>
              <path id="Trazado_873520" data-name="Trazado 873520" d="M-2.3,36.48,100.228-12.1,97.977-3.859-4.548,44.721Z" transform="matrix(0.898, -0.44, 0.44, 0.898, -13.994, 198.781)" fill="#2d0464"/>
              <path id="Trazado_873521" data-name="Trazado 873521" d="M-2.3,36.48,100.228-12.1,97.977-3.859-4.548,44.721Z" transform="matrix(0.898, -0.44, 0.44, 0.898, -13.994, 174.814)" fill="#2d0464"/>
              <path id="Trazado_873522" data-name="Trazado 873522" d="M-2.3,36.48,100.228-12.1,97.977-3.859-4.548,44.721Z" transform="matrix(0.898, -0.44, 0.44, 0.898, -13.994, 150.848)" fill="#2d0464"/>
              <path id="Trazado_873523" data-name="Trazado 873523" d="M-2.3,36.48,100.228-12.1,97.977-3.859-4.548,44.721Z" transform="matrix(0.898, -0.44, 0.44, 0.898, -13.994, 126.881)" fill="#2d0464"/>
              <path id="Trazado_873524" data-name="Trazado 873524" d="M-2.3,36.48,100.228-12.1,97.977-3.859-4.548,44.721Z" transform="matrix(0.898, -0.44, 0.44, 0.898, -13.994, 102.915)" fill="#2d0464"/>
              <path id="Trazado_873525" data-name="Trazado 873525" d="M-2.3,36.48,100.228-12.1,97.977-3.859-4.548,44.721Z" transform="matrix(0.898, -0.44, 0.44, 0.898, -13.994, 78.948)" fill="#2d0464"/>
              <path id="Trazado_873526" data-name="Trazado 873526" d="M-2.3,36.48,100.228-12.1,97.977-3.859-4.548,44.721Z" transform="translate(-13.994 54.981) rotate(-26.114)" fill="#2d0464"/>
            </g>
          </g>
        </g>
      </g>
      <rect id="Rectángulo_401574" data-name="Rectángulo 401574" width="161" height="204" transform="translate(29 0.002)" fill="#efe8f7"/>
    </g>
    <g id="Enmascarar_grupo_1098727" data-name="Enmascarar grupo 1098727" clip-path="url(#clip-path-3)">
      <g id="Enmascarar_grupo_1098726" data-name="Enmascarar grupo 1098726" transform="translate(213 917)" clip-path="url(#clip-path-4)">
        <g id="Grupo_1102398" data-name="Grupo 1102398" transform="translate(-175.874 -38.266)">
          <g id="Grupo_1102262" data-name="Grupo 1102262">
            <g id="Grupo_1102261" data-name="Grupo 1102261" clip-path="url(#clip-path-5)">
              <path id="Trazado_913481" data-name="Trazado 913481" d="M390.229,104.965,384.672,96l2.744-1.7a2.507,2.507,0,0,0,1.163-2.358,14.641,14.641,0,0,1-.05-1.576,2.5,2.5,0,0,0-1.307-2.275l-2.844-1.526,4.984-9.294,2.844,1.526a2.5,2.5,0,0,0,2.619-.17,14.7,14.7,0,0,1,1.34-.83,2.509,2.509,0,0,0,1.322-2.274l-.1-3.227,10.538-.327.1,3.238a2.507,2.507,0,0,0,1.469,2.181c.233.11.464.227.694.349s.454.251.674.385a2.5,2.5,0,0,0,2.618.019l2.763-1.712,5.558,8.96L419.046,87.1a2.506,2.506,0,0,0-1.161,2.359,14.552,14.552,0,0,1,.051,1.57,2.506,2.506,0,0,0,1.308,2.273l2.845,1.526-4.984,9.294L414.26,102.6a2.5,2.5,0,0,0-2.617.168,14.8,14.8,0,0,1-1.336.825,2.507,2.507,0,0,0-1.324,2.274l.1,3.234-10.537.327-.1-3.235a2.5,2.5,0,0,0-1.466-2.174c-.233-.111-.466-.228-.7-.352s-.454-.251-.675-.385a2.512,2.512,0,0,0-2.63-.018Zm8.923-6.654a8.636,8.636,0,1,0-3.535-11.691,8.63,8.63,0,0,0,3.535,11.691" transform="translate(-59.419 203.482)" fill="#dbdbdb"/>
              <path id="Trazado_913482" data-name="Trazado 913482" d="M10.606,91.891l4.705-8.156,2.5,1.443a2.237,2.237,0,0,0,2.346-.08,13.006,13.006,0,0,1,1.22-.705A2.236,2.236,0,0,0,22.612,82.4V79.522H32.03V82.4a2.236,2.236,0,0,0,1.238,1.988,13.151,13.151,0,0,1,1.219.705,2.242,2.242,0,0,0,2.347.08l2.5-1.443,4.705,8.156-2.507,1.443a2.24,2.24,0,0,0-1.1,2.077c.012.23.017.462.017.694s-.005.463-.017.692a2.229,2.229,0,0,0,1.089,2.068l2.513,1.453-4.705,8.156-2.5-1.444a2.239,2.239,0,0,0-2.347.082,13.079,13.079,0,0,1-1.215.7A2.237,2.237,0,0,0,32.03,109.8v2.883H22.612V109.8a2.236,2.236,0,0,0-1.237-1.988,13.06,13.06,0,0,1-1.214-.7,2.239,2.239,0,0,0-2.347-.082l-2.5,1.444-4.705-8.156,2.5-1.444A2.235,2.235,0,0,0,14.2,96.8c-.012-.23-.017-.463-.017-.7s.005-.463.017-.694a2.24,2.24,0,0,0-1.1-2.077Zm9,4.214a7.713,7.713,0,1,0,7.709-7.717A7.707,7.707,0,0,0,19.608,96.1" transform="translate(283.599 9.989)" fill="#692cb7"/>
              <path id="Trazado_913853" data-name="Trazado 913853" d="M10.606,88.583l3.447-5.975,1.829,1.057a1.639,1.639,0,0,0,1.719-.058,9.529,9.529,0,0,1,.894-.517,1.638,1.638,0,0,0,.907-1.457V79.522h6.9v2.112a1.638,1.638,0,0,0,.907,1.457,9.635,9.635,0,0,1,.893.517,1.643,1.643,0,0,0,1.72.058l1.828-1.057L35.1,88.583,33.259,89.64a1.641,1.641,0,0,0-.8,1.522c.008.169.012.338.012.508s0,.339-.012.507a1.633,1.633,0,0,0,.8,1.515L35.1,94.757l-3.447,5.975-1.833-1.058a1.641,1.641,0,0,0-1.72.06,9.582,9.582,0,0,1-.89.516,1.639,1.639,0,0,0-.905,1.457v2.112H19.4v-2.112a1.638,1.638,0,0,0-.906-1.457,9.567,9.567,0,0,1-.889-.516,1.641,1.641,0,0,0-1.72-.06l-1.834,1.058-3.447-5.975L12.441,93.7a1.637,1.637,0,0,0,.8-1.518c-.008-.169-.012-.339-.012-.511s0-.339.012-.508a1.641,1.641,0,0,0-.8-1.522ZM17.2,91.67a5.65,5.65,0,1,0,5.647-5.653A5.646,5.646,0,0,0,17.2,91.67" transform="translate(166.678 9.989)" fill="#692cb7"/>
              <path id="Trazado_913856" data-name="Trazado 913856" d="M10.606,87.1,13.487,82.1l1.529.883a1.37,1.37,0,0,0,1.437-.049A7.965,7.965,0,0,1,17.2,82.5a1.369,1.369,0,0,0,.758-1.218V79.522h5.767v1.765a1.369,1.369,0,0,0,.758,1.218,8.054,8.054,0,0,1,.746.432,1.373,1.373,0,0,0,1.437.049l1.528-.883L31.076,87.1l-1.535.883a1.372,1.372,0,0,0-.671,1.272c.007.141.01.283.01.425s0,.284-.01.424a1.365,1.365,0,0,0,.667,1.266l1.539.89L28.195,97.25l-1.532-.884a1.371,1.371,0,0,0-1.437.05,8.01,8.01,0,0,1-.744.431,1.37,1.37,0,0,0-.757,1.218v1.765H17.958V98.065a1.369,1.369,0,0,0-.757-1.218,8,8,0,0,1-.743-.431,1.371,1.371,0,0,0-1.437-.05l-1.533.884-2.881-4.994,1.534-.884a1.369,1.369,0,0,0,.668-1.269c-.007-.141-.01-.284-.01-.427s0-.284.01-.425a1.372,1.372,0,0,0-.671-1.272Zm5.513,2.58a4.723,4.723,0,1,0,4.721-4.725,4.719,4.719,0,0,0-4.721,4.725" transform="translate(166.678 202.441)" fill="#dbdbdb"/>
              <path id="Trazado_913857" data-name="Trazado 913857" d="M10.606,89.417l3.764-6.524,2,1.154a1.79,1.79,0,0,0,1.877-.064,10.406,10.406,0,0,1,.976-.564,1.789,1.789,0,0,0,.99-1.591V79.522h7.534v2.306a1.789,1.789,0,0,0,.99,1.591,10.522,10.522,0,0,1,.975.564,1.794,1.794,0,0,0,1.878.064l2-1.154,3.764,6.524-2.006,1.154a1.792,1.792,0,0,0-.876,1.662c.009.184.013.37.013.555s0,.371-.013.554A1.784,1.784,0,0,0,35.338,95l2.011,1.162-3.764,6.524-2-1.155a1.792,1.792,0,0,0-1.878.066,10.464,10.464,0,0,1-.972.563,1.79,1.79,0,0,0-.988,1.591v2.306H20.211v-2.306a1.789,1.789,0,0,0-.989-1.591,10.448,10.448,0,0,1-.971-.563,1.792,1.792,0,0,0-1.878-.066l-2,1.155-3.764-6.524,2-1.155a1.788,1.788,0,0,0,.873-1.658c-.009-.184-.013-.371-.013-.558s0-.371.013-.555a1.792,1.792,0,0,0-.876-1.662Zm7.2,3.371a6.17,6.17,0,1,0,6.167-6.173,6.165,6.165,0,0,0-6.167,6.173" transform="translate(319.836 391.441)" fill="#dbdbdb"/>
              <path id="Trazado_913858" data-name="Trazado 913858" d="M10.606,88.583l3.447-5.975,1.829,1.057a1.639,1.639,0,0,0,1.719-.058,9.529,9.529,0,0,1,.894-.517,1.638,1.638,0,0,0,.907-1.457V79.522h6.9v2.112a1.638,1.638,0,0,0,.907,1.457,9.635,9.635,0,0,1,.893.517,1.643,1.643,0,0,0,1.72.058l1.828-1.057L35.1,88.583,33.259,89.64a1.641,1.641,0,0,0-.8,1.522c.008.169.012.338.012.508s0,.339-.012.507a1.633,1.633,0,0,0,.8,1.515L35.1,94.757l-3.447,5.975-1.833-1.058a1.641,1.641,0,0,0-1.72.06,9.582,9.582,0,0,1-.89.516,1.639,1.639,0,0,0-.905,1.457v2.112H19.4v-2.112a1.638,1.638,0,0,0-.906-1.457,9.567,9.567,0,0,1-.889-.516,1.641,1.641,0,0,0-1.72-.06l-1.834,1.058-3.447-5.975L12.441,93.7a1.637,1.637,0,0,0,.8-1.518c-.008-.169-.012-.339-.012-.511s0-.339.012-.508a1.641,1.641,0,0,0-.8-1.522ZM17.2,91.67a5.65,5.65,0,1,0,5.647-5.653A5.646,5.646,0,0,0,17.2,91.67" transform="translate(275.824 -22.011)" fill="#692cb7"/>
            </g>
          </g>
          <g id="Grupo_1102264" data-name="Grupo 1102264">
            <g id="Grupo_1102263" data-name="Grupo 1102263" clip-path="url(#clip-path-5)">
              <path id="Trazado_913492" data-name="Trazado 913492" d="M532.168,437.853c-165.538-.788-351.233-.794-516.77,0,165.538.794,351.233.788,516.77,0" transform="translate(-9.23 125.48)" fill="#263238"/>
            </g>
          </g>
          <g id="Grupo_1102395" data-name="Grupo 1102395" clip-path="url(#clip-path-5)">
            <path id="Trazado_913746" data-name="Trazado 913746" d="M189.454,97.609c12.029,16.716,45.022,90.029,47.712,95.08,3.546,6.656-32.17,17.24-34.1,12.436-1.257-3.131-25.795-83.75-25.775-102.677.017-16.906,7.543-11.26,12.163-4.839" transform="translate(77.174 26.194)" fill="#f7a9a0"/>
            <path id="Trazado_913747" data-name="Trazado 913747" d="M207.555,194.4c-1.582-1.54-2.4-.722-1.884,3.169.513,3.937,5.861,18.853.484,20.275-5.392,1.438-12.612-19.792-12.977-26.337s1.344-17.26,1.344-17.26c2.235,3.848,8.549,12.661,13.033,20.153" transform="translate(85.677 50.004)" fill="#f7a9a0"/>
            <path id="Trazado_913748" data-name="Trazado 913748" d="M199.882,163.636c6.3,11.157,14.352,24.878,13.759,39.017a7.009,7.009,0,0,1-1.574,4.309c-.154,6.342-3.194,8.174-3.194,8.174-1.951,5.862-5.319,7.309-5.319,7.309s-.261,7.443-4.786,8.031c-5.072.676-3.712-9.908-6.524-16.187-6.443-14.384-19.624-33.03-21.894-36.994Z" transform="translate(109.848 46.959)" fill="#f7a9a0"/>
            <path id="Trazado_913749" data-name="Trazado 913749" d="M178.128,187.638a101.371,101.371,0,0,1,4.927,12.913,101.836,101.836,0,0,1,2.408,14.949.122.122,0,0,0,.245-.01,53.582,53.582,0,0,0-7.386-27.938c-.115-.193-.284-.13-.193.085" transform="translate(127.806 53.789)" fill="#263238"/>
            <path id="Trazado_913750" data-name="Trazado 913750" d="M173.934,183.645c1.531,4.253,4.178,11.747,4.519,25.823,0,.046.08.058.085.008a48.1,48.1,0,0,0-4.4-25.9c-.118-.259-.3-.211-.2.072" transform="translate(140.117 52.631)" fill="#263238"/>
            <path id="Trazado_913751" data-name="Trazado 913751" d="M171.524,181.565c2.331,7.332,2.871,12.251,3.416,20.3,0,.045.084.053.085,0,.342-9.215-.579-12.6-3.26-20.419-.093-.268-.332-.171-.241.116" transform="translate(146.941 52.025)" fill="#263238"/>
            <path id="Trazado_913752" data-name="Trazado 913752" d="M241.111,453.992c-3.318,1.031-97.709-.993-101.269-3.332-1.345-.88-1.849-14.661-1.986-31.309-.039-3.6-.039-7.292-.027-11.077,0-.793,5.622-47.932,5.622-47.932l60.531,1.132-4.753,47.931-.516,11.078S234.5,437.42,238.12,440.425c3.6,2.981,6.311,12.536,2.991,13.567" transform="translate(122.768 103.407)" fill="#f7a9a0"/>
            <path id="Trazado_913753" data-name="Trazado 913753" d="M241.111,444.8c-3.318,1.031-97.709-.993-101.269-3.332-1.345-.88-1.849-14.661-1.986-31.309-.039-3.6-.039-7.292-.027-11.077,0-.793.3-3.921.584-6.724l61.481,1.1-.665,6.751-.516,11.078s35.785,16.937,39.407,19.942c3.6,2.981,6.311,12.536,2.991,13.567" transform="translate(122.768 112.596)" fill="#ebebeb"/>
            <path id="Trazado_913754" data-name="Trazado 913754" d="M241.355,431.269v7.2A1.354,1.354,0,0,1,240,439.816h-.432a1.4,1.4,0,0,1-1.331-1.078,4.1,4.1,0,0,0-7.9,0,1.4,1.4,0,0,1-1.331,1.078h-2.063a1.4,1.4,0,0,1-1.328-1.078,4.1,4.1,0,0,0-7.885,0,1.4,1.4,0,0,1-1.331,1.078h-2.062a1.4,1.4,0,0,1-1.331-1.078,4.1,4.1,0,0,0-7.9,0,1.4,1.4,0,0,1-1.331,1.078h-2.063a1.4,1.4,0,0,1-1.328-1.078,4.1,4.1,0,0,0-7.885,0,1.4,1.4,0,0,1-1.331,1.078H189.11a1.4,1.4,0,0,1-1.331-1.078,4.1,4.1,0,0,0-7.9,0,1.4,1.4,0,0,1-1.329,1.078h-2.064a1.4,1.4,0,0,1-1.328-1.078,4.1,4.1,0,0,0-7.885,0,1.4,1.4,0,0,1-1.329,1.078h-2.063a1.4,1.4,0,0,1-1.331-1.078,4.1,4.1,0,0,0-7.9,0,1.4,1.4,0,0,1-1.329,1.078h-2.063a1.4,1.4,0,0,1-1.329-1.078,4.1,4.1,0,0,0-7.885,0,1.4,1.4,0,0,1-1.329,1.078h-1.471a1.353,1.353,0,0,1-1.358-1.349v-7.2a1.353,1.353,0,0,1,1.358-1.349H240a1.354,1.354,0,0,1,1.358,1.349" transform="translate(123.94 123.374)" fill="#ffc727"/>
            <g id="Grupo_1102367" data-name="Grupo 1102367" transform="translate(261.83 553.293)" opacity="0.2">
              <g id="Grupo_1102366" data-name="Grupo 1102366">
                <g id="Grupo_1102365" data-name="Grupo 1102365" clip-path="url(#clip-path-8)">
                  <path id="Trazado_913755" data-name="Trazado 913755" d="M241.355,431.269v7.2A1.354,1.354,0,0,1,240,439.816h-.432a1.4,1.4,0,0,1-1.331-1.078,4.1,4.1,0,0,0-7.9,0,1.4,1.4,0,0,1-1.331,1.078h-2.063a1.4,1.4,0,0,1-1.328-1.078,4.1,4.1,0,0,0-7.885,0,1.4,1.4,0,0,1-1.331,1.078h-2.062a1.4,1.4,0,0,1-1.331-1.078,4.1,4.1,0,0,0-7.9,0,1.4,1.4,0,0,1-1.331,1.078h-2.063a1.4,1.4,0,0,1-1.328-1.078,4.1,4.1,0,0,0-7.885,0,1.4,1.4,0,0,1-1.331,1.078H189.11a1.4,1.4,0,0,1-1.331-1.078,4.1,4.1,0,0,0-7.9,0,1.4,1.4,0,0,1-1.329,1.078h-2.064a1.4,1.4,0,0,1-1.328-1.078,4.1,4.1,0,0,0-7.885,0,1.4,1.4,0,0,1-1.329,1.078h-2.063a1.4,1.4,0,0,1-1.331-1.078,4.1,4.1,0,0,0-7.9,0,1.4,1.4,0,0,1-1.329,1.078h-2.063a1.4,1.4,0,0,1-1.329-1.078,4.1,4.1,0,0,0-7.885,0,1.4,1.4,0,0,1-1.329,1.078h-1.471a1.353,1.353,0,0,1-1.358-1.349v-7.2a1.353,1.353,0,0,1,1.358-1.349H240a1.354,1.354,0,0,1,1.358,1.349" transform="translate(-137.89 -429.92)"/>
                </g>
              </g>
            </g>
            <path id="Trazado_913756" data-name="Trazado 913756" d="M241.477,443.473c-2.165.668-42.376.068-71.639-1.081-6.771-.269-12.962-.571-17.956-.882-6.883-.444-11.5-.906-12.239-1.4-1.642-1.1-2.062-21.3-2.044-42.614l61.755,1.143-.524,11.13s35.991,17.036,39.634,20.05c3.614,3.014,6.341,12.6,3.013,13.651" transform="translate(122.687 114.07)" fill="#ffc727"/>
            <path id="Trazado_913757" data-name="Trazado 913757" d="M241.477,443.473c-2.165.668-42.376.068-71.639-1.081-6.771-.269-12.962-.571-17.956-.882-6.883-.444-11.5-.906-12.239-1.4-1.642-1.1-2.062-21.3-2.044-42.614l61.755,1.143-.524,11.13s35.991,17.036,39.634,20.05c3.614,3.014,6.341,12.6,3.013,13.651" transform="translate(122.687 114.07)" fill="#ffc727"/>
            <path id="Trazado_913758" data-name="Trazado 913758" d="M235.555,430.649c-15.9-.731-80.113-2.18-95.887-1.695-.129,0-.13.091,0,.1,15.746,1.069,79.966,2,95.884,1.856.336,0,.341-.246.005-.261" transform="translate(127.328 123.069)" fill="#263238"/>
            <path id="Trazado_913759" data-name="Trazado 913759" d="M188.716,404.456c-6.237-1.3-13.915-.506-18.795,3.853-.189.169.054.435.259.375a88.131,88.131,0,0,1,18.494-3.438.4.4,0,0,0,.042-.79" transform="translate(135.125 115.903)" fill="#263238"/>
            <path id="Trazado_913760" data-name="Trazado 913760" d="M185.248,406.647c-6.235-1.3-13.915-.506-18.794,3.853-.189.169.054.435.257.376a87.959,87.959,0,0,1,18.5-3.439.4.4,0,0,0,.041-.79" transform="translate(143.054 116.532)" fill="#263238"/>
            <path id="Trazado_913761" data-name="Trazado 913761" d="M181.782,408.838c-6.237-1.3-13.915-.5-18.794,3.853-.189.169.053.435.257.376a88.047,88.047,0,0,1,18.5-3.439.4.4,0,0,0,.041-.79" transform="translate(150.982 117.161)" fill="#263238"/>
            <path id="Trazado_913762" data-name="Trazado 913762" d="M178.316,411.03c-6.237-1.3-13.915-.506-18.795,3.853-.188.169.054.435.259.376a88.048,88.048,0,0,1,18.494-3.439.4.4,0,0,0,.042-.79" transform="translate(158.908 117.79)" fill="#263238"/>
            <path id="Trazado_913763" data-name="Trazado 913763" d="M176.835,402.588c-4.5,3.35-10.3,4.632-15.508,6.436-.541.187-.956-.327-.965-.8a.168.168,0,0,1-.143-.229,33.433,33.433,0,0,1,9.95-14.136c2.661-2.14,7.275-3.566,9.664-.125,2.257,3.255-.369,6.9-3,8.857m1.7-5c1.251-6.845-6.2-3.4-8.1-1.741a36.017,36.017,0,0,0-3.4,3.513,100.484,100.484,0,0,0-5.992,8.128c2.506-1.044,5.078-1.862,7.619-2.812,3.03-1.131,9.179-3.314,9.868-7.089" transform="translate(155.884 112.395)" fill="#263238"/>
            <path id="Trazado_913764" data-name="Trazado 913764" d="M175.292,397.268c1.6-3.872,6.41-3.465,9.467-1.942A33.4,33.4,0,0,1,197.5,407.01a.166.166,0,0,1-.09.254.778.778,0,0,1-.772.991c-5.477-.65-11.41-.665-16.525-2.975-2.984-1.349-6.329-4.35-4.818-8.011m13.242,8.3c2.687.385,5.376.634,8.044,1.118a100.079,100.079,0,0,0-7.588-6.66,35.919,35.919,0,0,0-4.069-2.708c-2.206-1.211-10.224-2.99-7.539,3.432,1.479,3.539,7.952,4.358,11.153,4.817" transform="translate(120.113 113.132)" fill="#263238"/>
            <g id="Grupo_1102370" data-name="Grupo 1102370" transform="translate(260.308 519.431)" opacity="0.1">
              <g id="Grupo_1102369" data-name="Grupo 1102369">
                <g id="Grupo_1102368" data-name="Grupo 1102368" clip-path="url(#clip-path-9)">
                  <path id="Trazado_913765" data-name="Trazado 913765" d="M231.852,441.379c-7.946-.2-15.984-.463-23.33-.749-6.769-.256-12.96-.557-17.955-.874-6.878-.444-11.5-.9-12.235-1.4-1.436-.96-1.95-16.57-2.024-34.747,14.009,9.365,41.539,28.182,55.544,37.771" transform="translate(-176.308 -403.608)"/>
                </g>
              </g>
            </g>
            <path id="Trazado_913766" data-name="Trazado 913766" d="M256.6,459.092l-65.611-.838S205.264,328.736,204.773,326c-.624-3.5-42.717-168.543-42.717-168.543h56.62S263.328,311.29,264.93,326.113c2.595,23.932-8.325,132.979-8.325,132.979" transform="translate(68.865 45.187)" fill="#455a64"/>
            <path id="Trazado_913767" data-name="Trazado 913767" d="M170.752,380.843c3.5-.252,7.049-.21,10.562-.256s7.037-.057,10.556-.022c7.036.069,14.069.175,21.1.375,1.924.054,3.848.113,5.771.2,2.059.1,4.108.447,6.161.522a.125.125,0,0,1-.006.25c-1.726.015-3.456.273-5.185.323-1.793.051-3.587.063-5.38.063q-5.278,0-10.554-.04c-7.033-.059-14.073-.153-21.1-.444-3.969-.165-7.979-.214-11.934-.611a.181.181,0,0,1,.009-.362" transform="translate(98.212 109.204)" fill="#263238"/>
            <path id="Trazado_913768" data-name="Trazado 913768" d="M201.732,167.833c5.066,17.94,9.7,36.04,14.239,54.12s9.059,36.188,13.563,54.29q3.378,13.575,6.754,27.151c2.192,8.809,4.737,17.669,5.28,26.774.553,9.258-.624,18.589-1.405,27.8q-1.178,13.9-2.371,27.79c-1.623,18.53-1.923,24.5-3.938,42.994q-.378,3.471-.735,6.944c-.019.2-.324.194-.311-.008,1.228-18.541,1.25-24.5,2.728-43.023q1.11-13.9,2.264-27.792c.764-9.246,1.839-18.525,2.131-27.8.3-9.363-1.416-18.324-3.674-27.365q-3.318-13.285-6.656-26.568-6.8-27.14-13.556-54.291c-5.027-20.267-10.047-40.574-14.484-60.979a.088.088,0,0,1,.17-.042" transform="translate(41.642 48.145)" fill="#263238"/>
            <g id="Grupo_1102373" data-name="Grupo 1102373" transform="translate(230.916 202.65)" opacity="0.1">
              <g id="Grupo_1102372" data-name="Grupo 1102372">
                <g id="Grupo_1102371" data-name="Grupo 1102371" clip-path="url(#clip-path-10)">
                  <path id="Trazado_913769" data-name="Trazado 913769" d="M199.734,157.463s18.06,70.805,30.7,120.647l24.091-120.647Z" transform="translate(-199.734 -157.463)"/>
                </g>
              </g>
            </g>
            <path id="Trazado_913770" data-name="Trazado 913770" d="M297.031,453.989c-3.327,1.036-97.717-.986-101.272-3.335-1.341-.876-1.852-14.655-1.992-31.3q-.052-5.4-.026-11.081c.01-4.464,3.109-47.933,3.109-47.933l60.534,1.138L255.15,409.41l-.522,11.072s35.789,16.944,39.4,19.944c3.6,2.984,6.313,12.542,3,13.563" transform="translate(-5.103 103.407)" fill="#f7a9a0"/>
            <path id="Trazado_913771" data-name="Trazado 913771" d="M297.035,444.6c-3.332,1.031-97.723-.993-101.282-3.332-1.333-.88-1.848-14.661-1.987-31.309-.037-3.6-.037-7.292-.024-11.077,0-.8.113-2.9.277-5.8h61.46l-.327,6.928-.528,11.078s35.8,16.937,39.406,19.942c3.6,2.981,6.313,12.536,3.005,13.567" transform="translate(-5.103 112.802)" fill="#ebebeb"/>
            <path id="Trazado_913772" data-name="Trazado 913772" d="M297.266,431.269v7.2a1.353,1.353,0,0,1-1.358,1.349h-.432a1.4,1.4,0,0,1-1.331-1.078,4.1,4.1,0,0,0-7.9,0,1.4,1.4,0,0,1-1.331,1.078h-2.063a1.4,1.4,0,0,1-1.328-1.078,4.1,4.1,0,0,0-7.885,0,1.4,1.4,0,0,1-1.331,1.078h-2.062a1.4,1.4,0,0,1-1.331-1.078,4.1,4.1,0,0,0-7.9,0,1.4,1.4,0,0,1-1.331,1.078h-2.063a1.4,1.4,0,0,1-1.328-1.078,4.1,4.1,0,0,0-7.885,0,1.4,1.4,0,0,1-1.329,1.078h-2.063a1.4,1.4,0,0,1-1.331-1.078,4.1,4.1,0,0,0-7.9,0,1.4,1.4,0,0,1-1.329,1.078H232.4a1.4,1.4,0,0,1-1.329-1.078,4.1,4.1,0,0,0-7.885,0,1.4,1.4,0,0,1-1.329,1.078h-2.063a1.4,1.4,0,0,1-1.331-1.078,4.1,4.1,0,0,0-7.9,0,1.4,1.4,0,0,1-1.329,1.078h-2.063a1.4,1.4,0,0,1-1.329-1.078,4.1,4.1,0,0,0-7.885,0,1.4,1.4,0,0,1-1.329,1.078h-1.471a1.353,1.353,0,0,1-1.358-1.349v-7.2a1.353,1.353,0,0,1,1.358-1.349H295.908a1.353,1.353,0,0,1,1.358,1.349" transform="translate(-3.927 123.374)" fill="#ffc727"/>
            <g id="Grupo_1102376" data-name="Grupo 1102376" transform="translate(189.874 553.293)" opacity="0.2">
              <g id="Grupo_1102375" data-name="Grupo 1102375">
                <g id="Grupo_1102374" data-name="Grupo 1102374" clip-path="url(#clip-path-8)">
                  <path id="Trazado_913773" data-name="Trazado 913773" d="M297.266,431.269v7.2a1.353,1.353,0,0,1-1.358,1.349h-.432a1.4,1.4,0,0,1-1.331-1.078,4.1,4.1,0,0,0-7.9,0,1.4,1.4,0,0,1-1.331,1.078h-2.063a1.4,1.4,0,0,1-1.328-1.078,4.1,4.1,0,0,0-7.885,0,1.4,1.4,0,0,1-1.331,1.078h-2.062a1.4,1.4,0,0,1-1.331-1.078,4.1,4.1,0,0,0-7.9,0,1.4,1.4,0,0,1-1.331,1.078h-2.063a1.4,1.4,0,0,1-1.328-1.078,4.1,4.1,0,0,0-7.885,0,1.4,1.4,0,0,1-1.329,1.078h-2.063a1.4,1.4,0,0,1-1.331-1.078,4.1,4.1,0,0,0-7.9,0,1.4,1.4,0,0,1-1.329,1.078H232.4a1.4,1.4,0,0,1-1.329-1.078,4.1,4.1,0,0,0-7.885,0,1.4,1.4,0,0,1-1.329,1.078h-2.063a1.4,1.4,0,0,1-1.331-1.078,4.1,4.1,0,0,0-7.9,0,1.4,1.4,0,0,1-1.329,1.078h-2.063a1.4,1.4,0,0,1-1.329-1.078,4.1,4.1,0,0,0-7.885,0,1.4,1.4,0,0,1-1.329,1.078h-1.471a1.353,1.353,0,0,1-1.358-1.349v-7.2a1.353,1.353,0,0,1,1.358-1.349H295.908a1.353,1.353,0,0,1,1.358,1.349" transform="translate(-193.801 -429.92)"/>
                </g>
              </g>
            </g>
            <path id="Trazado_913774" data-name="Trazado 913774" d="M297.389,443.473c-2.165.668-42.376.068-71.639-1.081-6.771-.269-12.962-.571-17.956-.882-6.883-.444-11.5-.906-12.239-1.4-1.642-1.1-2.063-21.3-2.044-42.614l61.755,1.143-.524,11.13s35.991,17.036,39.634,20.05c3.614,3.014,6.341,12.6,3.013,13.651" transform="translate(-5.18 114.07)" fill="#ffc727"/>
            <path id="Trazado_913775" data-name="Trazado 913775" d="M297.389,443.473c-2.165.668-42.376.068-71.639-1.081-6.771-.269-12.962-.571-17.956-.882-6.883-.444-11.5-.906-12.239-1.4-1.642-1.1-2.063-21.3-2.044-42.614l61.755,1.143-.524,11.13s35.991,17.036,39.634,20.05c3.614,3.014,6.341,12.6,3.013,13.651" transform="translate(-5.18 114.07)" fill="#ffc727"/>
            <path id="Trazado_913776" data-name="Trazado 913776" d="M291.465,430.649c-15.9-.731-80.113-2.18-95.887-1.695-.129,0-.13.091,0,.1,15.746,1.069,79.966,2,95.884,1.856.336,0,.341-.246.005-.261" transform="translate(-0.538 123.069)" fill="#263238"/>
            <path id="Trazado_913777" data-name="Trazado 913777" d="M244.626,404.456c-6.237-1.3-13.915-.506-18.795,3.853-.189.169.054.435.259.375a88.13,88.13,0,0,1,18.494-3.438.4.4,0,0,0,.042-.79" transform="translate(7.261 115.903)" fill="#263238"/>
            <path id="Trazado_913778" data-name="Trazado 913778" d="M241.158,406.647c-6.235-1.3-13.915-.506-18.794,3.853-.189.169.054.435.257.376a87.975,87.975,0,0,1,18.5-3.439.4.4,0,0,0,.041-.79" transform="translate(15.189 116.532)" fill="#263238"/>
            <path id="Trazado_913779" data-name="Trazado 913779" d="M237.693,408.838c-6.237-1.3-13.915-.5-18.794,3.853-.189.169.053.435.257.376a88.047,88.047,0,0,1,18.5-3.439.4.4,0,0,0,.041-.79" transform="translate(23.116 117.161)" fill="#263238"/>
            <path id="Trazado_913780" data-name="Trazado 913780" d="M234.226,411.03c-6.237-1.3-13.915-.506-18.795,3.853-.188.169.054.435.259.376a88.048,88.048,0,0,1,18.494-3.439.4.4,0,0,0,.042-.79" transform="translate(31.044 117.79)" fill="#263238"/>
            <path id="Trazado_913781" data-name="Trazado 913781" d="M232.746,402.588c-4.5,3.35-10.3,4.632-15.508,6.436-.541.187-.956-.327-.965-.8a.166.166,0,0,1-.142-.229,33.411,33.411,0,0,1,9.95-14.136c2.66-2.14,7.274-3.566,9.663-.125,2.257,3.255-.369,6.9-3,8.857m1.7-5c1.251-6.845-6.2-3.4-8.1-1.741a36.022,36.022,0,0,0-3.4,3.513,100.476,100.476,0,0,0-5.992,8.128c2.506-1.044,5.078-1.862,7.62-2.812,3.028-1.131,9.179-3.314,9.867-7.089" transform="translate(28.017 112.395)" fill="#263238"/>
            <path id="Trazado_913782" data-name="Trazado 913782" d="M231.2,397.268c1.6-3.872,6.41-3.465,9.466-1.942a33.4,33.4,0,0,1,12.74,11.684.167.167,0,0,1-.09.254.778.778,0,0,1-.772.991c-5.476-.65-11.41-.665-16.523-2.975-2.986-1.349-6.331-4.35-4.82-8.011m13.243,8.3c2.686.385,5.373.634,8.044,1.118a100.362,100.362,0,0,0-7.589-6.66,36.021,36.021,0,0,0-4.068-2.708c-2.208-1.211-10.225-2.99-7.54,3.432,1.479,3.539,7.953,4.358,11.154,4.817" transform="translate(-7.754 113.132)" fill="#263238"/>
            <path id="Trazado_913783" data-name="Trazado 913783" d="M300.69,157.444s-1.646,27.073-8.116,48.452c-.519,1.767-1.08,3.506-1.683,5.174a100.672,100.672,0,0,0-16.424,8.181s-2.822,103.556-2.748,109.987c.266,24.06-2.112,128.667-2.112,128.667l-69.879-.569s11.23-119.939,11.256-128.754c.03-8.524,4.069-62.3,7.681-108.915,0,0-5.322-14.893-4.732-22.414,1.427-18.234,9.6-39.787,9.6-39.787Z" transform="translate(-14.981 45.182)" fill="#455a64"/>
            <path id="Trazado_913784" data-name="Trazado 913784" d="M200.045,192.694q.338-2.247.68-4.5c.422-2.744.979-5.47,1.461-8.2,1.093-6.206,2.225-12.43,3.607-18.579a.137.137,0,0,1,.268.044c-.245,2.481-.53,4.963-.882,7.431s-.595,4.959-.943,7.43c-.691,4.9-1.374,9.811-2.208,14.689-.322,1.879-1.494,5.25,1.212,5.833,2.143.462,3.713-1.643,4.344-3.407a42.259,42.259,0,0,0,1.441-6.769q.662-3.71,1.18-7.445,1.147-8.131,2.486-16.22c.024-.154.272-.108.268.044a165.027,165.027,0,0,1-1.2,16.6q-.525,3.955-1.19,7.89a27.787,27.787,0,0,1-1.813,7.35,5.975,5.975,0,0,1-4.477,3.594c-.041,0-.084,0-.126,0a.183.183,0,0,1,.08.156c-.03.878-.013,1.767-.106,2.641s-.265,1.734-.429,2.588a17.953,17.953,0,0,1-.67,2.579,11.8,11.8,0,0,1-.476,1.185,11.515,11.515,0,0,1-.7,1.089c-.094.153-.278.058-.288-.091h-.013c.013-.145.013-.287.017-.429,0-.026,0-.051,0-.076v0a6.21,6.21,0,0,1,.049-.768c.063-.423.158-.84.25-1.257.184-.834.412-1.667.636-2.492s.4-1.66.615-2.488c.22-.853.5-1.686.7-2.547a.149.149,0,0,1,.058-.08,3.909,3.909,0,0,1-3.776-2.367,6.747,6.747,0,0,1-.055-3.434" transform="translate(72.598 46.295)" fill="#263238"/>
            <path id="Trazado_913785" data-name="Trazado 913785" d="M204.141,209.672a46.982,46.982,0,0,1,5.627-3.709,55.225,55.225,0,0,1,6.416-3.323c4.328-1.879,8.789-3.162,13.256-4.638.131-.045.221.178.09.229-4.326,1.721-8.472,4-12.651,6.05-2.057,1.006-4.138,1.963-6.233,2.889s-4.189,2.01-6.342,2.8c-.163.059-.293-.189-.162-.3" transform="translate(50.508 56.819)" fill="#263238"/>
            <path id="Trazado_913786" data-name="Trazado 913786" d="M232.236,182.2a36.855,36.855,0,0,0,9.018-1.214c1.358-.349,2.7-.784,4.033-1.22a10.5,10.5,0,0,0,3.638-1.826c2.05-1.768,3.005-4.553,3.894-7.023a67.531,67.531,0,0,0,2.364-8.53c.031-.143.239-.1.243.04a33.065,33.065,0,0,1-1.228,9.683c-.734,2.672-1.723,5.655-3.883,7.527-2.271,1.97-5.356,2.663-8.264,3.022a38.042,38.042,0,0,1-9.825-.135.162.162,0,0,1,.008-.324" transform="translate(-11.36 46.575)" fill="#263238"/>
            <path id="Trazado_913787" data-name="Trazado 913787" d="M230.226,381.525c3.507-.252,7.05-.21,10.562-.256s7.038-.057,10.556-.022c7.036.069,14.069.175,21.1.374,1.924.054,3.848.113,5.771.2,2.059.1,4.108.447,6.161.523a.125.125,0,0,1-.005.25c-1.726.015-3.457.273-5.186.323-1.791.052-3.587.063-5.38.063q-5.278,0-10.554-.04c-7.032-.059-14.072-.153-21.1-.444-3.972-.165-7.982-.214-11.937-.611a.181.181,0,0,1,.009-.362" transform="translate(-37.805 109.4)" fill="#263238"/>
            <path id="Trazado_913788" data-name="Trazado 913788" d="M254.007,437.085h-.036a.728.728,0,0,1-.692-.763l13.5-219.314c-.171-1.017-3.978-13.967-4.318-20.585-.359-7,6.874-34.254,7.181-35.411a.738.738,0,0,1,.892-.517.728.728,0,0,1,.517.892c-.075.281-7.481,28.194-7.134,34.962.35,6.84,4.292,20.383,4.311,20.494.009.053-13.5,219.551-13.5,219.551a.728.728,0,0,1-.727.694" transform="translate(-54.286 46.05)" fill="#263238"/>
            <path id="Trazado_913789" data-name="Trazado 913789" d="M264.451,79.11c-.494-4.255-12.675-20.268-28.263-10.868-15.355,9.257-7.15,35.8,11.489,33.173,12.52-1.764,17.828-13.267,16.774-22.3" transform="translate(-15.451 18.748)" fill="#263238"/>
            <path id="Trazado_913790" data-name="Trazado 913790" d="M279.282,178.67l-7.466-32.827s7.832-9.494,2.586-20.5c-2.649-5.576-17.886-29.881-27.518-36.708-9.035-6.405-20.15-.035-24.262,5.67-11.825,16.4-19.782,49.194-24.986,85.277Z" transform="translate(9.123 24.666)" fill="#f3f0ea"/>
            <path id="Trazado_913791" data-name="Trazado 913791" d="M279.279,173.953l-7.47-32.831s7.834-9.493,2.591-20.495a165.911,165.911,0,0,0-11.392-18.244l-29.158,1.181s0,8.141-6.677,21.891c-2.882,5.93-17.579,12.083-23.174,14.032-2.476,11.053-4.576,23.023-6.361,35.383Z" transform="translate(9.124 29.381)" fill="#455a64"/>
            <path id="Trazado_913792" data-name="Trazado 913792" d="M237.179,129.331a83.447,83.447,0,0,0-12.146,2.247c-1.974.548-3.91,1.183-5.843,1.862-.964.34-1.932.645-2.907.946a13.151,13.151,0,0,1-3.127.654.074.074,0,0,0,.005.148,22.594,22.594,0,0,0,3.023-.117,21.712,21.712,0,0,0,2.871-.6c2.008-.537,3.99-1.166,5.992-1.723,4.04-1.125,8.078-2.247,12.19-3.078.189-.039.135-.362-.058-.337" transform="translate(31.164 37.114)" fill="#263238"/>
            <path id="Trazado_913793" data-name="Trazado 913793" d="M225.564,132.072a90.056,90.056,0,0,0-10.19-.287c-1.7.054-3.386.207-5.076.4q-1.212.143-2.417.322c-.884.131-1.752.381-2.637.5-.093.013-.09.157.005.147.838-.086,1.695-.032,2.537-.07s1.692-.081,2.539-.118c1.695-.075,3.389-.131,5.084-.221,3.391-.183,6.769-.331,10.166-.4.184,0,.165-.265-.01-.279" transform="translate(52.995 37.807)" fill="#263238"/>
            <path id="Trazado_913794" data-name="Trazado 913794" d="M226.4,106.5l-2.909.118L210.279,88.034s6.9,4.389,16.124,18.465" transform="translate(45.729 25.263)" fill="#455a64"/>
            <path id="Trazado_913795" data-name="Trazado 913795" d="M195.205,164.387c-.441-.337.2-10.947,1.535-13.7,0,0,27.137,1.107,49.161.754,16.476-.263,36.1-1.819,36.231-1.365s1.907,11.511,1.606,12.464-26.089,2.45-40.249,3.005-46.826-.041-48.285-1.157" transform="translate(7.938 43.043)" fill="#e2dacc"/>
            <path id="Trazado_913797" data-name="Trazado 913797" d="M224.933,164.468c-.5.4-18.346,1.295-18.7.924s-1.013-14.171.353-15.029c.809-.5,16.561-.963,17.579-.544s1.281,14.245.768,14.65m-2.407-12.943c-.826-.327-13.6.077-14.261.465-1.1.668-.6,11.328-.32,11.612s14.763-.447,15.163-.764.245-10.986-.582-11.312" transform="translate(52.759 42.946)" fill="#dbdbdb"/>
            <rect id="Rectángulo_405541" data-name="Rectángulo 405541" width="1.914" height="5.004" transform="translate(271.837 201.239) rotate(-92.344)" fill="#dbdbdb"/>
            <path id="Trazado_913798" data-name="Trazado 913798" d="M225.728,156.751a.729.729,0,1,1-.812-.636.729.729,0,0,1,.812.636" transform="translate(28.387 44.799)" fill="#263238"/>
            <path id="Trazado_913799" data-name="Trazado 913799" d="M231.642,156.9a.729.729,0,1,1-.812-.636.729.729,0,0,1,.812.636" transform="translate(14.861 44.842)" fill="#263238"/>
            <path id="Trazado_913800" data-name="Trazado 913800" d="M289.519,92.262c-27.551,21.647-53.2,60.22-53.4,81.134-.2,20.655,7,18.651,9.038,18.517,12.477-.817,40.42-59.459,49.364-82.887,8.879-23.258,1.807-22.118-5.006-16.764" transform="translate(-59.81 25.556)" fill="#f7a9a0"/>
            <path id="Trazado_913801" data-name="Trazado 913801" d="M282.5,108.409c5.849-14.365,5.145-26.136-9.706-15.327-19.019,13.841-38.145,40.576-38.145,40.576l34.282,11.1s7.719-21.983,13.569-36.348" transform="translate(-45.155 25.504)" fill="#f9f7f4"/>
            <path id="Trazado_913802" data-name="Trazado 913802" d="M284.22,139.326l-38.81-11.679,1.318-.988-1.364-2.311,1-.749,1.068-3.283,38.374,13.019-1.387,1.04.808,2.226-1.38.789Z" transform="translate(-58.827 34.527)" fill="#9d978d"/>
            <path id="Trazado_913803" data-name="Trazado 913803" d="M239.257,136.1a165.577,165.577,0,0,0,9.957-27.894,165.577,165.577,0,0,0-9.957,27.894" transform="translate(-14.376 31.051)" fill="#263238"/>
            <path id="Trazado_913804" data-name="Trazado 913804" d="M242.423,111.442a13.55,13.55,0,0,0-3.166,5.354,7.968,7.968,0,0,0,3.166-5.354" transform="translate(-7.584 31.98)" fill="#263238"/>
            <rect id="Rectángulo_405542" data-name="Rectángulo 405542" width="56.657" height="73.755" transform="translate(307.496 232.418) rotate(-167.322)" fill="#692cb7"/>
            <rect id="Rectángulo_405545" data-name="Rectángulo 405545" width="26.852" height="8.137" transform="translate(307.965 161.369) rotate(-167.387)" fill="#88a1ad"/>
            <path id="Trazado_913805" data-name="Trazado 913805" d="M184.527,117.187l3.226.722.82-3.661L196.414,116l-.82,3.661,3.228.722,1.492-6.67-14.341-3.208Z" transform="translate(104.961 31.712)" fill="#88a1ad"/>
            <path id="Trazado_913806" data-name="Trazado 913806" d="M219.8,93.761s14.092-15.91,33.706-5.434c0,0,4.207,56.309,4.948,59.7s19.9,65.43,19.9,65.43-13.633,10.906-36.174,4.019c0,0-.32-64.826-.816-66.695S219.8,93.761,219.8,93.761" transform="translate(-18.48 24.322)" fill="#d9cbb4"/>
            <path id="Trazado_913807" data-name="Trazado 913807" d="M255.976,185.569s-21.362-10.448-36.174,4.019c0,0,16.765,8.521,36.174-4.019" transform="translate(3.9 52.206)" fill="#dbdbdb"/>
            <path id="Trazado_913808" data-name="Trazado 913808" d="M252.494,134.4c.683-.247.225-.81-.214-1.009-4.369-1.9-9.526-1.2-13.91.347-1.206.556-3.381,1.315-3.377,2.9a.918.918,0,0,0,.411.517.709.709,0,0,1,0-1.023,8.091,8.091,0,0,1,3.278-1.44,37.874,37.874,0,0,1,12.255-1.19c.458.057,2.356.188,1.555.9" transform="translate(-12.518 37.949)" fill="#455a64"/>
            <path id="Trazado_913809" data-name="Trazado 913809" d="M252.43,134.983c.671-.3.16-.829-.293-.995-4.535-1.6-9.645-.475-13.96,1.344-1.176.623-3.306,1.488-3.329,3.032a.807.807,0,0,0,.439.5.659.659,0,0,1-.017-1.01c2.286-1.736,5.373-2.154,8.108-2.87a27.794,27.794,0,0,1,8.646-.676c.381.064.864.288.407.673" transform="translate(-12.239 38.231)" fill="#455a64"/>
            <path id="Trazado_913810" data-name="Trazado 913810" d="M252.487,135.263c.224-.086.525-.362.147-.521-2.884-.825-16.916,1.764-17.945,4.618a.676.676,0,0,0,.417.51.486.486,0,0,1,.121-.874c2.046-.942,6.1-1.533,8.322-2.108l4.824-1.135c.822-.176,2.8-.685,3.616-.8.364-.05,1.018-.117.5.309" transform="translate(-12.095 38.622)" fill="#455a64"/>
            <path id="Trazado_913811" data-name="Trazado 913811" d="M291.317,215.228S279.664,233,258.746,225.464c0,0-12.279-55.114-13.5-58.36s-29.123-61.879-29.123-61.879,11.919-12.756,35.218-9.19c0,0,9.659,64.1,10.419,65.88s29.557,53.314,29.557,53.314" transform="translate(-26.706 27.378)" fill="#e2dacc"/>
            <path id="Trazado_913812" data-name="Trazado 913812" d="M247.185,105.347s22.644,7.26,35.218-9.192c0,0-17.818-6.015-35.218,9.192" transform="translate(-57.768 27.257)" fill="#d1c3ab"/>
            <path id="Trazado_913813" data-name="Trazado 913813" d="M239,152.274c-.641.344-.106.834.357.967,4.6,1.248,9.6-.183,13.715-2.347,1.113-.723,3.156-1.789,2.924-3.356a.924.924,0,0,0-.481-.453.708.708,0,0,1,.144,1.013,8.072,8.072,0,0,1-3.036,1.9,37.906,37.906,0,0,1-11.955,2.945c-.462.009-2.359.153-1.668-.665" transform="translate(-20.456 42.209)" fill="#ffc727"/>
            <path id="Trazado_913814" data-name="Trazado 913814" d="M239.3,151.882c-.62.393-.037.843.434.942,4.718.927,9.612-.92,13.62-3.341,1.075-.786,3.058-1.95,2.858-3.481a.814.814,0,0,0-.507-.434.659.659,0,0,1,.162,1c-2.012,2.048-5.006,2.907-7.609,4.009a27.8,27.8,0,0,1-8.459,1.915c-.386-.009-.9-.161-.5-.607" transform="translate(-21.097 41.774)" fill="#ffc727"/>
            <path id="Trazado_913815" data-name="Trazado 913815" d="M239.463,151.555c-.208.117-.467.434-.071.537,2.974.4,16.489-4.185,17.094-7.156a.676.676,0,0,0-.485-.444.486.486,0,0,1,.005.882c-1.889,1.228-5.817,2.4-7.93,3.287l-4.61,1.817c-.788.293-2.677,1.081-3.465,1.31-.353.1-.99.264-.538-.233" transform="translate(-21.554 41.465)" fill="#ffc727"/>
            <path id="Trazado_913816" data-name="Trazado 913816" d="M234.213,178.766c8.082,4.641,21.44,2.308,57.275-6.692,4.96-1.246,5.585-38.605.221-37.547-6.755,1.332-32.685,7.966-34.52,8.691-15.477,6.111-28.459,32.4-22.976,35.549" transform="translate(-52.5 38.599)" fill="#f7a9a0"/>
            <path id="Trazado_913817" data-name="Trazado 913817" d="M192.078,141.578s12.352-7.867,20.12-9.991c10.4-2.844,20.555-1.017,24.764.005,8.785,2.135,28.549,13.369,26.307,19.626-2.031,5.664-21.653-6.84-21.653-6.84s22.111,9.448,18.413,15.818-25.651-9.441-25.651-9.441,22.5,10.217,17.647,16.182c-3.668,4.508-24.357-8.692-24.357-8.692s19.279,8.916,15.706,13.715c-3.946,5.3-23.809-5.685-23.809-5.685-11.132,10.672-20.8,11.2-27.719,10.754-1.674-.108.232-35.452.232-35.452" transform="translate(33.294 37.325)" fill="#f7a9a0"/>
            <path id="Trazado_913818" data-name="Trazado 913818" d="M195.222,138.269c2.637,1.015,5.314,2.026,7.852,3.273s5.035,2.583,7.445,4.06a48.309,48.309,0,0,1,8.832,6.642c-5.089-4.167-14.105-8.771-16.644-10.018s-5-2.616-7.537-3.862c-.063-.032-.012-.12.051-.1" transform="translate(72.251 39.678)" fill="#263238"/>
            <path id="Trazado_913819" data-name="Trazado 913819" d="M202.595,145.326c3.311,1.443,6.651,2.754,9.9,4.344,3.233,1.582,6.162,3.365,9.278,5.166.239.138.086.221-.161.093-3.185-1.676-6.259-2.977-9.462-4.614s-6.347-3.4-9.6-4.912c-.05-.023-.009-.1.041-.076" transform="translate(60.211 41.703)" fill="#263238"/>
            <path id="Trazado_913820" data-name="Trazado 913820" d="M210.4,150.824a80.773,80.773,0,0,1,14.63,7.8c.232.148.022.233-.223.1-4.816-2.685-8.574-4.824-14.476-7.715-.093-.045-.041-.221.068-.18" transform="translate(46.997 43.28)" fill="#263238"/>
            <path id="Trazado_913821" data-name="Trazado 913821" d="M240.673,158.739c3.851-5.174,8.482-10.222,14.092-13.431,7.85-3.53,16.826-5.283,25.091-7.751,2.111-.637,4.233-1.23,6.336-1.906-2.172.393-4.324.865-6.488,1.293-8.521,1.955-17.554,3.5-25.494,7.283-5.737,3.466-10.215,8.791-13.538,14.512" transform="translate(-53.176 38.928)" fill="#263238"/>
            <path id="Trazado_913822" data-name="Trazado 913822" d="M235.416,107.811l3.678-.149S234.7,91.549,231.62,87.586l-1.542.578s4.353,13.364,5.338,19.647" transform="translate(7.557 25.134)" fill="#455a64"/>
            <path id="Trazado_913823" data-name="Trazado 913823" d="M218.958,93.634c.368,1.531,11.338,13.57,17.983,10.939,2.461-.976-1.151-10.943-1.151-10.943L238.8,79.771,221.37,68.848s-2.559,24.135-2.412,24.786" transform="translate(22.166 19.757)" fill="#f7a9a0"/>
            <path id="Trazado_913824" data-name="Trazado 913824" d="M218.95,77.866a27.05,27.05,0,0,0,15.505,14.992L237.3,79.773,219.87,68.849s-.417,4.072-.92,9.017" transform="translate(23.668 19.758)" fill="#263238"/>
            <path id="Trazado_913825" data-name="Trazado 913825" d="M247.345,65.973c3.818,22.917-9.476,27.792-14.419,28.609-4.486.743-19.858,2.7-26.024-19.7s3.282-31.42,13.454-33.661,23.171,1.833,26.989,24.75" transform="translate(30.978 11.675)" fill="#f7a9a0"/>
            <path id="Trazado_913826" data-name="Trazado 913826" d="M213.268,56.948a15.17,15.17,0,0,1-1.6-.044,2.592,2.592,0,0,1-1.627-.356.827.827,0,0,1-.18-.994,2.047,2.047,0,0,1,1.9-.834,3.009,3.009,0,0,1,2.05.708.882.882,0,0,1-.54,1.52" transform="translate(58.697 15.703)" fill="#263238"/>
            <path id="Trazado_913827" data-name="Trazado 913827" d="M221.261,59.444a15.689,15.689,0,0,0,1.485-.607,2.6,2.6,0,0,0,1.4-.909.828.828,0,0,0-.183-.994,2.05,2.05,0,0,0-2.075-.108,3.008,3.008,0,0,0-1.668,1.387.882.882,0,0,0,1.042,1.23" transform="translate(35.241 16.242)" fill="#263238"/>
            <path id="Trazado_913828" data-name="Trazado 913828" d="M219.589,62.838c-.024-.057-.107.1-.091.162.371,1.538.534,3.364-.762,4.168-.04.024-.019.1.031.084,1.661-.595,1.42-3.015.822-4.414" transform="translate(41.236 18.029)" fill="#263238"/>
            <path id="Trazado_913829" data-name="Trazado 913829" d="M220.365,61.8c-2.531.326-1.694,5.365.652,5.063,2.308-.3,1.47-5.336-.652-5.063" transform="translate(38.742 17.732)" fill="#263238"/>
            <path id="Trazado_913830" data-name="Trazado 913830" d="M223.848,62.144c-.393.358-.74.933-1.263,1.073-.6.163-1.154-.287-1.64-.728-.051-.045-.088.006-.077.072.147.969.682,1.9,1.741,1.869.967-.024,1.5-.992,1.582-2,.014-.187-.185-.426-.344-.282" transform="translate(34.315 17.821)" fill="#263238"/>
            <path id="Trazado_913831" data-name="Trazado 913831" d="M210.11,61.311c0-.062.134.054.142.12.2,1.57.69,3.336,2.185,3.631.046.009.054.089,0,.089-1.764.031-2.392-2.319-2.328-3.839" transform="translate(59.881 17.589)" fill="#263238"/>
            <path id="Trazado_913832" data-name="Trazado 913832" d="M210.276,59.878c2.484-.589,3.479,4.421,1.179,4.966-2.265.538-3.26-4.472-1.179-4.966" transform="translate(60.852 17.169)" fill="#263238"/>
            <path id="Trazado_913833" data-name="Trazado 913833" d="M208.316,60.137c.449.188.936.592,1.416.529.555-.073.852-.695,1.1-1.284.026-.06.073-.027.089.039.216.952.1,2.013-.785,2.38-.807.335-1.586-.364-2-1.274-.077-.167.005-.463.185-.389" transform="translate(63.922 17.031)" fill="#263238"/>
            <path id="Trazado_913834" data-name="Trazado 913834" d="M214.813,72.918c.4.342.82.822,1.4.829a4.156,4.156,0,0,0,1.668-.521.055.055,0,0,1,.073.076,2.129,2.129,0,0,1-1.939,1,1.685,1.685,0,0,1-1.344-1.3c-.031-.09.087-.133.147-.082" transform="translate(48.534 20.919)" fill="#263238"/>
            <path id="Trazado_913835" data-name="Trazado 913835" d="M215.788,70.984s.631,2.3.776,3.407c.013.1-.248.188-.62.259-.018.008-.027.015-.044.006a5.3,5.3,0,0,1-5.359-1.295c-.091-.1.035-.229.144-.174a7.992,7.992,0,0,0,4.978.746c.037-.317-1.212-3.9-1.039-3.941a9.668,9.668,0,0,1,2.584.239C216.035,65.4,214.1,60.8,213,55.972a.152.152,0,0,1,.279-.109c2.374,4.681,3.848,10.21,5.189,15.167.172.618-2.211.085-2.678-.045" transform="translate(53.362 16.009)" fill="#263238"/>
            <path id="Trazado_913836" data-name="Trazado 913836" d="M217.953,70.22a6.223,6.223,0,0,1-2.01,2.425,2.819,2.819,0,0,1-1.64.472c-1.273-.046-1.552-1.14-1.543-2.13a6.64,6.64,0,0,1,.214-1.561,8.1,8.1,0,0,0,4.979.794" transform="translate(50.986 19.923)" fill="#263238"/>
            <path id="Trazado_913837" data-name="Trazado 913837" d="M217.506,72.3a2.8,2.8,0,0,1-1.638.474c-1.274-.048-1.552-1.14-1.544-2.131a2.9,2.9,0,0,1,3.183,1.658" transform="translate(49.422 20.266)" fill="#ff9abb"/>
            <path id="Trazado_913838" data-name="Trazado 913838" d="M234.243,44.907s1.284,3.412.344,6.068c-1.936,5.459-8.32,4.733-10.24,7.013-1.8,2.136-.687,6.062-2.3,8.18-2.232,2.932-5.749,2.247-5.977,4.089s-.82,7.695-3.028,8.659S196.4,42.858,226.366,40.978c0,0,3.92-2.1,10.606.457C244.35,44.26,248.6,55.53,248.6,55.53s-.165-.143-1.279-.941c-1.573-1.127-2.252-2.251-3.4-2.969-1.791-1.127-2.65-.542-4.506-1.628a19.828,19.828,0,0,1-5.18-5.085" transform="translate(26.928 11.526)" fill="#263238"/>
            <path id="Trazado_913839" data-name="Trazado 913839" d="M236.179,42.6a20.307,20.307,0,0,1,1.347,4.494,8.5,8.5,0,0,1-.172,4.524,6.219,6.219,0,0,1-3.145,3.028c-1.365.672-2.915.982-4.378,1.754a4.67,4.67,0,0,0-1.843,1.716,6.316,6.316,0,0,0-.638,2.394,8.371,8.371,0,0,1-1.223,4.32,5.171,5.171,0,0,1-3.825,2.1c-1.5.157-3.208-.1-4.606.721,1.459-.7,3.05-.318,4.632-.359a5.616,5.616,0,0,0,4.25-2.112c1.1-1.308,1.256-3.072,1.44-4.585a5.67,5.67,0,0,1,.586-2.127,3.987,3.987,0,0,1,1.586-1.416c1.3-.721,2.871-1.068,4.317-1.8a8.078,8.078,0,0,0,2.005-1.389,4.909,4.909,0,0,0,1.381-2.049,8.906,8.906,0,0,0-.006-4.8,20.628,20.628,0,0,0-1.705-4.419" transform="translate(24.366 12.224)" fill="#263238"/>
            <path id="Trazado_913840" data-name="Trazado 913840" d="M208.959,43.613a16.485,16.485,0,0,0,1.875,3.983,7.723,7.723,0,0,0,3.337,3,11.113,11.113,0,0,0,2.147.592,3.575,3.575,0,0,1,1.725.919,11.124,11.124,0,0,0,1.481,1.636,4.894,4.894,0,0,0,2.009.915,5.463,5.463,0,0,1-1.767-1.188,11.253,11.253,0,0,1-1.283-1.727A3.791,3.791,0,0,0,216.5,50.51a11.962,11.962,0,0,1-2.03-.593,8.224,8.224,0,0,1-3.148-2.668,32.719,32.719,0,0,1-2.36-3.636" transform="translate(52.298 12.516)" fill="#263238"/>
            <path id="Trazado_913841" data-name="Trazado 913841" d="M241.558,68.949s-5.972-6.529-9-4.307,2.122,12.146,6.14,13.069a3.928,3.928,0,0,0,4.945-2.78Z" transform="translate(0.987 18.418)" fill="#f7a9a0"/>
            <path id="Trazado_913842" data-name="Trazado 913842" d="M233.319,66.723a.053.053,0,0,0-.006.1c2.829.736,4.569,3.04,5.9,5.491a2.17,2.17,0,0,0-3.295-.165c-.063.059.018.16.091.135a2.416,2.416,0,0,1,2.748.489,11.745,11.745,0,0,1,1.543,1.966c.157.224.574.039.445-.227-.009-.019-.021-.039-.03-.059-.382-3.434-3.673-7.875-7.395-7.736" transform="translate(1.774 19.146)" fill="#263238"/>
            <path id="Trazado_913843" data-name="Trazado 913843" d="M250.2,53.616l-6.854,2.708a114.815,114.815,0,0,0-12.66,3.9,101.541,101.541,0,0,0-13.939,6.628l-7.379,2.915a21.313,21.313,0,0,1-.7-2.271c-1.453-5.618-3.419-20.19,12.735-26.58,16.191-6.4,24.907,5.57,27.746,10.614a22.174,22.174,0,0,1,1.054,2.09" transform="translate(25.227 11.213)" fill="#ffc727"/>
            <g id="Grupo_1102385" data-name="Grupo 1102385" transform="translate(254.169 50.29)" opacity="0.1">
              <g id="Grupo_1102384" data-name="Grupo 1102384">
                <g id="Grupo_1102383" data-name="Grupo 1102383" clip-path="url(#clip-path-12)">
                  <path id="Trazado_913844" data-name="Trazado 913844" d="M227.035,55.054l-3.445,1.365-9.107-17.292a19.133,19.133,0,0,1,2.715-.005,40.574,40.574,0,0,1,9.836,15.931" transform="translate(-214.482 -39.076)"/>
                </g>
              </g>
            </g>
            <path id="Trazado_913845" data-name="Trazado 913845" d="M228.449,59.2l10.023-3.389S233.941,43.6,226.525,38.458c-.624-.432-8.275,1.866-10.321,2.848a1.893,1.893,0,0,0-.884,1.838c3.875-2.033,11.929,12.48,13.13,16.056" transform="translate(27.183 11.021)" fill="#ffc727"/>
            <g id="Grupo_1102388" data-name="Grupo 1102388" transform="translate(242.493 52.586)" opacity="0.5">
              <g id="Grupo_1102387" data-name="Grupo 1102387">
                <g id="Grupo_1102386" data-name="Grupo 1102386" clip-path="url(#clip-path-13)">
                  <path id="Trazado_913846" data-name="Trazado 913846" d="M236.6,57.952l-1.6.542c-1.2-3.578-9.256-18.087-13.131-16.052a2.227,2.227,0,0,1,.371-1.422c.878-.579,3.923.34,6.656,3.872a55.072,55.072,0,0,1,7.708,13.06" transform="translate(-221.855 -40.86)" fill="#fff"/>
                </g>
              </g>
            </g>
            <path id="Trazado_913847" data-name="Trazado 913847" d="M206.56,67.769a.976.976,0,0,0,1.494.466c3.032-2.005,26.917-14.746,42.056-16.324.655-.068.851-2.474-.488-2.477-4.187-.013-13.06,2.174-21.639,5.511a102.453,102.453,0,0,0-20.6,10.589,1.8,1.8,0,0,0-.819,2.235" transform="translate(26.451 14.186)" fill="#ffc727"/>
            <path id="Trazado_913848" data-name="Trazado 913848" d="M207.216,65.825c3.477-2.945,7.051-4.941,14.189-8.413a32.142,32.142,0,0,1,2.517-2.555c.862-.7,15.439-6.338,20.782-6.439.3-.005,1.425,1.506,1.425,1.506a10.868,10.868,0,0,1,3.332-.2s-2.649.1-10.7,2.318-19.987,7.434-25.289,10.224a53.939,53.939,0,0,0-6.259,3.558" transform="translate(26.613 13.895)" fill="#ffc727"/>
            <g id="Grupo_1102391" data-name="Grupo 1102391" transform="translate(234.634 62.312)" opacity="0.7">
              <g id="Grupo_1102390" data-name="Grupo 1102390">
                <g id="Grupo_1102389" data-name="Grupo 1102389" clip-path="url(#clip-path-14)">
                  <path id="Trazado_913849" data-name="Trazado 913849" d="M247.757,49.045a.857.857,0,0,0-.6-.216,37.925,37.925,0,0,0-8.044,1.771,110.656,110.656,0,0,0-12.3,4.537,29.051,29.051,0,0,0-2.955,2.695,107.089,107.089,0,0,0-13.511,7.332c3.243-2.6,6.8-4.547,13.387-7.749a32.356,32.356,0,0,1,2.511-2.556c.866-.7,15.44-6.338,20.786-6.44.136,0,.432.3.721.627" transform="translate(-210.352 -48.418)" fill="#fff"/>
                </g>
              </g>
            </g>
            <g id="Grupo_1102394" data-name="Grupo 1102394" transform="translate(234.282 55.534)" opacity="0.2">
              <g id="Grupo_1102393" data-name="Grupo 1102393">
                <g id="Grupo_1102392" data-name="Grupo 1102392" clip-path="url(#clip-path-15)">
                  <path id="Trazado_913850" data-name="Trazado 913850" d="M231.125,57.453s.717-9.822,8.119-14.3l2.9,3.934-4.036,2.282-1.932-.709.26,2.059-1.049.7-.839,1.118-.116.584a8.4,8.4,0,0,0-3.31,4.331" transform="translate(-231.125 -43.151)" fill="#fff"/>
                </g>
              </g>
            </g>
            <path id="Trazado_913851" data-name="Trazado 913851" d="M239,87.818l-3.667,10.408-13.27-12.395-3.422,4.309S231.96,110.165,232,109.233l3.835-9,6.351,5.871-1.16-15.378Z" transform="translate(19.192 24.631)" fill="#e2dacc"/>
            <path id="Trazado_913852" data-name="Trazado 913852" d="M241.183,97.367c-.277-2.533-.484-5.091-.878-7.609-.014-.089-.156-.124-.174-.015-.4,2.474.707,12.154.8,14.482-.008-.008-.019-.017-.027-.026-.266-.254-5.874-5.153-5.924-5.069-.855,1.439-3.67,7.993-3.857,8.587C229.013,104.537,220.963,92.987,218.5,90a.088.088,0,0,0-.149.094c1.887,3.374,12.551,18.933,12.7,18.881a99.383,99.383,0,0,0,4.005-9.512c.96,1.078,6.647,6.636,6.65,6.257a79.843,79.843,0,0,0-.526-8.354" transform="translate(20.048 25.734)" fill="#263238"/>
          </g>
          <path id="Trazado_913854" data-name="Trazado 913854" d="M0,0V563.927H542.755Z" fill="none"/>
        </g>
      </g>
    </g>
  </g>
</svg>
