<svg xmlns="http://www.w3.org/2000/svg" xmlns:xlink="http://www.w3.org/1999/xlink" width="108" height="108" viewBox="0 0 108 108">
  <defs>
    <filter id="Trazado_904820" x="0" y="0" width="108" height="108" filterUnits="userSpaceOnUse">
      <feOffset dy="3" input="SourceAlpha"/>
      <feGaussianBlur stdDeviation="3" result="blur"/>
      <feFlood flood-opacity="0.161"/>
      <feComposite operator="in" in2="blur"/>
      <feComposite in="SourceGraphic"/>
    </filter>
  </defs>
  <g id="img4" transform="translate(-201.051 -1108)">
    <g id="Grupo_1145673" data-name="Grupo 1145673" transform="translate(210.051 1114)">
      <g id="Icono">
        <g transform="matrix(1, 0, 0, 1, -9, -6)" filter="url(#Trazado_904820)">
          <g id="Trazado_904820-2" data-name="Trazado 904820" transform="translate(9 6)" fill="#f3f0ea">
            <path d="M 45 88.5 C 39.12687683105469 88.5 33.43022537231445 87.35007476806641 28.06830024719238 85.08217620849609 C 22.88852500915527 82.89131164550781 18.23629951477051 79.75458526611328 14.2408504486084 75.75914764404297 C 10.24541282653809 71.76370239257812 7.108687400817871 67.11147308349609 4.917825222015381 61.93170166015625 C 2.649924993515015 56.56977462768555 1.5 50.87312316894531 1.5 45 C 1.5 39.12687683105469 2.649924993515015 33.43022537231445 4.917825222015381 28.06830024719238 C 7.108687400817871 22.88852500915527 10.24541282653809 18.23629951477051 14.2408504486084 14.2408504486084 C 18.23629951477051 10.24541282653809 22.88852500915527 7.108687400817871 28.06830024719238 4.917825222015381 C 33.43022537231445 2.649924993515015 39.12687683105469 1.5 45 1.5 C 50.87312316894531 1.5 56.56977462768555 2.649924993515015 61.93170166015625 4.917825222015381 C 67.11147308349609 7.108687400817871 71.76370239257812 10.24541282653809 75.75914764404297 14.2408504486084 C 79.75458526611328 18.23629951477051 82.89131164550781 22.88852500915527 85.08217620849609 28.06830024719238 C 87.35007476806641 33.43022537231445 88.5 39.12687683105469 88.5 45 C 88.5 50.87312316894531 87.35007476806641 56.56977462768555 85.08217620849609 61.93170166015625 C 82.89131164550781 67.11147308349609 79.75458526611328 71.76370239257812 75.75914764404297 75.75914764404297 C 71.76370239257812 79.75458526611328 67.11147308349609 82.89131164550781 61.93170166015625 85.08217620849609 C 56.56977462768555 87.35007476806641 50.87312316894531 88.5 45 88.5 Z" stroke="none"/>
            <path d="M 45 3 C 39.32871246337891 3 33.82865524291992 4.110054016113281 28.65262985229492 6.299339294433594 C 23.65165710449219 8.414573669433594 19.15968322753906 11.44334411621094 15.301513671875 15.301513671875 C 11.44334411621094 19.15968322753906 8.414573669433594 23.65165710449219 6.299339294433594 28.65262985229492 C 4.110054016113281 33.82865524291992 3 39.32871246337891 3 45 C 3 50.67128753662109 4.110054016113281 56.17134475708008 6.299339294433594 61.34737396240234 C 8.414573669433594 66.34834289550781 11.44334411621094 70.84031677246094 15.301513671875 74.698486328125 C 19.15968322753906 78.55665588378906 23.65165710449219 81.58542633056641 28.65262985229492 83.70066070556641 C 33.82865524291992 85.88994598388672 39.32871246337891 87 45 87 C 50.67128753662109 87 56.17134475708008 85.88994598388672 61.34737396240234 83.70066070556641 C 66.34834289550781 81.58542633056641 70.84031677246094 78.55665588378906 74.698486328125 74.698486328125 C 78.55665588378906 70.84031677246094 81.58542633056641 66.34834289550781 83.70066070556641 61.34737396240234 C 85.88994598388672 56.17134475708008 87 50.67128753662109 87 45 C 87 39.32871246337891 85.88994598388672 33.82865524291992 83.70066070556641 28.65262985229492 C 81.58542633056641 23.65165710449219 78.55665588378906 19.15968322753906 74.698486328125 15.301513671875 C 70.84031677246094 11.44334411621094 66.34834289550781 8.414573669433594 61.34737396240234 6.299339294433594 C 56.17134475708008 4.110054016113281 50.67128753662109 3 45 3 M 45 0 C 69.85281372070312 0 90 20.14718627929688 90 45 C 90 69.85281372070312 69.85281372070312 90 45 90 C 20.14718627929688 90 0 69.85281372070312 0 45 C 0 20.14718627929688 20.14718627929688 0 45 0 Z" stroke="none" fill="#1d531a"/>
          </g>
        </g>
      </g>
    </g>
    <g id="Page-1" transform="translate(228.051 1131.008)">
      <g id="_014---Repair-Harddrive" data-name="014---Repair-Harddrive">
        <path id="Path" d="M37,5V28.17A16,16,0,0,0,29.14,51H5a4,4,0,0,1-4-4V5A4,4,0,0,1,5,1H33a4,4,0,0,1,4,4Z" fill="#9e9e9e" fill-rule="evenodd"/>
        <path id="Path-2" data-name="Path" d="M33,1H30a4,4,0,0,1,4,4V28.17A16,16,0,0,0,26.14,51h3A16,16,0,0,1,37,28.17V5a4,4,0,0,0-4-4Z" fill="#707070" fill-rule="evenodd"/>
        <path id="Path-3" data-name="Path" d="M17.12,31.86a12.977,12.977,0,1,0-3.38-.97" fill="#ffdc00" fill-rule="evenodd"/>
        <path id="Path-4" data-name="Path" d="M19,6a13.032,13.032,0,0,0-1.5.093A12.992,12.992,0,0,1,17.517,31.9,12.707,12.707,0,0,0,19,32,13,13,0,0,0,19,6Z" fill="#fec108" fill-rule="evenodd"/>
        <path id="Path-5" data-name="Path" d="M59,43a16,16,0,0,1-29.86,8A16.228,16.228,0,0,1,27,43,15.983,15.983,0,0,1,37,28.17,15.763,15.763,0,0,1,43,27,16,16,0,0,1,59,43Z" fill="#ef314c" fill-rule="evenodd"/>
        <path id="Path-6" data-name="Path" d="M46.23,47.01l1.26,11.35a16.07,16.07,0,0,1-8.98,0l1.25-11.34a.993.993,0,0,0-.54-.98,7.986,7.986,0,0,1-.24-13.95.687.687,0,0,1,1.02.6v3.97a1.013,1.013,0,0,0,.45.84l2,1.33a.963.963,0,0,0,1.1,0l2.01-1.34a.993.993,0,0,0,.44-.82V32.69a.687.687,0,0,1,1.02-.6,7.993,7.993,0,0,1-.26,13.97.974.974,0,0,0-.53.95Z" fill="#9e9e9e" fill-rule="evenodd"/>
        <path id="Path-7" data-name="Path" d="M46.76,46.06a7.993,7.993,0,0,0,.26-13.97.687.687,0,0,0-1.02.6v1.052A7.964,7.964,0,0,1,43.76,46.06a.974.974,0,0,0-.53.95l1.26,11.35a15.648,15.648,0,0,1-2.989.563c.494.045.992.077,1.5.077a15.821,15.821,0,0,0,4.49-.64L46.23,47.01a.974.974,0,0,1,.53-.95Z" fill="#707070" fill-rule="evenodd"/>
        <path id="Path-8" data-name="Path" d="M43,27c-.517,0-1.028.026-1.533.074a15.994,15.994,0,0,1,.049,31.85C42,58.969,42.5,59,43,59a16,16,0,0,0,0-32Z" fill="#bb193b" fill-rule="evenodd"/>
        <circle id="Oval" cx="4" cy="4" r="4" transform="translate(15 15)" fill="#cfd8dc"/>
        <path id="Path-9" data-name="Path" d="M27,43a15.572,15.572,0,0,0,.29,3H8a3,3,0,0,1-3-3V39a3,3,0,0,1,3-3h2.21a16.763,16.763,0,0,0-.92,1.66,3.078,3.078,0,0,0,1.4,4.05,2.947,2.947,0,0,0,3.95-1.43A32.43,32.43,0,0,0,16.07,36H28.61A15.928,15.928,0,0,0,27,43Z" fill="#545c60" fill-rule="evenodd"/>
        <path id="Path-10" data-name="Path" d="M17.98,28.12c-.51,2.31-1.21,5.32-1.91,7.88a32.43,32.43,0,0,1-1.43,4.28,2.947,2.947,0,0,1-3.95,1.43,3.078,3.078,0,0,1-1.4-4.05A16.763,16.763,0,0,1,10.21,36c1.56-2.54,4.26-6.13,6.21-8.65a.889.889,0,0,1,1.56.77Z" fill="#f5f5f5" fill-rule="evenodd"/>
        <path id="Path-11" data-name="Path" d="M16.42,27.35c-.552.714-1.166,1.517-1.8,2.354-.457,2.007-1.005,4.288-1.554,6.3a32.43,32.43,0,0,1-1.43,4.28,3,3,0,0,1-1.164,1.3,1.912,1.912,0,0,0,.214.134,2.947,2.947,0,0,0,3.95-1.43A32.431,32.431,0,0,0,16.07,36c.7-2.56,1.4-5.57,1.91-7.88a.889.889,0,0,0-1.56-.77Z" fill="#cfd8dc" fill-rule="evenodd"/>
        <g id="Grupo_1147624" data-name="Grupo 1147624">
          <path id="Shape" d="M43,26a16.932,16.932,0,0,0-5,.753V5a5.006,5.006,0,0,0-5-5H5A5.006,5.006,0,0,0,0,5V47a5.006,5.006,0,0,0,5,5H28.6A16.991,16.991,0,1,0,43,26ZM5,50a3,3,0,0,1-3-3V5A3,3,0,0,1,5,2H33a3,3,0,0,1,3,3V27.526A17.1,17.1,0,0,0,28.008,35H17.369c.175-.669.348-1.356.517-2.049.373.03.746.049,1.114.049a14.015,14.015,0,1,0-6.763-1.748Q10.651,33.439,9.66,35H8a4,4,0,0,0-4,4v4a4,4,0,0,0,4,4H26.5a16.751,16.751,0,0,0,1.031,3Zm21.128-5H8a2,2,0,0,1-2-2V39a2,2,0,0,1,2-2h.5c-.038.076-.089.167-.123.238A4.087,4.087,0,0,0,10.248,42.6a3.877,3.877,0,0,0,3.007.175,3.978,3.978,0,0,0,2.289-2.08A28.361,28.361,0,0,0,16.821,37H27.114A16.892,16.892,0,0,0,26,43a17.138,17.138,0,0,0,.128,2ZM17.905,26.18a1.85,1.85,0,0,0-2.281.558c-.8,1.034-1.518,1.986-2.192,2.89A12,12,0,1,1,19,31c-.213,0-.428-.012-.644-.024.211-.908.411-1.8.6-2.643A1.911,1.911,0,0,0,17.9,26.18Zm-1,2.182a73.886,73.886,0,0,1-3.164,11.492A1.989,1.989,0,0,1,12.6,40.893a1.891,1.891,0,0,1-1.463-.084,2.073,2.073,0,0,1-.938-2.726C10.971,36.415,13.288,33.058,16.9,28.362ZM39.6,57.6l1.158-10.464A2,2,0,0,0,39.7,45.161a6.985,6.985,0,0,1-.7-11.9v3.4a2,2,0,0,0,.9,1.672l1.982,1.317a1.957,1.957,0,0,0,2.226.012l2.01-1.339A1.985,1.985,0,0,0,47,36.668v-3.4a6.994,6.994,0,0,1-.714,11.919,1.949,1.949,0,0,0-1.047,1.935L46.4,57.6a14.535,14.535,0,0,1-6.8,0Zm8.744-.6-1.12-10.05a9,9,0,0,0,.3-15.721,1.655,1.655,0,0,0-1.674,0A1.7,1.7,0,0,0,45,32.69l.005,3.968L43,38l-2-1.336V32.69a1.7,1.7,0,0,0-.851-1.466,1.652,1.652,0,0,0-1.67,0,9.014,9.014,0,0,0-4.4,8.949,8.9,8.9,0,0,0,4.693,6.74L37.654,57a15,15,0,1,1,10.691,0Z"/>
          <path id="Path-12" data-name="Path" d="M43,50a1,1,0,0,0-1,1v4a1,1,0,0,0,2,0V51A1,1,0,0,0,43,50Z" fill-rule="evenodd"/>
          <path id="Shape-2" data-name="Shape" d="M24,19a5,5,0,1,0-5,5A5,5,0,0,0,24,19Zm-8,0a3,3,0,1,1,3,3A3,3,0,0,1,16,19Z"/>
          <circle id="Oval-2" data-name="Oval" cx="1" cy="1" r="1" transform="translate(4 4)"/>
          <circle id="Oval-3" data-name="Oval" cx="1" cy="1" r="1" transform="translate(32 4)"/>
        </g>
      </g>
    </g>
  </g>
</svg>
