<svg xmlns="http://www.w3.org/2000/svg" xmlns:xlink="http://www.w3.org/1999/xlink" width="190" height="204.002" viewBox="0 0 190 204.002">
  <defs>
    <clipPath id="clip-path">
      <rect id="Rectángulo_401573" data-name="Rectángulo 401573" width="28.836" height="204.001" fill="none"/>
    </clipPath>
    <clipPath id="clip-path-2">
      <rect id="Rectángulo_401572" data-name="Rectángulo 401572" width="72.283" height="384.741" fill="none"/>
    </clipPath>
    <clipPath id="clip-path-3">
      <rect id="Rectángulo_408009" data-name="Rectángulo 408009" width="166.193" height="198.829" fill="none"/>
    </clipPath>
    <clipPath id="clip-path-5">
      <rect id="Rectángulo_407965" data-name="Rectángulo 407965" width="48.852" height="67.638" fill="none"/>
    </clipPath>
    <clipPath id="clip-path-7">
      <rect id="Rectángulo_407969" data-name="Rectángulo 407969" width="128.393" height="6.277" fill="none"/>
    </clipPath>
    <clipPath id="clip-path-8">
      <rect id="Rectángulo_407971" data-name="Rectángulo 407971" width="143.827" height="3.28" fill="none"/>
    </clipPath>
    <clipPath id="clip-path-9">
      <rect id="Rectángulo_407973" data-name="Rectángulo 407973" width="24.084" height="6.277" fill="none"/>
    </clipPath>
    <clipPath id="clip-path-12">
      <rect id="Rectángulo_407979" data-name="Rectángulo 407979" width="16.612" height="6.599" fill="none"/>
    </clipPath>
    <clipPath id="clip-path-13">
      <rect id="Rectángulo_407980" data-name="Rectángulo 407980" width="4.763" height="4.284" fill="none"/>
    </clipPath>
    <clipPath id="clip-path-15">
      <rect id="Rectángulo_407982" data-name="Rectángulo 407982" width="7.934" height="2.236" fill="none"/>
    </clipPath>
    <clipPath id="clip-path-16">
      <rect id="Rectángulo_407983" data-name="Rectángulo 407983" width="6.219" height="1.306" fill="none"/>
    </clipPath>
    <clipPath id="clip-path-17">
      <rect id="Rectángulo_407984" data-name="Rectángulo 407984" width="5.584" height="2.937" fill="none"/>
    </clipPath>
    <clipPath id="clip-path-19">
      <rect id="Rectángulo_407986" data-name="Rectángulo 407986" width="11.307" height="17.841" fill="none"/>
    </clipPath>
    <clipPath id="clip-path-20">
      <rect id="Rectángulo_407987" data-name="Rectángulo 407987" width="0.952" height="25.824" fill="none"/>
    </clipPath>
    <clipPath id="clip-path-21">
      <rect id="Rectángulo_407991" data-name="Rectángulo 407991" width="5.762" height="16.46" fill="none"/>
    </clipPath>
    <clipPath id="clip-path-22">
      <rect id="Rectángulo_407988" data-name="Rectángulo 407988" width="1.538" height="15.93" fill="none"/>
    </clipPath>
    <clipPath id="clip-path-23">
      <rect id="Rectángulo_407989" data-name="Rectángulo 407989" width="1.613" height="16.46" fill="none"/>
    </clipPath>
    <clipPath id="clip-path-24">
      <rect id="Rectángulo_407990" data-name="Rectángulo 407990" width="1.538" height="15.929" fill="none"/>
    </clipPath>
    <clipPath id="clip-path-25">
      <rect id="Rectángulo_407992" data-name="Rectángulo 407992" width="6.589" height="1.64" fill="none"/>
    </clipPath>
    <clipPath id="clip-path-26">
      <rect id="Rectángulo_407993" data-name="Rectángulo 407993" width="3.401" height="4.816" fill="none"/>
    </clipPath>
    <clipPath id="clip-path-27">
      <rect id="Rectángulo_407996" data-name="Rectángulo 407996" width="5.893" height="13.077" fill="none"/>
    </clipPath>
    <clipPath id="clip-path-28">
      <rect id="Rectángulo_407994" data-name="Rectángulo 407994" width="1.141" height="3.247" fill="none"/>
    </clipPath>
    <clipPath id="clip-path-29">
      <rect id="Rectángulo_407995" data-name="Rectángulo 407995" width="4.99" height="8.747" fill="none"/>
    </clipPath>
    <clipPath id="clip-path-31">
      <rect id="Rectángulo_407999" data-name="Rectángulo 407999" width="1.899" height="27.562" fill="none"/>
    </clipPath>
    <clipPath id="clip-path-32">
      <rect id="Rectángulo_408000" data-name="Rectángulo 408000" width="3.21" height="19.383" fill="none"/>
    </clipPath>
    <clipPath id="clip-path-35">
      <rect id="Rectángulo_408002" data-name="Rectángulo 408002" width="4.991" height="8.747" fill="none"/>
    </clipPath>
    <clipPath id="clip-path-36">
      <rect id="Rectángulo_408004" data-name="Rectángulo 408004" width="64.645" height="4.114" fill="none"/>
    </clipPath>
    <clipPath id="clip-path-37">
      <rect id="Rectángulo_408005" data-name="Rectángulo 408005" width="41.91" height="9.75" fill="none"/>
    </clipPath>
    <clipPath id="clip-path-39">
      <rect id="Rectángulo_408007" data-name="Rectángulo 408007" width="65.008" height="15.942" fill="none"/>
    </clipPath>
  </defs>
  <g id="img6" transform="translate(-180.051 -2127.999)">
    <g id="Grupo_1145676" data-name="Grupo 1145676" transform="translate(180.051 2127.999)">
      <g id="Grupo_1099687" data-name="Grupo 1099687" clip-path="url(#clip-path)">
        <g id="Grupo_1099686" data-name="Grupo 1099686" transform="translate(-6.669 -80.78)" opacity="0.45" style="mix-blend-mode: multiply;isolation: isolate">
          <g id="Grupo_1099685" data-name="Grupo 1099685">
            <g id="Grupo_1099684" data-name="Grupo 1099684" clip-path="url(#clip-path-2)">
              <path id="Trazado_873516" data-name="Trazado 873516" d="M-2.3,36.479,100.228-12.1,97.977-3.859-4.548,44.721Z" transform="matrix(0.898, -0.44, 0.44, 0.898, -13.994, 294.649)" fill="#2d0464"/>
              <path id="Trazado_873517" data-name="Trazado 873517" d="M-2.3,36.48,100.228-12.1,97.977-3.859-4.548,44.721Z" transform="matrix(0.898, -0.44, 0.44, 0.898, -13.994, 270.682)" fill="#2d0464"/>
              <path id="Trazado_873518" data-name="Trazado 873518" d="M-2.3,36.48,100.228-12.1,97.977-3.859-4.548,44.721Z" transform="matrix(0.898, -0.44, 0.44, 0.898, -13.994, 246.715)" fill="#2d0464"/>
              <path id="Trazado_873519" data-name="Trazado 873519" d="M-2.3,36.48,100.228-12.1,97.977-3.859-4.548,44.721Z" transform="matrix(0.898, -0.44, 0.44, 0.898, -13.994, 222.748)" fill="#2d0464"/>
              <path id="Trazado_873520" data-name="Trazado 873520" d="M-2.3,36.48,100.228-12.1,97.977-3.859-4.548,44.721Z" transform="matrix(0.898, -0.44, 0.44, 0.898, -13.994, 198.781)" fill="#2d0464"/>
              <path id="Trazado_873521" data-name="Trazado 873521" d="M-2.3,36.48,100.228-12.1,97.977-3.859-4.548,44.721Z" transform="matrix(0.898, -0.44, 0.44, 0.898, -13.994, 174.814)" fill="#2d0464"/>
              <path id="Trazado_873522" data-name="Trazado 873522" d="M-2.3,36.48,100.228-12.1,97.977-3.859-4.548,44.721Z" transform="matrix(0.898, -0.44, 0.44, 0.898, -13.994, 150.848)" fill="#2d0464"/>
              <path id="Trazado_873523" data-name="Trazado 873523" d="M-2.3,36.48,100.228-12.1,97.977-3.859-4.548,44.721Z" transform="matrix(0.898, -0.44, 0.44, 0.898, -13.994, 126.881)" fill="#2d0464"/>
              <path id="Trazado_873524" data-name="Trazado 873524" d="M-2.3,36.48,100.228-12.1,97.977-3.859-4.548,44.721Z" transform="matrix(0.898, -0.44, 0.44, 0.898, -13.994, 102.915)" fill="#2d0464"/>
              <path id="Trazado_873525" data-name="Trazado 873525" d="M-2.3,36.48,100.228-12.1,97.977-3.859-4.548,44.721Z" transform="matrix(0.898, -0.44, 0.44, 0.898, -13.994, 78.948)" fill="#2d0464"/>
              <path id="Trazado_873526" data-name="Trazado 873526" d="M-2.3,36.48,100.228-12.1,97.977-3.859-4.548,44.721Z" transform="translate(-13.994 54.981) rotate(-26.114)" fill="#2d0464"/>
            </g>
          </g>
        </g>
      </g>
      <rect id="Rectángulo_401574" data-name="Rectángulo 401574" width="161" height="204" transform="translate(29 0.002)" fill="#efe8f7"/>
    </g>
    <g id="Grupo_1147734" data-name="Grupo 1147734" transform="translate(202.089 2133.171)">
      <g id="Grupo_1147733" data-name="Grupo 1147733" clip-path="url(#clip-path-3)">
        <g id="Grupo_1147727" data-name="Grupo 1147727">
          <g id="Grupo_1147726" data-name="Grupo 1147726" clip-path="url(#clip-path-3)">
            <path id="Trazado_916472" data-name="Trazado 916472" d="M338.731,212.764a62.7,62.7,0,0,1,8.232-19.457l40.62,51.759-19.3,15.879-14.033-18.06s-11.632-17.017-15.514-30.122" transform="translate(-225.382 -128.621)" fill="#ffa37e"/>
            <g id="Grupo_1147629" data-name="Grupo 1147629" transform="translate(113.349 64.686)" opacity="0.7" style="mix-blend-mode: multiply;isolation: isolate">
              <g id="Grupo_1147628" data-name="Grupo 1147628">
                <g id="Grupo_1147627" data-name="Grupo 1147627" clip-path="url(#clip-path-5)">
                  <path id="Trazado_916473" data-name="Trazado 916473" d="M338.731,212.764a62.7,62.7,0,0,1,8.232-19.457l40.62,51.759-19.3,15.879-14.033-18.06s-11.632-17.017-15.514-30.122" transform="translate(-338.731 -193.307)" fill="#ffa37e"/>
                </g>
              </g>
            </g>
            <path id="Trazado_916474" data-name="Trazado 916474" d="M351.036,193.307h3.457l28.9,32.562-22.6,19.054-10.743-21.289Z" transform="translate(-232.912 -128.621)" fill="#2095e5"/>
            <path id="Trazado_916475" data-name="Trazado 916475" d="M66.817,212.764a62.706,62.706,0,0,0-8.233-19.457l-40.62,51.759,19.3,15.879L51.3,242.885s11.632-17.017,15.514-30.122" transform="translate(-11.953 -128.621)" fill="#ffa37e"/>
            <g id="Grupo_1147632" data-name="Grupo 1147632" transform="translate(6.012 64.686)" opacity="0.7" style="mix-blend-mode: multiply;isolation: isolate">
              <g id="Grupo_1147631" data-name="Grupo 1147631">
                <g id="Grupo_1147630" data-name="Grupo 1147630" clip-path="url(#clip-path-5)">
                  <path id="Trazado_916476" data-name="Trazado 916476" d="M66.817,212.764a62.706,62.706,0,0,0-8.233-19.457l-40.62,51.759,19.3,15.879L51.3,242.885s11.632-17.017,15.514-30.122" transform="translate(-17.965 -193.307)" fill="#ffa37e"/>
                </g>
              </g>
            </g>
            <path id="Trazado_916477" data-name="Trazado 916477" d="M85.342,193.307H81.885l-28.9,32.562,22.6,19.054,10.743-19.433Z" transform="translate(-35.254 -128.621)" fill="#2095e5"/>
            <path id="Trazado_916478" data-name="Trazado 916478" d="M211.02,247.842H128.413l3.994-75.835a36.528,36.528,0,0,1,11.031-6.855,51.005,51.005,0,0,1,8.338-2.587c2.039-.446,3.9-.739,5.448-.924a42.521,42.521,0,0,1,4.673-.344h15.638a43.111,43.111,0,0,1,5.026.391c1.436.186,3.108.455,4.933.85a51.382,51.382,0,0,1,8.338,2.546,36.888,36.888,0,0,1,11.194,6.925Z" transform="translate(-85.443 -107.322)" fill="#2095e5"/>
            <path id="Trazado_916479" data-name="Trazado 916479" d="M181.653,165.086V197.5h-8.338V167.673a50.975,50.975,0,0,1,8.338-2.587" transform="translate(-115.319 -109.844)" fill="#244393"/>
            <path id="Trazado_916480" data-name="Trazado 916480" d="M313.309,167.548v29.895h-8.338V165a51.361,51.361,0,0,1,8.338,2.546" transform="translate(-202.919 -109.788)" fill="#244393"/>
            <path id="Trazado_916481" data-name="Trazado 916481" d="M211.02,309H128.413L130,278.913c7.822-4.17,13.436-16.608,13.436-25.7h52.588c0,9.081,5.562,21.391,13.365,25.565Z" transform="translate(-85.443 -168.482)" fill="#244393"/>
            <rect id="Rectángulo_407967" data-name="Rectángulo 407967" width="143.827" height="53.768" transform="translate(12.189 145.062)" fill="#5868db"/>
            <g id="Grupo_1147635" data-name="Grupo 1147635" transform="translate(19.906 156.53)" opacity="0.2" style="mix-blend-mode: overlay;isolation: isolate">
              <g id="Grupo_1147634" data-name="Grupo 1147634">
                <g id="Grupo_1147633" data-name="Grupo 1147633" clip-path="url(#clip-path-7)">
                  <rect id="Rectángulo_407968" data-name="Rectángulo 407968" width="128.393" height="6.277" transform="translate(0)" fill="#1a1a1a"/>
                </g>
              </g>
            </g>
            <g id="Grupo_1147638" data-name="Grupo 1147638" transform="translate(12.189 146.769)" opacity="0.2" style="mix-blend-mode: overlay;isolation: isolate">
              <g id="Grupo_1147637" data-name="Grupo 1147637">
                <g id="Grupo_1147636" data-name="Grupo 1147636" clip-path="url(#clip-path-8)">
                  <rect id="Rectángulo_407970" data-name="Rectángulo 407970" width="143.827" height="3.28" transform="translate(0)" fill="#1a1a1a"/>
                </g>
              </g>
            </g>
            <g id="Grupo_1147641" data-name="Grupo 1147641" transform="translate(19.906 169.939)" opacity="0.2" style="mix-blend-mode: overlay;isolation: isolate">
              <g id="Grupo_1147640" data-name="Grupo 1147640">
                <g id="Grupo_1147639" data-name="Grupo 1147639" clip-path="url(#clip-path-9)">
                  <rect id="Rectángulo_407972" data-name="Rectángulo 407972" width="24.084" height="6.277" transform="translate(0 0)" fill="#1a1a1a"/>
                </g>
              </g>
            </g>
            <g id="Grupo_1147644" data-name="Grupo 1147644" transform="translate(124.215 169.939)" opacity="0.2" style="mix-blend-mode: overlay;isolation: isolate">
              <g id="Grupo_1147643" data-name="Grupo 1147643">
                <g id="Grupo_1147642" data-name="Grupo 1147642" clip-path="url(#clip-path-9)">
                  <rect id="Rectángulo_407974" data-name="Rectángulo 407974" width="24.084" height="6.277" transform="translate(0 0)" fill="#1a1a1a"/>
                </g>
              </g>
            </g>
            <g id="Grupo_1147647" data-name="Grupo 1147647" transform="translate(19.906 183.349)" opacity="0.2" style="mix-blend-mode: overlay;isolation: isolate">
              <g id="Grupo_1147646" data-name="Grupo 1147646">
                <g id="Grupo_1147645" data-name="Grupo 1147645" clip-path="url(#clip-path-7)">
                  <rect id="Rectángulo_407976" data-name="Rectángulo 407976" width="128.393" height="6.277" transform="translate(0 0)" fill="#1a1a1a"/>
                </g>
              </g>
            </g>
            <rect id="Rectángulo_407978" data-name="Rectángulo 407978" width="161.918" height="6.249" transform="translate(3.148 140.52)" fill="#5868db"/>
            <path id="Trazado_916482" data-name="Trazado 916482" d="M239.85,161.687A26.033,26.033,0,0,1,237.6,167.4c-1.932,3.511-5.17,7.023-10.4,7.037h-.028c-8.518-.019-11.756-9.345-12.661-12.792a42.554,42.554,0,0,1,4.672-.344h15.639a43.156,43.156,0,0,1,5.025.39" transform="translate(-142.731 -107.323)" fill="#ffa37e"/>
            <path id="Trazado_916483" data-name="Trazado 916483" d="M244.187,142.923v9.289s-2.41,3.7-8.293,3.7-8.318-3.7-8.318-3.7v-9.289Z" transform="translate(-151.422 -95.097)" fill="#ffa37e"/>
            <g id="Grupo_1147650" data-name="Grupo 1147650" transform="translate(76.153 47.826)" opacity="0.4" style="mix-blend-mode: multiply;isolation: isolate">
              <g id="Grupo_1147649" data-name="Grupo 1147649">
                <g id="Grupo_1147648" data-name="Grupo 1147648" clip-path="url(#clip-path-12)">
                  <path id="Trazado_916484" data-name="Trazado 916484" d="M244.187,142.923v3.818c-8.044,4.375-14.166,2.551-16.612,1.444v-5.262Z" transform="translate(-227.575 -142.923)" fill="#ffa37e"/>
                </g>
              </g>
            </g>
            <path id="Trazado_916485" data-name="Trazado 916485" d="M229.981,31.972c-1.3-3.953-7.677-6.862-14.6-6.862s-13.3,2.909-14.6,6.862S195,54.3,198.392,59.335,209.1,69.4,215.382,69.4c6.311,0,14.2-5.148,17.593-10.183s-1.691-23.3-2.994-27.249" transform="translate(-131.177 -16.708)" fill="#ffa37e"/>
            <path id="Trazado_916486" data-name="Trazado 916486" d="M183.77,81s-1.684-5.766-5.157-5.766-3.263,18.89,5.157,11.7Z" transform="translate(-117.437 -50.057)" fill="#ffa37e"/>
            <g id="Grupo_1147653" data-name="Grupo 1147653" transform="translate(60.841 29.697)" opacity="0.7" style="mix-blend-mode: multiply;isolation: isolate">
              <g id="Grupo_1147652" data-name="Grupo 1147652">
                <g id="Grupo_1147651" data-name="Grupo 1147651" clip-path="url(#clip-path-13)">
                  <path id="Trazado_916487" data-name="Trazado 916487" d="M186.368,93.032a.213.213,0,0,1-.206-.178c0-.014-.277-1.426-1.093-1.8a1.4,1.4,0,0,0-1.353.241.206.206,0,0,1-.29-.072.225.225,0,0,1,.069-.3,1.775,1.775,0,0,1,1.744-.269,1.567,1.567,0,0,1,.342.216c-.5-1.024-1.223-1.713-1.914-1.683a1.384,1.384,0,0,0-1.1.737,3,3,0,0,0-.34.75.21.21,0,0,1-.259.153.221.221,0,0,1-.147-.27c.019-.071.477-1.747,1.825-1.808,1.3-.061,2.645,1.788,2.928,4.035a.218.218,0,0,1-.175.245.2.2,0,0,1-.034,0" transform="translate(-181.816 -88.747)" fill="#ffa37e"/>
                </g>
              </g>
            </g>
            <path id="Trazado_916488" data-name="Trazado 916488" d="M306.558,81s1.684-5.766,5.157-5.766,3.263,18.89-5.157,11.7Z" transform="translate(-203.975 -50.057)" fill="#ffa37e"/>
            <g id="Grupo_1147656" data-name="Grupo 1147656" transform="translate(103.313 29.697)" opacity="0.7" style="mix-blend-mode: multiply;isolation: isolate">
              <g id="Grupo_1147655" data-name="Grupo 1147655">
                <g id="Grupo_1147654" data-name="Grupo 1147654" clip-path="url(#clip-path-13)">
                  <path id="Trazado_916489" data-name="Trazado 916489" d="M308.951,93.032a.213.213,0,0,0,.206-.178c0-.014.277-1.426,1.093-1.8a1.4,1.4,0,0,1,1.353.241.206.206,0,0,0,.29-.072.225.225,0,0,0-.069-.3,1.775,1.775,0,0,0-1.744-.269,1.568,1.568,0,0,0-.342.216c.5-1.024,1.223-1.713,1.914-1.683a1.384,1.384,0,0,1,1.1.737,3.036,3.036,0,0,1,.341.75.21.21,0,0,0,.259.153.221.221,0,0,0,.147-.27c-.019-.071-.477-1.747-1.825-1.808-1.3-.061-2.645,1.788-2.928,4.035a.218.218,0,0,0,.175.245l.034,0" transform="translate(-308.74 -88.747)" fill="#ffa37e"/>
                </g>
              </g>
            </g>
            <path id="Trazado_916490" data-name="Trazado 916490" d="M245.29,121.231c-.021.03-2.179,2.109-7.189,2.109-5.109,0-7.166-2.076-7.186-2.105,0,0,.558,5.4,7.188,5.4s7.188-5.407,7.188-5.407" transform="translate(-153.644 -80.664)" fill="#fff"/>
            <path id="Trazado_916491" data-name="Trazado 916491" d="M268.221,94.094a3.613,3.613,0,0,1,.7-2.269,2.75,2.75,0,0,1,1-.831c.1-.045.21-.084.316-.123s.219-.05.33-.073a1.409,1.409,0,0,1,.347-.024,1.507,1.507,0,0,1,.351.025,2.7,2.7,0,0,1,1.2.541l.242.2c.075.069.145.144.216.216a4.452,4.452,0,0,1,.385.46,5.261,5.261,0,0,1,.929,2.133c-.56-.523-1.071-1.028-1.593-1.468a3.63,3.63,0,0,0-1.557-.873.59.59,0,0,0-.181-.017.656.656,0,0,0-.185,0c-.065.01-.132.013-.2.024s-.127.039-.193.053a2.475,2.475,0,0,0-.752.423,7.371,7.371,0,0,0-1.361,1.6" transform="translate(-178.465 -60.399)" fill="#2e3442"/>
            <path id="Trazado_916492" data-name="Trazado 916492" d="M268.032,78.7s4.489-2.036,8.47,3.083c0,0-3.61-9.05-8.47-3.083" transform="translate(-178.341 -51.011)" fill="#2e3442"/>
            <path id="Trazado_916493" data-name="Trazado 916493" d="M224.595,94.094a3.613,3.613,0,0,0-.7-2.269,2.747,2.747,0,0,0-1-.831c-.1-.045-.21-.084-.316-.123s-.219-.05-.33-.073a1.409,1.409,0,0,0-.347-.024,1.507,1.507,0,0,0-.351.025,2.7,2.7,0,0,0-1.2.541l-.242.2c-.075.069-.145.144-.216.216a4.454,4.454,0,0,0-.385.46,5.271,5.271,0,0,0-.93,2.133c.56-.523,1.072-1.028,1.593-1.468a3.627,3.627,0,0,1,1.557-.873.59.59,0,0,1,.181-.017.656.656,0,0,1,.185,0c.065.01.132.013.2.024s.127.039.193.053a2.474,2.474,0,0,1,.752.423,7.36,7.36,0,0,1,1.361,1.6" transform="translate(-145.434 -60.399)" fill="#2e3442"/>
            <path id="Trazado_916494" data-name="Trazado 916494" d="M219.914,78.7s-4.489-2.036-8.47,3.083c0,0,3.61-9.05,8.47-3.083" transform="translate(-140.689 -51.011)" fill="#2e3442"/>
            <g id="Grupo_1147659" data-name="Grupo 1147659" transform="translate(80.312 35.537)" opacity="0.7" style="mix-blend-mode: multiply;isolation: isolate">
              <g id="Grupo_1147658" data-name="Grupo 1147658">
                <g id="Grupo_1147657" data-name="Grupo 1147657" clip-path="url(#clip-path-15)">
                  <path id="Trazado_916495" data-name="Trazado 916495" d="M240.005,108.433a3.826,3.826,0,0,1,1.689-1.653,5.153,5.153,0,0,1,2.3-.58,4.817,4.817,0,0,1,2.329.495,3.162,3.162,0,0,1,1.615,1.738,4.477,4.477,0,0,0-1.862-1.086,6.506,6.506,0,0,0-2.064-.249,7.249,7.249,0,0,0-2.066.329,6.479,6.479,0,0,0-1.943,1.007" transform="translate(-240.005 -106.198)" fill="#ffa37e"/>
                </g>
              </g>
            </g>
            <g id="Grupo_1147662" data-name="Grupo 1147662" transform="translate(81.349 38.929)" opacity="0.7" style="mix-blend-mode: multiply;isolation: isolate">
              <g id="Grupo_1147661" data-name="Grupo 1147661">
                <g id="Grupo_1147660" data-name="Grupo 1147660" clip-path="url(#clip-path-16)">
                  <path id="Trazado_916496" data-name="Trazado 916496" d="M243.1,116.334a5.328,5.328,0,0,0,1.513.656,6.427,6.427,0,0,0,3.193,0,5.34,5.34,0,0,0,1.513-.655,3.454,3.454,0,0,1-1.411.989,4.7,4.7,0,0,1-3.4,0,3.464,3.464,0,0,1-1.411-.988" transform="translate(-243.102 -116.334)" fill="#ffa37e"/>
                </g>
              </g>
            </g>
            <g id="Grupo_1147665" data-name="Grupo 1147665" transform="translate(94.818 34.985)" opacity="0.7" style="mix-blend-mode: multiply;isolation: isolate">
              <g id="Grupo_1147664" data-name="Grupo 1147664">
                <g id="Grupo_1147663" data-name="Grupo 1147663" clip-path="url(#clip-path-17)">
                  <path id="Trazado_916497" data-name="Trazado 916497" d="M283.353,106.633a4.36,4.36,0,0,0,3.076.791,4.545,4.545,0,0,0,2.507-2.019,4.358,4.358,0,0,0-3.076-.791,4.55,4.55,0,0,0-2.508,2.019" transform="translate(-283.353 -104.55)" fill="#ffa37e"/>
                </g>
              </g>
            </g>
            <g id="Grupo_1147668" data-name="Grupo 1147668" transform="translate(68.515 34.985)" opacity="0.7" style="mix-blend-mode: multiply;isolation: isolate">
              <g id="Grupo_1147667" data-name="Grupo 1147667">
                <g id="Grupo_1147666" data-name="Grupo 1147666" clip-path="url(#clip-path-17)">
                  <path id="Trazado_916498" data-name="Trazado 916498" d="M210.334,106.633a4.36,4.36,0,0,1-3.076.791,4.545,4.545,0,0,1-2.507-2.019,4.358,4.358,0,0,1,3.076-.791,4.55,4.55,0,0,1,2.508,2.019" transform="translate(-204.75 -104.55)" fill="#ffa37e"/>
                </g>
              </g>
            </g>
            <path id="Trazado_916499" data-name="Trazado 916499" d="M223.686,24.431s-20.811.2-27.316.5c0,0,.228,3.5-1.9,5.593l-1.14,11.486-.833-9.853a14.949,14.949,0,0,0-2.32-3.452s1.251-10.241,1.964-12.4,8.277-9.913,14.047-12.076,13.172,3.032,13.172,3.032,10.028,5.406,10.491,7.569,1.454,14.408,1.454,14.408a17.758,17.758,0,0,0-2.153,3.84l-.28,8.116-2.063-11.628a5.2,5.2,0,0,1-3.125-5.132" transform="translate(-126.541 -2.461)" fill="#2e3442"/>
            <path id="Trazado_916500" data-name="Trazado 916500" d="M349.35,222.824c-1.222-2.1-4.52-7.554-7.075-12.153-1.794-3.227-3.223-6.036-3.311-6.978,0,0-1.818-2.179-1.577-3.431a2.863,2.863,0,0,1,.457-1.36,4.49,4.49,0,0,1,.939-1.143c.107-.072,1.037-.875,1.037-.875s4.716,4.808,10.431,10.66.665,12.273-.2,15.2a.383.383,0,0,1-.7.084" transform="translate(-224.473 -131.001)" fill="#ffa37e"/>
            <g id="Grupo_1147671" data-name="Grupo 1147671" transform="translate(112.891 67.901)" opacity="0.7" style="mix-blend-mode: multiply;isolation: isolate">
              <g id="Grupo_1147670" data-name="Grupo 1147670">
                <g id="Grupo_1147669" data-name="Grupo 1147669" clip-path="url(#clip-path-19)">
                  <path id="Trazado_916501" data-name="Trazado 916501" d="M348.239,220.5a.392.392,0,0,1-.679.1c-.81-1.109-3.082-3.48-5.286-5.916-1.794-3.226-3.223-6.036-3.311-6.978,0,0-1.818-2.179-1.577-3.431a2.861,2.861,0,0,1,.457-1.359c1.278,1.945,6.484,7.46,9.04,10.031s1.736,6.573,1.356,7.558" transform="translate(-337.364 -202.916)" fill="#ffa37e"/>
                </g>
              </g>
            </g>
            <path id="Trazado_916502" data-name="Trazado 916502" d="M346.332,120.52l.3,25.519,0,.09-1.824.03-.253-25.609a1.193,1.193,0,0,1,1.4-.324,1.441,1.441,0,0,1,.374.293" transform="translate(-229.258 -79.919)" fill="#091e53"/>
            <g id="Grupo_1147674" data-name="Grupo 1147674" transform="translate(116.42 40.308)" style="mix-blend-mode: soft-light;isolation: isolate">
              <g id="Grupo_1147673" data-name="Grupo 1147673">
                <g id="Grupo_1147672" data-name="Grupo 1147672" clip-path="url(#clip-path-20)">
                  <path id="Trazado_916503" data-name="Trazado 916503" d="M348.563,120.75l.3,25.519-.7.012-.253-25.611a2.313,2.313,0,0,1,.28-.213,1.441,1.441,0,0,1,.374.293" transform="translate(-347.909 -120.457)" fill="#fff"/>
                </g>
              </g>
            </g>
            <path id="Trazado_916504" data-name="Trazado 916504" d="M344.219,197.321a2.726,2.726,0,0,1,.931,1.791l.24,14.147a2.057,2.057,0,0,1-.248.961,2.923,2.923,0,0,1-2.134,1.554c-.048.005-.1.011-.145.018q-.5.057-1.015.067a10.313,10.313,0,0,1-1.158-.045,2.918,2.918,0,0,1-2.138-1.4,2.13,2.13,0,0,1-.326-1.033l-.24-14.147a2.68,2.68,0,0,1,.831-1.778l.039-.044c.222-.229.207-.489-.015-.565a1.107,1.107,0,0,1-.623-.6l6.622-.179a1.2,1.2,0,0,1-.625.687c-.2.086-.226.313-.035.525v0c.012.014.024.026.039.039" transform="translate(-224.887 -130.458)" fill="#e83842"/>
            <path id="Trazado_916505" data-name="Trazado 916505" d="M344.643,195.741l-5.972.125a.419.419,0,0,1-.427-.41l-.007-.325a.418.418,0,0,1,.41-.427l5.972-.125a.419.419,0,0,1,.427.41l.007.325a.418.418,0,0,1-.41.427" transform="translate(-225.054 -129.467)" fill="#e83842"/>
            <g id="Grupo_1147686" data-name="Grupo 1147686" transform="translate(113.916 67.332)" style="mix-blend-mode: overlay;isolation: isolate">
              <g id="Grupo_1147685" data-name="Grupo 1147685">
                <g id="Grupo_1147684" data-name="Grupo 1147684" clip-path="url(#clip-path-21)">
                  <g id="Grupo_1147677" data-name="Grupo 1147677" transform="translate(0 0.298)" opacity="0.3" style="mix-blend-mode: multiply;isolation: isolate">
                    <g id="Grupo_1147676" data-name="Grupo 1147676">
                      <g id="Grupo_1147675" data-name="Grupo 1147675" clip-path="url(#clip-path-22)">
                        <path id="Trazado_916506" data-name="Trazado 916506" d="M341.318,218.008h0a.867.867,0,0,1-.646-.708q-.122-7.217-.245-14.433a.867.867,0,0,1,.621-.729c.354-.11.656.07.66.362q.128,7.562.256,15.124c.005.293-.29.482-.648.385" transform="translate(-340.428 -202.104)" fill="#1a1a1a"/>
                      </g>
                    </g>
                  </g>
                  <g id="Grupo_1147680" data-name="Grupo 1147680" transform="translate(2.074)" opacity="0.3" style="mix-blend-mode: multiply;isolation: isolate">
                    <g id="Grupo_1147679" data-name="Grupo 1147679">
                      <g id="Grupo_1147678" data-name="Grupo 1147678" clip-path="url(#clip-path-23)">
                        <path id="Trazado_916507" data-name="Trazado 916507" d="M347.573,217.674h0a.64.64,0,0,1-.686-.554q-.13-7.664-.26-15.329a.688.688,0,0,1,1.353-.023q.13,7.665.26,15.329a.639.639,0,0,1-.667.577" transform="translate(-346.627 -201.214)" fill="#1a1a1a"/>
                      </g>
                    </g>
                  </g>
                  <g id="Grupo_1147683" data-name="Grupo 1147683" transform="translate(4.224 0.233)" opacity="0.3" style="mix-blend-mode: multiply;isolation: isolate">
                    <g id="Grupo_1147682" data-name="Grupo 1147682">
                      <g id="Grupo_1147681" data-name="Grupo 1147681" clip-path="url(#clip-path-24)">
                        <path id="Trazado_916508" data-name="Trazado 916508" d="M353.967,217.806h0c-.354.11-.656-.07-.66-.362q-.128-7.562-.256-15.124c-.005-.292.29-.482.648-.384a.867.867,0,0,1,.646.708q.122,7.217.245,14.434a.867.867,0,0,1-.621.729" transform="translate(-353.051 -201.909)" fill="#1a1a1a"/>
                      </g>
                    </g>
                  </g>
                </g>
              </g>
            </g>
            <g id="Grupo_1147689" data-name="Grupo 1147689" transform="translate(113.666 83.762)" style="mix-blend-mode: overlay;isolation: isolate">
              <g id="Grupo_1147688" data-name="Grupo 1147688">
                <g id="Grupo_1147687" data-name="Grupo 1147687" clip-path="url(#clip-path-25)">
                  <path id="Trazado_916509" data-name="Trazado 916509" d="M346.267,250.314a2.921,2.921,0,0,1-2.134,1.554c-.049.005-.1.011-.145.018q-.5.057-1.015.067a10.468,10.468,0,0,1-1.157-.045,2.919,2.919,0,0,1-2.138-1.4,19.953,19.953,0,0,0,6.59-.194" transform="translate(-339.677 -250.314)" fill="#1a1a1a"/>
                </g>
              </g>
            </g>
            <path id="Trazado_916510" data-name="Trazado 916510" d="M345.442,110.009l-.784,1.738a2.171,2.171,0,0,0-1.146-.162.406.406,0,0,0-.057.009.5.5,0,0,0-.065.012.571.571,0,0,0-.066.014c-.034.008-.067.017-.1.027a1.712,1.712,0,0,0-.19.066.666.666,0,0,0-.065.026c-.029.012-.056.025-.085.038l-.841-1.711,1.066-2.955a1.075,1.075,0,0,1,1.169-.02Z" transform="translate(-227.585 -71.147)" fill="#091e53"/>
            <g id="Grupo_1147692" data-name="Grupo 1147692" transform="translate(114.456 35.815)" style="mix-blend-mode: soft-light;isolation: isolate">
              <g id="Grupo_1147691" data-name="Grupo 1147691">
                <g id="Grupo_1147690" data-name="Grupo 1147690" clip-path="url(#clip-path-26)">
                  <path id="Trazado_916511" data-name="Trazado 916511" d="M343.223,112.012a2.2,2.2,0,0,0-.341.13l-.841-1.71,1.066-2.956-.554,2.842Z" transform="translate(-342.041 -107.326)" fill="#fff"/>
                  <path id="Trazado_916512" data-name="Trazado 916512" d="M348.759,111.954a2.219,2.219,0,0,1,.345.119l.782-1.738-1.165-2.918.65,2.822Z" transform="translate(-346.486 -107.287)" fill="#fff"/>
                  <path id="Trazado_916513" data-name="Trazado 916513" d="M346.8,109.213a9.074,9.074,0,0,1-.236,2.194,8.908,8.908,0,0,1-.074-4.378,9.071,9.071,0,0,1,.31,2.184" transform="translate(-344.846 -107.029)" fill="#fff"/>
                </g>
              </g>
            </g>
            <path id="Trazado_916514" data-name="Trazado 916514" d="M323.766,230.31a.383.383,0,0,1-.416-.184c-1.352-2.413-7.149-6.363-10.132-9.846a5.517,5.517,0,0,1-1.447-3.168,4.6,4.6,0,0,1,1.073-3.244c.031-.031.043-.046.043-.046a.864.864,0,0,1-.026-.1,4.642,4.642,0,0,1-.2-1.336,2.509,2.509,0,0,1,1.678-2.414.393.393,0,0,0,.213-.52l-.786-1.822c-.724-1.674.785-2.642,1.568-3.022a.387.387,0,0,0,.148-.577l-.314-.439s-1.937-1.946-.243-3.866c1.8-1.974,4.1.444,4.1.444s.027.018.042.03c.474.469,9.975,9.9,12.224,14.08,2.309,4.286,1.987,4.014,1.789,9.2-.174,4.648-7.72,6.483-9.311,6.82" transform="translate(-207.436 -132.38)" fill="#ffa37e"/>
            <g id="Grupo_1147701" data-name="Grupo 1147701" transform="translate(104.321 71.656)" opacity="0.6">
              <g id="Grupo_1147700" data-name="Grupo 1147700">
                <g id="Grupo_1147699" data-name="Grupo 1147699" clip-path="url(#clip-path-27)">
                  <g id="Grupo_1147695" data-name="Grupo 1147695" transform="translate(0 9.83)" style="mix-blend-mode: multiply;isolation: isolate">
                    <g id="Grupo_1147694" data-name="Grupo 1147694">
                      <g id="Grupo_1147693" data-name="Grupo 1147693" clip-path="url(#clip-path-28)">
                        <path id="Trazado_916515" data-name="Trazado 916515" d="M312.842,243.513a2.673,2.673,0,0,0,.046.619.4.4,0,0,1-.111.363,3.563,3.563,0,0,0-1.011,2.264,4.6,4.6,0,0,1,1.076-3.247" transform="translate(-311.754 -243.513)" fill="#e5b7ac"/>
                      </g>
                    </g>
                  </g>
                  <g id="Grupo_1147698" data-name="Grupo 1147698" transform="translate(0.902)" opacity="0.7" style="mix-blend-mode: multiply;isolation: isolate">
                    <g id="Grupo_1147697" data-name="Grupo 1147697">
                      <g id="Grupo_1147696" data-name="Grupo 1147696" clip-path="url(#clip-path-29)">
                        <path id="Trazado_916516" data-name="Trazado 916516" d="M319.171,218.312c-.8.262-3.1,1.2-2.762,3.323a.386.386,0,0,1-.244.423,2.652,2.652,0,0,0-1.044.7.385.385,0,0,1-.67-.265,2.509,2.509,0,0,1,1.678-2.414.393.393,0,0,0,.214-.52l-.786-1.823c-.724-1.674.785-2.642,1.568-3.022a.387.387,0,0,0,.148-.577,20.138,20.138,0,0,1,2.159,3.721.386.386,0,0,1-.26.456" transform="translate(-314.451 -214.135)" fill="#ffa37e"/>
                      </g>
                    </g>
                  </g>
                </g>
              </g>
            </g>
            <path id="Trazado_916517" data-name="Trazado 916517" d="M363.717,298.315,330.464,256a17.236,17.236,0,0,1,11.5-8.161l39.1,32.429a12.515,12.515,0,1,1-17.345,18.044" transform="translate(-219.882 -164.907)" fill="#ffa37e"/>
            <path id="Trazado_916518" data-name="Trazado 916518" d="M122.371,222.824c1.222-2.1,4.52-7.554,7.075-12.153,1.794-3.227,3.223-6.036,3.311-6.978,0,0,1.818-2.179,1.577-3.431a2.862,2.862,0,0,0-.457-1.36,4.49,4.49,0,0,0-.939-1.143c-.107-.072-1.037-.875-1.037-.875s-4.716,4.808-10.431,10.66-.665,12.273.2,15.2a.383.383,0,0,0,.7.084" transform="translate(-79.035 -131.001)" fill="#ffa37e"/>
            <g id="Grupo_1147704" data-name="Grupo 1147704" transform="translate(44.014 67.901)" opacity="0.7" style="mix-blend-mode: multiply;isolation: isolate">
              <g id="Grupo_1147703" data-name="Grupo 1147703">
                <g id="Grupo_1147702" data-name="Grupo 1147702" clip-path="url(#clip-path-19)">
                  <path id="Trazado_916519" data-name="Trazado 916519" d="M131.964,220.5a.392.392,0,0,0,.679.1c.81-1.109,3.082-3.48,5.286-5.916,1.794-3.226,3.223-6.036,3.31-6.978,0,0,1.819-2.179,1.578-3.431a2.866,2.866,0,0,0-.457-1.359c-1.278,1.945-6.484,7.46-9.04,10.031s-1.736,6.573-1.356,7.558" transform="translate(-131.531 -202.916)" fill="#ffa37e"/>
                </g>
              </g>
            </g>
            <path id="Trazado_916520" data-name="Trazado 916520" d="M149.778,260.748a4.387,4.387,0,0,1-1.046-.125v2.9a1.074,1.074,0,1,0,2.148,0v-2.914a4.34,4.34,0,0,1-1.1.141" transform="translate(-98.962 -173.401)" fill="#e83842"/>
            <path id="Trazado_916521" data-name="Trazado 916521" d="M151.4,115.24c-.13.265-.256.534-.418.8-.042.065-.079.13-.125.2q-.07-.1-.125-.2a8.3,8.3,0,0,1-.423-.8c.014-.292,0-.585.009-.878v-5.086a8.306,8.306,0,0,1,.539-.994,9.887,9.887,0,0,1,.539.994v5.086c0,.292,0,.585,0,.878" transform="translate(-100.011 -72.048)" fill="#091e53"/>
            <rect id="Rectángulo_407998" data-name="Rectángulo 407998" width="3.804" height="1.077" transform="translate(48.941 43.991)" fill="#091e53"/>
            <path id="Trazado_916522" data-name="Trazado 916522" d="M150.4,127.5v20.432h-3.117V127.5a1.049,1.049,0,0,1,1.022-1.05h1.077a1.048,1.048,0,0,1,1.017,1.05" transform="translate(-97.997 -84.138)" fill="#091e53"/>
            <g id="Grupo_1147707" data-name="Grupo 1147707" transform="translate(50.846 36.234)" style="mix-blend-mode: soft-light;isolation: isolate">
              <g id="Grupo_1147706" data-name="Grupo 1147706">
                <g id="Grupo_1147705" data-name="Grupo 1147705" clip-path="url(#clip-path-31)">
                  <path id="Trazado_916523" data-name="Trazado 916523" d="M153.847,116.039v1.077H153.5v18.728h-1.556V108.282a9.955,9.955,0,0,1,.539.994v5.086a1.048,1.048,0,0,1,1.017,1.05v.627Z" transform="translate(-151.947 -108.282)" fill="#fff"/>
                </g>
              </g>
            </g>
            <path id="Trazado_916524" data-name="Trazado 916524" d="M149.143,197.426v19.857a2.83,2.83,0,1,1-5.66,0V197.426Z" transform="translate(-95.47 -131.362)" fill="#e83842"/>
            <path id="Trazado_916525" data-name="Trazado 916525" d="M142.806,183.863h-4.594v3.429l1.765,1.109h5.659l1.765-1.109v-3.429Z" transform="translate(-91.962 -122.337)" fill="#e83842"/>
            <path id="Trazado_916526" data-name="Trazado 916526" d="M145.732,181.3H134.891a.428.428,0,0,0,0,.857h10.841a.428.428,0,1,0,0-.857" transform="translate(-89.468 -120.633)" fill="#e83842"/>
            <path id="Trazado_916527" data-name="Trazado 916527" d="M146.413,192.27h-9.9a.32.32,0,0,0,0,.641h9.9a.32.32,0,0,0,0-.641" transform="translate(-90.621 -127.931)" fill="#e83842"/>
            <g id="Grupo_1147710" data-name="Grupo 1147710" transform="translate(49.239 66.064)" opacity="0.4" style="mix-blend-mode: overlay;isolation: isolate">
              <g id="Grupo_1147709" data-name="Grupo 1147709">
                <g id="Grupo_1147708" data-name="Grupo 1147708" clip-path="url(#clip-path-32)">
                  <path id="Trazado_916528" data-name="Trazado 916528" d="M150.355,197.426V215.2a1.6,1.6,0,1,1-3.21,0V197.426Z" transform="translate(-147.145 -197.426)" fill="#1a1a1a"/>
                </g>
              </g>
            </g>
            <path id="Trazado_916529" data-name="Trazado 916529" d="M136.259,230.31a.383.383,0,0,0,.416-.184c1.352-2.413,7.149-6.363,10.132-9.846a5.519,5.519,0,0,0,1.447-3.168,4.6,4.6,0,0,0-1.073-3.244c-.031-.031-.043-.046-.043-.046a.864.864,0,0,0,.026-.1,4.641,4.641,0,0,0,.2-1.336,2.509,2.509,0,0,0-1.678-2.414.393.393,0,0,1-.213-.52l.786-1.822c.724-1.674-.785-2.642-1.568-3.022a.387.387,0,0,1-.148-.577l.314-.439s1.937-1.946.243-3.866c-1.8-1.974-4.1.444-4.1.444s-.027.018-.042.03c-.474.469-9.975,9.9-12.224,14.08-2.309,4.286-1.987,4.014-1.789,9.2.174,4.648,7.72,6.483,9.311,6.82" transform="translate(-84.376 -132.38)" fill="#ffa37e"/>
            <g id="Grupo_1147719" data-name="Grupo 1147719" transform="translate(57.998 71.656)" opacity="0.6">
              <g id="Grupo_1147718" data-name="Grupo 1147718">
                <g id="Grupo_1147717" data-name="Grupo 1147717" clip-path="url(#clip-path-27)">
                  <g id="Grupo_1147713" data-name="Grupo 1147713" transform="translate(4.752 9.83)" style="mix-blend-mode: multiply;isolation: isolate">
                    <g id="Grupo_1147712" data-name="Grupo 1147712">
                      <g id="Grupo_1147711" data-name="Grupo 1147711" clip-path="url(#clip-path-28)">
                        <path id="Trazado_916530" data-name="Trazado 916530" d="M187.574,243.513a2.674,2.674,0,0,1-.046.619.4.4,0,0,0,.111.363,3.564,3.564,0,0,1,1.011,2.264,4.6,4.6,0,0,0-1.076-3.247" transform="translate(-187.521 -243.513)" fill="#e5b7ac"/>
                      </g>
                    </g>
                  </g>
                  <g id="Grupo_1147716" data-name="Grupo 1147716" opacity="0.7" style="mix-blend-mode: multiply;isolation: isolate">
                    <g id="Grupo_1147715" data-name="Grupo 1147715">
                      <g id="Grupo_1147714" data-name="Grupo 1147714" clip-path="url(#clip-path-35)">
                        <path id="Trazado_916531" data-name="Trazado 916531" d="M173.592,218.312c.8.262,3.1,1.2,2.762,3.323a.386.386,0,0,0,.244.423,2.652,2.652,0,0,1,1.044.7.385.385,0,0,0,.67-.265,2.509,2.509,0,0,0-1.678-2.414.392.392,0,0,1-.214-.52l.786-1.823c.724-1.674-.785-2.642-1.568-3.022a.387.387,0,0,1-.148-.577,20.156,20.156,0,0,0-2.159,3.721.387.387,0,0,0,.26.456" transform="translate(-173.322 -214.135)" fill="#ffa37e"/>
                      </g>
                    </g>
                  </g>
                </g>
              </g>
            </g>
            <path id="Trazado_916532" data-name="Trazado 916532" d="M30.5,298.315,63.757,256a17.236,17.236,0,0,0-11.5-8.161l-39.1,32.429A12.515,12.515,0,1,0,30.5,298.315" transform="translate(-6.126 -164.907)" fill="#ffa37e"/>
            <path id="Trazado_916533" data-name="Trazado 916533" d="M214.885,277.481l-5.256,39-.29,2.148a2.463,2.463,0,0,1-2.5,2.061H147.028a2.467,2.467,0,0,1-2.5-2.061l-5.543-41.145a2.417,2.417,0,0,1,2.5-2.654h70.9a2.421,2.421,0,0,1,2.5,2.654" transform="translate(-92.465 -182.862)" fill="#091e53"/>
            <path id="Trazado_916534" data-name="Trazado 916534" d="M220.486,407.637H155.841v3.157a.957.957,0,0,0,.957.957h62.731a.957.957,0,0,0,.957-.957Z" transform="translate(-103.692 -271.231)" fill="#091e53"/>
            <g id="Grupo_1147722" data-name="Grupo 1147722" transform="translate(52.149 136.406)" opacity="0.5" style="mix-blend-mode: overlay;isolation: isolate">
              <g id="Grupo_1147721" data-name="Grupo 1147721">
                <g id="Grupo_1147720" data-name="Grupo 1147720" clip-path="url(#clip-path-36)">
                  <path id="Trazado_916535" data-name="Trazado 916535" d="M220.486,407.637H155.841v3.157a.957.957,0,0,0,.957.957h62.731a.957.957,0,0,0,.957-.957Z" transform="translate(-155.841 -407.637)" fill="#1a1a1a"/>
                </g>
              </g>
            </g>
            <path id="Trazado_916536" data-name="Trazado 916536" d="M246.619,331.652a5.883,5.883,0,1,1-5.883-5.883,5.884,5.884,0,0,1,5.883,5.883" transform="translate(-156.264 -216.758)" fill="#6edafe"/>
            <path id="Trazado_916537" data-name="Trazado 916537" d="M210.18,0c-3.385,0-19.912,8.747-19.525,11.3l-1.429,13.423c7.31-2.989,20.954-2.585,20.954-2.585s13.643-.4,20.954,2.585L229.7,11.3C230.091,8.747,213.565,0,210.18,0" transform="translate(-125.906)" fill="#e83842"/>
            <path id="Trazado_916538" data-name="Trazado 916538" d="M258.315,20.793l.121-1.453-1.007-.184a3.943,3.943,0,0,0-.446-1.387l.709-.736-.946-1.108-.837.584a3.945,3.945,0,0,0-1.268-.651l-.015-1.019-1.453-.121-.183,1a3.947,3.947,0,0,0-1.388.449l-.735-.708-1.108.946.584.838a3.948,3.948,0,0,0-.647,1.267l-1.023.015-.121,1.452,1.009.184a3.946,3.946,0,0,0,.448,1.382l-.713.74.946,1.108.844-.588a3.94,3.94,0,0,0,1.261.645l.015,1.029,1.452.121L254,23.59a3.945,3.945,0,0,0,1.38-.445l.741.714,1.108-.946-.588-.843a3.948,3.948,0,0,0,.649-1.262Zm-5.006,1.094a2.239,2.239,0,1,1,2.417-2.045,2.239,2.239,0,0,1-2.417,2.045" transform="translate(-165.38 -9.793)" fill="#fff"/>
            <path id="Trazado_916539" data-name="Trazado 916539" d="M234.33,27.977l-.138-1.121-.793.019a3.065,3.065,0,0,0-.557-.982l.422-.671-.894-.692-.543.575a3.052,3.052,0,0,0-1.065-.293l-.172-.771-1.122.138.019.79a3.052,3.052,0,0,0-.983.56l-.67-.421-.692.893.576.544a3.056,3.056,0,0,0-.291,1.064l-.774.173.138,1.122.795-.019a3.064,3.064,0,0,0,.558.978l-.424.675.894.692.547-.58a3.054,3.054,0,0,0,1.059.291l.174.779,1.122-.138-.02-.8a3.052,3.052,0,0,0,.977-.556l.676.425.692-.893-.579-.547a3.058,3.058,0,0,0,.293-1.06ZM230.7,29.6a1.736,1.736,0,1,1,1.512-1.934A1.736,1.736,0,0,1,230.7,29.6" transform="translate(-150.809 -15.996)" fill="#fff"/>
            <path id="Trazado_916540" data-name="Trazado 916540" d="M241.675,13.19l0-.684-.478-.046a1.849,1.849,0,0,0-.264-.631l.3-.372-.487-.481-.368.307a1.848,1.848,0,0,0-.619-.254l-.048-.476h-.684l-.046.476a1.855,1.855,0,0,0-.631.265l-.372-.3-.481.487.307.369a1.842,1.842,0,0,0-.252.618l-.478.048,0,.684.479.046a1.852,1.852,0,0,0,.265.628l-.3.375.487.481.371-.309a1.851,1.851,0,0,0,.616.252l.048.481h.684l.046-.481a1.846,1.846,0,0,0,.628-.263l.375.3.481-.487-.309-.37a1.849,1.849,0,0,0,.253-.616Zm-2.3.711a1.051,1.051,0,1,1,1.049-1.053,1.051,1.051,0,0,1-1.049,1.053" transform="translate(-157.743 -7.021)" fill="#fff"/>
            <path id="Trazado_916541" data-name="Trazado 916541" d="M231.132,59.75l-3.075,2.1a3.108,3.108,0,0,1-2.346.488l-13.5-2.61a10.649,10.649,0,0,0-2.03-.195,10.374,10.374,0,0,0-2.006.195l-13.535,2.62a3.106,3.106,0,0,1-2.345-.488l-3.066-2.1a.015.015,0,0,0-.009,0c8.268-6.21,20.2-7.046,20.939-7.088v-.014s12.439.683,20.971,7.092" transform="translate(-125.903 -35.037)" fill="#e83842"/>
            <g id="Grupo_1147725" data-name="Grupo 1147725" transform="translate(63.319 17.62)" opacity="0.6" style="mix-blend-mode: overlay;isolation: isolate">
              <g id="Grupo_1147724" data-name="Grupo 1147724">
                <g id="Grupo_1147723" data-name="Grupo 1147723" clip-path="url(#clip-path-37)">
                  <path id="Trazado_916542" data-name="Trazado 916542" d="M231.132,59.75l-3.075,2.1a3.108,3.108,0,0,1-2.346.488l-13.5-2.61a10.649,10.649,0,0,0-2.03-.195,10.374,10.374,0,0,0-2.006.195l-13.535,2.62a3.106,3.106,0,0,1-2.345-.488l-3.066-2.1a.015.015,0,0,0-.009,0c8.268-6.21,20.2-7.046,20.939-7.088v-.014s12.439.683,20.971,7.092" transform="translate(-189.222 -52.658)" fill="#1a1a1a"/>
                </g>
              </g>
            </g>
            <path id="Trazado_916543" data-name="Trazado 916543" d="M226.15,71.832c-1.746-.278-11.051-3.15-15.948-3.153H210.2c-4.9,0-14.2,2.874-15.948,3.153-1.686.269-4.821-1.314-5-1.407l3.066,2.1a3.108,3.108,0,0,0,2.345.488l13.535-2.62a10.4,10.4,0,0,1,4.006,0l13.535,2.62a3.109,3.109,0,0,0,2.345-.488l3.066-2.1c-.176.093-3.312,1.677-5,1.407" transform="translate(-125.922 -45.697)" fill="#e83842"/>
            <path id="Trazado_916544" data-name="Trazado 916544" d="M394.548,30.445H362.891a7.868,7.868,0,0,0-7.868,7.868v7.353a7.868,7.868,0,0,0,7.868,7.868h9.649l6.179,6.179,6.179-6.179h9.649a7.868,7.868,0,0,0,7.868-7.868V38.313a7.868,7.868,0,0,0-7.868-7.868" transform="translate(-236.223 -20.257)" fill="#5868db"/>
            <path id="Trazado_916545" data-name="Trazado 916545" d="M36.691,70.072l.109-5.458-3.806-.45A14.774,14.774,0,0,0,31,59.086l2.476-2.92-3.8-3.92-2.991,2.38a14.763,14.763,0,0,0-4.894-2.133l-.3-3.807-5.458-.109-.448,3.792A14.769,14.769,0,0,0,10.5,54.374L7.589,51.9l-3.92,3.8L6.052,58.7A14.768,14.768,0,0,0,3.93,63.584l-3.821.3L0,69.34l3.815.451a14.767,14.767,0,0,0,2,5.061L3.325,77.788l3.8,3.92,3.015-2.4a14.768,14.768,0,0,0,4.865,2.115l.3,3.844,5.458.109.452-3.829a14.772,14.772,0,0,0,5.056-1.988l2.94,2.493,3.92-3.8-2.4-3.011a14.77,14.77,0,0,0,2.127-4.871ZM18.168,78.6A11.647,11.647,0,1,1,30.045,67.191,11.647,11.647,0,0,1,18.168,78.6" transform="translate(0 -32.322)" fill="#6edafe"/>
            <path id="Trazado_916546" data-name="Trazado 916546" d="M43.322,80.1a11.8,11.8,0,1,1-11.8-11.8,11.8,11.8,0,0,1,11.8,11.8" transform="translate(-13.119 -45.441)" fill="#fff"/>
            <path id="Trazado_916547" data-name="Trazado 916547" d="M37.485,80.426,26.22,68.585l3.737-3.555,7.381,7.759L53.324,54.638l3.871,3.409Z" transform="translate(-17.446 -36.355)" fill="#5868db"/>
          </g>
        </g>
        <text id="_24_7" data-name="24/7" transform="translate(125.033 26.29)" fill="#fff" font-size="14" font-family="Montserrat-Bold, Montserrat" font-weight="700"><tspan x="0" y="0" letter-spacing="-0.009em">2</tspan><tspan y="0" letter-spacing="0.023em">4</tspan><tspan y="0" letter-spacing="0.006em">/</tspan><tspan y="0">7</tspan></text>
        <g id="Grupo_1147732" data-name="Grupo 1147732">
          <g id="Grupo_1147731" data-name="Grupo 1147731" clip-path="url(#clip-path-3)">
            <g id="Grupo_1147730" data-name="Grupo 1147730" transform="translate(51.599 165.627)" opacity="0.5" style="mix-blend-mode: overlay;isolation: isolate">
              <g id="Grupo_1147729" data-name="Grupo 1147729">
                <g id="Grupo_1147728" data-name="Grupo 1147728" clip-path="url(#clip-path-39)">
                  <text id="SERVICE" transform="translate(0 11.401)" fill="#fff" font-size="13" font-family="Montserrat-ExtraBold, Montserrat" font-weight="800"><tspan x="0" y="0">SER</tspan><tspan y="0" letter-spacing="-0.014em">V</tspan><tspan y="0">ICE</tspan></text>
                </g>
              </g>
            </g>
          </g>
        </g>
      </g>
    </g>
  </g>
</svg>
