<svg xmlns="http://www.w3.org/2000/svg" xmlns:xlink="http://www.w3.org/1999/xlink" width="108" height="108" viewBox="0 0 108 108">
  <defs>
    <filter id="Trazado_904820" x="0" y="0" width="108" height="108" filterUnits="userSpaceOnUse">
      <feOffset dy="3" input="SourceAlpha"/>
      <feGaussianBlur stdDeviation="3" result="blur"/>
      <feFlood flood-opacity="0.161"/>
      <feComposite operator="in" in2="blur"/>
      <feComposite in="SourceGraphic"/>
    </filter>
  </defs>
  <g id="img7" transform="translate(-201 -481)">
    <g id="Icono" transform="translate(-414.101 -4519)">
      <g transform="matrix(1, 0, 0, 1, 615.1, 5000)" filter="url(#Trazado_904820)">
        <g id="Trazado_904820-2" data-name="Trazado 904820" transform="translate(9 6)" fill="#f9f7f4">
          <path d="M 45 88.5 C 39.12687683105469 88.5 33.43022537231445 87.35007476806641 28.06830024719238 85.08217620849609 C 22.88852500915527 82.89131164550781 18.23629951477051 79.75458526611328 14.2408504486084 75.75914764404297 C 10.24541282653809 71.76370239257812 7.108687400817871 67.11147308349609 4.917825222015381 61.93170166015625 C 2.649924993515015 56.56977462768555 1.5 50.87312316894531 1.5 45 C 1.5 39.12687683105469 2.649924993515015 33.43022537231445 4.917825222015381 28.06830024719238 C 7.108687400817871 22.88852500915527 10.24541282653809 18.23629951477051 14.2408504486084 14.2408504486084 C 18.23629951477051 10.24541282653809 22.88852500915527 7.108687400817871 28.06830024719238 4.917825222015381 C 33.43022537231445 2.649924993515015 39.12687683105469 1.5 45 1.5 C 50.87312316894531 1.5 56.56977462768555 2.649924993515015 61.93170166015625 4.917825222015381 C 67.11147308349609 7.108687400817871 71.76370239257812 10.24541282653809 75.75914764404297 14.2408504486084 C 79.75458526611328 18.23629951477051 82.89131164550781 22.88852500915527 85.08217620849609 28.06830024719238 C 87.35007476806641 33.43022537231445 88.5 39.12687683105469 88.5 45 C 88.5 50.87312316894531 87.35007476806641 56.56977462768555 85.08217620849609 61.93170166015625 C 82.89131164550781 67.11147308349609 79.75458526611328 71.76370239257812 75.75914764404297 75.75914764404297 C 71.76370239257812 79.75458526611328 67.11147308349609 82.89131164550781 61.93170166015625 85.08217620849609 C 56.56977462768555 87.35007476806641 50.87312316894531 88.5 45 88.5 Z" stroke="none"/>
          <path d="M 45 3 C 39.32871246337891 3 33.82865524291992 4.110054016113281 28.65262985229492 6.299339294433594 C 23.65165710449219 8.414573669433594 19.15968322753906 11.44334411621094 15.301513671875 15.301513671875 C 11.44334411621094 19.15968322753906 8.414573669433594 23.65165710449219 6.299339294433594 28.65262985229492 C 4.110054016113281 33.82865524291992 3 39.32871246337891 3 45 C 3 50.67128753662109 4.110054016113281 56.17134475708008 6.299339294433594 61.34737396240234 C 8.414573669433594 66.34834289550781 11.44334411621094 70.84031677246094 15.301513671875 74.698486328125 C 19.15968322753906 78.55665588378906 23.65165710449219 81.58542633056641 28.65262985229492 83.70066070556641 C 33.82865524291992 85.88994598388672 39.32871246337891 87 45 87 C 50.67128753662109 87 56.17134475708008 85.88994598388672 61.34737396240234 83.70066070556641 C 66.34834289550781 81.58542633056641 70.84031677246094 78.55665588378906 74.698486328125 74.698486328125 C 78.55665588378906 70.84031677246094 81.58542633056641 66.34834289550781 83.70066070556641 61.34737396240234 C 85.88994598388672 56.17134475708008 87 50.67128753662109 87 45 C 87 39.32871246337891 85.88994598388672 33.82865524291992 83.70066070556641 28.65262985229492 C 81.58542633056641 23.65165710449219 78.55665588378906 19.15968322753906 74.698486328125 15.301513671875 C 70.84031677246094 11.44334411621094 66.34834289550781 8.414573669433594 61.34737396240234 6.299339294433594 C 56.17134475708008 4.110054016113281 50.67128753662109 3 45 3 M 45 0 C 69.85281372070312 0 90 20.14718627929688 90 45 C 90 69.85281372070312 69.85281372070312 90 45 90 C 20.14718627929688 90 0 69.85281372070312 0 45 C 0 20.14718627929688 20.14718627929688 0 45 0 Z" stroke="none" fill="#1d531a"/>
        </g>
      </g>
    </g>
    <g id="evaluation_12594471" transform="translate(215.222 482.127)">
      <path id="Trazado_916454" data-name="Trazado 916454" d="M72.363,374.446a9.929,9.929,0,0,1-4.747,1.217,9.721,9.721,0,0,1-4.392-1.052H29v.652a2.571,2.571,0,0,0,2.567,2.57H75.04A28.1,28.1,0,0,1,72.363,374.446Z" transform="translate(-14.13 -310.893)" fill="#eceff1"/>
      <path id="Trazado_916455" data-name="Trazado 916455" d="M67.35,114.211a.934.934,0,0,1-.5.56L65.5,115.4l-.376.908.516,1.4a.935.935,0,0,1-.216.984l-1.531,1.531a.935.935,0,0,1-.984.216l-1.4-.516-.908.376-.625,1.357a.935.935,0,0,1-.849.544H56.957a.935.935,0,0,1-.849-.544l-.625-1.357-.908-.376-1.169.43v19.716H80.251a9.922,9.922,0,0,1-.533-1.493,9.8,9.8,0,0,1,17.4-8.3V114.211H67.35Z" transform="translate(-35.684 -81.072)" fill="#837683"/>
      <path id="Trazado_916456" data-name="Trazado 916456" d="M324.375,259.243a5.337,5.337,0,0,0-5.142-3.957,5.369,5.369,0,0,0-1.392.185,5.335,5.335,0,1,0,2.762,10.306h0a5.331,5.331,0,0,0,3.771-6.534Z" transform="translate(-265.719 -205.66)" fill="#eceff1"/>
      <path id="Trazado_916457" data-name="Trazado 916457" d="M27.41,65.331a.935.935,0,0,1-.935.935h-.663a.935.935,0,1,1,0-1.87h.663A.935.935,0,0,1,27.41,65.331Zm-4-.935H18.434a.935.935,0,1,0,0,1.87h4.979a.935.935,0,1,0,0-1.87ZM29.5,41.632a.935.935,0,0,1,.935.935v11.2h.559V37.5a.935.935,0,0,1,.935-.935h2.644a.935.935,0,0,1,.935.935V53.764h.476v-13.5a.935.935,0,0,1,.935-.935h2.6a.935.935,0,0,1,.935.935v13.5H40.7a.935.935,0,0,1,0,1.87H20.71a.935.935,0,1,1,0-1.87h.244V47.5a.935.935,0,0,1,.935-.935h2.6a.935.935,0,0,1,.935.935v6.261h.539v-11.2a.935.935,0,0,1,.935-.935ZM22.825,53.764h.731V48.438h-.731Zm15.028,0h.731V41.2h-.731Zm-4.989,0h.774V38.436h-.774Zm-4.3,0V43.5h-.731V53.764ZM48.98,39.283a.935.935,0,1,0,0,1.87h.606a.935.935,0,1,0,0-1.87Zm9.472,0H52.273a.935.935,0,1,0,0,1.87h6.179a.935.935,0,1,0,0-1.87Zm-9.488-.847h9.488a.935.935,0,0,0,0-1.87H48.963a.935.935,0,0,0,0,1.87Zm-6.274,7.892a.931.931,0,0,0,.467-.126l4.034-2.33H58.452a.935.935,0,0,0,0-1.87H46.939a.935.935,0,0,0-.468.125l-4.251,2.455a.935.935,0,0,0,.468,1.745ZM49.9,61.2a7.208,7.208,0,1,1,5.468.72,7.242,7.242,0,0,1-1.877.249A7.16,7.16,0,0,1,49.9,61.2Zm.935-1.619a5.3,5.3,0,0,0,4.049.533h0a5.337,5.337,0,0,0-1.371-10.491,5.37,5.37,0,0,0-1.392.185,5.335,5.335,0,0,0-1.287,9.774ZM69.8,67.974a3.092,3.092,0,0,1-1.01,2.228,3.337,3.337,0,0,1-4.689-.019l-.649-.644c-.283-.281-.558-.553-.827-.822a4.394,4.394,0,0,1-.9.093H45.489l.613,3.053h3.885a3.9,3.9,0,0,1,3.386,3.107l.216.883a.935.935,0,0,1-.908,1.157h-26.2a.935.935,0,0,1-.908-1.157l.215-.881a3.9,3.9,0,0,1,3.386-3.108h3.882l.615-3.053H17.437A4.443,4.443,0,0,1,13,64.37V30.683a.935.935,0,0,1,.543-.849l1.354-.625.376-.908-.516-1.4a.935.935,0,0,1,.215-.984L16.5,24.384a.935.935,0,0,1,.985-.217l1.4.517.907-.374.625-1.356a.935.935,0,0,1,.849-.544H23.44a.935.935,0,0,1,.849.544l.625,1.356.907.374,1.4-.517a.935.935,0,0,1,.985.217l1.531,1.534a.935.935,0,0,1,.215.984l-.516,1.4.046.112H61.726a4.442,4.442,0,0,1,4.437,4.437V62.843c.661.63,1.315,1.29,2.018,2l.629.634a3.4,3.4,0,0,1,.989,2.5Zm-9.185-4.3,1.681-1.681c-.374-.282-.766-.562-1.184-.842A9.71,9.71,0,0,1,59.778,62.5c.277.413.555.8.834,1.171ZM14.87,36.329l.4-1.1-.376-.908-.027-.013Zm0,25.519H46.522a9.678,9.678,0,0,1-.851-.983H17.437a1.586,1.586,0,0,1-1.584-1.584V38.5l-.879-.879a.935.935,0,0,1-.1-.126ZM29.74,37.619,28.209,39.15a.935.935,0,0,1-.984.216l-1.4-.516-.908.376-.625,1.357a.935.935,0,0,1-.849.544H21.273a.935.935,0,0,1-.849-.544L19.8,39.226l-.908-.376-1.169.43V59H44.568a9.922,9.922,0,0,1-.533-1.493,9.8,9.8,0,0,1,17.4-8.3V33.139H31.666a.934.934,0,0,1-.5.56l-1.354.625-.376.908.516,1.4a.935.935,0,0,1-.216.984Zm19.8,24.214a7.878,7.878,0,0,0,6.02.792h0a7.935,7.935,0,0,0,5.88-7.752v-.034a7.99,7.99,0,0,0-.273-1.929,7.941,7.941,0,0,0-7.651-5.884,7.986,7.986,0,0,0-2.065.273,7.934,7.934,0,0,0-1.912,14.533Zm12.189-31.55h-30.1a.933.933,0,0,1,.091.4v.586H61.725a1.583,1.583,0,0,1,1.581,1.581V54.8c0,.043,0,.087,0,.13v4.355a1.576,1.576,0,0,1-.292.914c.451.327.873.654,1.277.985V32.85a2.57,2.57,0,0,0-2.567-2.567ZM14.87,32.252l1.143.528a.935.935,0,0,1,.472.491l.656,1.584a.935.935,0,0,1,.014.681l-.436,1.185.685.685,1.185-.436a.935.935,0,0,1,.681.014l1.584.656a.935.935,0,0,1,.491.473l.528,1.146h.969l.528-1.146a.935.935,0,0,1,.491-.473l1.584-.656a.935.935,0,0,1,.681-.014l1.185.436.685-.685-.436-1.185a.935.935,0,0,1,.014-.681l.656-1.584a.935.935,0,0,1,.472-.491l1.143-.528v-.97L28.7,30.753a.935.935,0,0,1-.472-.491l-.656-1.584A.936.936,0,0,1,27.559,28l.436-1.182-.686-.687-1.184.436a.935.935,0,0,1-.679-.013L23.862,25.9a.934.934,0,0,1-.493-.473l-.528-1.146h-.969l-.528,1.146a.935.935,0,0,1-.493.473l-1.584.653a.935.935,0,0,1-.679.013L17.4,26.129l-.685.687L17.155,28a.936.936,0,0,1-.013.681l-.656,1.584a.935.935,0,0,1-.472.491l-1.143.528ZM49.987,73.733H29.175c-.492,0-1.18.585-1.485,1.407H51.472c-.3-.821-.993-1.407-1.485-1.407Zm-6.4-4.923h-8l-.615,3.053H44.2ZM60.91,66.94a28.09,28.09,0,0,1-2.677-3.387,9.929,9.929,0,0,1-4.747,1.217,9.721,9.721,0,0,1-4.392-1.052H14.87v.652a2.572,2.572,0,0,0,2.567,2.57H60.91Zm7.019.979a1.528,1.528,0,0,0-.444-1.122l-.634-.639c-1.082-1.093-2.045-2.064-3.1-2.983L61.8,65.127c.915,1.048,1.88,2.006,2.967,3.083l.653.649a1.461,1.461,0,0,0,2.065,0l.04-.038a1.24,1.24,0,0,0,.4-.9ZM18.317,31.767a4.039,4.039,0,1,1,4.039,4.039,4.042,4.042,0,0,1-4.039-4.039Zm1.87,0A2.169,2.169,0,1,0,22.357,29.6,2.172,2.172,0,0,0,20.187,31.767ZM52.6,57.632a.933.933,0,0,0,.648-.261l3.608-3.465a.935.935,0,1,0-1.3-1.349l-2.947,2.831L51.457,54.23a.935.935,0,0,0-1.322,1.322l1.806,1.806a.932.932,0,0,0,.661.274Z" transform="translate(0 0)"/>
      <path id="Trazado_916458" data-name="Trazado 916458" d="M59.8,174.842H31.567a1.586,1.586,0,0,1-1.584-1.584V152.475L29.1,151.6a.935.935,0,0,1-.1-.126v24.355H60.652A9.7,9.7,0,0,1,59.8,174.842Z" transform="translate(-14.13 -113.977)" fill="#eceff1"/>
      <path id="Trazado_916459" data-name="Trazado 916459" d="M138.693,462.963h23.782c-.3-.821-.993-1.407-1.485-1.407H140.178c-.492,0-1.18.585-1.485,1.407Z" transform="translate(-111.003 -387.823)" fill="#eceff1"/>
      <path id="Trazado_916460" data-name="Trazado 916460" d="M29.027,124.256,29,124.243v2.017l.4-1.1Z" transform="translate(-14.13 -89.932)" fill="#837683"/>
      <path id="Trazado_916461" data-name="Trazado 916461" d="M30.615,47.4l.656,1.584a.935.935,0,0,1,.014.681l-.436,1.185.685.685,1.185-.436a.935.935,0,0,1,.681.014l1.584.656a.935.935,0,0,1,.491.473L36,53.384h.969l.528-1.146a.935.935,0,0,1,.491-.473l1.584-.656a.935.935,0,0,1,.681-.014l1.185.436.685-.685-.436-1.185a.935.935,0,0,1,.014-.681l.656-1.584a.935.935,0,0,1,.472-.491l1.143-.528v-.97l-1.143-.528a.935.935,0,0,1-.472-.491L41.7,42.806a.936.936,0,0,1-.013-.681l.436-1.182-.686-.687-1.184.436a.935.935,0,0,1-.679-.013l-1.584-.653a.934.934,0,0,1-.493-.473l-.528-1.146H36l-.528,1.146a.935.935,0,0,1-.493.473l-1.584.653a.935.935,0,0,1-.679.013l-1.184-.436-.685.687.436,1.182a.935.935,0,0,1-.013.681l-.656,1.584a.935.935,0,0,1-.472.491L29,45.409v.97l1.143.528A.935.935,0,0,1,30.615,47.4Zm5.872-5.54a4.038,4.038,0,1,1-4.039,4.036,4.042,4.042,0,0,1,4.039-4.036Z" transform="translate(-14.13 -14.127)" fill="#ffc338"/>
      <path id="Trazado_916462" data-name="Trazado 916462" d="M414.59,353.864a9.712,9.712,0,0,1-1.332,1.352c.278.413.555.8.834,1.171l1.681-1.681c-.374-.282-.766-.562-1.184-.842Z" transform="translate(-353.48 -292.717)" fill="#a79ba7"/>
      <path id="Trazado_916463" data-name="Trazado 916463" d="M201.554,419.431l-.615,3.053h9.231l-.613-3.053Z" transform="translate(-165.974 -350.621)" fill="#b9b9c6"/>
      <path id="Trazado_916464" data-name="Trazado 916464" d="M76.667,88.271A2.168,2.168,0,1,0,74.5,86.1,2.172,2.172,0,0,0,76.667,88.271Z" transform="translate(-54.311 -54.335)" fill="#eceff1"/>
      <path id="Trazado_916465" data-name="Trazado 916465" d="M435.605,374.2c-1.082-1.093-2.045-2.064-3.1-2.983l-1.953,1.953c.915,1.048,1.88,2.006,2.967,3.083l.653.648a1.462,1.462,0,0,0,2.065,0l.04-.038a1.24,1.24,0,0,0,.4-.9,1.528,1.528,0,0,0-.444-1.122l-.634-.639Z" transform="translate(-368.754 -308.038)" fill="#e3a76f"/>
      <path id="Trazado_916466" data-name="Trazado 916466" d="M97.063,245.121h.731v5.326h-.731Z" transform="translate(-74.238 -196.683)" fill="#fe646f"/>
      <path id="Trazado_916467" data-name="Trazado 916467" d="M172.433,90.761h30.012a1.583,1.583,0,0,1,1.581,1.581v21.946c0,.043,0,.087,0,.13v4.355a1.576,1.576,0,0,1-.292.914c.451.327.873.654,1.277.985V92.342a2.57,2.57,0,0,0-2.567-2.567h-30.1a.932.932,0,0,1,.091.4Z" transform="translate(-140.72 -59.492)" fill="#d1d1d6"/>
      <path id="Trazado_916468" data-name="Trazado 916468" d="M139.925,202.883h.731v10.262h-.731Z" transform="translate(-112.091 -159.381)" fill="#ffe177"/>
      <path id="Trazado_916469" data-name="Trazado 916469" d="M182.957,159.538h.774v15.328h-.774Z" transform="translate(-150.094 -121.102)" fill="#6cf5c2"/>
      <g id="Grupo_1147623" data-name="Grupo 1147623" transform="translate(37.852 41.199)">
        <path id="Trazado_916470" data-name="Trazado 916470" d="M225.648,183.181h.731v12.565h-.731Z" transform="translate(-225.648 -183.181)" fill="#8ac9fe"/>
        <path id="Trazado_916471" data-name="Trazado 916471" d="M303.56,234.112a7.891,7.891,0,0,0-3.956-1.067,7.985,7.985,0,0,0-2.065.273,7.933,7.933,0,0,0,4.108,15.325h0a7.935,7.935,0,0,0,5.88-7.752v-.034a7.992,7.992,0,0,0-.273-1.929,7.875,7.875,0,0,0-3.695-4.817Zm2.275,10.474a7.151,7.151,0,0,1-4.376,3.356,7.243,7.243,0,0,1-1.877.249,7.207,7.207,0,1,1,6.254-3.605Z" transform="translate(-283.944 -227.217)" fill="#8ac9fe"/>
      </g>
    </g>
  </g>
</svg>
