<svg xmlns="http://www.w3.org/2000/svg" xmlns:xlink="http://www.w3.org/1999/xlink" width="108" height="108" viewBox="0 0 108 108">
  <defs>
    <filter id="Trazado_904820" x="0" y="0" width="108" height="108" filterUnits="userSpaceOnUse">
      <feOffset dy="3" input="SourceAlpha"/>
      <feGaussianBlur stdDeviation="3" result="blur"/>
      <feFlood flood-opacity="0.161"/>
      <feComposite operator="in" in2="blur"/>
      <feComposite in="SourceGraphic"/>
    </filter>
  </defs>
  <g id="img7" transform="translate(9 6)">
    <g id="Icono">
      <g transform="matrix(1, 0, 0, 1, -9, -6)" filter="url(#Trazado_904820)">
        <g id="Trazado_904820-2" data-name="Trazado 904820" transform="translate(9 6)" fill="#f3f0ea">
          <path d="M 45 88.5 C 39.12687683105469 88.5 33.43022537231445 87.35007476806641 28.06830024719238 85.08217620849609 C 22.88852500915527 82.89131164550781 18.23629951477051 79.75458526611328 14.2408504486084 75.75914764404297 C 10.24541282653809 71.76370239257812 7.108687400817871 67.11147308349609 4.917825222015381 61.93170166015625 C 2.649924993515015 56.56977462768555 1.5 50.87312316894531 1.5 45 C 1.5 39.12687683105469 2.649924993515015 33.43022537231445 4.917825222015381 28.06830024719238 C 7.108687400817871 22.88852500915527 10.24541282653809 18.23629951477051 14.2408504486084 14.2408504486084 C 18.23629951477051 10.24541282653809 22.88852500915527 7.108687400817871 28.06830024719238 4.917825222015381 C 33.43022537231445 2.649924993515015 39.12687683105469 1.5 45 1.5 C 50.87312316894531 1.5 56.56977462768555 2.649924993515015 61.93170166015625 4.917825222015381 C 67.11147308349609 7.108687400817871 71.76370239257812 10.24541282653809 75.75914764404297 14.2408504486084 C 79.75458526611328 18.23629951477051 82.89131164550781 22.88852500915527 85.08217620849609 28.06830024719238 C 87.35007476806641 33.43022537231445 88.5 39.12687683105469 88.5 45 C 88.5 50.87312316894531 87.35007476806641 56.56977462768555 85.08217620849609 61.93170166015625 C 82.89131164550781 67.11147308349609 79.75458526611328 71.76370239257812 75.75914764404297 75.75914764404297 C 71.76370239257812 79.75458526611328 67.11147308349609 82.89131164550781 61.93170166015625 85.08217620849609 C 56.56977462768555 87.35007476806641 50.87312316894531 88.5 45 88.5 Z" stroke="none"/>
          <path d="M 45 3 C 39.32871246337891 3 33.82865524291992 4.110054016113281 28.65262985229492 6.299339294433594 C 23.65165710449219 8.414573669433594 19.15968322753906 11.44334411621094 15.301513671875 15.301513671875 C 11.44334411621094 19.15968322753906 8.414573669433594 23.65165710449219 6.299339294433594 28.65262985229492 C 4.110054016113281 33.82865524291992 3 39.32871246337891 3 45 C 3 50.67128753662109 4.110054016113281 56.17134475708008 6.299339294433594 61.34737396240234 C 8.414573669433594 66.34834289550781 11.44334411621094 70.84031677246094 15.301513671875 74.698486328125 C 19.15968322753906 78.55665588378906 23.65165710449219 81.58542633056641 28.65262985229492 83.70066070556641 C 33.82865524291992 85.88994598388672 39.32871246337891 87 45 87 C 50.67128753662109 87 56.17134475708008 85.88994598388672 61.34737396240234 83.70066070556641 C 66.34834289550781 81.58542633056641 70.84031677246094 78.55665588378906 74.698486328125 74.698486328125 C 78.55665588378906 70.84031677246094 81.58542633056641 66.34834289550781 83.70066070556641 61.34737396240234 C 85.88994598388672 56.17134475708008 87 50.67128753662109 87 45 C 87 39.32871246337891 85.88994598388672 33.82865524291992 83.70066070556641 28.65262985229492 C 81.58542633056641 23.65165710449219 78.55665588378906 19.15968322753906 74.698486328125 15.301513671875 C 70.84031677246094 11.44334411621094 66.34834289550781 8.414573669433594 61.34737396240234 6.299339294433594 C 56.17134475708008 4.110054016113281 50.67128753662109 3 45 3 M 45 0 C 69.85281372070312 0 90 20.14718627929688 90 45 C 90 69.85281372070312 69.85281372070312 90 45 90 C 20.14718627929688 90 0 69.85281372070312 0 45 C 0 20.14718627929688 20.14718627929688 0 45 0 Z" stroke="none" fill="#1d531a"/>
        </g>
      </g>
    </g>
    <g id="server-protection-database-protect-network" transform="translate(17 13)">
      <path id="Trazado_916693" data-name="Trazado 916693" d="M7,49H35a4,4,0,0,1,4,4v-.121a4.013,4.013,0,0,0-.368-1.677l-4.559-7.878A4,4,0,0,0,30.441,41H11.559a4,4,0,0,0-3.632,2.324L3.368,51.2A4.013,4.013,0,0,0,3,52.879V53a4,4,0,0,1,4-4Z" fill="#939598"/>
      <rect id="Rect치ngulo_408031" data-name="Rect치ngulo 408031" width="36" height="12" rx="4" transform="translate(3 49)" fill="#2488ff"/>
      <path id="Trazado_916694" data-name="Trazado 916694" d="M35.471,49.047A3.959,3.959,0,0,1,36,51v4a4,4,0,0,1-4,4H4a4.06,4.06,0,0,1-.471-.047A3.981,3.981,0,0,0,7,61H35a4,4,0,0,0,4-4V53a3.986,3.986,0,0,0-3.529-3.953Z" fill="#006df0"/>
      <path id="Trazado_916695" data-name="Trazado 916695" d="M23,53H35v4H23Z" fill="#ffcd00"/>
      <path id="Trazado_916696" data-name="Trazado 916696" d="M61,25.83v3.18a20.005,20.005,0,0,1-9.176,16.818L50,47l-1.82-1.17A20.007,20.007,0,0,1,39,29.01V25.83L50,21Z" fill="#7ed63e"/>
      <path id="Trazado_916697" data-name="Trazado 916697" d="M46,31h8v7H46Z" fill="#ed1c24"/>
      <path id="Trazado_916698" data-name="Trazado 916698" d="M38.632,51.2l-4.559-7.878A4,4,0,0,0,30.441,41h-.816l2.463,3.94a2,2,0,0,1-1.7,3.06H5.221L3.368,51.2A4.013,4.013,0,0,0,3,52.879V53a4,4,0,0,1,4-4H35a4,4,0,0,1,4,4v-.121a4.013,4.013,0,0,0-.368-1.679Z" fill="#808285"/>
      <path id="Trazado_916699" data-name="Trazado 916699" d="M7,11H35a4,4,0,0,1,4,4v-.121a4.013,4.013,0,0,0-.368-1.677L34.073,5.324A4,4,0,0,0,30.441,3H11.559A4,4,0,0,0,7.927,5.324L3.368,13.2A4.013,4.013,0,0,0,3,14.879V15a4,4,0,0,1,4-4Z" fill="#939598"/>
      <rect id="Rect치ngulo_408032" data-name="Rect치ngulo 408032" width="36" height="12" rx="4" transform="translate(3 11)" fill="#2488ff"/>
      <path id="Trazado_916700" data-name="Trazado 916700" d="M35.471,11.047A3.959,3.959,0,0,1,36,13v4a4,4,0,0,1-4,4H4a4.061,4.061,0,0,1-.471-.047A3.981,3.981,0,0,0,7,23H35a4,4,0,0,0,4-4V15a3.986,3.986,0,0,0-3.529-3.953Z" fill="#006df0"/>
      <path id="Trazado_916701" data-name="Trazado 916701" d="M23,15H35v4H23Z" fill="#ffcd00"/>
      <path id="Trazado_916702" data-name="Trazado 916702" d="M38.632,13.2,34.073,5.324A4,4,0,0,0,30.441,3h-.816l2.463,3.94a2,2,0,0,1-1.7,3.06H5.221L3.368,13.2A4.013,4.013,0,0,0,3,14.879V15a4,4,0,0,1,4-4H35a4,4,0,0,1,4,4v-.121a4.013,4.013,0,0,0-.368-1.679Z" fill="#808285"/>
      <g id="Grupo_1147781" data-name="Grupo 1147781">
        <path id="Trazado_916703" data-name="Trazado 916703" d="M39.54,50.78a.594.594,0,0,1-.04-.08l-4.52-7.8A5.017,5.017,0,0,0,30.44,40H11.56a4.98,4.98,0,0,0-4.5,2.82l-4.6,7.96A5.094,5.094,0,0,0,2,52.88V57a5,5,0,0,0,5,5H35a5,5,0,0,0,5-5V52.88a5.094,5.094,0,0,0-.46-2.1ZM8.84,43.74A2.985,2.985,0,0,1,11.56,42H30.44a3.051,3.051,0,0,1,2.77,1.82l2.45,4.25A4.759,4.759,0,0,0,35,48H7a4.759,4.759,0,0,0-.66.07ZM38,57a3.009,3.009,0,0,1-3,3H7a3.009,3.009,0,0,1-3-3V53a3.009,3.009,0,0,1,3-3H35a3.009,3.009,0,0,1,3,3Z" fill="#231f20"/>
        <path id="Trazado_916704" data-name="Trazado 916704" d="M18,56h2v2H18Z" fill="#231f20"/>
        <path id="Trazado_916705" data-name="Trazado 916705" d="M15,56h2v2H15Z" fill="#231f20"/>
        <path id="Trazado_916706" data-name="Trazado 916706" d="M12,56h2v2H12Z" fill="#231f20"/>
        <path id="Trazado_916707" data-name="Trazado 916707" d="M9,56h2v2H9Z" fill="#231f20"/>
        <path id="Trazado_916708" data-name="Trazado 916708" d="M6,56H8v2H6Z" fill="#231f20"/>
        <path id="Trazado_916709" data-name="Trazado 916709" d="M18,52h2v2H18Z" fill="#231f20"/>
        <path id="Trazado_916710" data-name="Trazado 916710" d="M15,52h2v2H15Z" fill="#231f20"/>
        <path id="Trazado_916711" data-name="Trazado 916711" d="M12,52h2v2H12Z" fill="#231f20"/>
        <path id="Trazado_916712" data-name="Trazado 916712" d="M9,52h2v2H9Z" fill="#231f20"/>
        <path id="Trazado_916713" data-name="Trazado 916713" d="M6,52H8v2H6Z" fill="#231f20"/>
        <path id="Trazado_916714" data-name="Trazado 916714" d="M35,52H23a1,1,0,0,0-1,1v4a1,1,0,0,0,1,1H35a1,1,0,0,0,1-1V53A1,1,0,0,0,35,52Zm-1,4H24V54H34Z" fill="#231f20"/>
        <path id="Trazado_916715" data-name="Trazado 916715" d="M39.54,12.78a.594.594,0,0,1-.04-.08L34.98,4.9A5.017,5.017,0,0,0,30.44,2H11.56a4.98,4.98,0,0,0-4.5,2.82l-4.6,7.96A5.094,5.094,0,0,0,2,14.88V19a5,5,0,0,0,5,5H35a5,5,0,0,0,5-5V14.88a5.094,5.094,0,0,0-.46-2.1ZM8.84,5.74A2.985,2.985,0,0,1,11.56,4H30.44a3.051,3.051,0,0,1,2.77,1.82l2.45,4.25A4.759,4.759,0,0,0,35,10H7a4.759,4.759,0,0,0-.66.07ZM38,19a3.009,3.009,0,0,1-3,3H7a3.009,3.009,0,0,1-3-3V15a3.009,3.009,0,0,1,3-3H35a3.009,3.009,0,0,1,3,3Z" fill="#231f20"/>
        <path id="Trazado_916716" data-name="Trazado 916716" d="M18,18h2v2H18Z" fill="#231f20"/>
        <path id="Trazado_916717" data-name="Trazado 916717" d="M15,18h2v2H15Z" fill="#231f20"/>
        <path id="Trazado_916718" data-name="Trazado 916718" d="M12,18h2v2H12Z" fill="#231f20"/>
        <path id="Trazado_916719" data-name="Trazado 916719" d="M9,18h2v2H9Z" fill="#231f20"/>
        <path id="Trazado_916720" data-name="Trazado 916720" d="M6,18H8v2H6Z" fill="#231f20"/>
        <path id="Trazado_916721" data-name="Trazado 916721" d="M18,14h2v2H18Z" fill="#231f20"/>
        <path id="Trazado_916722" data-name="Trazado 916722" d="M15,14h2v2H15Z" fill="#231f20"/>
        <path id="Trazado_916723" data-name="Trazado 916723" d="M12,14h2v2H12Z" fill="#231f20"/>
        <path id="Trazado_916724" data-name="Trazado 916724" d="M9,14h2v2H9Z" fill="#231f20"/>
        <path id="Trazado_916725" data-name="Trazado 916725" d="M6,14H8v2H6Z" fill="#231f20"/>
        <path id="Trazado_916726" data-name="Trazado 916726" d="M35,14H23a1,1,0,0,0-1,1v4a1,1,0,0,0,1,1H35a1,1,0,0,0,1-1V15A1,1,0,0,0,35,14Zm-1,4H24V16H34Z" fill="#231f20"/>
        <path id="Trazado_916727" data-name="Trazado 916727" d="M61.4,24.915l-11-4.831a1,1,0,0,0-.8,0l-11,4.831a1,1,0,0,0-.6.915v3.179a20.915,20.915,0,0,0,9.642,17.664l1.817,1.168a1,1,0,0,0,1.082,0l1.818-1.169A20.914,20.914,0,0,0,62,29.009V25.83a1,1,0,0,0-.6-.915ZM60,29.009a18.921,18.921,0,0,1-8.723,15.98L50,45.811l-1.276-.821A18.921,18.921,0,0,1,40,29.009V26.483l10-4.391,10,4.391Z" fill="#231f20"/>
        <path id="Trazado_916728" data-name="Trazado 916728" d="M46,30a1,1,0,0,0-1,1v7a1,1,0,0,0,1,1h8a1,1,0,0,0,1-1V31a1,1,0,0,0-1-1,4,4,0,0,0-8,0Zm7,7H47V32h6Zm-1-7H48a2,2,0,0,1,4,0Z" fill="#231f20"/>
        <path id="Trazado_916729" data-name="Trazado 916729" d="M50,36a1,1,0,0,0,1-1V34a1,1,0,0,0-2,0v1A1,1,0,0,0,50,36Z" fill="#231f20"/>
        <path id="Trazado_916730" data-name="Trazado 916730" d="M40,9h9v8a1,1,0,0,0,2,0V8a1,1,0,0,0-1-1H40a1,1,0,0,0,0,2Z" fill="#231f20"/>
        <path id="Trazado_916731" data-name="Trazado 916731" d="M50,50a1,1,0,0,0-1,1v4H42a1,1,0,0,0,0,2h8a1,1,0,0,0,1-1V51A1,1,0,0,0,50,50Z" fill="#231f20"/>
        <path id="Trazado_916732" data-name="Trazado 916732" d="M17,38a1,1,0,0,0,1-1V29.414l1.293,1.293a1,1,0,1,0,1.414-1.414l-3-3a1,1,0,0,0-1.414,0l-3,3a1,1,0,1,0,1.414,1.414L16,29.414V37A1,1,0,0,0,17,38Z" fill="#231f20"/>
        <path id="Trazado_916733" data-name="Trazado 916733" d="M24.293,37.707a1,1,0,0,0,1.414,0l3-3a1,1,0,1,0-1.414-1.414L26,34.586V27a1,1,0,1,0-2,0v7.586l-1.293-1.293a1,1,0,1,0-1.414,1.414Z" fill="#231f20"/>
      </g>
    </g>
  </g>
</svg>
