<svg xmlns="http://www.w3.org/2000/svg" xmlns:xlink="http://www.w3.org/1999/xlink" width="108" height="108" viewBox="0 0 108 108">
  <defs>
    <filter id="Trazado_904820" x="0" y="0" width="108" height="108" filterUnits="userSpaceOnUse">
      <feOffset dy="3" input="SourceAlpha"/>
      <feGaussianBlur stdDeviation="3" result="blur"/>
      <feFlood flood-opacity="0.161"/>
      <feComposite operator="in" in2="blur"/>
      <feComposite in="SourceGraphic"/>
    </filter>
  </defs>
  <g id="img8" transform="translate(-201 -3257)">
    <g id="Grupo_1147018" data-name="Grupo 1147018" transform="translate(210 3263)">
      <g id="Icono">
        <g transform="matrix(1, 0, 0, 1, -9, -6)" filter="url(#Trazado_904820)">
          <g id="Trazado_904820-2" data-name="Trazado 904820" transform="translate(9 6)" fill="#f9f7f4">
            <path d="M 45 88.5 C 39.12687683105469 88.5 33.43022537231445 87.35007476806641 28.06830024719238 85.08217620849609 C 22.88852500915527 82.89131164550781 18.23629951477051 79.75458526611328 14.2408504486084 75.75914764404297 C 10.24541282653809 71.76370239257812 7.108687400817871 67.11147308349609 4.917825222015381 61.93170166015625 C 2.649924993515015 56.56977462768555 1.5 50.87312316894531 1.5 45 C 1.5 39.12687683105469 2.649924993515015 33.43022537231445 4.917825222015381 28.06830024719238 C 7.108687400817871 22.88852500915527 10.24541282653809 18.23629951477051 14.2408504486084 14.2408504486084 C 18.23629951477051 10.24541282653809 22.88852500915527 7.108687400817871 28.06830024719238 4.917825222015381 C 33.43022537231445 2.649924993515015 39.12687683105469 1.5 45 1.5 C 50.87312316894531 1.5 56.56977462768555 2.649924993515015 61.93170166015625 4.917825222015381 C 67.11147308349609 7.108687400817871 71.76370239257812 10.24541282653809 75.75914764404297 14.2408504486084 C 79.75458526611328 18.23629951477051 82.89131164550781 22.88852500915527 85.08217620849609 28.06830024719238 C 87.35007476806641 33.43022537231445 88.5 39.12687683105469 88.5 45 C 88.5 50.87312316894531 87.35007476806641 56.56977462768555 85.08217620849609 61.93170166015625 C 82.89131164550781 67.11147308349609 79.75458526611328 71.76370239257812 75.75914764404297 75.75914764404297 C 71.76370239257812 79.75458526611328 67.11147308349609 82.89131164550781 61.93170166015625 85.08217620849609 C 56.56977462768555 87.35007476806641 50.87312316894531 88.5 45 88.5 Z" stroke="none"/>
            <path d="M 45 3 C 39.32871246337891 3 33.82865524291992 4.110054016113281 28.65262985229492 6.299339294433594 C 23.65165710449219 8.414573669433594 19.15968322753906 11.44334411621094 15.301513671875 15.301513671875 C 11.44334411621094 19.15968322753906 8.414573669433594 23.65165710449219 6.299339294433594 28.65262985229492 C 4.110054016113281 33.82865524291992 3 39.32871246337891 3 45 C 3 50.67128753662109 4.110054016113281 56.17134475708008 6.299339294433594 61.34737396240234 C 8.414573669433594 66.34834289550781 11.44334411621094 70.84031677246094 15.301513671875 74.698486328125 C 19.15968322753906 78.55665588378906 23.65165710449219 81.58542633056641 28.65262985229492 83.70066070556641 C 33.82865524291992 85.88994598388672 39.32871246337891 87 45 87 C 50.67128753662109 87 56.17134475708008 85.88994598388672 61.34737396240234 83.70066070556641 C 66.34834289550781 81.58542633056641 70.84031677246094 78.55665588378906 74.698486328125 74.698486328125 C 78.55665588378906 70.84031677246094 81.58542633056641 66.34834289550781 83.70066070556641 61.34737396240234 C 85.88994598388672 56.17134475708008 87 50.67128753662109 87 45 C 87 39.32871246337891 85.88994598388672 33.82865524291992 83.70066070556641 28.65262985229492 C 81.58542633056641 23.65165710449219 78.55665588378906 19.15968322753906 74.698486328125 15.301513671875 C 70.84031677246094 11.44334411621094 66.34834289550781 8.414573669433594 61.34737396240234 6.299339294433594 C 56.17134475708008 4.110054016113281 50.67128753662109 3 45 3 M 45 0 C 69.85281372070312 0 90 20.14718627929688 90 45 C 90 69.85281372070312 69.85281372070312 90 45 90 C 20.14718627929688 90 0 69.85281372070312 0 45 C 0 20.14718627929688 20.14718627929688 0 45 0 Z" stroke="none" fill="#1d531a"/>
          </g>
        </g>
      </g>
    </g>
    <g id="Layer_2" transform="translate(214.181 3274.488)">
      <g id="Grupo_1147787" data-name="Grupo 1147787" transform="translate(12.91 3.263)">
        <g id="Grupo_1147785" data-name="Grupo 1147785" transform="translate(0.606 0.606)">
          <path id="Trazado_916734" data-name="Trazado 916734" d="M116.532,208.221h-10.8l.643-6.022.429-4.041h8.656l.429,4.041Z" transform="translate(-83.829 -151.502)" fill="#efefef"/>
          <path id="Trazado_916735" data-name="Trazado 916735" d="M117.9,202.2h-9.515l.429-4.041h8.656Z" transform="translate(-85.836 -151.502)" fill="#afafaf"/>
          <path id="Trazado_916736" data-name="Trazado 916736" d="M70.016,50.028V83.949a2.424,2.424,0,0,1-2.425,2.425H17.835a2.424,2.424,0,0,1-2.425-2.425V50.028A2.424,2.424,0,0,1,17.835,47.6H67.591A2.424,2.424,0,0,1,70.016,50.028Z" transform="translate(-15.41 -37.457)" fill="#71c1e8"/>
          <path id="Trazado_916737" data-name="Trazado 916737" d="M86.6,50.712H47.723a2.475,2.475,0,0,1,.293-1.689l.817-1.416H85.485l.817,1.416A2.475,2.475,0,0,1,86.6,50.712Z" transform="translate(-39.857 -37.46)" fill="#4ba5c8"/>
          <path id="Trazado_916738" data-name="Trazado 916738" d="M76.613,61.629V87.252A1.213,1.213,0,0,1,75.4,88.464H29.432a1.213,1.213,0,0,1-1.212-1.213V61.629a1.213,1.213,0,0,1,1.212-1.212H75.4A1.213,1.213,0,0,1,76.613,61.629Z" transform="translate(-25.114 -47.163)" fill="#f0c020"/>
          <path id="Trazado_916739" data-name="Trazado 916739" d="M86.3,71.992,82.473,78.62a2.5,2.5,0,0,1-3.407.912l-.958-.553A17.664,17.664,0,0,1,73.8,81.527v1.232a2.5,2.5,0,0,1-2.493,2.5H63.01a2.5,2.5,0,0,1-2.493-2.5V81.527a17.663,17.663,0,0,1-4.312-2.549l-.958.553a2.5,2.5,0,0,1-3.407-.912l-3.827-6.628a2.492,2.492,0,0,1,.914-3.407l.955-.55a17.6,17.6,0,0,1,0-5.352l-.955-.55a2.475,2.475,0,0,1-1.208-1.719H86.593a2.475,2.475,0,0,1-1.208,1.719l-.955.55a17.6,17.6,0,0,1,0,5.352l.955.55a2.492,2.492,0,0,1,.914,3.407Z" transform="translate(-39.854 -47.16)" fill="#e8a61e"/>
          <path id="Trazado_916740" data-name="Trazado 916740" d="M102.261,237.588H83.133A1.738,1.738,0,0,1,81.4,235.85v-.573a1.738,1.738,0,0,1,1.738-1.738h19.128A1.738,1.738,0,0,1,104,235.278v.573a1.737,1.737,0,0,1-1.737,1.738Z" transform="translate(-65.394 -178.304)" fill="#71c1e8"/>
          <path id="Trazado_916741" data-name="Trazado 916741" d="M55.081,28.658l2-1.155a15.9,15.9,0,0,1,0-7.085l-2-1.155a.8.8,0,0,1-.292-1.089l3.825-6.626a.8.8,0,0,1,1.089-.292l2,1.157a15.769,15.769,0,0,1,5.811-3.443V6.56a.8.8,0,0,1,.8-.8h8.293a.8.8,0,0,1,.8.8V8.972a15.769,15.769,0,0,1,5.811,3.443l2-1.157a.8.8,0,0,1,1.089.292l3.825,6.626a.8.8,0,0,1-.292,1.089l-2,1.155a15.9,15.9,0,0,1,0,7.085l2,1.155a.8.8,0,0,1,.292,1.089l-3.825,6.626a.8.8,0,0,1-1.089.292l-2-1.157a15.769,15.769,0,0,1-5.811,3.443v2.411a.8.8,0,0,1-.8.8H68.315a.8.8,0,0,1-.8-.8V38.951a15.769,15.769,0,0,1-5.811-3.443l-2,1.157a.8.8,0,0,1-1.089-.292l-3.825-6.626A.8.8,0,0,1,55.081,28.658Z" transform="translate(-45.159 -5.763)" fill="#fc5d3d"/>
          <circle id="Elipse_11574" data-name="Elipse 11574" cx="12.035" cy="12.035" r="12.035" transform="translate(15.268 6.163)" fill="#efefef"/>
          <path id="Trazado_916742" data-name="Trazado 916742" d="M111.249,48.912h-1.078V42.3a1.7,1.7,0,0,0-1.7-1.7h-5.226a1.7,1.7,0,0,0-1.7,1.7v6.612h-1.078a1.7,1.7,0,0,0-1.321,2.764l3.157,3.911h-1.365a1.7,1.7,0,0,0,0,3.395h9.834a1.7,1.7,0,0,0,0-3.395h-1.365l3.157-3.911A1.7,1.7,0,0,0,111.249,48.912Z" transform="translate(-78.557 -32.154)" fill="#afafaf"/>
          <g id="Grupo_1147782" data-name="Grupo 1147782" transform="translate(21.915 10.146)">
            <path id="Trazado_916743" data-name="Trazado 916743" d="M113.781,55.912V47.6h-5.225v8.309H105.78l5.388,6.675,5.388-6.675Z" transform="translate(-105.78 -47.603)" fill="#71c1e8"/>
          </g>
          <g id="Grupo_1147783" data-name="Grupo 1147783" transform="translate(5.175 14.918)">
            <path id="Trazado_916744" data-name="Trazado 916744" d="M37.357,92a.606.606,0,0,1-.606-.606V71.041a.606.606,0,0,1,1.212,0V91.393A.606.606,0,0,1,37.357,92Zm0-22.777a.606.606,0,0,1-.606-.606v-.728a.606.606,0,0,1,1.212,0v.728A.606.606,0,0,1,37.357,69.222Z" transform="translate(-36.751 -67.282)" fill="#f8e5b0"/>
          </g>
          <g id="Grupo_1147784" data-name="Grupo 1147784" transform="translate(48.219 14.918)">
            <path id="Trazado_916745" data-name="Trazado 916745" d="M214.856,92a.606.606,0,0,1-.606-.606v-.728a.606.606,0,1,1,1.212,0v.728A.606.606,0,0,1,214.856,92Zm0-3.152a.606.606,0,0,1-.606-.606V67.888a.606.606,0,1,1,1.212,0V88.24A.606.606,0,0,1,214.856,88.846Z" transform="translate(-214.25 -67.282)" fill="#f8e5b0"/>
          </g>
        </g>
        <g id="Grupo_1147786" data-name="Grupo 1147786" transform="translate(0 0)">
          <circle id="Elipse_11575" data-name="Elipse 11575" cx="0.606" cy="0.606" r="0.606" transform="translate(33.472 59.285)"/>
          <path id="Trazado_916746" data-name="Trazado 916746" d="M218.413,187.357a.606.606,0,1,0,0,1.212h.989a.606.606,0,1,0,0-1.212Z" transform="translate(-168.12 -142.714)"/>
          <path id="Trazado_916747" data-name="Trazado 916747" d="M199.486,187.357a.606.606,0,1,0,0,1.212h.989a.606.606,0,1,0,0-1.212Z" transform="translate(-153.782 -142.714)"/>
          <path id="Trazado_916748" data-name="Trazado 916748" d="M68.729,16.441A3.035,3.035,0,0,0,65.7,13.409H57.534L55.191,9.352a1.4,1.4,0,0,0-1.917-.514l-1.622.936a16.511,16.511,0,0,0-5.284-3.129V4.666a1.4,1.4,0,0,0-1.4-1.4H36.673a1.4,1.4,0,0,0-1.4,1.4v1.98a16.513,16.513,0,0,0-5.284,3.129l-1.621-.936a1.4,1.4,0,0,0-1.917.514L24.1,13.409H15.941A3.035,3.035,0,0,0,12.91,16.44V50.361a3.035,3.035,0,0,0,3.031,3.031H35.576L35.032,58.5H31.255a2.347,2.347,0,0,0-2.344,2.344v.573a2.346,2.346,0,0,0,2.316,2.343l.028,0H44.563a.606.606,0,1,0,0-1.212H31.255a1.133,1.133,0,0,1-1.132-1.132v-.573a1.133,1.133,0,0,1,1.132-1.131H50.383a1.133,1.133,0,0,1,1.132,1.131v.573a1.133,1.133,0,0,1-1.132,1.132h-.97a.606.606,0,0,0,0,1.212h.97l.028,0a2.346,2.346,0,0,0,2.316-2.343v-.573A2.347,2.347,0,0,0,50.383,58.5H46.607l-.544-5.106H65.7a3.035,3.035,0,0,0,3.031-3.031h0V40.689a.606.606,0,0,0-1.212,0V50.36h0A1.821,1.821,0,0,1,65.7,52.18H15.941a1.821,1.821,0,0,1-1.819-1.819V16.441a1.821,1.821,0,0,1,1.819-1.819H23.4l-.783,1.356a1.4,1.4,0,0,0-.178.538H17.835a1.821,1.821,0,0,0-1.819,1.819V43.957a1.821,1.821,0,0,0,1.819,1.819H63.8a1.821,1.821,0,0,0,1.819-1.819V18.334A1.821,1.821,0,0,0,63.8,16.516H59.195a1.393,1.393,0,0,0-.178-.538l-.783-1.356H65.7a1.821,1.821,0,0,1,1.819,1.819h0v19.4a.606.606,0,0,0,1.212,0v-19.4h0ZM45.387,58.5H36.251l.544-5.106h8.048ZM27.5,9.958a.19.19,0,0,1,.261-.07l2,1.157a.607.607,0,0,0,.716-.081,15.261,15.261,0,0,1,5.587-3.311.606.606,0,0,0,.416-.576V4.666a.191.191,0,0,1,.191-.191h8.293a.191.191,0,0,1,.191.191V7.078a.606.606,0,0,0,.416.576,15.268,15.268,0,0,1,5.587,3.311.607.607,0,0,0,.716.081l2-1.157a.19.19,0,0,1,.26.07l3.825,6.626a.191.191,0,0,1-.07.261L55.9,18a.607.607,0,0,0-.288.661,15.3,15.3,0,0,1,0,6.814.606.606,0,0,0,.288.661l2,1.155a.191.191,0,0,1,.07.261l-3.825,6.626a.191.191,0,0,1-.261.07l-2-1.157a.606.606,0,0,0-.716.081,15.261,15.261,0,0,1-5.587,3.311.606.606,0,0,0-.416.576v2.411a.191.191,0,0,1-.191.191H36.673a.191.191,0,0,1-.191-.191V37.057a.606.606,0,0,0-.416-.576,15.268,15.268,0,0,1-5.587-3.311.606.606,0,0,0-.716-.081l-2,1.157a.19.19,0,0,1-.26-.07L23.672,27.55a.191.191,0,0,1,.07-.261l2-1.155a.607.607,0,0,0,.288-.661,15.3,15.3,0,0,1,0-6.814A.606.606,0,0,0,25.742,18l-2-1.155a.191.191,0,0,1-.07-.261ZM64.41,18.334V43.957a.607.607,0,0,1-.606.606H17.835a.607.607,0,0,1-.606-.606V18.334a.607.607,0,0,1,.606-.606H22.9a1.389,1.389,0,0,0,.231.167l1.618.934a16.529,16.529,0,0,0,0,6.476l-1.618.934a1.405,1.405,0,0,0-.514,1.917l3.825,6.626a1.4,1.4,0,0,0,1.917.514l1.622-.936a16.511,16.511,0,0,0,5.284,3.129v1.98a1.4,1.4,0,0,0,1.4,1.4h8.293a1.4,1.4,0,0,0,1.4-1.4v-1.98a16.513,16.513,0,0,0,5.284-3.129l1.621.936a1.4,1.4,0,0,0,1.917-.514l3.825-6.626a1.405,1.405,0,0,0-.514-1.917l-1.618-.934a16.529,16.529,0,0,0,0-6.476l1.618-.934a1.413,1.413,0,0,0,.231-.167H63.8a.607.607,0,0,1,.606.606Z" transform="translate(-12.91 -3.263)"/>
          <path id="Trazado_916749" data-name="Trazado 916749" d="M78.5,90.666a.614.614,0,0,0-.735-.444.6.6,0,0,0-.444.73v0a.607.607,0,0,0,1.179-.289Z" transform="translate(-61.692 -69.121)"/>
          <path id="Trazado_916750" data-name="Trazado 916750" d="M76.488,42.412h.022a.607.607,0,0,0,.582-.631c0-.146-.01-.3-.01-.463A11.425,11.425,0,0,1,88.508,29.889h0a11.429,11.429,0,0,1,0,22.857h-.006a11.489,11.489,0,0,1-10.32-6.526.62.62,0,0,0-.808-.286.606.606,0,0,0-.289.808A12.653,12.653,0,0,0,88.511,53.96h.009a12.641,12.641,0,0,0,0-25.281h-.006A12.642,12.642,0,0,0,75.87,41.318c0,.172,0,.344.012.512a.6.6,0,0,0,.606.582Z" transform="translate(-60.602 -22.514)"/>
          <path id="Trazado_916751" data-name="Trazado 916751" d="M238.7,145.106a.605.605,0,1,0,.606.6A.606.606,0,0,0,238.7,145.106Z" transform="translate(-183.484 -110.709)"/>
          <path id="Trazado_916752" data-name="Trazado 916752" d="M111.885,45.1h-5.226a.606.606,0,0,0-.606.606v7.7h-2.169a.607.607,0,0,0-.472.987L108,60.088h-3.649a.606.606,0,1,0,0,1.212h9.834a.606.606,0,0,0,0-1.212h-3.649l4.591-5.688a.607.607,0,0,0-.472-.987h-2.169v-7.7a.607.607,0,0,0-.606-.606Zm1.507,9.521-4.12,5.1-4.12-5.1h1.507a.606.606,0,0,0,.606-.606v-7.7h4.013v7.7a.606.606,0,0,0,.606.606h1.507Z" transform="translate(-81.363 -34.958)"/>
        </g>
      </g>
    </g>
  </g>
</svg>
