<svg xmlns="http://www.w3.org/2000/svg" xmlns:xlink="http://www.w3.org/1999/xlink" width="108" height="108" viewBox="0 0 108 108">
  <defs>
    <filter id="Trazado_904820" x="0" y="0" width="108" height="108" filterUnits="userSpaceOnUse">
      <feOffset dy="3" input="SourceAlpha"/>
      <feGaussianBlur stdDeviation="3" result="blur"/>
      <feFlood flood-opacity="0.161"/>
      <feComposite operator="in" in2="blur"/>
      <feComposite in="SourceGraphic"/>
    </filter>
  </defs>
  <g id="img9" transform="translate(9 6)">
    <g id="Icono">
      <g transform="matrix(1, 0, 0, 1, -9, -6)" filter="url(#Trazado_904820)">
        <g id="Trazado_904820-2" data-name="Trazado 904820" transform="translate(9 6)" fill="#f3f0ea">
          <path d="M 45 88.5 C 39.12687683105469 88.5 33.43022537231445 87.35007476806641 28.06830024719238 85.08217620849609 C 22.88852500915527 82.89131164550781 18.23629951477051 79.75458526611328 14.2408504486084 75.75914764404297 C 10.24541282653809 71.76370239257812 7.108687400817871 67.11147308349609 4.917825222015381 61.93170166015625 C 2.649924993515015 56.56977462768555 1.5 50.87312316894531 1.5 45 C 1.5 39.12687683105469 2.649924993515015 33.43022537231445 4.917825222015381 28.06830024719238 C 7.108687400817871 22.88852500915527 10.24541282653809 18.23629951477051 14.2408504486084 14.2408504486084 C 18.23629951477051 10.24541282653809 22.88852500915527 7.108687400817871 28.06830024719238 4.917825222015381 C 33.43022537231445 2.649924993515015 39.12687683105469 1.5 45 1.5 C 50.87312316894531 1.5 56.56977462768555 2.649924993515015 61.93170166015625 4.917825222015381 C 67.11147308349609 7.108687400817871 71.76370239257812 10.24541282653809 75.75914764404297 14.2408504486084 C 79.75458526611328 18.23629951477051 82.89131164550781 22.88852500915527 85.08217620849609 28.06830024719238 C 87.35007476806641 33.43022537231445 88.5 39.12687683105469 88.5 45 C 88.5 50.87312316894531 87.35007476806641 56.56977462768555 85.08217620849609 61.93170166015625 C 82.89131164550781 67.11147308349609 79.75458526611328 71.76370239257812 75.75914764404297 75.75914764404297 C 71.76370239257812 79.75458526611328 67.11147308349609 82.89131164550781 61.93170166015625 85.08217620849609 C 56.56977462768555 87.35007476806641 50.87312316894531 88.5 45 88.5 Z" stroke="none"/>
          <path d="M 45 3 C 39.32871246337891 3 33.82865524291992 4.110054016113281 28.65262985229492 6.299339294433594 C 23.65165710449219 8.414573669433594 19.15968322753906 11.44334411621094 15.301513671875 15.301513671875 C 11.44334411621094 19.15968322753906 8.414573669433594 23.65165710449219 6.299339294433594 28.65262985229492 C 4.110054016113281 33.82865524291992 3 39.32871246337891 3 45 C 3 50.67128753662109 4.110054016113281 56.17134475708008 6.299339294433594 61.34737396240234 C 8.414573669433594 66.34834289550781 11.44334411621094 70.84031677246094 15.301513671875 74.698486328125 C 19.15968322753906 78.55665588378906 23.65165710449219 81.58542633056641 28.65262985229492 83.70066070556641 C 33.82865524291992 85.88994598388672 39.32871246337891 87 45 87 C 50.67128753662109 87 56.17134475708008 85.88994598388672 61.34737396240234 83.70066070556641 C 66.34834289550781 81.58542633056641 70.84031677246094 78.55665588378906 74.698486328125 74.698486328125 C 78.55665588378906 70.84031677246094 81.58542633056641 66.34834289550781 83.70066070556641 61.34737396240234 C 85.88994598388672 56.17134475708008 87 50.67128753662109 87 45 C 87 39.32871246337891 85.88994598388672 33.82865524291992 83.70066070556641 28.65262985229492 C 81.58542633056641 23.65165710449219 78.55665588378906 19.15968322753906 74.698486328125 15.301513671875 C 70.84031677246094 11.44334411621094 66.34834289550781 8.414573669433594 61.34737396240234 6.299339294433594 C 56.17134475708008 4.110054016113281 50.67128753662109 3 45 3 M 45 0 C 69.85281372070312 0 90 20.14718627929688 90 45 C 90 69.85281372070312 69.85281372070312 90 45 90 C 20.14718627929688 90 0 69.85281372070312 0 45 C 0 20.14718627929688 20.14718627929688 0 45 0 Z" stroke="none" fill="#1d531a"/>
        </g>
      </g>
    </g>
    <g id="services_12002028" transform="translate(-5.595 11.026)">
      <g id="Grupo_1147823" data-name="Grupo 1147823" transform="translate(28.926 4.859)">
        <path id="Trazado_916927" data-name="Trazado 916927" d="M40.193,249.865l4.485,4.357a2.606,2.606,0,0,1,5.211,0V260.6a14.754,14.754,0,0,0,.955,5.349c1.855,5.031-1.1,7.73-1.437,12.472l-7.05,0H39.125c0-5.778.039-6.564-1.735-12.064l-2.3-7.125a4.144,4.144,0,0,1,.742-3.982l4.36-5.386Z" transform="translate(-34.873 -220.504)" fill="#ffcec0" fill-rule="evenodd"/>
        <path id="Trazado_916928" data-name="Trazado 916928" d="M102.678,11.845l9.014,9.014a2.6,2.6,0,0,1,.847,1.911V54.94H78.122V11h22.645a2.6,2.6,0,0,1,1.911.847Z" transform="translate(-72.806 -10.998)" fill="#e3f1ff" fill-rule="evenodd"/>
        <path id="Trazado_916929" data-name="Trazado 916929" d="M328.621,81.921l1.143,1.143a2.6,2.6,0,0,1,.847,1.911v32.17H329.29V83.854c0-.541-.156-1.9-2.534-1.933h1.865Z" transform="translate(-290.879 -73.203)" fill="#b6dbff" fill-rule="evenodd"/>
        <path id="Trazado_916930" data-name="Trazado 916930" d="M278.511,18.5l8.863,8.863a3,3,0,0,0-2.092-.848h-5.923V20.593a3,3,0,0,0-.848-2.092Z" transform="translate(-248.564 -17.579)" fill="#61a0e0" fill-rule="evenodd"/>
        <path id="Trazado_916931" data-name="Trazado 916931" d="M278.511,18.5l7.055,7.055a2.99,2.99,0,0,0-1.3-.3h-4.9V20.593A3,3,0,0,0,278.511,18.5Z" transform="translate(-248.564 -17.579)" fill="#7cb5ef" fill-rule="evenodd"/>
      </g>
      <rect id="Rectángulo_408084" data-name="Rectángulo 408084" width="11.452" height="6.177" rx="3.088" transform="translate(40.375 10.488)" fill="#2a92fa"/>
      <rect id="Rectángulo_408085" data-name="Rectángulo 408085" width="10.184" height="6.177" rx="3.088" transform="translate(40.375 10.488)" fill="#4eb1fc"/>
      <path id="Trazado_916932" data-name="Trazado 916932" d="M109.111,276.9l.389,14.026,5.02,0c.339-4.742,3.291-7.441,1.437-12.472A14.751,14.751,0,0,1,115,273.1v-6.383a2.606,2.606,0,1,0-5.211,0v7.692a5.269,5.269,0,0,1-.68,2.484Z" transform="translate(-71.06 -228.144)" fill="#ffcec0" fill-rule="evenodd"/>
      <path id="Trazado_916933" data-name="Trazado 916933" d="M132.014,290.924c.339-4.742,3.291-7.441,1.437-12.472a14.751,14.751,0,0,1-.955-5.349v-6.383a2.613,2.613,0,0,0-2.606-2.606,2.582,2.582,0,0,0-.834.138,2.616,2.616,0,0,1,1.772,2.468V273.1a14.751,14.751,0,0,0,.955,5.349c1.855,5.031-1.1,7.729-1.437,12.471h1.667Z" transform="translate(-88.553 -228.144)" fill="#fdb0a0" fill-rule="evenodd"/>
      <rect id="Rectángulo_408086" data-name="Rectángulo 408086" width="13.881" height="5.999" rx="2.999" transform="translate(31.64 59.089)" fill="#4eb1fc"/>
      <path id="Trazado_916934" data-name="Trazado 916934" d="M145.777,458.191h1.51a1.457,1.457,0,0,0,1.452-1.452v-3.094a1.456,1.456,0,0,0-1.452-1.452h-1.51Z" transform="translate(-103.219 -393.103)" fill="#2a92fa" fill-rule="evenodd"/>
      <path id="Trazado_916935" data-name="Trazado 916935" d="M249.352,270.891a5.579,5.579,0,0,1-7.593,6.584l3.156-3.156-.615-2.3-2.3-.615-3.156,3.156a5.579,5.579,0,0,1,6.584-7.593l11.311-11.311a5.579,5.579,0,0,1,7.593-6.584l-3.156,3.156.615,2.3,2.3.615,3.156-3.156a5.579,5.579,0,0,1-6.584,7.593l-11.311,11.311Z" transform="translate(-184.451 -214.554)" fill="#909cd1" fill-rule="evenodd"/>
      <path id="Trazado_916936" data-name="Trazado 916936" d="M249.353,277.9l-.982.982a4.571,4.571,0,0,1-6.611,5.6l2.174-2.174.982-.982-.615-2.3-2.3-.615-3.156,3.156a4.571,4.571,0,0,1,5.6-6.611l.982-.982,10.329-10.329.982-.982a4.571,4.571,0,0,1,6.611-5.6l-2.174,2.174-.982.982.615,2.3,2.3.615,3.156-3.156a4.571,4.571,0,0,1-5.6,6.61l-.982.982L249.353,277.9Z" transform="translate(-184.452 -221.562)" fill="#bcbee2" fill-rule="evenodd"/>
      <path id="Trazado_916937" data-name="Trazado 916937" d="M83.588,37.092a.859.859,0,0,0-1.4-.267l-2.805,2.8-1.336-.358-.358-1.336,2.8-2.8a.86.86,0,0,0-.267-1.4,6.438,6.438,0,0,0-8.878,7.1L60.711,51.473a6.438,6.438,0,0,0-7.1,8.878.861.861,0,0,0,1.4.268l2.805-2.8,1.336.357.358,1.337-2.8,2.8a.861.861,0,0,0,.267,1.4,6.44,6.44,0,0,0,8.879-7.1l4.371-4.371A.861.861,0,0,0,69,51.022L64.3,55.728a.859.859,0,0,0-.223.834,4.722,4.722,0,0,1-5.11,5.925l2.113-2.113a.859.859,0,0,0,.222-.831l-.614-2.3a.864.864,0,0,0-.608-.608l-2.3-.614a.865.865,0,0,0-.831.222l-2.113,2.113a4.722,4.722,0,0,1,5.925-5.111.859.859,0,0,0,.833-.222L72.9,41.714a.862.862,0,0,0,.222-.833,4.722,4.722,0,0,1,5.11-5.925l-2.113,2.113a.86.86,0,0,0-.222.831l.614,2.3a.863.863,0,0,0,.608.608l2.3.615a.859.859,0,0,0,.831-.223l2.113-2.113a4.722,4.722,0,0,1-5.925,5.11.861.861,0,0,0-.833.223l-4.225,4.224A.86.86,0,1,0,72.6,49.859l3.89-3.889a6.439,6.439,0,0,0,7.1-8.878ZM47.815,15.8a.861.861,0,0,0,0,1.721h4.044a.859.859,0,0,0,.86-.86V10.488a.861.861,0,0,0-.86-.86H40.407a.862.862,0,0,0-.86.86v6.177a.861.861,0,0,0,.86.86h4.044a.861.861,0,0,0,0-1.721H41.268V11.348H51V15.8ZM32.287,50.432a27.057,27.057,0,0,1,1.721,7.789h9.63c.04-.124.081-.251.121-.373.77-2.346,1.434-4.371.37-7.258a15.65,15.65,0,0,1-1.009-5.653V38.547a1.748,1.748,0,1,0-3.5,0v7.7c0,.02,0,.039,0,.059a6.028,6.028,0,0,1-.815,2.892.859.859,0,0,1-.723.4h-3.81a.861.861,0,0,1-.86-.86V36.616l-2.836,3.5a3.3,3.3,0,0,0-.592,3.182l2.3,7.131Zm14.135,10.1v3.1a2.318,2.318,0,0,1-2.316,2.315H38.381a.861.861,0,0,1,0-1.721h5.726a.6.6,0,0,0,.595-.594v-3.1a.594.594,0,0,0-.595-.594H33.115a.594.594,0,0,0-.594.594v3.1a.6.6,0,0,0,.594.594h1.9a.861.861,0,0,1,0,1.721h-1.9A2.317,2.317,0,0,1,30.8,63.634v-3.1a2.314,2.314,0,0,1,1.492-2.161c-.11-2.252-.453-3.725-1.644-7.415l-2.3-7.131a5.036,5.036,0,0,1,.892-4.792l4.173-5.155V20.757a.86.86,0,1,1,1.721,0V47.874h2.429a5.413,5.413,0,0,0,.34-1.657v-7.67a3.467,3.467,0,0,1,6.09-2.268H62.506a.861.861,0,0,1,0,1.721H44.8a3.466,3.466,0,0,1,.043.547v2.9H62.506a.861.861,0,0,1,0,1.721H44.842v1.765a14.2,14.2,0,0,0,.289,2.938H60.138a.86.86,0,1,1,0,1.721H45.6c.044.132.092.264.142.4,1.271,3.45.447,5.961-.35,8.39l-.063.192a2.314,2.314,0,0,1,1.09,1.96ZM64.794,12.923,60.575,8.7v4.219ZM33.415,17.392V4.859a.86.86,0,0,1,.86-.86H56.884a3.455,3.455,0,0,1,2.522,1.1L68.4,14.092a3.459,3.459,0,0,1,1.1,2.521V39.532a.86.86,0,0,1-1.721,0V16.613a1.73,1.73,0,0,0-.582-1.289l-.011-.011-.065-.065a2.135,2.135,0,0,0-1.491-.6H59.716a.86.86,0,0,1-.861-.86V7.87a2.135,2.135,0,0,0-.6-1.49l-.066-.066L58.174,6.3a1.732,1.732,0,0,0-1.29-.582H35.135V17.392a.86.86,0,1,1-1.721,0Zm29.092,8.544h-22.1a.861.861,0,0,0,0,1.721h22.1a.861.861,0,0,0,0-1.721Zm0,5.172a.861.861,0,0,1,0,1.721h-22.1a.861.861,0,0,1,0-1.721Zm.86-9.483a.86.86,0,0,0-.86-.86h-22.1a.861.861,0,0,0,0,1.721h22.1A.861.861,0,0,0,63.367,21.625Z" transform="translate(0 0)" fill-rule="evenodd"/>
    </g>
  </g>
</svg>
